G04*
G04 #@! TF.GenerationSoftware,Altium Limited,Altium Designer,21.1.1 (26)*
G04*
G04 Layer_Physical_Order=1*
G04 Layer_Color=255*
%FSLAX43Y43*%
%MOMM*%
G71*
G04*
G04 #@! TF.SameCoordinates,37E81C00-8B6F-4B96-ABBB-DCCB29EF6B03*
G04*
G04*
G04 #@! TF.FilePolarity,Positive*
G04*
G01*
G75*
%ADD12C,0.254*%
%ADD14R,1.020X0.940*%
%ADD15R,0.300X0.800*%
%ADD16R,0.800X0.300*%
%ADD17R,3.800X3.800*%
%ADD18R,1.702X5.842*%
%ADD19R,1.270X5.842*%
%ADD20R,0.930X0.870*%
G04:AMPARAMS|DCode=21|XSize=0.94mm|YSize=1.02mm|CornerRadius=0mm|HoleSize=0mm|Usage=FLASHONLY|Rotation=45.000|XOffset=0mm|YOffset=0mm|HoleType=Round|Shape=Rectangle|*
%AMROTATEDRECTD21*
4,1,4,0.028,-0.693,-0.693,0.028,-0.028,0.693,0.693,-0.028,0.028,-0.693,0.0*
%
%ADD21ROTATEDRECTD21*%

%ADD22R,0.940X1.020*%
%ADD23R,4.000X4.000*%
%ADD24R,0.870X0.930*%
%ADD25R,5.842X1.702*%
%ADD26R,5.842X1.270*%
%ADD27R,2.350X2.210*%
G04:AMPARAMS|DCode=28|XSize=0.87mm|YSize=0.93mm|CornerRadius=0mm|HoleSize=0mm|Usage=FLASHONLY|Rotation=315.000|XOffset=0mm|YOffset=0mm|HoleType=Round|Shape=Rectangle|*
%AMROTATEDRECTD28*
4,1,4,-0.636,-0.021,0.021,0.636,0.636,0.021,-0.021,-0.636,-0.636,-0.021,0.0*
%
%ADD28ROTATEDRECTD28*%

G04:AMPARAMS|DCode=29|XSize=0.87mm|YSize=0.93mm|CornerRadius=0mm|HoleSize=0mm|Usage=FLASHONLY|Rotation=45.000|XOffset=0mm|YOffset=0mm|HoleType=Round|Shape=Rectangle|*
%AMROTATEDRECTD29*
4,1,4,0.021,-0.636,-0.636,0.021,-0.021,0.636,0.636,-0.021,0.021,-0.636,0.0*
%
%ADD29ROTATEDRECTD29*%

%ADD30C,4.000*%
%ADD31C,1.600*%
%ADD32R,1.600X2.500*%
%ADD33O,1.600X2.500*%
%ADD34C,1.500*%
%ADD35C,0.600*%
%ADD36C,0.800*%
%ADD37C,1.000*%
%ADD38C,0.293*%
%ADD39C,1.000*%
%ADD40C,0.800*%
%ADD41C,0.400*%
%ADD42C,0.600*%
%ADD43C,0.300*%
G36*
X119986Y105194D02*
X120477Y105045D01*
X120930Y104803D01*
X121327Y104477D01*
X121653Y104080D01*
X121895Y103627D01*
X122044Y103136D01*
X122086Y102706D01*
Y56169D01*
X122044Y55739D01*
X121895Y55248D01*
X121653Y54795D01*
X121327Y54398D01*
X120930Y54072D01*
X120477Y53830D01*
X119986Y53681D01*
X119500Y53634D01*
X119475Y53638D01*
X41652Y53638D01*
X41525Y53638D01*
X41525Y53639D01*
X41400Y53644D01*
X41014Y53682D01*
X40523Y53831D01*
X40070Y54073D01*
X39673Y54398D01*
X39347Y54795D01*
X39105Y55248D01*
X38956Y55739D01*
X38910Y56208D01*
X38913Y56225D01*
X38913Y84362D01*
X38961Y84410D01*
Y103221D01*
X39084Y103627D01*
X39326Y104080D01*
X39652Y104477D01*
X40049Y104803D01*
X40501Y105045D01*
X40993Y105194D01*
X41459Y105240D01*
X41475Y105237D01*
X119475Y105237D01*
X119500Y105241D01*
X119986Y105194D01*
D02*
G37*
%LPC*%
G36*
X104467Y97082D02*
X104189D01*
X103921Y97011D01*
X103681Y96872D01*
X103497Y96688D01*
X99078D01*
X98908Y96666D01*
X98749Y96600D01*
X98612Y96495D01*
X84202Y82085D01*
X82564D01*
Y82189D01*
X81116D01*
Y80661D01*
X82564D01*
Y80765D01*
X84475D01*
X84646Y80788D01*
X84805Y80854D01*
X84941Y80959D01*
X99352Y95369D01*
X103497D01*
X103681Y95185D01*
X103921Y95046D01*
X104189Y94974D01*
X104467D01*
X104735Y95046D01*
X104975Y95185D01*
X105171Y95381D01*
X105310Y95622D01*
X105382Y95890D01*
Y96167D01*
X105310Y96435D01*
X105171Y96676D01*
X104975Y96872D01*
X104735Y97011D01*
X104467Y97082D01*
D02*
G37*
G36*
X106967Y94542D02*
X106689D01*
X106421Y94471D01*
X106181Y94332D01*
X105984Y94136D01*
X105846Y93895D01*
X105774Y93627D01*
Y93350D01*
X105846Y93082D01*
X105984Y92841D01*
X106181Y92645D01*
X106421Y92506D01*
X106689Y92434D01*
X106967D01*
X107235Y92506D01*
X107475Y92645D01*
X107671Y92841D01*
X107810Y93082D01*
X107882Y93350D01*
Y93627D01*
X107810Y93895D01*
X107671Y94136D01*
X107475Y94332D01*
X107235Y94471D01*
X106967Y94542D01*
D02*
G37*
G36*
X104467Y89462D02*
X104189D01*
X103921Y89391D01*
X103681Y89252D01*
X103497Y89068D01*
X95958D01*
X95788Y89046D01*
X95629Y88980D01*
X95492Y88875D01*
X81436Y74819D01*
X80931D01*
Y74775D01*
X80399D01*
Y74864D01*
X78951D01*
Y73336D01*
X80399D01*
Y73455D01*
X80931D01*
Y73441D01*
X82369D01*
Y73886D01*
X96232Y87749D01*
X103497D01*
X103681Y87565D01*
X103921Y87426D01*
X104189Y87354D01*
X104467D01*
X104735Y87426D01*
X104975Y87565D01*
X105171Y87761D01*
X105310Y88002D01*
X105382Y88270D01*
Y88547D01*
X105310Y88815D01*
X105171Y89056D01*
X104975Y89252D01*
X104735Y89391D01*
X104467Y89462D01*
D02*
G37*
G36*
X59510Y104415D02*
X58240D01*
X58128Y104393D01*
X58101Y104375D01*
X57986D01*
Y104260D01*
X57968Y104233D01*
X57946Y104121D01*
Y98279D01*
X57968Y98167D01*
X57986Y98140D01*
Y98025D01*
X58101D01*
X58128Y98007D01*
X58240Y97985D01*
X58422D01*
Y94252D01*
X58422Y94252D01*
X58425Y94238D01*
X58425Y94236D01*
X58465Y93508D01*
X58470Y93492D01*
X58469Y93475D01*
X58591Y92757D01*
X58597Y92741D01*
X58599Y92724D01*
X58800Y92024D01*
X58808Y92009D01*
X58811Y91993D01*
X59090Y91320D01*
X59099Y91306D01*
X59104Y91290D01*
X59457Y90652D01*
X59468Y90639D01*
X59475Y90624D01*
X59896Y90030D01*
X59908Y90018D01*
X59917Y90004D01*
X60402Y89461D01*
X60405Y89459D01*
X60412Y89447D01*
X60412Y89447D01*
X60413Y89447D01*
X60413Y89447D01*
X60413Y89447D01*
X65080Y84779D01*
X65071Y84765D01*
X65045Y84704D01*
X64922Y84580D01*
X64963Y84539D01*
X64962Y84533D01*
X64830Y84485D01*
X64829Y84487D01*
X64406Y84065D01*
X64947Y83525D01*
X65487Y82984D01*
X65909Y83406D01*
X65908Y83408D01*
X65955Y83540D01*
X65961Y83541D01*
X66002Y83500D01*
X66126Y83623D01*
X66187Y83648D01*
X66202Y83658D01*
X66629Y83231D01*
X66478Y83080D01*
X66670Y82888D01*
X66668Y82880D01*
X66690Y82768D01*
X66754Y82672D01*
X67369Y82057D01*
X67465Y81994D01*
X67577Y81971D01*
X67585Y81973D01*
X68291Y81267D01*
Y79979D01*
X67827D01*
Y79325D01*
X67700D01*
Y79198D01*
X67296D01*
Y79029D01*
X67127D01*
Y78625D01*
X67000D01*
Y78498D01*
X66346D01*
Y78078D01*
X64034D01*
Y78090D01*
X64012Y78202D01*
X63994Y78229D01*
Y78344D01*
X63879D01*
X63852Y78362D01*
X63740Y78384D01*
X62870D01*
X62758Y78362D01*
X62731Y78344D01*
X62319D01*
X62292Y78362D01*
X62180Y78384D01*
X61310D01*
X61198Y78362D01*
X61171Y78344D01*
X61056D01*
Y78229D01*
X61038Y78202D01*
X61016Y78090D01*
Y78068D01*
X60283D01*
X60264Y78115D01*
Y78289D01*
X60090D01*
X60028Y78314D01*
X59916Y78337D01*
X59084D01*
X58972Y78314D01*
X58910Y78289D01*
X58736D01*
Y78115D01*
X58717Y78068D01*
X58271D01*
X58264Y78103D01*
X58239Y78165D01*
Y78339D01*
X58065D01*
X58003Y78364D01*
X57891Y78387D01*
X57139D01*
X57027Y78364D01*
X56965Y78339D01*
X56485D01*
X56423Y78364D01*
X56311Y78387D01*
X55559D01*
X55447Y78364D01*
X55385Y78339D01*
X55211D01*
Y78165D01*
X55186Y78103D01*
X55176Y78053D01*
X46090D01*
Y78210D01*
X46068Y78322D01*
X46050Y78349D01*
Y78464D01*
X45935D01*
X45908Y78482D01*
X45796Y78504D01*
X39954D01*
X39842Y78482D01*
X39815Y78464D01*
X39700D01*
Y78349D01*
X39682Y78322D01*
X39660Y78210D01*
Y76940D01*
X39682Y76828D01*
X39700Y76801D01*
Y76686D01*
X39815D01*
X39842Y76668D01*
X39954Y76646D01*
X45796D01*
X45908Y76668D01*
X45935Y76686D01*
X46050D01*
Y76801D01*
X46068Y76828D01*
X46090Y76940D01*
Y77147D01*
X55166D01*
X55186Y77047D01*
X55211Y76985D01*
Y76811D01*
X55385D01*
X55447Y76786D01*
X55559Y76763D01*
X56311D01*
X56423Y76786D01*
X56485Y76811D01*
X56965D01*
X57027Y76786D01*
X57139Y76763D01*
X57891D01*
X58003Y76786D01*
X58065Y76811D01*
X58239D01*
Y76985D01*
X58264Y77047D01*
X58287Y77159D01*
Y77162D01*
X58694D01*
X58711Y77077D01*
X58736Y77015D01*
Y76841D01*
X58794D01*
X58798Y76836D01*
X58738Y76709D01*
X58736D01*
Y76112D01*
X59500D01*
X60264D01*
Y76709D01*
X60262D01*
X60202Y76836D01*
X60206Y76841D01*
X60264D01*
Y77015D01*
X60289Y77077D01*
X60306Y77162D01*
X61016D01*
Y77160D01*
X61038Y77048D01*
X61056Y77021D01*
Y76906D01*
X61171D01*
X61198Y76888D01*
X61310Y76866D01*
X62180D01*
X62292Y76888D01*
X62319Y76906D01*
X62731D01*
X62758Y76888D01*
X62870Y76866D01*
X63740D01*
X63852Y76888D01*
X63879Y76906D01*
X63994D01*
Y77021D01*
X64012Y77048D01*
X64034Y77160D01*
Y77172D01*
X66346D01*
Y76752D01*
X67000D01*
Y76498D01*
X66346D01*
Y76252D01*
X67000D01*
Y75998D01*
X66346D01*
Y75752D01*
X67000D01*
Y75498D01*
X66346D01*
Y75252D01*
X67000D01*
Y75125D01*
X67127D01*
Y74721D01*
X67296D01*
Y74587D01*
X67248Y74578D01*
X67162Y74520D01*
X64602D01*
X64599Y74524D01*
X64565Y74550D01*
X64534Y74581D01*
X64497Y74602D01*
X64462Y74629D01*
X64422Y74645D01*
X64385Y74667D01*
X64343Y74678D01*
X64303Y74695D01*
X64260Y74700D01*
X64219Y74712D01*
X64175D01*
X64132Y74717D01*
X64090Y74712D01*
X64046D01*
X64005Y74700D01*
X63962Y74695D01*
X63922Y74678D01*
X63880Y74667D01*
X63843Y74645D01*
X63803Y74629D01*
X63768Y74602D01*
X63731Y74581D01*
X63700Y74550D01*
X63666Y74524D01*
X63599Y74456D01*
X63494Y74320D01*
X63428Y74161D01*
X63405Y73990D01*
Y73549D01*
X63281D01*
Y73540D01*
X62794D01*
Y73569D01*
X61356D01*
Y72191D01*
X62794D01*
Y72220D01*
X63281D01*
Y72171D01*
X64719D01*
Y72852D01*
X64725Y72895D01*
Y73595D01*
X67332D01*
X67332Y73595D01*
X67375Y73603D01*
X67518Y73502D01*
X67522Y73474D01*
X64836Y70789D01*
X64719Y70838D01*
Y71173D01*
X64127D01*
Y70611D01*
X64492D01*
X64541Y70494D01*
X64206Y70159D01*
X61175D01*
X61019Y70127D01*
X60886Y70039D01*
X60177Y69329D01*
X60088Y69197D01*
X60059Y69052D01*
X59454D01*
Y68904D01*
X59130D01*
Y69040D01*
X57692D01*
Y67662D01*
X59130D01*
Y67774D01*
X59454D01*
Y67604D01*
X60982D01*
Y68979D01*
X61344Y69341D01*
X64006D01*
X64074Y69214D01*
X64061Y69195D01*
X64035Y69064D01*
X63311D01*
Y68923D01*
X62930D01*
Y69065D01*
X61492D01*
Y67687D01*
X62930D01*
Y67793D01*
X63311D01*
Y67616D01*
X64839D01*
Y68624D01*
X64847Y68663D01*
Y68869D01*
X65208Y69231D01*
X65316Y69159D01*
X65296Y69110D01*
Y68890D01*
X65380Y68686D01*
X65536Y68530D01*
X65740Y68446D01*
X65960D01*
X66164Y68530D01*
X66320Y68686D01*
X66404Y68890D01*
Y69110D01*
X66320Y69314D01*
X66317Y69316D01*
Y69464D01*
X66579Y69726D01*
X66704Y69671D01*
X66780Y69486D01*
X66936Y69330D01*
X67140Y69246D01*
X67360D01*
X67564Y69330D01*
X67720Y69486D01*
X67804Y69690D01*
Y69910D01*
X67768Y69998D01*
Y70040D01*
X69864Y72136D01*
X69981Y72087D01*
Y71294D01*
X69963Y71267D01*
X69941Y71155D01*
Y70285D01*
X69963Y70173D01*
X69981Y70146D01*
Y70031D01*
X70096D01*
X70123Y70013D01*
X70235Y69991D01*
X70247D01*
Y60490D01*
X70010D01*
X69898Y60468D01*
X69872Y60450D01*
X69757D01*
Y60335D01*
X69739Y60308D01*
X69717Y60196D01*
Y54354D01*
X69739Y54242D01*
X69757Y54215D01*
Y54100D01*
X69872D01*
X69898Y54082D01*
X70010Y54060D01*
X71281D01*
X71393Y54082D01*
X71419Y54100D01*
X71535D01*
Y54215D01*
X71552Y54242D01*
X71574Y54354D01*
Y60196D01*
X71552Y60308D01*
X71535Y60335D01*
Y60450D01*
X71419D01*
X71393Y60468D01*
X71281Y60490D01*
X71153D01*
Y69991D01*
X71165D01*
X71277Y70013D01*
X71304Y70031D01*
X71419D01*
Y70146D01*
X71437Y70173D01*
X71459Y70285D01*
Y71155D01*
X71437Y71267D01*
X71419Y71294D01*
Y72969D01*
X71109D01*
Y73771D01*
X71604D01*
Y74298D01*
X71200D01*
Y74552D01*
X71604D01*
Y74721D01*
X71773D01*
Y75125D01*
X71900D01*
Y75252D01*
X72554D01*
Y75498D01*
X71900D01*
Y75752D01*
X72554D01*
Y76216D01*
X72756D01*
X75131Y73841D01*
X75131Y73841D01*
X75264Y73753D01*
X75420Y73721D01*
X75531Y73678D01*
Y73441D01*
X76969D01*
Y73550D01*
X77371D01*
Y73336D01*
X78819D01*
Y74864D01*
X77371D01*
Y74680D01*
X76969D01*
Y74819D01*
X75531D01*
Y74763D01*
X75414Y74714D01*
X73558Y76570D01*
X73607Y76692D01*
X73698Y76697D01*
X73709Y76684D01*
X73743Y76657D01*
X73773Y76627D01*
X73811Y76605D01*
X73845Y76579D01*
X73885Y76562D01*
X73923Y76541D01*
X73964Y76529D01*
X74004Y76513D01*
X74047Y76507D01*
X74089Y76496D01*
X74132D01*
X74175Y76490D01*
X75583D01*
Y75354D01*
X76961D01*
Y76792D01*
X76952D01*
Y76954D01*
X76981D01*
Y78392D01*
X75603D01*
Y77917D01*
X75496Y77810D01*
X74175D01*
X74132Y77804D01*
X74089D01*
X74047Y77793D01*
X74004Y77787D01*
X73965Y77771D01*
X73923Y77759D01*
X73885Y77738D01*
X73845Y77721D01*
X73811Y77695D01*
X73773Y77673D01*
X73743Y77643D01*
X73709Y77616D01*
X73682Y77582D01*
X73652Y77552D01*
X73643Y77537D01*
X73481D01*
X73432Y77654D01*
X74969Y79191D01*
X75596D01*
Y78836D01*
X77044D01*
Y80364D01*
X76887D01*
Y80521D01*
X77014D01*
Y81959D01*
X75636D01*
Y80521D01*
X75758D01*
Y80364D01*
X75596D01*
Y80009D01*
X74800D01*
X74644Y79977D01*
X74511Y79889D01*
X72681Y78059D01*
X72554Y78094D01*
Y78498D01*
X71900D01*
Y78625D01*
X71773D01*
Y79029D01*
X71604D01*
Y79198D01*
X71200D01*
Y79452D01*
X71604D01*
Y79979D01*
X71109D01*
Y81242D01*
X71819Y81952D01*
X71930Y81991D01*
X71934Y81992D01*
X72029Y82056D01*
X72644Y82671D01*
X72708Y82766D01*
X72727Y82860D01*
X72922Y83055D01*
X72779Y83199D01*
X78613Y89032D01*
X78613Y89032D01*
X78620Y89044D01*
X78623Y89046D01*
X79108Y89589D01*
X79117Y89603D01*
X79129Y89615D01*
X79550Y90209D01*
X79557Y90224D01*
X79568Y90237D01*
X79921Y90875D01*
X79926Y90891D01*
X79935Y90905D01*
X80214Y91578D01*
X80217Y91594D01*
X80225Y91609D01*
X80426Y92310D01*
X80428Y92326D01*
X80434Y92342D01*
X80556Y93060D01*
X80555Y93077D01*
X80560Y93093D01*
X80600Y93821D01*
X80600Y93823D01*
X80603Y93837D01*
X80603Y93837D01*
X80603Y93837D01*
X80603Y97960D01*
X80760D01*
X80872Y97982D01*
X80899Y98000D01*
X81014D01*
Y98115D01*
X81032Y98142D01*
X81054Y98254D01*
Y104096D01*
X81032Y104208D01*
X81014Y104235D01*
Y104350D01*
X80899D01*
X80872Y104368D01*
X80760Y104390D01*
X79490D01*
X79378Y104368D01*
X79351Y104350D01*
X79236D01*
Y104235D01*
X79218Y104208D01*
X79196Y104096D01*
Y98254D01*
X79218Y98142D01*
X79236Y98115D01*
Y98000D01*
X79351D01*
X79378Y97982D01*
X79490Y97960D01*
X79697D01*
X79697Y93837D01*
X79697Y93837D01*
X79697Y93837D01*
X79704Y93803D01*
X79669Y93177D01*
X79558Y92525D01*
X79375Y91889D01*
X79122Y91278D01*
X78802Y90699D01*
X78419Y90160D01*
X78001Y89692D01*
X77972Y89673D01*
X72139Y83839D01*
X71905Y84072D01*
X71590Y83757D01*
X71571Y83744D01*
X70956Y83129D01*
X70931Y83098D01*
X70931Y83098D01*
X70846Y83004D01*
X70802Y82969D01*
X70802D01*
X69828Y81995D01*
X70291Y81531D01*
Y79979D01*
X69827D01*
Y79325D01*
X69573D01*
Y79979D01*
X69109D01*
Y81556D01*
X69572Y82020D01*
X68598Y82994D01*
X68598D01*
X68550Y83024D01*
X68469Y83123D01*
Y83123D01*
X67495Y84097D01*
X67269Y83871D01*
X66847Y84293D01*
X66878Y84339D01*
X66903Y84400D01*
X67026Y84524D01*
X66903Y84647D01*
X66878Y84708D01*
X66814Y84803D01*
X66814Y84803D01*
X66226Y85392D01*
X66226Y85392D01*
X66130Y85455D01*
X66069Y85481D01*
X65946Y85604D01*
X65822Y85481D01*
X65761Y85455D01*
X65715Y85425D01*
X61053Y90088D01*
X61024Y90107D01*
X60606Y90575D01*
X60223Y91114D01*
X59903Y91693D01*
X59650Y92304D01*
X59467Y92940D01*
X59356Y93592D01*
X59321Y94218D01*
X59328Y94252D01*
Y97985D01*
X59510D01*
X59622Y98007D01*
X59649Y98025D01*
X59764D01*
Y98140D01*
X59782Y98167D01*
X59804Y98279D01*
Y104121D01*
X59782Y104233D01*
X59764Y104260D01*
Y104375D01*
X59649D01*
X59622Y104393D01*
X59510Y104415D01*
D02*
G37*
G36*
X97279Y83159D02*
X97254Y83154D01*
X97228Y83154D01*
X97088Y83126D01*
X97064Y83116D01*
X97039Y83111D01*
X96907Y83057D01*
X96886Y83043D01*
X96863Y83033D01*
X96744Y82953D01*
X96726Y82935D01*
X96705Y82921D01*
X96604Y82820D01*
X96590Y82799D01*
X96572Y82781D01*
X96492Y82662D01*
X96482Y82639D01*
X96468Y82618D01*
X96414Y82486D01*
X96409Y82461D01*
X96399Y82437D01*
X96380Y82343D01*
Y82328D01*
X96376Y82313D01*
X96367Y82195D01*
X96368Y82185D01*
X96366Y82175D01*
X96366Y77776D01*
X96371Y77751D01*
Y77726D01*
X96400Y77581D01*
X96410Y77557D01*
X96415Y77532D01*
X96471Y77396D01*
X96485Y77374D01*
X96495Y77351D01*
X96577Y77228D01*
X96595Y77210D01*
X96609Y77189D01*
X96714Y77084D01*
X96735Y77070D01*
X96753Y77052D01*
X96876Y76970D01*
X96899Y76960D01*
X96921Y76946D01*
X97057Y76890D01*
X97082Y76885D01*
X97106Y76875D01*
X97251Y76846D01*
X97276D01*
X97301Y76841D01*
X99346D01*
Y76841D01*
X102204D01*
Y76841D01*
X111169Y76841D01*
X111281Y76804D01*
X111281Y76714D01*
Y76242D01*
X112000D01*
X112719D01*
Y76714D01*
X112719Y76804D01*
X112831Y76841D01*
X119115D01*
X119214Y76861D01*
X119379Y76929D01*
X119379Y76929D01*
X119463Y76985D01*
X119463Y76985D01*
X119590Y77112D01*
X119646Y77196D01*
X119714Y77361D01*
X119734Y77460D01*
Y77550D01*
X119734Y77550D01*
X119734Y82350D01*
X119734Y82459D01*
X119714Y82558D01*
X119631Y82761D01*
X119574Y82845D01*
X119574Y82845D01*
X119420Y82999D01*
X119420Y82999D01*
X119336Y83056D01*
X119134Y83139D01*
X119034Y83159D01*
X118925Y83159D01*
X118925Y83159D01*
X97350D01*
X97279Y83159D01*
D02*
G37*
G36*
X64227Y83885D02*
X63805Y83463D01*
X64255Y83013D01*
X64677Y83435D01*
X64227Y83885D01*
D02*
G37*
G36*
X64857Y83255D02*
X64435Y82833D01*
X64885Y82383D01*
X65307Y82805D01*
X64857Y83255D01*
D02*
G37*
G36*
X78574Y81959D02*
X78012D01*
Y81367D01*
X78574D01*
Y81959D01*
D02*
G37*
G36*
X77758D02*
X77196D01*
Y81367D01*
X77758D01*
Y81959D01*
D02*
G37*
G36*
X78574Y81113D02*
X78012D01*
Y80521D01*
X78574D01*
Y81113D01*
D02*
G37*
G36*
X77758D02*
X77196D01*
Y80521D01*
X77758D01*
Y81113D01*
D02*
G37*
G36*
X80984Y82189D02*
X79536D01*
Y80661D01*
X79550D01*
Y80364D01*
X79436D01*
Y80310D01*
X78624D01*
Y80364D01*
X77176D01*
Y78836D01*
X78624D01*
Y78990D01*
X79436D01*
Y78836D01*
X80884D01*
Y80364D01*
X80870D01*
Y80661D01*
X80984D01*
Y82189D01*
D02*
G37*
G36*
X82464Y80364D02*
X81867D01*
Y79727D01*
X82464D01*
Y80364D01*
D02*
G37*
G36*
X81613D02*
X81016D01*
Y79727D01*
X81613D01*
Y80364D01*
D02*
G37*
G36*
X67573Y79979D02*
X67296D01*
Y79452D01*
X67573D01*
Y79979D01*
D02*
G37*
G36*
X82464Y79473D02*
X81867D01*
Y78836D01*
X82464D01*
Y79473D01*
D02*
G37*
G36*
X81613D02*
X81016D01*
Y78836D01*
X81613D01*
Y79473D01*
D02*
G37*
G36*
X66873Y79029D02*
X66346D01*
Y78752D01*
X66873D01*
Y79029D01*
D02*
G37*
G36*
X72554D02*
X72027D01*
Y78752D01*
X72554D01*
Y79029D01*
D02*
G37*
G36*
X78541Y78392D02*
X77979D01*
Y77800D01*
X78541D01*
Y78392D01*
D02*
G37*
G36*
X77725D02*
X77163D01*
Y77800D01*
X77725D01*
Y78392D01*
D02*
G37*
G36*
X78541Y77546D02*
X77979D01*
Y76954D01*
X78541D01*
Y77546D01*
D02*
G37*
G36*
X77725D02*
X77163D01*
Y76954D01*
X77725D01*
Y77546D01*
D02*
G37*
G36*
X78521Y76792D02*
X77959D01*
Y76200D01*
X78521D01*
Y76792D01*
D02*
G37*
G36*
X77705D02*
X77143D01*
Y76200D01*
X77705D01*
Y76792D01*
D02*
G37*
G36*
X112719Y75988D02*
X112127D01*
Y75426D01*
X112719D01*
Y75988D01*
D02*
G37*
G36*
X111873D02*
X111281D01*
Y75426D01*
X111873D01*
Y75988D01*
D02*
G37*
G36*
X78521Y75946D02*
X77959D01*
Y75354D01*
X78521D01*
Y75946D01*
D02*
G37*
G36*
X77705D02*
X77143D01*
Y75354D01*
X77705D01*
Y75946D01*
D02*
G37*
G36*
X60264Y75858D02*
X59627D01*
Y75261D01*
X60264D01*
Y75858D01*
D02*
G37*
G36*
X59373D02*
X58736D01*
Y75261D01*
X59373D01*
Y75858D01*
D02*
G37*
G36*
X102204Y76459D02*
X100902D01*
Y75227D01*
X102204D01*
Y76459D01*
D02*
G37*
G36*
X100648D02*
X99346D01*
Y75227D01*
X100648D01*
Y76459D01*
D02*
G37*
G36*
X72554Y74998D02*
X72027D01*
Y74721D01*
X72554D01*
Y74998D01*
D02*
G37*
G36*
X66873Y74998D02*
X66346D01*
Y74721D01*
X66873D01*
Y74998D01*
D02*
G37*
G36*
X102204Y74973D02*
X100902D01*
Y73741D01*
X102204D01*
Y74973D01*
D02*
G37*
G36*
X100648D02*
X99346D01*
Y73741D01*
X100648D01*
Y74973D01*
D02*
G37*
G36*
X82369Y73259D02*
X81777D01*
Y72697D01*
X82369D01*
Y73259D01*
D02*
G37*
G36*
X81523D02*
X80931D01*
Y72697D01*
X81523D01*
Y73259D01*
D02*
G37*
G36*
X76969D02*
X76377D01*
Y72697D01*
X76969D01*
Y73259D01*
D02*
G37*
G36*
X76123D02*
X75531D01*
Y72697D01*
X76123D01*
Y73259D01*
D02*
G37*
G36*
X82369Y72443D02*
X81777D01*
Y71881D01*
X82369D01*
Y72443D01*
D02*
G37*
G36*
X81523D02*
X80931D01*
Y71881D01*
X81523D01*
Y72443D01*
D02*
G37*
G36*
X76969Y72443D02*
X76377D01*
Y71881D01*
X76969D01*
Y72443D01*
D02*
G37*
G36*
X76123D02*
X75531D01*
Y71881D01*
X76123D01*
Y72443D01*
D02*
G37*
G36*
X62794Y72009D02*
X62202D01*
Y71447D01*
X62794D01*
Y72009D01*
D02*
G37*
G36*
X61948D02*
X61356D01*
Y71447D01*
X61948D01*
Y72009D01*
D02*
G37*
G36*
X64719Y71989D02*
X64127D01*
Y71427D01*
X64719D01*
Y71989D01*
D02*
G37*
G36*
X63873D02*
X63281D01*
Y71427D01*
X63873D01*
Y71989D01*
D02*
G37*
G36*
X109196Y71394D02*
X108921Y71357D01*
X108665Y71251D01*
X108445Y71082D01*
X108276Y70862D01*
X108184Y70641D01*
X107669D01*
X107577Y70862D01*
X107408Y71082D01*
X107188Y71251D01*
X106932Y71357D01*
X106656Y71394D01*
X106381Y71357D01*
X106125Y71251D01*
X105905Y71082D01*
X105736Y70862D01*
X105644Y70641D01*
X105129D01*
X105037Y70862D01*
X104868Y71082D01*
X104648Y71251D01*
X104392Y71357D01*
X104116Y71394D01*
X103841Y71357D01*
X103585Y71251D01*
X103365Y71082D01*
X103196Y70862D01*
X103104Y70641D01*
X102589D01*
X102497Y70862D01*
X102328Y71082D01*
X102108Y71251D01*
X101852Y71357D01*
X101576Y71394D01*
X101301Y71357D01*
X101045Y71251D01*
X100825Y71082D01*
X100656Y70862D01*
X100550Y70606D01*
X100513Y70330D01*
Y69430D01*
X100550Y69155D01*
X100656Y68899D01*
X100825Y68679D01*
X101045Y68510D01*
X101301Y68404D01*
X101576Y68367D01*
X101852Y68404D01*
X102108Y68510D01*
X102328Y68679D01*
X102497Y68899D01*
X102589Y69120D01*
X103104D01*
X103196Y68899D01*
X103365Y68679D01*
X103585Y68510D01*
X103841Y68404D01*
X104116Y68367D01*
X104392Y68404D01*
X104648Y68510D01*
X104868Y68679D01*
X105037Y68899D01*
X105129Y69120D01*
X105644D01*
X105736Y68899D01*
X105905Y68679D01*
X106125Y68510D01*
X106381Y68404D01*
X106656Y68367D01*
X106932Y68404D01*
X107188Y68510D01*
X107408Y68679D01*
X107577Y68899D01*
X107669Y69120D01*
X108184D01*
X108276Y68899D01*
X108445Y68679D01*
X108665Y68510D01*
X108921Y68404D01*
X109196Y68367D01*
X109472Y68404D01*
X109728Y68510D01*
X109948Y68679D01*
X110117Y68899D01*
X110223Y69155D01*
X110259Y69430D01*
Y70330D01*
X110223Y70606D01*
X110117Y70862D01*
X109948Y71082D01*
X109728Y71251D01*
X109472Y71357D01*
X109196Y71394D01*
D02*
G37*
G36*
X99036D02*
X98761Y71357D01*
X98505Y71251D01*
X98285Y71082D01*
X98116Y70862D01*
X98024Y70641D01*
X97509D01*
X97417Y70862D01*
X97248Y71082D01*
X97028Y71251D01*
X96772Y71357D01*
X96496Y71394D01*
X96221Y71357D01*
X95965Y71251D01*
X95745Y71082D01*
X95576Y70862D01*
X95484Y70641D01*
X94969D01*
X94877Y70862D01*
X94708Y71082D01*
X94488Y71251D01*
X94232Y71357D01*
X93956Y71394D01*
X93681Y71357D01*
X93425Y71251D01*
X93205Y71082D01*
X93036Y70862D01*
X92944Y70641D01*
X92429D01*
X92337Y70862D01*
X92168Y71082D01*
X91948Y71251D01*
X91692Y71357D01*
X91416Y71394D01*
X91141Y71357D01*
X90885Y71251D01*
X90665Y71082D01*
X90496Y70862D01*
X90390Y70606D01*
X90353Y70330D01*
Y69430D01*
X90390Y69155D01*
X90496Y68899D01*
X90665Y68679D01*
X90885Y68510D01*
X91141Y68404D01*
X91416Y68367D01*
X91692Y68404D01*
X91948Y68510D01*
X92168Y68679D01*
X92337Y68899D01*
X92429Y69120D01*
X92944D01*
X93036Y68899D01*
X93205Y68679D01*
X93425Y68510D01*
X93681Y68404D01*
X93956Y68367D01*
X94232Y68404D01*
X94488Y68510D01*
X94708Y68679D01*
X94877Y68899D01*
X94969Y69120D01*
X95484D01*
X95576Y68899D01*
X95745Y68679D01*
X95965Y68510D01*
X96221Y68404D01*
X96496Y68367D01*
X96772Y68404D01*
X97028Y68510D01*
X97248Y68679D01*
X97417Y68899D01*
X97509Y69120D01*
X98024D01*
X98116Y68899D01*
X98285Y68679D01*
X98505Y68510D01*
X98761Y68404D01*
X99036Y68367D01*
X99312Y68404D01*
X99568Y68510D01*
X99788Y68679D01*
X99957Y68899D01*
X100063Y69155D01*
X100099Y69430D01*
Y70330D01*
X100063Y70606D01*
X99957Y70862D01*
X99788Y71082D01*
X99568Y71251D01*
X99312Y71357D01*
X99036Y71394D01*
D02*
G37*
G36*
X62794Y71193D02*
X62202D01*
Y70631D01*
X62794D01*
Y71193D01*
D02*
G37*
G36*
X61948D02*
X61356D01*
Y70631D01*
X61948D01*
Y71193D01*
D02*
G37*
G36*
X63873Y71173D02*
X63281D01*
Y70611D01*
X63873D01*
Y71173D01*
D02*
G37*
G36*
X115330Y71384D02*
X113222D01*
Y68376D01*
X115330D01*
Y71384D01*
D02*
G37*
G36*
X111736Y71394D02*
X111461Y71357D01*
X111205Y71251D01*
X110985Y71082D01*
X110816Y70862D01*
X110710Y70606D01*
X110673Y70330D01*
Y69430D01*
X110710Y69155D01*
X110816Y68899D01*
X110985Y68679D01*
X111205Y68510D01*
X111461Y68404D01*
X111736Y68367D01*
X112012Y68404D01*
X112268Y68510D01*
X112488Y68679D01*
X112657Y68899D01*
X112763Y69155D01*
X112799Y69430D01*
Y70330D01*
X112763Y70606D01*
X112657Y70862D01*
X112488Y71082D01*
X112268Y71251D01*
X112012Y71357D01*
X111736Y71394D01*
D02*
G37*
G36*
X62930Y67505D02*
X62338D01*
Y66943D01*
X62930D01*
Y67505D01*
D02*
G37*
G36*
X62084D02*
X61492D01*
Y66943D01*
X62084D01*
Y67505D01*
D02*
G37*
G36*
X59130Y67480D02*
X58538D01*
Y66918D01*
X59130D01*
Y67480D01*
D02*
G37*
G36*
X58284D02*
X57692D01*
Y66918D01*
X58284D01*
Y67480D01*
D02*
G37*
G36*
X62930Y66689D02*
X62338D01*
Y66127D01*
X62930D01*
Y66689D01*
D02*
G37*
G36*
X62084D02*
X61492D01*
Y66127D01*
X62084D01*
Y66689D01*
D02*
G37*
G36*
X59130Y66664D02*
X58538D01*
Y66102D01*
X59130D01*
Y66664D01*
D02*
G37*
G36*
X58284D02*
X57692D01*
Y66102D01*
X58284D01*
Y66664D01*
D02*
G37*
G36*
X64839Y67484D02*
X63311D01*
Y66036D01*
X63641D01*
Y65525D01*
X63555Y65439D01*
X63471Y65235D01*
Y65015D01*
X63555Y64811D01*
X63711Y64655D01*
X63915Y64571D01*
X64135D01*
X64339Y64655D01*
X64495Y64811D01*
X64579Y65015D01*
Y65235D01*
X64495Y65439D01*
X64459Y65475D01*
Y66036D01*
X64839D01*
Y67484D01*
D02*
G37*
G36*
X60982Y67472D02*
X59454D01*
Y66024D01*
X59788D01*
Y65471D01*
X59705Y65389D01*
X59621Y65185D01*
Y64965D01*
X59705Y64761D01*
X59861Y64605D01*
X60065Y64521D01*
X60285D01*
X60489Y64605D01*
X60645Y64761D01*
X60729Y64965D01*
Y65185D01*
X60645Y65389D01*
X60605Y65429D01*
Y66024D01*
X60982D01*
Y67472D01*
D02*
G37*
G36*
X106656Y63764D02*
X106381Y63727D01*
X106125Y63621D01*
X105905Y63452D01*
X105736Y63232D01*
X105644Y63011D01*
X105129D01*
X105037Y63232D01*
X104868Y63452D01*
X104648Y63621D01*
X104392Y63727D01*
X104116Y63764D01*
X103841Y63727D01*
X103585Y63621D01*
X103365Y63452D01*
X103196Y63232D01*
X103104Y63011D01*
X102589D01*
X102497Y63232D01*
X102328Y63452D01*
X102108Y63621D01*
X101852Y63727D01*
X101576Y63764D01*
X101301Y63727D01*
X101045Y63621D01*
X100825Y63452D01*
X100656Y63232D01*
X100550Y62976D01*
X100513Y62700D01*
Y61800D01*
X100550Y61525D01*
X100656Y61269D01*
X100825Y61049D01*
X100917Y60978D01*
Y58789D01*
X100861D01*
Y57341D01*
X102389D01*
Y58789D01*
X102236D01*
Y60978D01*
X102328Y61049D01*
X102497Y61269D01*
X102589Y61490D01*
X103104D01*
X103196Y61269D01*
X103365Y61049D01*
X103585Y60880D01*
X103841Y60774D01*
X104116Y60737D01*
X104392Y60774D01*
X104648Y60880D01*
X104868Y61049D01*
X105037Y61269D01*
X105129Y61490D01*
X105644D01*
X105736Y61269D01*
X105905Y61049D01*
X106125Y60880D01*
X106381Y60774D01*
X106656Y60737D01*
X106932Y60774D01*
X107188Y60880D01*
X107408Y61049D01*
X107577Y61269D01*
X107683Y61525D01*
X107719Y61800D01*
Y62700D01*
X107683Y62976D01*
X107577Y63232D01*
X107408Y63452D01*
X107188Y63621D01*
X106932Y63727D01*
X106656Y63764D01*
D02*
G37*
G36*
X95125Y65235D02*
X92725D01*
X92554Y65212D01*
X92395Y65146D01*
X92259Y65041D01*
X91103Y63886D01*
X90998Y63749D01*
X90958Y63651D01*
X90885Y63621D01*
X90665Y63452D01*
X90496Y63232D01*
X90390Y62976D01*
X90353Y62700D01*
Y61800D01*
X90390Y61525D01*
X90496Y61269D01*
X90665Y61049D01*
X90749Y60984D01*
Y58664D01*
X90636D01*
Y57216D01*
X92164D01*
Y58664D01*
X92068D01*
Y60972D01*
X92168Y61049D01*
X92337Y61269D01*
X92443Y61525D01*
X92479Y61800D01*
Y62700D01*
X92443Y62976D01*
X92337Y63232D01*
X92327Y63245D01*
X92998Y63915D01*
X94852D01*
X95564Y63203D01*
X95470Y62976D01*
X95433Y62700D01*
Y61800D01*
X95470Y61525D01*
X95576Y61269D01*
X95745Y61049D01*
X95965Y60880D01*
X96221Y60774D01*
X96496Y60737D01*
X96772Y60774D01*
X97028Y60880D01*
X97248Y61049D01*
X97417Y61269D01*
X97523Y61525D01*
X97559Y61800D01*
Y62700D01*
X97523Y62976D01*
X97417Y63232D01*
X97248Y63452D01*
X97028Y63621D01*
X96924Y63664D01*
X96915Y63686D01*
X96810Y63823D01*
X95591Y65041D01*
X95455Y65146D01*
X95296Y65212D01*
X95125Y65235D01*
D02*
G37*
G36*
X114276Y63764D02*
X114001Y63727D01*
X113745Y63621D01*
X113525Y63452D01*
X113356Y63232D01*
X113250Y62976D01*
X113213Y62700D01*
Y61800D01*
X113250Y61525D01*
X113356Y61269D01*
X113525Y61049D01*
X113617Y60978D01*
Y58989D01*
X113536D01*
Y58574D01*
X113525Y58560D01*
X113459Y58401D01*
X113437Y58230D01*
X113459Y58060D01*
X113525Y57901D01*
X113536Y57886D01*
Y57541D01*
X115064D01*
Y58989D01*
X114936D01*
Y60978D01*
X115028Y61049D01*
X115197Y61269D01*
X115303Y61525D01*
X115339Y61800D01*
Y62700D01*
X115303Y62976D01*
X115197Y63232D01*
X115028Y63452D01*
X114808Y63621D01*
X114552Y63727D01*
X114276Y63764D01*
D02*
G37*
G36*
X111736D02*
X111461Y63727D01*
X111205Y63621D01*
X110985Y63452D01*
X110816Y63232D01*
X110710Y62976D01*
X110673Y62700D01*
Y61800D01*
X110710Y61525D01*
X110816Y61269D01*
X110985Y61049D01*
X111077Y60978D01*
Y58889D01*
X111011D01*
Y58456D01*
X110959Y58331D01*
X110937Y58160D01*
X110959Y57990D01*
X111011Y57865D01*
Y57441D01*
X112539D01*
Y58889D01*
X112396D01*
Y60978D01*
X112488Y61049D01*
X112657Y61269D01*
X112763Y61525D01*
X112799Y61800D01*
Y62700D01*
X112763Y62976D01*
X112657Y63232D01*
X112488Y63452D01*
X112268Y63621D01*
X112012Y63727D01*
X111736Y63764D01*
D02*
G37*
G36*
X109196D02*
X108921Y63727D01*
X108665Y63621D01*
X108445Y63452D01*
X108276Y63232D01*
X108170Y62976D01*
X108133Y62700D01*
Y61800D01*
X108170Y61525D01*
X108276Y61269D01*
X108445Y61049D01*
X108537Y60978D01*
Y58889D01*
X108411D01*
Y57441D01*
X109939D01*
Y58889D01*
X109856D01*
Y60978D01*
X109948Y61049D01*
X110117Y61269D01*
X110223Y61525D01*
X110259Y61800D01*
Y62700D01*
X110223Y62976D01*
X110117Y63232D01*
X109948Y63452D01*
X109728Y63621D01*
X109472Y63727D01*
X109196Y63764D01*
D02*
G37*
G36*
X93956D02*
X93681Y63727D01*
X93425Y63621D01*
X93205Y63452D01*
X93036Y63232D01*
X92930Y62976D01*
X92893Y62700D01*
Y61800D01*
X92930Y61525D01*
X93036Y61269D01*
X93205Y61049D01*
X93344Y60942D01*
Y58714D01*
X93286D01*
Y57266D01*
X94814D01*
Y58714D01*
X94663D01*
Y61014D01*
X94708Y61049D01*
X94877Y61269D01*
X94983Y61525D01*
X95019Y61800D01*
Y62700D01*
X94983Y62976D01*
X94877Y63232D01*
X94708Y63452D01*
X94488Y63621D01*
X94232Y63727D01*
X93956Y63764D01*
D02*
G37*
G36*
X99036D02*
X98761Y63727D01*
X98505Y63621D01*
X98285Y63452D01*
X98116Y63232D01*
X98010Y62976D01*
X97973Y62700D01*
Y61800D01*
X98010Y61525D01*
X98116Y61269D01*
X98285Y61049D01*
X98377Y60978D01*
Y58669D01*
X98182D01*
Y57221D01*
X99710D01*
Y58669D01*
X99696D01*
Y60978D01*
X99788Y61049D01*
X99957Y61269D01*
X100063Y61525D01*
X100099Y61800D01*
Y62700D01*
X100063Y62976D01*
X99957Y63232D01*
X99788Y63452D01*
X99568Y63621D01*
X99312Y63727D01*
X99036Y63764D01*
D02*
G37*
G36*
X115064Y57409D02*
X114427D01*
Y56812D01*
X115064D01*
Y57409D01*
D02*
G37*
G36*
X114173D02*
X113536D01*
Y56812D01*
X114173D01*
Y57409D01*
D02*
G37*
G36*
X109939Y57309D02*
X109302D01*
Y56712D01*
X109939D01*
Y57309D01*
D02*
G37*
G36*
X109048D02*
X108411D01*
Y56712D01*
X109048D01*
Y57309D01*
D02*
G37*
G36*
X102389Y57209D02*
X101752D01*
Y56612D01*
X102389D01*
Y57209D01*
D02*
G37*
G36*
X101498D02*
X100861D01*
Y56612D01*
X101498D01*
Y57209D01*
D02*
G37*
G36*
X66395Y57663D02*
X66247Y57633D01*
X66121Y57549D01*
X66036Y57423D01*
X66007Y57274D01*
Y56974D01*
X66036Y56825D01*
X66121Y56699D01*
X66247Y56615D01*
X66395Y56585D01*
X66544Y56615D01*
X66670Y56699D01*
X66754Y56825D01*
X66784Y56974D01*
Y57274D01*
X66754Y57423D01*
X66670Y57549D01*
X66544Y57633D01*
X66395Y57663D01*
D02*
G37*
G36*
X94814Y57134D02*
X94177D01*
Y56537D01*
X94814D01*
Y57134D01*
D02*
G37*
G36*
X93923D02*
X93286D01*
Y56537D01*
X93923D01*
Y57134D01*
D02*
G37*
G36*
X99710Y57089D02*
X99073D01*
Y56492D01*
X99710D01*
Y57089D01*
D02*
G37*
G36*
X98819D02*
X98182D01*
Y56492D01*
X98819D01*
Y57089D01*
D02*
G37*
G36*
X92164Y57084D02*
X91527D01*
Y56487D01*
X92164D01*
Y57084D01*
D02*
G37*
G36*
X91273D02*
X90636D01*
Y56487D01*
X91273D01*
Y57084D01*
D02*
G37*
G36*
X115064Y56558D02*
X114427D01*
Y55961D01*
X115064D01*
Y56558D01*
D02*
G37*
G36*
X114173D02*
X113536D01*
Y55961D01*
X114173D01*
Y56558D01*
D02*
G37*
G36*
X109939Y56458D02*
X109302D01*
Y55861D01*
X109939D01*
Y56458D01*
D02*
G37*
G36*
X109048D02*
X108411D01*
Y55861D01*
X109048D01*
Y56458D01*
D02*
G37*
G36*
X102389Y56358D02*
X101752D01*
Y55761D01*
X102389D01*
Y56358D01*
D02*
G37*
G36*
X101498D02*
X100861D01*
Y55761D01*
X101498D01*
Y56358D01*
D02*
G37*
G36*
X94814Y56283D02*
X94177D01*
Y55686D01*
X94814D01*
Y56283D01*
D02*
G37*
G36*
X93923D02*
X93286D01*
Y55686D01*
X93923D01*
Y56283D01*
D02*
G37*
G36*
X99710Y56238D02*
X99073D01*
Y55641D01*
X99710D01*
Y56238D01*
D02*
G37*
G36*
X98819D02*
X98182D01*
Y55641D01*
X98819D01*
Y56238D01*
D02*
G37*
G36*
X92164Y56233D02*
X91527D01*
Y55636D01*
X92164D01*
Y56233D01*
D02*
G37*
G36*
X91273D02*
X90636D01*
Y55636D01*
X91273D01*
Y56233D01*
D02*
G37*
G36*
X112539Y57309D02*
X111011D01*
Y55861D01*
X111115D01*
Y55033D01*
X111138Y54862D01*
X111204Y54703D01*
X111309Y54567D01*
X111362Y54513D01*
X111499Y54408D01*
X111658Y54342D01*
X111829Y54320D01*
X111999Y54342D01*
X112158Y54408D01*
X112295Y54513D01*
X112400Y54650D01*
X112466Y54809D01*
X112488Y54980D01*
X112466Y55150D01*
X112435Y55225D01*
Y55861D01*
X112539D01*
Y57309D01*
D02*
G37*
%LPD*%
G36*
X97350Y82900D02*
X118925D01*
X118925Y82900D01*
X118925Y82900D01*
X119034Y82900D01*
X119237Y82816D01*
X119391Y82662D01*
X119475Y82459D01*
X119475Y82350D01*
X119475Y77550D01*
X119475Y77550D01*
Y77461D01*
X119407Y77295D01*
X119280Y77169D01*
X119115Y77100D01*
X119025D01*
X112719D01*
Y77548D01*
X112000D01*
X111281D01*
Y77100D01*
X102204Y77100D01*
Y78073D01*
X100775D01*
X99346D01*
Y77100D01*
X97301D01*
X97156Y77129D01*
X97020Y77185D01*
X96897Y77267D01*
X96792Y77372D01*
X96710Y77495D01*
X96654Y77631D01*
X96625Y77776D01*
X96625Y82175D01*
X96625Y82175D01*
X96625Y82175D01*
X96634Y82293D01*
X96653Y82386D01*
X96707Y82518D01*
X96787Y82637D01*
X96888Y82738D01*
X97007Y82817D01*
X97139Y82872D01*
X97279Y82900D01*
X97350Y82900D01*
D02*
G37*
%LPC*%
G36*
X118704Y82079D02*
X116577D01*
Y79952D01*
X118704D01*
Y82079D01*
D02*
G37*
G36*
X116323D02*
X114196D01*
Y79952D01*
X116323D01*
Y82079D01*
D02*
G37*
G36*
X102204Y79559D02*
X100902D01*
Y78327D01*
X102204D01*
Y79559D01*
D02*
G37*
G36*
X100648D02*
X99346D01*
Y78327D01*
X100648D01*
Y79559D01*
D02*
G37*
G36*
X112719Y78364D02*
X112127D01*
Y77802D01*
X112719D01*
Y78364D01*
D02*
G37*
G36*
X111873D02*
X111281D01*
Y77802D01*
X111873D01*
Y78364D01*
D02*
G37*
G36*
X118704Y79698D02*
X116577D01*
Y77571D01*
X118704D01*
Y79698D01*
D02*
G37*
G36*
X116323D02*
X114196D01*
Y77571D01*
X116323D01*
Y79698D01*
D02*
G37*
%LPD*%
G54D12*
X67025Y76125D02*
X68350D01*
X67025Y76625D02*
X69200D01*
X69450Y75625D02*
X70200D01*
X67025Y77125D02*
X68350D01*
X69200D02*
Y79300D01*
X69200Y76625D02*
X69450Y76875D01*
X68350Y75775D02*
X69200Y76625D01*
X68200Y75625D02*
X68350Y75775D01*
X67781Y75206D02*
X68200Y75625D01*
X67250Y75125D02*
X67331Y75206D01*
X67781D01*
X67000Y75125D02*
X67250D01*
X69700Y77975D02*
Y79300D01*
X71200Y78625D02*
X71200Y78625D01*
X67700Y78625D02*
Y79300D01*
X69450Y76875D02*
X70200Y76125D01*
X67025Y75625D02*
X68200D01*
X70200Y77625D02*
X70550Y77975D01*
X70200Y76125D02*
X70550Y75775D01*
X70200Y75625D02*
Y76125D01*
X70700Y78125D02*
X71200Y78625D01*
X67025Y78125D02*
X68200D01*
X70550Y75775D02*
X70700Y75625D01*
X68200Y78125D02*
Y79300D01*
X71200Y78625D02*
X71875D01*
X69450Y75625D02*
Y75775D01*
X71200Y74450D02*
Y75125D01*
Y78625D02*
Y79300D01*
X67025Y78625D02*
X67700D01*
X70700Y78125D02*
X71875D01*
X70700Y75625D02*
X71200Y75125D01*
X70200Y76125D02*
X71875D01*
X70200Y74450D02*
Y75625D01*
X69700Y77125D02*
X70200Y77625D01*
X71200Y75125D02*
X71875D01*
X70200Y77625D02*
Y79300D01*
X70700Y75625D02*
X71875D01*
X68350Y77975D02*
X69200Y77125D01*
X66395Y56974D02*
Y57274D01*
X67700Y74175D02*
Y74450D01*
X67677Y74152D02*
X67700Y74175D01*
X57515Y77575D02*
X57555Y77615D01*
X63305Y77625D02*
X63305Y77625D01*
X61735Y77615D02*
X61745Y77625D01*
G54D14*
X94050Y56410D02*
D03*
Y57990D02*
D03*
X91400Y56360D02*
D03*
Y57940D02*
D03*
X98946Y57945D02*
D03*
Y56365D02*
D03*
X101625Y58065D02*
D03*
Y56485D02*
D03*
X111775Y58165D02*
D03*
Y56585D02*
D03*
X109175D02*
D03*
Y58165D02*
D03*
X114300Y56685D02*
D03*
Y58265D02*
D03*
X59500Y77565D02*
D03*
Y75985D02*
D03*
X60218Y66748D02*
D03*
Y68328D02*
D03*
X64075Y68340D02*
D03*
Y66760D02*
D03*
G54D15*
X67700Y79325D02*
D03*
X68200D02*
D03*
X68700D02*
D03*
X69200D02*
D03*
X69700D02*
D03*
X70200D02*
D03*
X70700D02*
D03*
X71200D02*
D03*
Y74425D02*
D03*
X70700D02*
D03*
X70200D02*
D03*
X69700D02*
D03*
X69200D02*
D03*
X68700D02*
D03*
X68200D02*
D03*
X67700D02*
D03*
G54D16*
X71900Y78625D02*
D03*
Y78125D02*
D03*
Y77625D02*
D03*
Y77125D02*
D03*
Y76625D02*
D03*
Y76125D02*
D03*
Y75625D02*
D03*
Y75125D02*
D03*
X67000D02*
D03*
Y75625D02*
D03*
Y76125D02*
D03*
Y76625D02*
D03*
Y77125D02*
D03*
Y77625D02*
D03*
Y78125D02*
D03*
Y78625D02*
D03*
G54D17*
X69450Y76875D02*
D03*
G54D18*
X63125Y101201D02*
D03*
X54620Y101200D02*
D03*
X75870Y101175D02*
D03*
X84375Y101176D02*
D03*
X66395Y57274D02*
D03*
X74900Y57275D02*
D03*
G54D19*
X58875Y101200D02*
D03*
X80125Y101175D02*
D03*
X70646Y57275D02*
D03*
G54D20*
X64000Y71300D02*
D03*
Y72860D02*
D03*
X70700Y70720D02*
D03*
Y72280D02*
D03*
X62075Y72880D02*
D03*
Y71320D02*
D03*
X58411Y66791D02*
D03*
Y68351D02*
D03*
X62211Y66816D02*
D03*
Y68376D02*
D03*
X112000Y76115D02*
D03*
Y77675D02*
D03*
X76250Y72570D02*
D03*
Y74130D02*
D03*
X81650D02*
D03*
Y72570D02*
D03*
G54D21*
X64857Y83435D02*
D03*
X65974Y84552D02*
D03*
G54D22*
X80260Y81425D02*
D03*
X81840D02*
D03*
X81740Y79600D02*
D03*
X80160D02*
D03*
X78095Y74100D02*
D03*
X79675D02*
D03*
X77900Y79600D02*
D03*
X76320D02*
D03*
X55935Y77575D02*
D03*
X57515D02*
D03*
G54D23*
X116450Y79825D02*
D03*
G54D24*
X63305Y77625D02*
D03*
X61745D02*
D03*
X76292Y77673D02*
D03*
X77852D02*
D03*
X76272Y76073D02*
D03*
X77832D02*
D03*
X77885Y81240D02*
D03*
X76325D02*
D03*
G54D25*
X42875Y73321D02*
D03*
X42874Y81825D02*
D03*
G54D26*
X42875Y77575D02*
D03*
G54D27*
X100775Y78200D02*
D03*
Y75100D02*
D03*
G54D28*
X68577Y81998D02*
D03*
X67473Y83102D02*
D03*
G54D29*
X71927Y83077D02*
D03*
X70823Y81973D02*
D03*
G54D30*
X69825Y91325D02*
D03*
X82175Y59650D02*
D03*
X90100Y98325D02*
D03*
X45975Y60025D02*
D03*
Y97275D02*
D03*
G54D31*
X106828Y88408D02*
D03*
X104328D02*
D03*
Y90948D02*
D03*
X106828D02*
D03*
Y93488D02*
D03*
X104328D02*
D03*
Y96028D02*
D03*
X106828D02*
D03*
Y98568D02*
D03*
X104288D02*
D03*
G54D32*
X114276Y69880D02*
D03*
G54D33*
X111736D02*
D03*
X109196D02*
D03*
X106656D02*
D03*
X104116D02*
D03*
X101576D02*
D03*
X99036D02*
D03*
X96496D02*
D03*
X93956D02*
D03*
X91416D02*
D03*
X114276Y62250D02*
D03*
X111736D02*
D03*
X109196D02*
D03*
X106656D02*
D03*
X104116D02*
D03*
X101576D02*
D03*
X99036D02*
D03*
X96496D02*
D03*
X93956D02*
D03*
X91416D02*
D03*
G54D34*
X106600Y75550D02*
D03*
Y78100D02*
D03*
G54D35*
X72450Y93800D02*
D03*
X110900Y74300D02*
D03*
X103450Y75400D02*
D03*
X97975Y75350D02*
D03*
X73475Y74350D02*
D03*
X73625Y80500D02*
D03*
X70550Y75775D02*
D03*
X69450D02*
D03*
X68350D02*
D03*
X70550Y76875D02*
D03*
X68350D02*
D03*
X70550Y77975D02*
D03*
X69450D02*
D03*
X68350D02*
D03*
X69450Y76875D02*
D03*
X67250Y69800D02*
D03*
X65850Y69000D02*
D03*
X85975Y104050D02*
D03*
X86000Y103225D02*
D03*
X83575Y97600D02*
D03*
X85975Y99625D02*
D03*
X84450Y97600D02*
D03*
X85975Y100525D02*
D03*
X85350Y97600D02*
D03*
X85975Y102375D02*
D03*
Y101475D02*
D03*
Y98675D02*
D03*
X88050Y102150D02*
D03*
X74400Y104000D02*
D03*
Y100475D02*
D03*
X75025Y97550D02*
D03*
X74400Y101425D02*
D03*
Y98625D02*
D03*
Y103100D02*
D03*
Y102325D02*
D03*
X76800Y97550D02*
D03*
X74400Y99575D02*
D03*
X75925Y97550D02*
D03*
X63350Y97600D02*
D03*
X64250D02*
D03*
X64875Y98675D02*
D03*
Y102325D02*
D03*
Y99625D02*
D03*
Y100525D02*
D03*
Y101475D02*
D03*
Y103150D02*
D03*
Y104050D02*
D03*
X62475Y97600D02*
D03*
X53000Y103850D02*
D03*
Y99425D02*
D03*
X54525Y97600D02*
D03*
X53000Y103050D02*
D03*
X53000Y102175D02*
D03*
Y101275D02*
D03*
Y98475D02*
D03*
X55400Y97600D02*
D03*
X53000Y100325D02*
D03*
X53625Y97600D02*
D03*
X46675Y81875D02*
D03*
Y82775D02*
D03*
X45600Y83400D02*
D03*
X41900D02*
D03*
X44650D02*
D03*
X43750D02*
D03*
X42800D02*
D03*
X41050D02*
D03*
X40225D02*
D03*
X46675Y81000D02*
D03*
X46525Y72900D02*
D03*
Y72000D02*
D03*
X45450Y71375D02*
D03*
X41750D02*
D03*
X44500D02*
D03*
X43600D02*
D03*
X42650D02*
D03*
X40875D02*
D03*
X40075D02*
D03*
X46525Y73775D02*
D03*
X64675Y56150D02*
D03*
X66200Y60825D02*
D03*
X65300D02*
D03*
X64675Y59750D02*
D03*
Y58800D02*
D03*
Y57900D02*
D03*
Y56950D02*
D03*
Y55275D02*
D03*
Y54375D02*
D03*
X67075Y60825D02*
D03*
X73925D02*
D03*
X76325Y54325D02*
D03*
Y55175D02*
D03*
Y56950D02*
D03*
Y57900D02*
D03*
Y58800D02*
D03*
Y56050D02*
D03*
Y59750D02*
D03*
X75700Y60825D02*
D03*
X61400Y93775D02*
D03*
X76675Y93750D02*
D03*
X67725Y80375D02*
D03*
X67700Y81225D02*
D03*
X71750Y80325D02*
D03*
X71725Y81200D02*
D03*
X69650Y80500D02*
D03*
X69675Y81400D02*
D03*
Y82700D02*
D03*
X60450Y71175D02*
D03*
X119750Y103425D02*
D03*
X115275Y103275D02*
D03*
X119625Y98725D02*
D03*
X119925Y93825D02*
D03*
X120150Y88725D02*
D03*
X112800Y85975D02*
D03*
X117950Y85750D02*
D03*
X115375Y88600D02*
D03*
X95375Y96900D02*
D03*
X99525Y90825D02*
D03*
Y94200D02*
D03*
X96850Y90650D02*
D03*
X93375Y88100D02*
D03*
X90550Y85150D02*
D03*
X87750Y82375D02*
D03*
X85425Y80275D02*
D03*
X78825Y82625D02*
D03*
X83150Y78475D02*
D03*
X80025Y75900D02*
D03*
X79975Y77525D02*
D03*
X99600Y83950D02*
D03*
X99300Y86400D02*
D03*
X97575Y83875D02*
D03*
X96125Y85825D02*
D03*
X95050Y80775D02*
D03*
X91725Y78050D02*
D03*
X93900Y83475D02*
D03*
X91025Y80575D02*
D03*
X88075Y78000D02*
D03*
X93825Y75225D02*
D03*
X89300Y75050D02*
D03*
X84935Y75054D02*
D03*
X118325Y74550D02*
D03*
X113800Y74350D02*
D03*
X120675Y72200D02*
D03*
X118350Y68625D02*
D03*
X95300Y65850D02*
D03*
X103325Y65950D02*
D03*
X111600Y66050D02*
D03*
X116375Y64550D02*
D03*
X120550D02*
D03*
X120725Y58550D02*
D03*
X118275Y60650D02*
D03*
Y55950D02*
D03*
X104775Y55200D02*
D03*
X96525Y55100D02*
D03*
X90250Y55125D02*
D03*
X84025Y56375D02*
D03*
X80750Y55125D02*
D03*
X68000Y67675D02*
D03*
X68225Y63850D02*
D03*
X65775Y65650D02*
D03*
X63450Y63275D02*
D03*
X69400Y84700D02*
D03*
X71800Y87875D02*
D03*
X68150Y88075D02*
D03*
X54875Y95250D02*
D03*
X54300Y88450D02*
D03*
X54950Y91725D02*
D03*
X62900Y81750D02*
D03*
X60075Y84125D02*
D03*
X49375Y87550D02*
D03*
X46625Y84650D02*
D03*
X44575Y69775D02*
D03*
X58550Y74950D02*
D03*
X48675Y69750D02*
D03*
X48525Y75000D02*
D03*
X51250Y72600D02*
D03*
X53900Y70200D02*
D03*
X53850Y74750D02*
D03*
X56150Y72450D02*
D03*
X58560Y70096D02*
D03*
X80175Y65325D02*
D03*
X58575Y58850D02*
D03*
X60375Y57200D02*
D03*
X61175Y61000D02*
D03*
X62925Y59125D02*
D03*
X55875Y57275D02*
D03*
X50675Y67150D02*
D03*
X55925Y67300D02*
D03*
X53525Y64575D02*
D03*
X51125Y61925D02*
D03*
X55675Y61975D02*
D03*
X53375Y59675D02*
D03*
X51021Y57265D02*
D03*
X46825Y56925D02*
D03*
X41625Y66800D02*
D03*
X46875Y66950D02*
D03*
X44475Y64225D02*
D03*
X42075Y61575D02*
D03*
X41971Y56915D02*
D03*
X87575Y58050D02*
D03*
X82375Y67925D02*
D03*
X87625Y68075D02*
D03*
X85225Y65350D02*
D03*
X82825Y62700D02*
D03*
X87375Y62750D02*
D03*
X85075Y60450D02*
D03*
X78075Y57925D02*
D03*
X72875Y67800D02*
D03*
X78125Y67950D02*
D03*
X75725Y65225D02*
D03*
X73325Y62575D02*
D03*
X77875Y62625D02*
D03*
X74800Y60825D02*
D03*
X112846Y91365D02*
D03*
X115200Y93775D02*
D03*
X117500Y96075D02*
D03*
X112950Y96025D02*
D03*
X115350Y98675D02*
D03*
X117750Y101400D02*
D03*
X112500Y101250D02*
D03*
X117700Y91375D02*
D03*
X66525Y103300D02*
D03*
X68825Y101500D02*
D03*
X71475Y99075D02*
D03*
X71525Y103250D02*
D03*
X66425Y99000D02*
D03*
X92600Y103000D02*
D03*
X95250Y100600D02*
D03*
X97975Y98200D02*
D03*
X97825Y103450D02*
D03*
X79225Y85525D02*
D03*
X81975Y84175D02*
D03*
X81350Y87775D02*
D03*
X84100Y85900D02*
D03*
X86250Y87500D02*
D03*
X76350Y83025D02*
D03*
X83300Y94000D02*
D03*
X85600Y92200D02*
D03*
X88175Y89925D02*
D03*
X87850Y94450D02*
D03*
X90500Y92050D02*
D03*
X93075Y94900D02*
D03*
X83200Y89700D02*
D03*
X64275Y96025D02*
D03*
X66675Y93675D02*
D03*
X68925Y95925D02*
D03*
X74300Y91125D02*
D03*
X74200Y95975D02*
D03*
X64275Y91175D02*
D03*
X44175Y86375D02*
D03*
X49475Y84025D02*
D03*
X51775Y81725D02*
D03*
X51725Y86275D02*
D03*
X54375Y83875D02*
D03*
X57100Y81475D02*
D03*
X56950Y86725D02*
D03*
X41625Y93325D02*
D03*
X43925Y91525D02*
D03*
X46225Y89225D02*
D03*
X46175Y93775D02*
D03*
X48875Y91725D02*
D03*
X52050Y90425D02*
D03*
X51400Y94225D02*
D03*
X41525Y89025D02*
D03*
X41275Y97075D02*
D03*
X51150Y102275D02*
D03*
X51300Y97025D02*
D03*
X48575Y99425D02*
D03*
X45925Y101825D02*
D03*
X43675Y99575D02*
D03*
X41375Y101375D02*
D03*
X69630Y70547D02*
D03*
X69936Y69701D02*
D03*
Y68801D02*
D03*
Y67901D02*
D03*
Y67001D02*
D03*
Y66101D02*
D03*
Y65201D02*
D03*
Y64301D02*
D03*
Y63401D02*
D03*
Y62501D02*
D03*
Y61601D02*
D03*
X69733Y60724D02*
D03*
X69406Y59886D02*
D03*
Y58986D02*
D03*
Y58086D02*
D03*
Y57186D02*
D03*
Y56286D02*
D03*
Y55386D02*
D03*
Y54486D02*
D03*
X71720Y53944D02*
D03*
X71885Y54829D02*
D03*
Y55729D02*
D03*
Y56629D02*
D03*
Y57529D02*
D03*
Y58429D02*
D03*
Y59329D02*
D03*
X71879Y60229D02*
D03*
X71464Y61027D02*
D03*
Y61927D02*
D03*
Y62827D02*
D03*
Y63727D02*
D03*
Y64627D02*
D03*
Y65527D02*
D03*
Y66427D02*
D03*
Y67327D02*
D03*
Y68227D02*
D03*
Y69127D02*
D03*
X71687Y69999D02*
D03*
X58625Y104726D02*
D03*
X57762Y104473D02*
D03*
X57635Y103582D02*
D03*
Y102682D02*
D03*
Y101782D02*
D03*
Y100882D02*
D03*
Y99982D02*
D03*
Y99082D02*
D03*
X57654Y98182D02*
D03*
X58111Y97407D02*
D03*
Y96507D02*
D03*
Y95607D02*
D03*
Y94707D02*
D03*
X58137Y93807D02*
D03*
X58249Y92914D02*
D03*
X58471Y92042D02*
D03*
X58801Y91205D02*
D03*
X59239Y90418D02*
D03*
X59775Y89696D02*
D03*
X60386Y89034D02*
D03*
X61022Y88398D02*
D03*
X61659Y87761D02*
D03*
X62295Y87125D02*
D03*
X62931Y86489D02*
D03*
X63568Y85852D02*
D03*
X64204Y85216D02*
D03*
X64375Y84525D02*
D03*
X66025Y83050D02*
D03*
X66489Y82520D02*
D03*
X67114Y81873D02*
D03*
X68631Y83382D02*
D03*
X68025Y84050D02*
D03*
X67238Y84511D02*
D03*
X66775Y85283D02*
D03*
X66038Y85800D02*
D03*
X65286Y86294D02*
D03*
X64650Y86931D02*
D03*
X64013Y87567D02*
D03*
X63377Y88203D02*
D03*
X62740Y88840D02*
D03*
X62104Y89476D02*
D03*
X61468Y90113D02*
D03*
X60850Y90768D02*
D03*
X60355Y91519D02*
D03*
X59974Y92334D02*
D03*
X59738Y93203D02*
D03*
X59639Y94097D02*
D03*
X59639Y94997D02*
D03*
Y95897D02*
D03*
Y96797D02*
D03*
Y97697D02*
D03*
X60115Y98461D02*
D03*
Y99361D02*
D03*
Y100261D02*
D03*
Y101161D02*
D03*
Y102061D02*
D03*
Y102961D02*
D03*
Y103861D02*
D03*
X59742Y104680D02*
D03*
X80372Y104701D02*
D03*
X79472Y104697D02*
D03*
X78885Y104015D02*
D03*
Y103115D02*
D03*
Y102215D02*
D03*
Y101315D02*
D03*
Y100415D02*
D03*
Y99515D02*
D03*
Y98615D02*
D03*
X79163Y97759D02*
D03*
X79386Y96887D02*
D03*
X79386Y95987D02*
D03*
X79386Y95087D02*
D03*
Y94187D02*
D03*
X79364Y93287D02*
D03*
X79199Y92403D02*
D03*
X78899Y91554D02*
D03*
X78467Y90765D02*
D03*
X77911Y90057D02*
D03*
X77277Y89418D02*
D03*
X76641Y88781D02*
D03*
X76005Y88145D02*
D03*
X75368Y87508D02*
D03*
X74732Y86872D02*
D03*
X74095Y86236D02*
D03*
X73459Y85599D02*
D03*
X72823Y84963D02*
D03*
X72186Y84327D02*
D03*
X71360Y83970D02*
D03*
X70725Y83332D02*
D03*
X72331Y81918D02*
D03*
X72947Y82574D02*
D03*
X73382Y83362D02*
D03*
X74018Y83998D02*
D03*
X74655Y84635D02*
D03*
X75291Y85271D02*
D03*
X75927Y85907D02*
D03*
X76564Y86544D02*
D03*
X77200Y87180D02*
D03*
X77837Y87817D02*
D03*
X78473Y88453D02*
D03*
X79093Y89105D02*
D03*
X79650Y89812D02*
D03*
X80115Y90583D02*
D03*
X80479Y91406D02*
D03*
X80733Y92270D02*
D03*
X80875Y93158D02*
D03*
X80914Y94057D02*
D03*
Y94957D02*
D03*
X80914Y95857D02*
D03*
Y96757D02*
D03*
X80914Y97657D02*
D03*
X81365Y98436D02*
D03*
Y99336D02*
D03*
Y100236D02*
D03*
Y101136D02*
D03*
Y102036D02*
D03*
Y102936D02*
D03*
Y103836D02*
D03*
X81200Y104650D02*
D03*
X63083Y76555D02*
D03*
X63982Y76608D02*
D03*
X64846Y76861D02*
D03*
X65746D02*
D03*
X65733Y78389D02*
D03*
X64833D02*
D03*
X63972Y78649D02*
D03*
X57472Y76452D02*
D03*
X58354Y76634D02*
D03*
X61033Y76631D02*
D03*
X61930Y76555D02*
D03*
X62393Y78653D02*
D03*
X61494Y78695D02*
D03*
X60651Y78379D02*
D03*
X59792Y78648D02*
D03*
X58893Y78610D02*
D03*
X57996Y78677D02*
D03*
X44931Y78815D02*
D03*
X44031D02*
D03*
X43131D02*
D03*
X42231D02*
D03*
X41331D02*
D03*
X40431D02*
D03*
X39546Y78651D02*
D03*
X39349Y77773D02*
D03*
X39362Y76873D02*
D03*
X40084Y76335D02*
D03*
X40984D02*
D03*
X41884D02*
D03*
X42784D02*
D03*
X43684D02*
D03*
X44584D02*
D03*
X45484D02*
D03*
X46323Y76661D02*
D03*
X47206Y76836D02*
D03*
X48106D02*
D03*
X49006D02*
D03*
X49906D02*
D03*
X50806D02*
D03*
X51706D02*
D03*
X52606D02*
D03*
X53506D02*
D03*
X54406D02*
D03*
X55252Y76530D02*
D03*
X56149Y76452D02*
D03*
X56661Y78591D02*
D03*
X55767Y78698D02*
D03*
X54931Y78364D02*
D03*
X54031D02*
D03*
X53131D02*
D03*
X52231D02*
D03*
X51331D02*
D03*
X50431D02*
D03*
X49531D02*
D03*
X48631D02*
D03*
X47731D02*
D03*
X46831D02*
D03*
X46028Y78769D02*
D03*
X111829Y54980D02*
D03*
X64025Y65125D02*
D03*
X60175Y65075D02*
D03*
G54D36*
X74175Y77150D02*
D03*
X64132Y74058D02*
D03*
G54D37*
X107725Y81700D02*
D03*
X106075D02*
D03*
X104475Y81725D02*
D03*
X102025Y80400D02*
D03*
X100325D02*
D03*
X98550Y80350D02*
D03*
X102025Y82075D02*
D03*
X100325D02*
D03*
X98550Y82050D02*
D03*
G54D38*
X78292Y89352D02*
G03*
X80150Y93837I-4485J4485D01*
G01*
X58875Y94252D02*
G03*
X60733Y89767I6342J-0D01*
G01*
X65850Y69000D02*
X65909Y69059D01*
X67359Y69992D02*
Y70209D01*
X65909Y69059D02*
Y69634D01*
X69200Y72925D01*
X67250Y69800D02*
Y69883D01*
X69200Y72925D02*
Y74450D01*
X67250Y69883D02*
X67359Y69992D01*
Y70209D02*
X69700Y72550D01*
Y74450D01*
X65961Y84539D02*
X67423Y83077D01*
X60733Y89767D02*
X65961Y84539D01*
X80150Y98401D02*
Y100785D01*
Y98401D02*
X80150Y93837D01*
X71971Y83032D02*
X78292Y89352D01*
X70697Y81797D02*
X70700Y81794D01*
Y79300D02*
Y81794D01*
X68700Y81797D02*
X68702Y81798D01*
X68700Y79300D02*
Y81797D01*
X58875Y94252D02*
Y101200D01*
X64050Y66735D02*
X64075Y66760D01*
X64050Y65150D02*
Y66735D01*
X64025Y65125D02*
X64050Y65150D01*
X60196Y65096D02*
Y66726D01*
X60218Y66748D01*
X60175Y65075D02*
X60196Y65096D01*
X76323Y81238D02*
X76325Y81240D01*
X76320Y79600D02*
X76323Y79603D01*
X72825Y77625D02*
X74800Y79600D01*
X76320D01*
X71875Y77625D02*
X72825D01*
X78080Y74115D02*
X78095Y74100D01*
X76250Y74130D02*
X76265Y74115D01*
X75420Y74130D02*
X76250D01*
X72925Y76625D02*
X75420Y74130D01*
X71875Y76625D02*
X72925D01*
X61175Y69750D02*
X64375D01*
X60466Y68576D02*
Y69041D01*
X61175Y69750D01*
X60218Y68328D02*
X60466Y68576D01*
X68700Y73300D02*
Y74450D01*
X64438Y69038D02*
X68700Y73300D01*
X64438Y68663D02*
Y69038D01*
X68700Y74450D02*
X68700Y74450D01*
X64075Y68340D02*
X64115D01*
X64438Y68663D01*
X64057Y68358D02*
X64075Y68340D01*
X62211Y68376D02*
X62229Y68358D01*
X58411Y68351D02*
X58422Y68339D01*
X60206D02*
X60218Y68328D01*
X68200Y73575D02*
Y74450D01*
X64375Y69750D02*
X68200Y73575D01*
X70700Y57329D02*
Y70720D01*
X70646Y57275D02*
X70700Y57329D01*
Y72280D02*
Y74450D01*
X42900Y77600D02*
X55910D01*
X57555Y77615D02*
X61735D01*
X63305Y77625D02*
X67025D01*
G54D39*
X91416Y69880D02*
X99036D01*
X104116Y62250D02*
X106656D01*
X101576D02*
X104116D01*
X106656Y69880D02*
X109196D01*
X104116D02*
X106656D01*
X101576D02*
X104116D01*
G54D40*
X80110Y79650D02*
X80160Y79600D01*
X77950Y79650D02*
X80110D01*
X77900Y79600D02*
X77950Y79650D01*
X93956Y62250D02*
X94003Y62204D01*
Y58037D02*
Y62204D01*
Y58037D02*
X94050Y57990D01*
X91569Y63419D02*
X92725Y64575D01*
X95125D01*
X96343Y62404D02*
Y63357D01*
X95125Y64575D02*
X96343Y63357D01*
X91408Y62242D02*
X91569Y62404D01*
Y63419D01*
X96343Y62404D02*
X96496Y62250D01*
X76292Y77643D02*
Y77673D01*
X76227Y77608D02*
X76257D01*
X74175Y77150D02*
X75769D01*
X76257Y77608D02*
X76292Y77643D01*
X75769Y77150D02*
X76227Y77608D01*
X76292Y76138D02*
Y77350D01*
Y77673D01*
X76272Y76073D02*
X76292Y76138D01*
X114136Y58230D02*
X114276Y58370D01*
X114096Y58230D02*
X114136D01*
X114276Y58370D02*
Y62250D01*
X111596Y58160D02*
X111636D01*
X111736Y58260D02*
Y62250D01*
X111636Y58160D02*
X111736Y58260D01*
X109196Y58480D02*
Y62250D01*
X101576Y58275D02*
Y62250D01*
X98966Y57945D02*
X99036Y58015D01*
X98946Y57945D02*
X98966D01*
X99036Y58015D02*
Y62250D01*
X91408Y57948D02*
Y62242D01*
X91400Y57940D02*
X91408Y57948D01*
X64030Y72860D02*
X64065Y72895D01*
Y73990D02*
X64132Y74058D01*
X64065Y72895D02*
Y73990D01*
X64000Y72860D02*
X64030D01*
X95958Y88408D02*
X104328D01*
X81650Y74130D02*
X81680D01*
X95958Y88408D01*
X99078Y96028D02*
X104328D01*
X81840Y81425D02*
X84475D01*
X99078Y96028D01*
X111775Y55033D02*
X111829Y54980D01*
X111775Y55033D02*
Y56585D01*
X80210Y81375D02*
X80260Y81425D01*
X80210Y79650D02*
Y81375D01*
X79675Y74100D02*
X79690Y74115D01*
X81635D01*
X81650Y74130D01*
X62125Y72880D02*
X63925D01*
G54D41*
X67425Y74150D02*
X67650D01*
X67332Y74058D02*
X67425Y74150D01*
X64132Y74058D02*
X67332D01*
G54D42*
X76323Y79603D02*
Y81238D01*
X76265Y74115D02*
X78080D01*
X62229Y68358D02*
X64057D01*
X58422Y68339D02*
X60206D01*
G54D43*
X71875Y77125D02*
X74150D01*
X74175Y77150D01*
M02*
