G04*
G04 #@! TF.GenerationSoftware,Altium Limited,Altium Designer,21.1.1 (26)*
G04*
G04 Layer_Color=128*
%FSLAX43Y43*%
%MOMM*%
G71*
G04*
G04 #@! TF.SameCoordinates,37E81C00-8B6F-4B96-ABBB-DCCB29EF6B03*
G04*
G04*
G04 #@! TF.FilePolarity,Positive*
G04*
G01*
G75*
%ADD44C,0.051*%
G54D44*
X68325Y91325D02*
X71325D01*
X69825Y89825D02*
Y92825D01*
X80675Y59650D02*
X83675D01*
X82175Y58150D02*
Y61150D01*
X88600Y98325D02*
X91600D01*
X90100Y96825D02*
Y99825D01*
X44475Y60025D02*
X47475D01*
X45975Y58525D02*
Y61525D01*
X44475Y97275D02*
X47475D01*
X45975Y95775D02*
Y98775D01*
X106328Y88408D02*
X107328D01*
X106828Y87908D02*
Y88908D01*
X103828Y88408D02*
X104828D01*
X104328Y87908D02*
Y88908D01*
X103828Y90948D02*
X104828D01*
X104328Y90448D02*
Y91448D01*
X106328Y90948D02*
X107328D01*
X106828Y90448D02*
Y91448D01*
X106328Y93488D02*
X107328D01*
X106828Y92988D02*
Y93988D01*
X103828Y93488D02*
X104828D01*
X104328Y92988D02*
Y93988D01*
X103828Y96028D02*
X104828D01*
X104328Y95528D02*
Y96528D01*
X106328Y96028D02*
X107328D01*
X106828Y95528D02*
Y96528D01*
X106328Y98568D02*
X107328D01*
X106828Y98068D02*
Y99068D01*
X103788Y98568D02*
X104788D01*
X104288Y98068D02*
Y99068D01*
X113876Y69880D02*
X114676D01*
X114276Y69480D02*
Y70280D01*
X111336Y69880D02*
X112136D01*
X111736Y69480D02*
Y70280D01*
X108796Y69880D02*
X109596D01*
X109196Y69480D02*
Y70280D01*
X106256Y69880D02*
X107056D01*
X106656Y69480D02*
Y70280D01*
X103716Y69880D02*
X104516D01*
X104116Y69480D02*
Y70280D01*
X101176Y69880D02*
X101976D01*
X101576Y69480D02*
Y70280D01*
X98636Y69880D02*
X99436D01*
X99036Y69480D02*
Y70280D01*
X96096Y69880D02*
X96896D01*
X96496Y69480D02*
Y70280D01*
X93556Y69880D02*
X94356D01*
X93956Y69480D02*
Y70280D01*
X91016Y69880D02*
X91816D01*
X91416Y69480D02*
Y70280D01*
X113876Y62250D02*
X114676D01*
X114276Y61850D02*
Y62650D01*
X111336Y62250D02*
X112136D01*
X111736Y61850D02*
Y62650D01*
X108796Y62250D02*
X109596D01*
X109196Y61850D02*
Y62650D01*
X106256Y62250D02*
X107056D01*
X106656Y61850D02*
Y62650D01*
X103716Y62250D02*
X104516D01*
X104116Y61850D02*
Y62650D01*
X101176Y62250D02*
X101976D01*
X101576Y61850D02*
Y62650D01*
X98636Y62250D02*
X99436D01*
X99036Y61850D02*
Y62650D01*
X96096Y62250D02*
X96896D01*
X96496Y61850D02*
Y62650D01*
X93556Y62250D02*
X94356D01*
X93956Y61850D02*
Y62650D01*
X91016Y62250D02*
X91816D01*
X91416Y61850D02*
Y62650D01*
X106200Y75550D02*
X107000D01*
X106600Y75150D02*
Y75950D01*
X106200Y78100D02*
X107000D01*
X106600Y77700D02*
Y78500D01*
X72300Y93800D02*
X72600D01*
X72450Y93650D02*
Y93950D01*
X110750Y74300D02*
X111050D01*
X110900Y74150D02*
Y74450D01*
X103300Y75400D02*
X103600D01*
X103450Y75250D02*
Y75550D01*
X97825Y75350D02*
X98125D01*
X97975Y75200D02*
Y75500D01*
X73325Y74350D02*
X73625D01*
X73475Y74200D02*
Y74500D01*
Y80500D02*
X73775D01*
X73625Y80350D02*
Y80650D01*
X70400Y75775D02*
X70700D01*
X70550Y75625D02*
Y75925D01*
X69300Y75775D02*
X69600D01*
X69450Y75625D02*
Y75925D01*
X68200Y75775D02*
X68500D01*
X68350Y75625D02*
Y75925D01*
X70400Y76875D02*
X70700D01*
X70550Y76725D02*
Y77025D01*
X68200Y76875D02*
X68500D01*
X68350Y76725D02*
Y77025D01*
X70400Y77975D02*
X70700D01*
X70550Y77825D02*
Y78125D01*
X69300Y77975D02*
X69600D01*
X69450Y77825D02*
Y78125D01*
X68200Y77975D02*
X68500D01*
X68350Y77825D02*
Y78125D01*
X69300Y76875D02*
X69600D01*
X69450Y76725D02*
Y77025D01*
X67100Y69800D02*
X67400D01*
X67250Y69650D02*
Y69950D01*
X65700Y69000D02*
X66000D01*
X65850Y68850D02*
Y69150D01*
X85825Y104050D02*
X86125D01*
X85975Y103900D02*
Y104200D01*
X85850Y103225D02*
X86150D01*
X86000Y103075D02*
Y103375D01*
X83425Y97600D02*
X83725D01*
X83575Y97450D02*
Y97750D01*
X85825Y99625D02*
X86125D01*
X85975Y99475D02*
Y99775D01*
X84300Y97600D02*
X84600D01*
X84450Y97450D02*
Y97750D01*
X85825Y100525D02*
X86125D01*
X85975Y100375D02*
Y100675D01*
X85200Y97600D02*
X85500D01*
X85350Y97450D02*
Y97750D01*
X85825Y102375D02*
X86125D01*
X85975Y102225D02*
Y102525D01*
X85825Y101475D02*
X86125D01*
X85975Y101325D02*
Y101625D01*
X85825Y98675D02*
X86125D01*
X85975Y98525D02*
Y98825D01*
X87900Y102150D02*
X88200D01*
X88050Y102000D02*
Y102300D01*
X74250Y104000D02*
X74550D01*
X74400Y103850D02*
Y104150D01*
X74250Y100475D02*
X74550D01*
X74400Y100325D02*
Y100625D01*
X74875Y97550D02*
X75175D01*
X75025Y97400D02*
Y97700D01*
X74250Y101425D02*
X74550D01*
X74400Y101275D02*
Y101575D01*
X74250Y98625D02*
X74550D01*
X74400Y98475D02*
Y98775D01*
X74250Y103100D02*
X74550D01*
X74400Y102950D02*
Y103250D01*
X74250Y102325D02*
X74550D01*
X74400Y102175D02*
Y102475D01*
X76650Y97550D02*
X76950D01*
X76800Y97400D02*
Y97700D01*
X74250Y99575D02*
X74550D01*
X74400Y99425D02*
Y99725D01*
X75775Y97550D02*
X76075D01*
X75925Y97400D02*
Y97700D01*
X63200Y97600D02*
X63500D01*
X63350Y97450D02*
Y97750D01*
X64100Y97600D02*
X64400D01*
X64250Y97450D02*
Y97750D01*
X64725Y98675D02*
X65025D01*
X64875Y98525D02*
Y98825D01*
X64725Y102325D02*
X65025D01*
X64875Y102175D02*
Y102475D01*
X64725Y99625D02*
X65025D01*
X64875Y99475D02*
Y99775D01*
X64725Y100525D02*
X65025D01*
X64875Y100375D02*
Y100675D01*
X64725Y101475D02*
X65025D01*
X64875Y101325D02*
Y101625D01*
X64725Y103150D02*
X65025D01*
X64875Y103000D02*
Y103300D01*
X64725Y104050D02*
X65025D01*
X64875Y103900D02*
Y104200D01*
X62325Y97600D02*
X62625D01*
X62475Y97450D02*
Y97750D01*
X52850Y103850D02*
X53150D01*
X53000Y103700D02*
Y104000D01*
X52850Y99425D02*
X53150D01*
X53000Y99275D02*
Y99575D01*
X54375Y97600D02*
X54675D01*
X54525Y97450D02*
Y97750D01*
X52850Y103050D02*
X53150D01*
X53000Y102900D02*
Y103200D01*
X52850Y102175D02*
X53150D01*
X53000Y102025D02*
Y102325D01*
X52850Y101275D02*
X53150D01*
X53000Y101125D02*
Y101425D01*
X52850Y98475D02*
X53150D01*
X53000Y98325D02*
Y98625D01*
X55250Y97600D02*
X55550D01*
X55400Y97450D02*
Y97750D01*
X52850Y100325D02*
X53150D01*
X53000Y100175D02*
Y100475D01*
X53475Y97600D02*
X53775D01*
X53625Y97450D02*
Y97750D01*
X46525Y81875D02*
X46825D01*
X46675Y81725D02*
Y82025D01*
X46525Y82775D02*
X46825D01*
X46675Y82625D02*
Y82925D01*
X45450Y83400D02*
X45750D01*
X45600Y83250D02*
Y83550D01*
X41750Y83400D02*
X42050D01*
X41900Y83250D02*
Y83550D01*
X44500Y83400D02*
X44800D01*
X44650Y83250D02*
Y83550D01*
X43600Y83400D02*
X43900D01*
X43750Y83250D02*
Y83550D01*
X42650Y83400D02*
X42950D01*
X42800Y83250D02*
Y83550D01*
X40900Y83400D02*
X41200D01*
X41050Y83250D02*
Y83550D01*
X40075Y83400D02*
X40375D01*
X40225Y83250D02*
Y83550D01*
X46525Y81000D02*
X46825D01*
X46675Y80850D02*
Y81150D01*
X46375Y72900D02*
X46675D01*
X46525Y72750D02*
Y73050D01*
X46375Y72000D02*
X46675D01*
X46525Y71850D02*
Y72150D01*
X45300Y71375D02*
X45600D01*
X45450Y71225D02*
Y71525D01*
X41600Y71375D02*
X41900D01*
X41750Y71225D02*
Y71525D01*
X44350Y71375D02*
X44650D01*
X44500Y71225D02*
Y71525D01*
X43450Y71375D02*
X43750D01*
X43600Y71225D02*
Y71525D01*
X42500Y71375D02*
X42800D01*
X42650Y71225D02*
Y71525D01*
X40725Y71375D02*
X41025D01*
X40875Y71225D02*
Y71525D01*
X39925Y71375D02*
X40225D01*
X40075Y71225D02*
Y71525D01*
X46375Y73775D02*
X46675D01*
X46525Y73625D02*
Y73925D01*
X64525Y56150D02*
X64825D01*
X64675Y56000D02*
Y56300D01*
X66050Y60825D02*
X66350D01*
X66200Y60675D02*
Y60975D01*
X65150Y60825D02*
X65450D01*
X65300Y60675D02*
Y60975D01*
X64525Y59750D02*
X64825D01*
X64675Y59600D02*
Y59900D01*
X64525Y58800D02*
X64825D01*
X64675Y58650D02*
Y58950D01*
X64525Y57900D02*
X64825D01*
X64675Y57750D02*
Y58050D01*
X64525Y56950D02*
X64825D01*
X64675Y56800D02*
Y57100D01*
X64525Y55275D02*
X64825D01*
X64675Y55125D02*
Y55425D01*
X64525Y54375D02*
X64825D01*
X64675Y54225D02*
Y54525D01*
X66925Y60825D02*
X67225D01*
X67075Y60675D02*
Y60975D01*
X73775Y60825D02*
X74075D01*
X73925Y60675D02*
Y60975D01*
X76175Y54325D02*
X76475D01*
X76325Y54175D02*
Y54475D01*
X76175Y55175D02*
X76475D01*
X76325Y55025D02*
Y55325D01*
X76175Y56950D02*
X76475D01*
X76325Y56800D02*
Y57100D01*
X76175Y57900D02*
X76475D01*
X76325Y57750D02*
Y58050D01*
X76175Y58800D02*
X76475D01*
X76325Y58650D02*
Y58950D01*
X76175Y56050D02*
X76475D01*
X76325Y55900D02*
Y56200D01*
X76175Y59750D02*
X76475D01*
X76325Y59600D02*
Y59900D01*
X75550Y60825D02*
X75850D01*
X75700Y60675D02*
Y60975D01*
X61250Y93775D02*
X61550D01*
X61400Y93625D02*
Y93925D01*
X76525Y93750D02*
X76825D01*
X76675Y93600D02*
Y93900D01*
X67575Y80375D02*
X67875D01*
X67725Y80225D02*
Y80525D01*
X67550Y81225D02*
X67850D01*
X67700Y81075D02*
Y81375D01*
X71600Y80325D02*
X71900D01*
X71750Y80175D02*
Y80475D01*
X71575Y81200D02*
X71875D01*
X71725Y81050D02*
Y81350D01*
X69500Y80500D02*
X69800D01*
X69650Y80350D02*
Y80650D01*
X69525Y81400D02*
X69825D01*
X69675Y81250D02*
Y81550D01*
X69525Y82700D02*
X69825D01*
X69675Y82550D02*
Y82850D01*
X60300Y71175D02*
X60600D01*
X60450Y71025D02*
Y71325D01*
X119600Y103425D02*
X119900D01*
X119750Y103275D02*
Y103575D01*
X115125Y103275D02*
X115425D01*
X115275Y103125D02*
Y103425D01*
X119475Y98725D02*
X119775D01*
X119625Y98575D02*
Y98875D01*
X119775Y93825D02*
X120075D01*
X119925Y93675D02*
Y93975D01*
X120000Y88725D02*
X120300D01*
X120150Y88575D02*
Y88875D01*
X112650Y85975D02*
X112950D01*
X112800Y85825D02*
Y86125D01*
X117800Y85750D02*
X118100D01*
X117950Y85600D02*
Y85900D01*
X115225Y88600D02*
X115525D01*
X115375Y88450D02*
Y88750D01*
X95225Y96900D02*
X95525D01*
X95375Y96750D02*
Y97050D01*
X99375Y90825D02*
X99675D01*
X99525Y90675D02*
Y90975D01*
X99375Y94200D02*
X99675D01*
X99525Y94050D02*
Y94350D01*
X96700Y90650D02*
X97000D01*
X96850Y90500D02*
Y90800D01*
X93225Y88100D02*
X93525D01*
X93375Y87950D02*
Y88250D01*
X90400Y85150D02*
X90700D01*
X90550Y85000D02*
Y85300D01*
X87600Y82375D02*
X87900D01*
X87750Y82225D02*
Y82525D01*
X85275Y80275D02*
X85575D01*
X85425Y80125D02*
Y80425D01*
X78675Y82625D02*
X78975D01*
X78825Y82475D02*
Y82775D01*
X83000Y78475D02*
X83300D01*
X83150Y78325D02*
Y78625D01*
X79875Y75900D02*
X80175D01*
X80025Y75750D02*
Y76050D01*
X79825Y77525D02*
X80125D01*
X79975Y77375D02*
Y77675D01*
X99450Y83950D02*
X99750D01*
X99600Y83800D02*
Y84100D01*
X99150Y86400D02*
X99450D01*
X99300Y86250D02*
Y86550D01*
X97425Y83875D02*
X97725D01*
X97575Y83725D02*
Y84025D01*
X95975Y85825D02*
X96275D01*
X96125Y85675D02*
Y85975D01*
X94900Y80775D02*
X95200D01*
X95050Y80625D02*
Y80925D01*
X91575Y78050D02*
X91875D01*
X91725Y77900D02*
Y78200D01*
X93750Y83475D02*
X94050D01*
X93900Y83325D02*
Y83625D01*
X90875Y80575D02*
X91175D01*
X91025Y80425D02*
Y80725D01*
X87925Y78000D02*
X88225D01*
X88075Y77850D02*
Y78150D01*
X93675Y75225D02*
X93975D01*
X93825Y75075D02*
Y75375D01*
X89150Y75050D02*
X89450D01*
X89300Y74900D02*
Y75200D01*
X84785Y75054D02*
X85085D01*
X84935Y74904D02*
Y75204D01*
X118175Y74550D02*
X118475D01*
X118325Y74400D02*
Y74700D01*
X113650Y74350D02*
X113950D01*
X113800Y74200D02*
Y74500D01*
X120525Y72200D02*
X120825D01*
X120675Y72050D02*
Y72350D01*
X118200Y68625D02*
X118500D01*
X118350Y68475D02*
Y68775D01*
X95150Y65850D02*
X95450D01*
X95300Y65700D02*
Y66000D01*
X103175Y65950D02*
X103475D01*
X103325Y65800D02*
Y66100D01*
X111450Y66050D02*
X111750D01*
X111600Y65900D02*
Y66200D01*
X116225Y64550D02*
X116525D01*
X116375Y64400D02*
Y64700D01*
X120400Y64550D02*
X120700D01*
X120550Y64400D02*
Y64700D01*
X120575Y58550D02*
X120875D01*
X120725Y58400D02*
Y58700D01*
X118125Y60650D02*
X118425D01*
X118275Y60500D02*
Y60800D01*
X118125Y55950D02*
X118425D01*
X118275Y55800D02*
Y56100D01*
X104625Y55200D02*
X104925D01*
X104775Y55050D02*
Y55350D01*
X96375Y55100D02*
X96675D01*
X96525Y54950D02*
Y55250D01*
X90100Y55125D02*
X90400D01*
X90250Y54975D02*
Y55275D01*
X83875Y56375D02*
X84175D01*
X84025Y56225D02*
Y56525D01*
X80600Y55125D02*
X80900D01*
X80750Y54975D02*
Y55275D01*
X67850Y67675D02*
X68150D01*
X68000Y67525D02*
Y67825D01*
X68075Y63850D02*
X68375D01*
X68225Y63700D02*
Y64000D01*
X65625Y65650D02*
X65925D01*
X65775Y65500D02*
Y65800D01*
X63300Y63275D02*
X63600D01*
X63450Y63125D02*
Y63425D01*
X73925Y77150D02*
X74425D01*
X74175Y76900D02*
Y77400D01*
X69250Y84700D02*
X69550D01*
X69400Y84550D02*
Y84850D01*
X71650Y87875D02*
X71950D01*
X71800Y87725D02*
Y88025D01*
X68000Y88075D02*
X68300D01*
X68150Y87925D02*
Y88225D01*
X54725Y95250D02*
X55025D01*
X54875Y95100D02*
Y95400D01*
X54150Y88450D02*
X54450D01*
X54300Y88300D02*
Y88600D01*
X54800Y91725D02*
X55100D01*
X54950Y91575D02*
Y91875D01*
X62750Y81750D02*
X63050D01*
X62900Y81600D02*
Y81900D01*
X59925Y84125D02*
X60225D01*
X60075Y83975D02*
Y84275D01*
X49225Y87550D02*
X49525D01*
X49375Y87400D02*
Y87700D01*
X46475Y84650D02*
X46775D01*
X46625Y84500D02*
Y84800D01*
X44425Y69775D02*
X44725D01*
X44575Y69625D02*
Y69925D01*
X58400Y74950D02*
X58700D01*
X58550Y74800D02*
Y75100D01*
X48525Y69750D02*
X48825D01*
X48675Y69600D02*
Y69900D01*
X48375Y75000D02*
X48675D01*
X48525Y74850D02*
Y75150D01*
X51100Y72600D02*
X51400D01*
X51250Y72450D02*
Y72750D01*
X53750Y70200D02*
X54050D01*
X53900Y70050D02*
Y70350D01*
X53700Y74750D02*
X54000D01*
X53850Y74600D02*
Y74900D01*
X56000Y72450D02*
X56300D01*
X56150Y72300D02*
Y72600D01*
X58410Y70096D02*
X58710D01*
X58560Y69946D02*
Y70246D01*
X80025Y65325D02*
X80325D01*
X80175Y65175D02*
Y65475D01*
X58425Y58850D02*
X58725D01*
X58575Y58700D02*
Y59000D01*
X60225Y57200D02*
X60525D01*
X60375Y57050D02*
Y57350D01*
X61025Y61000D02*
X61325D01*
X61175Y60850D02*
Y61150D01*
X62775Y59125D02*
X63075D01*
X62925Y58975D02*
Y59275D01*
X55725Y57275D02*
X56025D01*
X55875Y57125D02*
Y57425D01*
X50525Y67150D02*
X50825D01*
X50675Y67000D02*
Y67300D01*
X55775D02*
X56075D01*
X55925Y67150D02*
Y67450D01*
X53375Y64575D02*
X53675D01*
X53525Y64425D02*
Y64725D01*
X50975Y61925D02*
X51275D01*
X51125Y61775D02*
Y62075D01*
X55525Y61975D02*
X55825D01*
X55675Y61825D02*
Y62125D01*
X53225Y59675D02*
X53525D01*
X53375Y59525D02*
Y59825D01*
X50871Y57265D02*
X51171D01*
X51021Y57115D02*
Y57415D01*
X46675Y56925D02*
X46975D01*
X46825Y56775D02*
Y57075D01*
X41475Y66800D02*
X41775D01*
X41625Y66650D02*
Y66950D01*
X46725D02*
X47025D01*
X46875Y66800D02*
Y67100D01*
X44325Y64225D02*
X44625D01*
X44475Y64075D02*
Y64375D01*
X41925Y61575D02*
X42225D01*
X42075Y61425D02*
Y61725D01*
X41821Y56915D02*
X42121D01*
X41971Y56765D02*
Y57065D01*
X87425Y58050D02*
X87725D01*
X87575Y57900D02*
Y58200D01*
X82225Y67925D02*
X82525D01*
X82375Y67775D02*
Y68075D01*
X87475D02*
X87775D01*
X87625Y67925D02*
Y68225D01*
X85075Y65350D02*
X85375D01*
X85225Y65200D02*
Y65500D01*
X82675Y62700D02*
X82975D01*
X82825Y62550D02*
Y62850D01*
X87225Y62750D02*
X87525D01*
X87375Y62600D02*
Y62900D01*
X84925Y60450D02*
X85225D01*
X85075Y60300D02*
Y60600D01*
X77925Y57925D02*
X78225D01*
X78075Y57775D02*
Y58075D01*
X72725Y67800D02*
X73025D01*
X72875Y67650D02*
Y67950D01*
X77975D02*
X78275D01*
X78125Y67800D02*
Y68100D01*
X75575Y65225D02*
X75875D01*
X75725Y65075D02*
Y65375D01*
X73175Y62575D02*
X73475D01*
X73325Y62425D02*
Y62725D01*
X77725Y62625D02*
X78025D01*
X77875Y62475D02*
Y62775D01*
X74650Y60825D02*
X74950D01*
X74800Y60675D02*
Y60975D01*
X112696Y91365D02*
X112996D01*
X112846Y91215D02*
Y91515D01*
X115050Y93775D02*
X115350D01*
X115200Y93625D02*
Y93925D01*
X117350Y96075D02*
X117650D01*
X117500Y95925D02*
Y96225D01*
X112800Y96025D02*
X113100D01*
X112950Y95875D02*
Y96175D01*
X115200Y98675D02*
X115500D01*
X115350Y98525D02*
Y98825D01*
X117600Y101400D02*
X117900D01*
X117750Y101250D02*
Y101550D01*
X112350Y101250D02*
X112650D01*
X112500Y101100D02*
Y101400D01*
X117550Y91375D02*
X117850D01*
X117700Y91225D02*
Y91525D01*
X66375Y103300D02*
X66675D01*
X66525Y103150D02*
Y103450D01*
X68675Y101500D02*
X68975D01*
X68825Y101350D02*
Y101650D01*
X71325Y99075D02*
X71625D01*
X71475Y98925D02*
Y99225D01*
X71375Y103250D02*
X71675D01*
X71525Y103100D02*
Y103400D01*
X66275Y99000D02*
X66575D01*
X66425Y98850D02*
Y99150D01*
X92450Y103000D02*
X92750D01*
X92600Y102850D02*
Y103150D01*
X95100Y100600D02*
X95400D01*
X95250Y100450D02*
Y100750D01*
X97825Y98200D02*
X98125D01*
X97975Y98050D02*
Y98350D01*
X97675Y103450D02*
X97975D01*
X97825Y103300D02*
Y103600D01*
X79075Y85525D02*
X79375D01*
X79225Y85375D02*
Y85675D01*
X81825Y84175D02*
X82125D01*
X81975Y84025D02*
Y84325D01*
X81200Y87775D02*
X81500D01*
X81350Y87625D02*
Y87925D01*
X83950Y85900D02*
X84250D01*
X84100Y85750D02*
Y86050D01*
X86100Y87500D02*
X86400D01*
X86250Y87350D02*
Y87650D01*
X76200Y83025D02*
X76500D01*
X76350Y82875D02*
Y83175D01*
X83150Y94000D02*
X83450D01*
X83300Y93850D02*
Y94150D01*
X85450Y92200D02*
X85750D01*
X85600Y92050D02*
Y92350D01*
X88025Y89925D02*
X88325D01*
X88175Y89775D02*
Y90075D01*
X87700Y94450D02*
X88000D01*
X87850Y94300D02*
Y94600D01*
X90350Y92050D02*
X90650D01*
X90500Y91900D02*
Y92200D01*
X92925Y94900D02*
X93225D01*
X93075Y94750D02*
Y95050D01*
X83050Y89700D02*
X83350D01*
X83200Y89550D02*
Y89850D01*
X64125Y96025D02*
X64425D01*
X64275Y95875D02*
Y96175D01*
X66525Y93675D02*
X66825D01*
X66675Y93525D02*
Y93825D01*
X68775Y95925D02*
X69075D01*
X68925Y95775D02*
Y96075D01*
X74150Y91125D02*
X74450D01*
X74300Y90975D02*
Y91275D01*
X74050Y95975D02*
X74350D01*
X74200Y95825D02*
Y96125D01*
X64125Y91175D02*
X64425D01*
X64275Y91025D02*
Y91325D01*
X44025Y86375D02*
X44325D01*
X44175Y86225D02*
Y86525D01*
X49325Y84025D02*
X49625D01*
X49475Y83875D02*
Y84175D01*
X51625Y81725D02*
X51925D01*
X51775Y81575D02*
Y81875D01*
X51575Y86275D02*
X51875D01*
X51725Y86125D02*
Y86425D01*
X54225Y83875D02*
X54525D01*
X54375Y83725D02*
Y84025D01*
X56950Y81475D02*
X57250D01*
X57100Y81325D02*
Y81625D01*
X56800Y86725D02*
X57100D01*
X56950Y86575D02*
Y86875D01*
X41475Y93325D02*
X41775D01*
X41625Y93175D02*
Y93475D01*
X43775Y91525D02*
X44075D01*
X43925Y91375D02*
Y91675D01*
X46075Y89225D02*
X46375D01*
X46225Y89075D02*
Y89375D01*
X46025Y93775D02*
X46325D01*
X46175Y93625D02*
Y93925D01*
X48725Y91725D02*
X49025D01*
X48875Y91575D02*
Y91875D01*
X51900Y90425D02*
X52200D01*
X52050Y90275D02*
Y90575D01*
X51250Y94225D02*
X51550D01*
X51400Y94075D02*
Y94375D01*
X41375Y89025D02*
X41675D01*
X41525Y88875D02*
Y89175D01*
X41125Y97075D02*
X41425D01*
X41275Y96925D02*
Y97225D01*
X51000Y102275D02*
X51300D01*
X51150Y102125D02*
Y102425D01*
Y97025D02*
X51450D01*
X51300Y96875D02*
Y97175D01*
X48425Y99425D02*
X48725D01*
X48575Y99275D02*
Y99575D01*
X45775Y101825D02*
X46075D01*
X45925Y101675D02*
Y101975D01*
X43525Y99575D02*
X43825D01*
X43675Y99425D02*
Y99725D01*
X41225Y101375D02*
X41525D01*
X41375Y101225D02*
Y101525D01*
X63882Y74058D02*
X64382D01*
X64132Y73808D02*
Y74308D01*
X69480Y70547D02*
X69780D01*
X69630Y70397D02*
Y70697D01*
X69786Y69701D02*
X70086D01*
X69936Y69551D02*
Y69851D01*
X69786Y68801D02*
X70086D01*
X69936Y68651D02*
Y68951D01*
X69786Y67901D02*
X70086D01*
X69936Y67751D02*
Y68051D01*
X69786Y67001D02*
X70086D01*
X69936Y66851D02*
Y67151D01*
X69786Y66101D02*
X70086D01*
X69936Y65951D02*
Y66251D01*
X69786Y65201D02*
X70086D01*
X69936Y65051D02*
Y65351D01*
X69786Y64301D02*
X70086D01*
X69936Y64151D02*
Y64451D01*
X69786Y63401D02*
X70086D01*
X69936Y63251D02*
Y63551D01*
X69786Y62501D02*
X70086D01*
X69936Y62351D02*
Y62651D01*
X69786Y61601D02*
X70086D01*
X69936Y61451D02*
Y61751D01*
X69583Y60724D02*
X69883D01*
X69733Y60574D02*
Y60874D01*
X69256Y59886D02*
X69555D01*
X69406Y59736D02*
Y60036D01*
X69256Y58986D02*
X69555D01*
X69406Y58836D02*
Y59136D01*
X69256Y58086D02*
X69555D01*
X69406Y57936D02*
Y58236D01*
X69256Y57186D02*
X69555D01*
X69406Y57036D02*
Y57336D01*
X69256Y56286D02*
X69555D01*
X69406Y56136D02*
Y56436D01*
X69256Y55386D02*
X69555D01*
X69406Y55236D02*
Y55536D01*
X69256Y54486D02*
X69555D01*
X69406Y54336D02*
Y54636D01*
X71570Y53944D02*
X71870D01*
X71720Y53794D02*
Y54094D01*
X71735Y54829D02*
X72035D01*
X71885Y54679D02*
Y54979D01*
X71735Y55729D02*
X72035D01*
X71885Y55579D02*
Y55879D01*
X71735Y56629D02*
X72035D01*
X71885Y56479D02*
Y56779D01*
X71735Y57529D02*
X72035D01*
X71885Y57379D02*
Y57679D01*
X71735Y58429D02*
X72035D01*
X71885Y58279D02*
Y58579D01*
X71735Y59329D02*
X72035D01*
X71885Y59179D02*
Y59479D01*
X71729Y60229D02*
X72029D01*
X71879Y60079D02*
Y60379D01*
X71314Y61027D02*
X71614D01*
X71464Y60877D02*
Y61177D01*
X71314Y61927D02*
X71614D01*
X71464Y61777D02*
Y62077D01*
X71314Y62827D02*
X71614D01*
X71464Y62677D02*
Y62977D01*
X71314Y63727D02*
X71614D01*
X71464Y63577D02*
Y63877D01*
X71314Y64627D02*
X71614D01*
X71464Y64477D02*
Y64777D01*
X71314Y65527D02*
X71614D01*
X71464Y65377D02*
Y65677D01*
X71314Y66427D02*
X71614D01*
X71464Y66277D02*
Y66577D01*
X71314Y67327D02*
X71614D01*
X71464Y67177D02*
Y67477D01*
X71314Y68227D02*
X71614D01*
X71464Y68077D02*
Y68377D01*
X71314Y69127D02*
X71614D01*
X71464Y68977D02*
Y69277D01*
X71537Y69999D02*
X71837D01*
X71687Y69849D02*
Y70149D01*
X58475Y104726D02*
X58775D01*
X58625Y104576D02*
Y104876D01*
X57612Y104473D02*
X57912D01*
X57762Y104323D02*
Y104623D01*
X57485Y103582D02*
X57785D01*
X57635Y103432D02*
Y103732D01*
X57485Y102682D02*
X57785D01*
X57635Y102532D02*
Y102832D01*
X57485Y101782D02*
X57785D01*
X57635Y101632D02*
Y101932D01*
X57485Y100882D02*
X57785D01*
X57635Y100732D02*
Y101032D01*
X57485Y99982D02*
X57785D01*
X57635Y99832D02*
Y100132D01*
X57485Y99082D02*
X57785D01*
X57635Y98932D02*
Y99232D01*
X57504Y98182D02*
X57804D01*
X57654Y98032D02*
Y98332D01*
X57961Y97407D02*
X58261D01*
X58111Y97257D02*
Y97557D01*
X57961Y96507D02*
X58261D01*
X58111Y96357D02*
Y96657D01*
X57961Y95607D02*
X58261D01*
X58111Y95457D02*
Y95757D01*
X57961Y94707D02*
X58261D01*
X58111Y94557D02*
Y94857D01*
X57987Y93807D02*
X58287D01*
X58137Y93657D02*
Y93957D01*
X58099Y92914D02*
X58399D01*
X58249Y92764D02*
Y93064D01*
X58321Y92042D02*
X58621D01*
X58471Y91892D02*
Y92192D01*
X58651Y91205D02*
X58951D01*
X58801Y91055D02*
Y91355D01*
X59089Y90418D02*
X59389D01*
X59239Y90268D02*
Y90568D01*
X59625Y89696D02*
X59925D01*
X59775Y89546D02*
Y89846D01*
X60236Y89034D02*
X60536D01*
X60386Y88884D02*
Y89184D01*
X60872Y88398D02*
X61172D01*
X61022Y88248D02*
Y88548D01*
X61508Y87761D02*
X61808D01*
X61659Y87611D02*
Y87911D01*
X62145Y87125D02*
X62445D01*
X62295Y86975D02*
Y87275D01*
X62781Y86489D02*
X63081D01*
X62931Y86339D02*
Y86639D01*
X63418Y85852D02*
X63718D01*
X63568Y85702D02*
Y86002D01*
X64054Y85216D02*
X64354D01*
X64204Y85066D02*
Y85366D01*
X64225Y84525D02*
X64525D01*
X64375Y84375D02*
Y84675D01*
X65875Y83050D02*
X66175D01*
X66025Y82900D02*
Y83200D01*
X66339Y82520D02*
X66639D01*
X66489Y82370D02*
Y82670D01*
X66964Y81873D02*
X67264D01*
X67114Y81723D02*
Y82023D01*
X68481Y83382D02*
X68781D01*
X68631Y83232D02*
Y83532D01*
X67875Y84050D02*
X68175D01*
X68025Y83900D02*
Y84200D01*
X67088Y84511D02*
X67388D01*
X67238Y84361D02*
Y84661D01*
X66625Y85283D02*
X66925D01*
X66775Y85133D02*
Y85433D01*
X65888Y85800D02*
X66188D01*
X66038Y85650D02*
Y85950D01*
X65136Y86294D02*
X65436D01*
X65286Y86144D02*
Y86444D01*
X64500Y86931D02*
X64800D01*
X64650Y86781D02*
Y87081D01*
X63863Y87567D02*
X64163D01*
X64013Y87417D02*
Y87717D01*
X63227Y88203D02*
X63527D01*
X63377Y88053D02*
Y88353D01*
X62590Y88840D02*
X62890D01*
X62740Y88690D02*
Y88990D01*
X61954Y89476D02*
X62254D01*
X62104Y89326D02*
Y89626D01*
X61318Y90113D02*
X61618D01*
X61468Y89963D02*
Y90263D01*
X60700Y90768D02*
X61000D01*
X60850Y90618D02*
Y90918D01*
X60205Y91519D02*
X60505D01*
X60355Y91369D02*
Y91669D01*
X59824Y92334D02*
X60124D01*
X59974Y92184D02*
Y92484D01*
X59588Y93203D02*
X59888D01*
X59738Y93053D02*
Y93353D01*
X59489Y94097D02*
X59789D01*
X59639Y93947D02*
Y94247D01*
X59489Y94997D02*
X59789D01*
X59639Y94847D02*
Y95147D01*
X59489Y95897D02*
X59789D01*
X59639Y95747D02*
Y96047D01*
X59489Y96797D02*
X59789D01*
X59639Y96647D02*
Y96947D01*
X59489Y97697D02*
X59789D01*
X59639Y97547D02*
Y97847D01*
X59965Y98461D02*
X60265D01*
X60115Y98311D02*
Y98611D01*
X59965Y99361D02*
X60265D01*
X60115Y99211D02*
Y99511D01*
X59965Y100261D02*
X60265D01*
X60115Y100111D02*
Y100411D01*
X59965Y101161D02*
X60265D01*
X60115Y101011D02*
Y101311D01*
X59965Y102061D02*
X60265D01*
X60115Y101911D02*
Y102211D01*
X59965Y102961D02*
X60265D01*
X60115Y102811D02*
Y103111D01*
X59965Y103861D02*
X60265D01*
X60115Y103711D02*
Y104011D01*
X59592Y104680D02*
X59892D01*
X59742Y104530D02*
Y104830D01*
X80222Y104701D02*
X80522D01*
X80372Y104551D02*
Y104851D01*
X79322Y104697D02*
X79622D01*
X79472Y104547D02*
Y104847D01*
X78735Y104015D02*
X79035D01*
X78885Y103865D02*
Y104165D01*
X78735Y103115D02*
X79035D01*
X78885Y102965D02*
Y103265D01*
X78735Y102215D02*
X79035D01*
X78885Y102065D02*
Y102365D01*
X78735Y101315D02*
X79035D01*
X78885Y101165D02*
Y101465D01*
X78735Y100415D02*
X79035D01*
X78885Y100265D02*
Y100565D01*
X78735Y99515D02*
X79035D01*
X78885Y99365D02*
Y99665D01*
X78735Y98615D02*
X79035D01*
X78885Y98465D02*
Y98765D01*
X79013Y97759D02*
X79313D01*
X79163Y97609D02*
Y97909D01*
X79236Y96887D02*
X79536D01*
X79386Y96737D02*
Y97037D01*
X79236Y95987D02*
X79536D01*
X79386Y95837D02*
Y96137D01*
X79236Y95087D02*
X79536D01*
X79386Y94937D02*
Y95237D01*
X79236Y94187D02*
X79536D01*
X79386Y94037D02*
Y94337D01*
X79214Y93287D02*
X79514D01*
X79364Y93137D02*
Y93437D01*
X79049Y92403D02*
X79349D01*
X79199Y92253D02*
Y92553D01*
X78749Y91554D02*
X79049D01*
X78899Y91404D02*
Y91704D01*
X78317Y90765D02*
X78617D01*
X78467Y90615D02*
Y90915D01*
X77761Y90057D02*
X78061D01*
X77911Y89907D02*
Y90207D01*
X77127Y89418D02*
X77427D01*
X77277Y89268D02*
Y89568D01*
X76491Y88781D02*
X76791D01*
X76641Y88631D02*
Y88931D01*
X75855Y88145D02*
X76155D01*
X76005Y87995D02*
Y88295D01*
X75218Y87508D02*
X75518D01*
X75368Y87358D02*
Y87658D01*
X74582Y86872D02*
X74882D01*
X74732Y86722D02*
Y87022D01*
X73945Y86236D02*
X74245D01*
X74095Y86086D02*
Y86386D01*
X73309Y85599D02*
X73609D01*
X73459Y85449D02*
Y85749D01*
X72673Y84963D02*
X72973D01*
X72823Y84813D02*
Y85113D01*
X72036Y84327D02*
X72336D01*
X72186Y84177D02*
Y84477D01*
X71210Y83970D02*
X71510D01*
X71360Y83820D02*
Y84120D01*
X70575Y83332D02*
X70875D01*
X70725Y83182D02*
Y83482D01*
X72181Y81918D02*
X72481D01*
X72331Y81768D02*
Y82068D01*
X72797Y82574D02*
X73096D01*
X72947Y82424D02*
Y82724D01*
X73232Y83362D02*
X73532D01*
X73382Y83212D02*
Y83512D01*
X73868Y83998D02*
X74168D01*
X74018Y83848D02*
Y84148D01*
X74505Y84635D02*
X74805D01*
X74655Y84485D02*
Y84785D01*
X75141Y85271D02*
X75441D01*
X75291Y85121D02*
Y85421D01*
X75777Y85907D02*
X76077D01*
X75927Y85757D02*
Y86057D01*
X76414Y86544D02*
X76714D01*
X76564Y86394D02*
Y86694D01*
X77050Y87180D02*
X77350D01*
X77200Y87030D02*
Y87330D01*
X77687Y87817D02*
X77987D01*
X77837Y87667D02*
Y87967D01*
X78323Y88453D02*
X78623D01*
X78473Y88303D02*
Y88603D01*
X78943Y89105D02*
X79243D01*
X79093Y88955D02*
Y89255D01*
X79500Y89812D02*
X79800D01*
X79650Y89662D02*
Y89962D01*
X79965Y90583D02*
X80265D01*
X80115Y90433D02*
Y90733D01*
X80329Y91406D02*
X80629D01*
X80479Y91256D02*
Y91556D01*
X80583Y92270D02*
X80883D01*
X80733Y92120D02*
Y92420D01*
X80725Y93158D02*
X81025D01*
X80875Y93008D02*
Y93308D01*
X80764Y94057D02*
X81064D01*
X80914Y93907D02*
Y94207D01*
X80764Y94957D02*
X81064D01*
X80914Y94807D02*
Y95107D01*
X80764Y95857D02*
X81064D01*
X80914Y95707D02*
Y96007D01*
X80764Y96757D02*
X81064D01*
X80914Y96607D02*
Y96907D01*
X80764Y97657D02*
X81064D01*
X80914Y97507D02*
Y97807D01*
X81215Y98436D02*
X81515D01*
X81365Y98286D02*
Y98586D01*
X81215Y99336D02*
X81515D01*
X81365Y99186D02*
Y99486D01*
X81215Y100236D02*
X81515D01*
X81365Y100086D02*
Y100386D01*
X81215Y101136D02*
X81515D01*
X81365Y100986D02*
Y101286D01*
X81215Y102036D02*
X81515D01*
X81365Y101886D02*
Y102186D01*
X81215Y102936D02*
X81515D01*
X81365Y102786D02*
Y103086D01*
X81215Y103836D02*
X81515D01*
X81365Y103686D02*
Y103986D01*
X81050Y104650D02*
X81350D01*
X81200Y104500D02*
Y104800D01*
X62933Y76555D02*
X63233D01*
X63083Y76405D02*
Y76705D01*
X63832Y76608D02*
X64132D01*
X63982Y76458D02*
Y76758D01*
X64696Y76861D02*
X64996D01*
X64846Y76711D02*
Y77011D01*
X65596Y76861D02*
X65896D01*
X65746Y76711D02*
Y77011D01*
X65583Y78389D02*
X65883D01*
X65733Y78239D02*
Y78539D01*
X64683Y78389D02*
X64983D01*
X64833Y78239D02*
Y78539D01*
X63822Y78649D02*
X64122D01*
X63972Y78499D02*
Y78799D01*
X57322Y76452D02*
X57622D01*
X57472Y76302D02*
Y76602D01*
X58204Y76634D02*
X58504D01*
X58354Y76484D02*
Y76784D01*
X60883Y76631D02*
X61183D01*
X61033Y76481D02*
Y76781D01*
X61780Y76555D02*
X62080D01*
X61930Y76405D02*
Y76705D01*
X62243Y78653D02*
X62543D01*
X62393Y78503D02*
Y78803D01*
X61344Y78695D02*
X61644D01*
X61494Y78545D02*
Y78845D01*
X60501Y78379D02*
X60801D01*
X60651Y78229D02*
Y78529D01*
X59642Y78648D02*
X59942D01*
X59792Y78498D02*
Y78798D01*
X58743Y78610D02*
X59043D01*
X58893Y78460D02*
Y78760D01*
X57846Y78677D02*
X58146D01*
X57996Y78527D02*
Y78827D01*
X44781Y78815D02*
X45081D01*
X44931Y78665D02*
Y78965D01*
X43881Y78815D02*
X44181D01*
X44031Y78665D02*
Y78965D01*
X42981Y78815D02*
X43281D01*
X43131Y78665D02*
Y78965D01*
X42081Y78815D02*
X42381D01*
X42231Y78665D02*
Y78965D01*
X41181Y78815D02*
X41481D01*
X41331Y78665D02*
Y78965D01*
X40281Y78815D02*
X40581D01*
X40431Y78665D02*
Y78965D01*
X39396Y78651D02*
X39696D01*
X39546Y78501D02*
Y78801D01*
X39199Y77773D02*
X39499D01*
X39349Y77623D02*
Y77923D01*
X39212Y76873D02*
X39512D01*
X39362Y76723D02*
Y77023D01*
X39934Y76335D02*
X40234D01*
X40084Y76185D02*
Y76485D01*
X40834Y76335D02*
X41134D01*
X40984Y76185D02*
Y76485D01*
X41734Y76335D02*
X42034D01*
X41884Y76185D02*
Y76485D01*
X42634Y76335D02*
X42934D01*
X42784Y76185D02*
Y76485D01*
X43534Y76335D02*
X43834D01*
X43684Y76185D02*
Y76485D01*
X44434Y76335D02*
X44734D01*
X44584Y76185D02*
Y76485D01*
X45334Y76335D02*
X45634D01*
X45484Y76185D02*
Y76485D01*
X46173Y76661D02*
X46473D01*
X46323Y76511D02*
Y76811D01*
X47056Y76836D02*
X47356D01*
X47206Y76686D02*
Y76986D01*
X47956Y76836D02*
X48256D01*
X48106Y76686D02*
Y76986D01*
X48856Y76836D02*
X49156D01*
X49006Y76686D02*
Y76986D01*
X49756Y76836D02*
X50056D01*
X49906Y76686D02*
Y76986D01*
X50656Y76836D02*
X50956D01*
X50806Y76686D02*
Y76986D01*
X51556Y76836D02*
X51856D01*
X51706Y76686D02*
Y76986D01*
X52456Y76836D02*
X52756D01*
X52606Y76686D02*
Y76986D01*
X53356Y76836D02*
X53656D01*
X53506Y76686D02*
Y76986D01*
X54256Y76836D02*
X54556D01*
X54406Y76686D02*
Y76986D01*
X55102Y76530D02*
X55402D01*
X55252Y76380D02*
Y76680D01*
X55999Y76452D02*
X56299D01*
X56149Y76302D02*
Y76602D01*
X56511Y78591D02*
X56811D01*
X56661Y78441D02*
Y78741D01*
X55617Y78698D02*
X55917D01*
X55767Y78548D02*
Y78848D01*
X54781Y78364D02*
X55081D01*
X54931Y78214D02*
Y78514D01*
X53881Y78364D02*
X54181D01*
X54031Y78214D02*
Y78514D01*
X52981Y78364D02*
X53281D01*
X53131Y78214D02*
Y78514D01*
X52081Y78364D02*
X52381D01*
X52231Y78214D02*
Y78514D01*
X51181Y78364D02*
X51481D01*
X51331Y78214D02*
Y78514D01*
X50281Y78364D02*
X50581D01*
X50431Y78214D02*
Y78514D01*
X49381Y78364D02*
X49681D01*
X49531Y78214D02*
Y78514D01*
X48481Y78364D02*
X48781D01*
X48631Y78214D02*
Y78514D01*
X47581Y78364D02*
X47881D01*
X47731Y78214D02*
Y78514D01*
X46681Y78364D02*
X46981D01*
X46831Y78214D02*
Y78514D01*
X45878Y78769D02*
X46178D01*
X46028Y78619D02*
Y78919D01*
X111679Y54980D02*
X111979D01*
X111829Y54830D02*
Y55130D01*
X63875Y65125D02*
X64175D01*
X64025Y64975D02*
Y65275D01*
X60025Y65075D02*
X60325D01*
X60175Y64925D02*
Y65225D01*
X107425Y81700D02*
X108025D01*
X107725Y81400D02*
Y82000D01*
X105775Y81700D02*
X106375D01*
X106075Y81400D02*
Y82000D01*
X104175Y81725D02*
X104775D01*
X104475Y81425D02*
Y82025D01*
X101725Y80400D02*
X102325D01*
X102025Y80100D02*
Y80700D01*
X100025Y80400D02*
X100625D01*
X100325Y80100D02*
Y80700D01*
X98250Y80350D02*
X98850D01*
X98550Y80050D02*
Y80650D01*
X101725Y82075D02*
X102325D01*
X102025Y81775D02*
Y82375D01*
X100025Y82075D02*
X100625D01*
X100325Y81775D02*
Y82375D01*
X98250Y82050D02*
X98850D01*
X98550Y81750D02*
Y82350D01*
M02*
