M48
;Layer_Color=9474304
;FILE_FORMAT=4:3
METRIC,TZ
;TYPE=PLATED
T1F00S00C0.300
T2F00S00C0.500
T3F00S00C0.600
T4F00S00C0.800
T5F00S00C1.000
T6F00S00C3.000
%
T01
X120725Y58550
X120550Y64550
X120675Y72200
X118325Y74550
X113800Y74350
X110900Y74300
X103450Y75400
X97975Y75350
X93825Y75225
X89300Y75050
X88075Y78000
X91725Y78050
X83150Y78475
X79975Y77525
X80025Y75900
X84935Y75054
X87625Y68075
X85225Y65350
X87375Y62750
X82825Y62700
X85075Y60450
X87575Y58050
X84025Y56375
X80750Y55125
X90250
X96525Y55100
X104775Y55200
X111829Y54980
X118275Y55950
Y60650
X116375Y64550
X118350Y68625
X111600Y66050
X103325Y65950
X95300Y65850
X82375Y67925
X80175Y65325
X75725Y65225
X75700Y60825
X74800
X73925
X73325Y62575
X71464Y62827
Y61927
Y61027
X71879Y60229
X71885Y59329
Y58429
Y57529
Y56629
Y55729
Y54829
X71720Y53944
X69406Y54486
Y55386
Y56286
Y57186
Y58086
Y58986
Y59886
X69733Y60724
X69936Y61601
Y62501
Y63401
Y64301
Y65201
Y66101
Y67001
Y67901
Y68801
Y69701
X69630Y70547
X71687Y69999
X71464Y69127
Y68227
Y67327
Y66427
Y65527
Y64627
Y63727
X68225Y63850
X68000Y67675
X67250Y69800
X65850Y69000
X65775Y65650
X64025Y65125
X63450Y63275
X65300Y60825
X66200
X67075
X64675Y59750
Y58800
Y57900
Y56950
Y56150
Y55275
Y54375
X62925Y59125
X61175Y61000
X60375Y57200
X58575Y58850
X55875Y57275
X51021Y57265
X46825Y56925
X41971Y56915
X42075Y61575
X44475Y64225
X46875Y66950
X50675Y67150
X48675Y69750
X44575Y69775
X44500Y71375
X43600
X42650
X41750
X40875
X40075
X40084Y76335
X40984
X41884
X42784
X43684
X44584
X45484
X46323Y76661
X47206Y76836
X48106
X49006
X49906
X50806
X51706
X52606
X53506
X54406
X55252Y76530
X56149Y76452
X57472
X58354Y76634
X58550Y74950
X58893Y78610
X59792Y78648
X60651Y78379
X61494Y78695
X62393Y78653
X63972Y78649
X64833Y78389
X65733
X65746Y76861
X64846
X63982Y76608
X63083Y76555
X61930
X61033Y76631
X57996Y78677
X56661Y78591
X55767Y78698
X54931Y78364
X54031
X53131
X52231
X51331
X50431
X49531
X48631
X47731
X46831
X46028Y78769
X44931Y78815
X44031
X43131
X42231
X41331
X40431
X46525Y73775
Y72900
Y72000
X45450Y71375
X48525Y75000
X51250Y72600
X53850Y74750
X53900Y70200
X56150Y72450
X58560Y70096
X60450Y71175
X60175Y65075
X55925Y67300
X53525Y64575
X55675Y61975
X51125Y61925
X53375Y59675
X41625Y66800
X72875Y67800
X78125Y67950
X77875Y62625
X76325Y59750
Y58800
Y57900
Y56950
Y56050
Y55175
Y54325
X78075Y57925
X73475Y74350
X70550Y75775
X69450
X68350
Y76875
Y77975
X69450
X70550
Y76875
X69450
X39362Y76873
X39349Y77773
X39546Y78651
X40225Y83400
X41050
X41900
X42800
X43750
X44650
X45600
X46675Y82775
Y81875
Y81000
X46625Y84650
X49475Y84025
X49375Y87550
X51725Y86275
X52050Y90425
X54950Y91725
X54875Y95250
X54525Y97600
X55400
X53625
X53000Y98475
Y99425
Y100325
Y101275
Y102175
X53000Y103050
X53000Y103850
X51150Y102275
X51300Y97025
X51400Y94225
X48875Y91725
X46175Y93775
X43925Y91525
X41625Y93325
X41275Y97075
X41375Y101375
X43675Y99575
X45925Y101825
X48575Y99425
X57635Y99082
Y99982
Y100882
Y101782
Y102682
Y103582
X57762Y104473
X58625Y104726
X59742Y104680
X60115Y103861
Y102961
Y102061
Y101161
Y100261
Y99361
Y98461
X59639Y97697
Y96797
Y95897
Y94997
X59639Y94097
X59738Y93203
X59974Y92334
X60355Y91519
X60850Y90768
X61468Y90113
X62104Y89476
X62740Y88840
X63377Y88203
X64013Y87567
X64650Y86931
X65286Y86294
X66038Y85800
X66775Y85283
X67238Y84511
X68025Y84050
X68631Y83382
X69675Y82700
Y81400
X69650Y80500
X67725Y80375
X67700Y81225
X67114Y81873
X66489Y82520
X66025Y83050
X64375Y84525
X64204Y85216
X63568Y85852
X62931Y86489
X62295Y87125
X61659Y87761
X61022Y88398
X60386Y89034
X59775Y89696
X59239Y90418
X58801Y91205
X58471Y92042
X58249Y92914
X58137Y93807
X58111Y94707
Y95607
Y96507
Y97407
X57654Y98182
X62475Y97600
X63350
X64250
X64275Y96025
X64875Y98675
Y99625
Y100525
Y101475
Y102325
Y103150
Y104050
X66525Y103300
X68825Y101500
X71525Y103250
X74400Y103100
Y102325
Y101425
Y100475
Y99575
Y98625
X75025Y97550
X75925
X76800
X79163Y97759
X78885Y98615
Y99515
Y100415
Y101315
Y102215
Y103115
Y104015
X74400Y104000
X71475Y99075
X66425Y99000
X66675Y93675
X68925Y95925
X74200Y95975
X72450Y93800
X76675Y93750
X79364Y93287
X79199Y92403
X78899Y91554
X78467Y90765
X77911Y90057
X77277Y89418
X76641Y88781
X76005Y88145
X75368Y87508
X74732Y86872
X74095Y86236
X73459Y85599
X72823Y84963
X72186Y84327
X71360Y83970
X70725Y83332
X73382Y83362
X72947Y82574
X72331Y81918
X71725Y81200
X71750Y80325
X73625Y80500
X74018Y83998
X74655Y84635
X75291Y85271
X75927Y85907
X76564Y86544
X77200Y87180
X77837Y87817
X78473Y88453
X79093Y89105
X79225Y85525
X78825Y82625
X76350Y83025
X69400Y84700
X68150Y88075
X71800Y87875
X74300Y91125
X64275Y91175
X61400Y93775
X60075Y84125
X62900Y81750
X57100Y81475
X54375Y83875
X54300Y88450
X56950Y86725
X51775Y81725
X44175Y86375
X46225Y89225
X41525Y89025
X79650Y89812
X80115Y90583
X80479Y91406
X80733Y92270
X80875Y93158
X80914Y94057
Y94957
X80914Y95857
Y96757
X80914Y97657
X81365Y98436
Y99336
Y100236
Y101136
Y102036
Y102936
Y103836
X81200Y104650
X80372Y104701
X79472Y104697
X85975Y104050
X86000Y103225
X85975Y102375
Y101475
Y100525
Y99625
Y98675
X85350Y97600
X84450
X83575
X83300Y94000
X85600Y92200
X87850Y94450
X88175Y89925
X86250Y87500
X84100Y85900
X81975Y84175
X81350Y87775
X83200Y89700
X79386Y94187
Y95087
X79386Y95987
X79386Y96887
X88050Y102150
X92600Y103000
X95250Y100600
X95375Y96900
X97975Y98200
X97825Y103450
X99525Y94200
Y90825
X96850Y90650
X96125Y85825
X97575Y83875
X99600Y83950
X99300Y86400
X93375Y88100
X93900Y83475
X95050Y80775
X91025Y80575
X90550Y85150
X87750Y82375
X85425Y80275
X90500Y92050
X93075Y94900
X112950Y96025
X115200Y93775
X117500Y96075
X115350Y98675
X115275Y103275
X117750Y101400
X112500Y101250
X112846Y91365
X117700Y91375
X115375Y88600
X112800Y85975
X117950Y85750
X120150Y88725
X119925Y93825
X119625Y98725
X119750Y103425
T02
X64132Y74058
X74175Y77150
T03
X98550Y80350
Y82050
X100325Y82075
Y80400
X102025
Y82075
X104475Y81725
X106075Y81700
X107725
T04
X91416Y62250
X93956
X96496
X99036
X101576
X104116
X106656
X109196
X111736
X114276
Y69880
X111736
X109196
X106656
X104116
X101576
X99036
X96496
X93956
X91416
X106600Y75550
Y78100
T05
X104328Y88408
X106828
Y90948
X104328
Y93488
X106828
Y96028
X104328
X104288Y98568
X106828
T06
X82175Y59650
X45975Y60025
Y97275
X69825Y91325
X90100Y98325
M30
