G04*
G04 #@! TF.GenerationSoftware,Altium Limited,Altium Designer,21.1.1 (26)*
G04*
G04 Layer_Color=255*
%FSLAX43Y43*%
%MOMM*%
G71*
G04*
G04 #@! TF.SameCoordinates,37E81C00-8B6F-4B96-ABBB-DCCB29EF6B03*
G04*
G04*
G04 #@! TF.FilePolarity,Positive*
G04*
G01*
G75*
%ADD17R,3.800X3.800*%
%ADD18R,1.702X5.842*%
%ADD25R,5.842X1.702*%
%ADD30C,4.000*%
%ADD31C,1.600*%
%ADD32R,1.600X2.500*%
%ADD33O,1.600X2.500*%
%ADD34C,1.500*%
G54D17*
X69450Y76875D02*
D03*
G54D18*
X54620Y101200D02*
D03*
X63125Y101201D02*
D03*
X84375Y101176D02*
D03*
X75870Y101175D02*
D03*
X74900Y57275D02*
D03*
X66395Y57274D02*
D03*
G54D25*
X42874Y81825D02*
D03*
X42875Y73321D02*
D03*
G54D30*
X69825Y91325D02*
D03*
X82175Y59650D02*
D03*
X90100Y98325D02*
D03*
X45975Y60025D02*
D03*
Y97275D02*
D03*
G54D31*
X106828Y88408D02*
D03*
X104328D02*
D03*
Y90948D02*
D03*
X106828D02*
D03*
Y93488D02*
D03*
X104328D02*
D03*
Y96028D02*
D03*
X106828D02*
D03*
Y98568D02*
D03*
X104288D02*
D03*
G54D32*
X114276Y69880D02*
D03*
G54D33*
X111736D02*
D03*
X109196D02*
D03*
X106656D02*
D03*
X104116D02*
D03*
X101576D02*
D03*
X99036D02*
D03*
X96496D02*
D03*
X93956D02*
D03*
X91416D02*
D03*
X114276Y62250D02*
D03*
X111736D02*
D03*
X109196D02*
D03*
X106656D02*
D03*
X104116D02*
D03*
X101576D02*
D03*
X99036D02*
D03*
X96496D02*
D03*
X93956D02*
D03*
X91416D02*
D03*
G54D34*
X106600Y75550D02*
D03*
Y78100D02*
D03*
M02*
