G04*
G04 #@! TF.GenerationSoftware,Altium Limited,Altium Designer,21.1.1 (26)*
G04*
G04 Layer_Physical_Order=2*
G04 Layer_Color=36540*
%FSLAX43Y43*%
%MOMM*%
G71*
G04*
G04 #@! TF.SameCoordinates,37E81C00-8B6F-4B96-ABBB-DCCB29EF6B03*
G04*
G04*
G04 #@! TF.FilePolarity,Positive*
G04*
G01*
G75*
%ADD30C,4.000*%
%ADD31C,1.600*%
%ADD34C,1.500*%
%ADD35C,0.600*%
G36*
X119986Y105194D02*
X120477Y105045D01*
X120930Y104803D01*
X121327Y104477D01*
X121653Y104080D01*
X121895Y103627D01*
X122044Y103136D01*
X122091Y102650D01*
X122087Y102625D01*
X122087Y56376D01*
X122087Y56250D01*
X122082Y56125D01*
X122044Y55739D01*
X121895Y55248D01*
X121653Y54795D01*
X121327Y54398D01*
X120930Y54072D01*
X120477Y53830D01*
X119986Y53681D01*
X119500Y53634D01*
X119475Y53638D01*
X41652Y53638D01*
X41525Y53638D01*
X41525Y53639D01*
X41400Y53644D01*
X41014Y53682D01*
X40523Y53831D01*
X40070Y54073D01*
X39673Y54398D01*
X39347Y54795D01*
X39105Y55248D01*
X38956Y55739D01*
X38910Y56208D01*
X38913Y56225D01*
X38913Y77265D01*
X38975Y84275D01*
X39125Y84425D01*
Y103704D01*
X39326Y104080D01*
X39652Y104477D01*
X40049Y104803D01*
X40501Y105045D01*
X40993Y105194D01*
X41459Y105240D01*
X41475Y105237D01*
X119475Y105237D01*
X119500Y105241D01*
X119986Y105194D01*
D02*
G37*
%LPC*%
G36*
X104467Y97082D02*
X104189D01*
X103921Y97011D01*
X103681Y96872D01*
X103484Y96676D01*
X103346Y96435D01*
X103274Y96167D01*
Y95890D01*
X103346Y95622D01*
X103484Y95381D01*
X103681Y95185D01*
X103921Y95046D01*
X104189Y94974D01*
X104467D01*
X104735Y95046D01*
X104975Y95185D01*
X105171Y95381D01*
X105310Y95622D01*
X105382Y95890D01*
Y96167D01*
X105310Y96435D01*
X105171Y96676D01*
X104975Y96872D01*
X104735Y97011D01*
X104467Y97082D01*
D02*
G37*
G36*
X106967Y94542D02*
X106689D01*
X106421Y94471D01*
X106181Y94332D01*
X105984Y94136D01*
X105846Y93895D01*
X105774Y93627D01*
Y93350D01*
X105846Y93082D01*
X105984Y92841D01*
X106181Y92645D01*
X106421Y92506D01*
X106689Y92434D01*
X106967D01*
X107235Y92506D01*
X107475Y92645D01*
X107671Y92841D01*
X107810Y93082D01*
X107882Y93350D01*
Y93627D01*
X107810Y93895D01*
X107671Y94136D01*
X107475Y94332D01*
X107235Y94471D01*
X106967Y94542D01*
D02*
G37*
G36*
X104467Y89462D02*
X104189D01*
X103921Y89391D01*
X103681Y89252D01*
X103484Y89056D01*
X103346Y88815D01*
X103274Y88547D01*
Y88270D01*
X103346Y88002D01*
X103484Y87761D01*
X103681Y87565D01*
X103921Y87426D01*
X104189Y87354D01*
X104467D01*
X104735Y87426D01*
X104975Y87565D01*
X105171Y87761D01*
X105310Y88002D01*
X105382Y88270D01*
Y88547D01*
X105310Y88815D01*
X105171Y89056D01*
X104975Y89252D01*
X104735Y89391D01*
X104467Y89462D01*
D02*
G37*
G36*
X102124Y82829D02*
X101926D01*
X101734Y82778D01*
X101562Y82678D01*
X101422Y82538D01*
X101322Y82366D01*
X101271Y82174D01*
Y81976D01*
X101322Y81784D01*
X101422Y81612D01*
X101562Y81472D01*
X101734Y81372D01*
X101926Y81321D01*
X102124D01*
X102316Y81372D01*
X102488Y81472D01*
X102628Y81612D01*
X102728Y81784D01*
X102779Y81976D01*
Y82174D01*
X102728Y82366D01*
X102628Y82538D01*
X102488Y82678D01*
X102316Y82778D01*
X102124Y82829D01*
D02*
G37*
G36*
X100424D02*
X100226D01*
X100034Y82778D01*
X99862Y82678D01*
X99722Y82538D01*
X99622Y82366D01*
X99571Y82174D01*
Y81976D01*
X99622Y81784D01*
X99722Y81612D01*
X99862Y81472D01*
X100034Y81372D01*
X100226Y81321D01*
X100424D01*
X100616Y81372D01*
X100788Y81472D01*
X100928Y81612D01*
X101028Y81784D01*
X101079Y81976D01*
Y82174D01*
X101028Y82366D01*
X100928Y82538D01*
X100788Y82678D01*
X100616Y82778D01*
X100424Y82829D01*
D02*
G37*
G36*
X98649Y82804D02*
X98451D01*
X98259Y82753D01*
X98087Y82653D01*
X97947Y82513D01*
X97847Y82341D01*
X97796Y82149D01*
Y81951D01*
X97847Y81759D01*
X97947Y81587D01*
X98087Y81447D01*
X98259Y81347D01*
X98451Y81296D01*
X98649D01*
X98841Y81347D01*
X99013Y81447D01*
X99153Y81587D01*
X99253Y81759D01*
X99304Y81951D01*
Y82149D01*
X99253Y82341D01*
X99153Y82513D01*
X99013Y82653D01*
X98841Y82753D01*
X98649Y82804D01*
D02*
G37*
G36*
X107824Y82454D02*
X107626D01*
X107434Y82403D01*
X107262Y82303D01*
X107122Y82163D01*
X107022Y81991D01*
X106971Y81799D01*
Y81601D01*
X107022Y81409D01*
X107122Y81237D01*
X107262Y81097D01*
X107434Y80997D01*
X107626Y80946D01*
X107824D01*
X108016Y80997D01*
X108188Y81097D01*
X108328Y81237D01*
X108428Y81409D01*
X108479Y81601D01*
Y81799D01*
X108428Y81991D01*
X108328Y82163D01*
X108188Y82303D01*
X108016Y82403D01*
X107824Y82454D01*
D02*
G37*
G36*
X104574Y82479D02*
X104376D01*
X104184Y82428D01*
X104012Y82328D01*
X103872Y82188D01*
X103772Y82016D01*
X103721Y81824D01*
Y81626D01*
X103772Y81434D01*
X103872Y81262D01*
X104012Y81122D01*
X104184Y81022D01*
X104376Y80971D01*
X104574D01*
X104766Y81022D01*
X104938Y81122D01*
X105078Y81262D01*
X105178Y81434D01*
X105206Y81540D01*
X105337D01*
X105372Y81409D01*
X105472Y81237D01*
X105612Y81097D01*
X105784Y80997D01*
X105976Y80946D01*
X106174D01*
X106366Y80997D01*
X106538Y81097D01*
X106678Y81237D01*
X106778Y81409D01*
X106829Y81601D01*
Y81799D01*
X106778Y81991D01*
X106678Y82163D01*
X106538Y82303D01*
X106366Y82403D01*
X106174Y82454D01*
X105976D01*
X105784Y82403D01*
X105612Y82303D01*
X105472Y82163D01*
X105372Y81991D01*
X105344Y81885D01*
X105213D01*
X105178Y82016D01*
X105078Y82188D01*
X104938Y82328D01*
X104766Y82428D01*
X104574Y82479D01*
D02*
G37*
G36*
X102124Y81154D02*
X101926D01*
X101734Y81103D01*
X101562Y81003D01*
X101422Y80863D01*
X101322Y80691D01*
X101271Y80499D01*
Y80301D01*
X101322Y80109D01*
X101422Y79937D01*
X101562Y79797D01*
X101734Y79697D01*
X101926Y79646D01*
X102124D01*
X102316Y79697D01*
X102488Y79797D01*
X102628Y79937D01*
X102728Y80109D01*
X102779Y80301D01*
Y80499D01*
X102728Y80691D01*
X102628Y80863D01*
X102488Y81003D01*
X102316Y81103D01*
X102124Y81154D01*
D02*
G37*
G36*
X100424D02*
X100226D01*
X100034Y81103D01*
X99862Y81003D01*
X99722Y80863D01*
X99622Y80691D01*
X99571Y80499D01*
Y80301D01*
X99622Y80109D01*
X99722Y79937D01*
X99862Y79797D01*
X100034Y79697D01*
X100226Y79646D01*
X100424D01*
X100616Y79697D01*
X100788Y79797D01*
X100928Y79937D01*
X101028Y80109D01*
X101079Y80301D01*
Y80499D01*
X101028Y80691D01*
X100928Y80863D01*
X100788Y81003D01*
X100616Y81103D01*
X100424Y81154D01*
D02*
G37*
G36*
X98649Y81104D02*
X98451D01*
X98259Y81053D01*
X98087Y80953D01*
X97947Y80813D01*
X97847Y80641D01*
X97796Y80449D01*
Y80251D01*
X97847Y80059D01*
X97947Y79887D01*
X98087Y79747D01*
X98259Y79647D01*
X98451Y79596D01*
X98649D01*
X98841Y79647D01*
X99013Y79747D01*
X99153Y79887D01*
X99253Y80059D01*
X99304Y80251D01*
Y80449D01*
X99253Y80641D01*
X99153Y80813D01*
X99013Y80953D01*
X98841Y81053D01*
X98649Y81104D01*
D02*
G37*
G36*
X106732Y79104D02*
X106468D01*
X106212Y79036D01*
X105984Y78903D01*
X105797Y78716D01*
X105664Y78488D01*
X105596Y78232D01*
Y77968D01*
X105664Y77712D01*
X105797Y77484D01*
X105984Y77297D01*
X106212Y77164D01*
X106468Y77096D01*
X106732D01*
X106988Y77164D01*
X107216Y77297D01*
X107403Y77484D01*
X107536Y77712D01*
X107604Y77968D01*
Y78232D01*
X107536Y78488D01*
X107403Y78716D01*
X107216Y78903D01*
X106988Y79036D01*
X106732Y79104D01*
D02*
G37*
G36*
X74261Y77804D02*
X74089D01*
X73923Y77759D01*
X73773Y77673D01*
X73652Y77552D01*
X73566Y77402D01*
X73521Y77236D01*
Y77064D01*
X73566Y76898D01*
X73652Y76748D01*
X73773Y76627D01*
X73923Y76541D01*
X74089Y76496D01*
X74261D01*
X74427Y76541D01*
X74577Y76627D01*
X74698Y76748D01*
X74784Y76898D01*
X74829Y77064D01*
Y77236D01*
X74784Y77402D01*
X74698Y77552D01*
X74577Y77673D01*
X74427Y77759D01*
X74261Y77804D01*
D02*
G37*
G36*
X64219Y74712D02*
X64046D01*
X63880Y74667D01*
X63731Y74581D01*
X63609Y74459D01*
X63523Y74310D01*
X63479Y74144D01*
Y73971D01*
X63523Y73805D01*
X63609Y73656D01*
X63731Y73534D01*
X63880Y73448D01*
X64046Y73404D01*
X64219D01*
X64385Y73448D01*
X64534Y73534D01*
X64656Y73656D01*
X64742Y73805D01*
X64786Y73971D01*
Y74144D01*
X64742Y74310D01*
X64656Y74459D01*
X64534Y74581D01*
X64385Y74667D01*
X64219Y74712D01*
D02*
G37*
G36*
X67360Y70354D02*
X67140D01*
X66936Y70270D01*
X66780Y70114D01*
X66696Y69910D01*
Y69690D01*
X66780Y69486D01*
X66936Y69330D01*
X67140Y69246D01*
X67360D01*
X67564Y69330D01*
X67720Y69486D01*
X67804Y69690D01*
Y69910D01*
X67720Y70114D01*
X67564Y70270D01*
X67360Y70354D01*
D02*
G37*
G36*
X65960Y69554D02*
X65740D01*
X65536Y69470D01*
X65380Y69314D01*
X65296Y69110D01*
Y68890D01*
X65380Y68686D01*
X65536Y68530D01*
X65740Y68446D01*
X65960D01*
X66164Y68530D01*
X66320Y68686D01*
X66404Y68890D01*
Y69110D01*
X66320Y69314D01*
X66164Y69470D01*
X65960Y69554D01*
D02*
G37*
G36*
X115330Y71384D02*
X113222D01*
Y68376D01*
X115330D01*
Y71384D01*
D02*
G37*
G36*
X111736Y71394D02*
X111461Y71357D01*
X111205Y71251D01*
X110985Y71082D01*
X110816Y70862D01*
X110710Y70606D01*
X110673Y70330D01*
Y69430D01*
X110710Y69155D01*
X110816Y68899D01*
X110985Y68679D01*
X111205Y68510D01*
X111461Y68404D01*
X111736Y68367D01*
X112012Y68404D01*
X112268Y68510D01*
X112488Y68679D01*
X112657Y68899D01*
X112763Y69155D01*
X112799Y69430D01*
Y70330D01*
X112763Y70606D01*
X112657Y70862D01*
X112488Y71082D01*
X112268Y71251D01*
X112012Y71357D01*
X111736Y71394D01*
D02*
G37*
G36*
X109196D02*
X108921Y71357D01*
X108665Y71251D01*
X108445Y71082D01*
X108276Y70862D01*
X108170Y70606D01*
X108133Y70330D01*
Y69430D01*
X108170Y69155D01*
X108276Y68899D01*
X108445Y68679D01*
X108665Y68510D01*
X108921Y68404D01*
X109196Y68367D01*
X109472Y68404D01*
X109728Y68510D01*
X109948Y68679D01*
X110117Y68899D01*
X110223Y69155D01*
X110259Y69430D01*
Y70330D01*
X110223Y70606D01*
X110117Y70862D01*
X109948Y71082D01*
X109728Y71251D01*
X109472Y71357D01*
X109196Y71394D01*
D02*
G37*
G36*
X106656D02*
X106381Y71357D01*
X106125Y71251D01*
X105905Y71082D01*
X105736Y70862D01*
X105630Y70606D01*
X105593Y70330D01*
Y69430D01*
X105630Y69155D01*
X105736Y68899D01*
X105905Y68679D01*
X106125Y68510D01*
X106381Y68404D01*
X106656Y68367D01*
X106932Y68404D01*
X107188Y68510D01*
X107408Y68679D01*
X107577Y68899D01*
X107683Y69155D01*
X107719Y69430D01*
Y70330D01*
X107683Y70606D01*
X107577Y70862D01*
X107408Y71082D01*
X107188Y71251D01*
X106932Y71357D01*
X106656Y71394D01*
D02*
G37*
G36*
X104116D02*
X103841Y71357D01*
X103585Y71251D01*
X103365Y71082D01*
X103196Y70862D01*
X103090Y70606D01*
X103053Y70330D01*
Y69430D01*
X103090Y69155D01*
X103196Y68899D01*
X103365Y68679D01*
X103585Y68510D01*
X103841Y68404D01*
X104116Y68367D01*
X104392Y68404D01*
X104648Y68510D01*
X104868Y68679D01*
X105037Y68899D01*
X105143Y69155D01*
X105179Y69430D01*
Y70330D01*
X105143Y70606D01*
X105037Y70862D01*
X104868Y71082D01*
X104648Y71251D01*
X104392Y71357D01*
X104116Y71394D01*
D02*
G37*
G36*
X101576D02*
X101301Y71357D01*
X101045Y71251D01*
X100825Y71082D01*
X100656Y70862D01*
X100550Y70606D01*
X100513Y70330D01*
Y69430D01*
X100550Y69155D01*
X100656Y68899D01*
X100825Y68679D01*
X101045Y68510D01*
X101301Y68404D01*
X101576Y68367D01*
X101852Y68404D01*
X102108Y68510D01*
X102328Y68679D01*
X102497Y68899D01*
X102603Y69155D01*
X102639Y69430D01*
Y70330D01*
X102603Y70606D01*
X102497Y70862D01*
X102328Y71082D01*
X102108Y71251D01*
X101852Y71357D01*
X101576Y71394D01*
D02*
G37*
G36*
X99036D02*
X98761Y71357D01*
X98505Y71251D01*
X98285Y71082D01*
X98116Y70862D01*
X98010Y70606D01*
X97973Y70330D01*
Y69430D01*
X98010Y69155D01*
X98116Y68899D01*
X98285Y68679D01*
X98505Y68510D01*
X98761Y68404D01*
X99036Y68367D01*
X99312Y68404D01*
X99568Y68510D01*
X99788Y68679D01*
X99957Y68899D01*
X100063Y69155D01*
X100099Y69430D01*
Y70330D01*
X100063Y70606D01*
X99957Y70862D01*
X99788Y71082D01*
X99568Y71251D01*
X99312Y71357D01*
X99036Y71394D01*
D02*
G37*
G36*
X96496D02*
X96221Y71357D01*
X95965Y71251D01*
X95745Y71082D01*
X95576Y70862D01*
X95470Y70606D01*
X95433Y70330D01*
Y69430D01*
X95470Y69155D01*
X95576Y68899D01*
X95745Y68679D01*
X95965Y68510D01*
X96221Y68404D01*
X96496Y68367D01*
X96772Y68404D01*
X97028Y68510D01*
X97248Y68679D01*
X97417Y68899D01*
X97523Y69155D01*
X97559Y69430D01*
Y70330D01*
X97523Y70606D01*
X97417Y70862D01*
X97248Y71082D01*
X97028Y71251D01*
X96772Y71357D01*
X96496Y71394D01*
D02*
G37*
G36*
X93956D02*
X93681Y71357D01*
X93425Y71251D01*
X93205Y71082D01*
X93036Y70862D01*
X92930Y70606D01*
X92893Y70330D01*
Y69430D01*
X92930Y69155D01*
X93036Y68899D01*
X93205Y68679D01*
X93425Y68510D01*
X93681Y68404D01*
X93956Y68367D01*
X94232Y68404D01*
X94488Y68510D01*
X94708Y68679D01*
X94877Y68899D01*
X94983Y69155D01*
X95019Y69430D01*
Y70330D01*
X94983Y70606D01*
X94877Y70862D01*
X94708Y71082D01*
X94488Y71251D01*
X94232Y71357D01*
X93956Y71394D01*
D02*
G37*
G36*
X91416D02*
X91141Y71357D01*
X90885Y71251D01*
X90665Y71082D01*
X90496Y70862D01*
X90390Y70606D01*
X90353Y70330D01*
Y69430D01*
X90390Y69155D01*
X90496Y68899D01*
X90665Y68679D01*
X90885Y68510D01*
X91141Y68404D01*
X91416Y68367D01*
X91692Y68404D01*
X91948Y68510D01*
X92168Y68679D01*
X92337Y68899D01*
X92443Y69155D01*
X92479Y69430D01*
Y70330D01*
X92443Y70606D01*
X92337Y70862D01*
X92168Y71082D01*
X91948Y71251D01*
X91692Y71357D01*
X91416Y71394D01*
D02*
G37*
G36*
X64135Y65679D02*
X63915D01*
X63711Y65595D01*
X63555Y65439D01*
X63471Y65235D01*
Y65015D01*
X63555Y64811D01*
X63711Y64655D01*
X63915Y64571D01*
X64135D01*
X64339Y64655D01*
X64495Y64811D01*
X64579Y65015D01*
Y65235D01*
X64495Y65439D01*
X64339Y65595D01*
X64135Y65679D01*
D02*
G37*
G36*
X60285Y65629D02*
X60065D01*
X59861Y65545D01*
X59705Y65389D01*
X59621Y65185D01*
Y64965D01*
X59705Y64761D01*
X59861Y64605D01*
X60065Y64521D01*
X60285D01*
X60489Y64605D01*
X60645Y64761D01*
X60729Y64965D01*
Y65185D01*
X60645Y65389D01*
X60489Y65545D01*
X60285Y65629D01*
D02*
G37*
G36*
X114276Y63764D02*
X114001Y63727D01*
X113745Y63621D01*
X113525Y63452D01*
X113356Y63232D01*
X113250Y62976D01*
X113213Y62700D01*
Y61800D01*
X113250Y61525D01*
X113356Y61269D01*
X113525Y61049D01*
X113745Y60880D01*
X114001Y60774D01*
X114276Y60737D01*
X114552Y60774D01*
X114808Y60880D01*
X115028Y61049D01*
X115197Y61269D01*
X115303Y61525D01*
X115339Y61800D01*
Y62700D01*
X115303Y62976D01*
X115197Y63232D01*
X115028Y63452D01*
X114808Y63621D01*
X114552Y63727D01*
X114276Y63764D01*
D02*
G37*
G36*
X111736D02*
X111461Y63727D01*
X111205Y63621D01*
X110985Y63452D01*
X110816Y63232D01*
X110710Y62976D01*
X110673Y62700D01*
Y61800D01*
X110710Y61525D01*
X110816Y61269D01*
X110985Y61049D01*
X111205Y60880D01*
X111461Y60774D01*
X111736Y60737D01*
X112012Y60774D01*
X112268Y60880D01*
X112488Y61049D01*
X112657Y61269D01*
X112763Y61525D01*
X112799Y61800D01*
Y62700D01*
X112763Y62976D01*
X112657Y63232D01*
X112488Y63452D01*
X112268Y63621D01*
X112012Y63727D01*
X111736Y63764D01*
D02*
G37*
G36*
X109196D02*
X108921Y63727D01*
X108665Y63621D01*
X108445Y63452D01*
X108276Y63232D01*
X108170Y62976D01*
X108133Y62700D01*
Y61800D01*
X108170Y61525D01*
X108276Y61269D01*
X108445Y61049D01*
X108665Y60880D01*
X108921Y60774D01*
X109196Y60737D01*
X109472Y60774D01*
X109728Y60880D01*
X109948Y61049D01*
X110117Y61269D01*
X110223Y61525D01*
X110259Y61800D01*
Y62700D01*
X110223Y62976D01*
X110117Y63232D01*
X109948Y63452D01*
X109728Y63621D01*
X109472Y63727D01*
X109196Y63764D01*
D02*
G37*
G36*
X106656D02*
X106381Y63727D01*
X106125Y63621D01*
X105905Y63452D01*
X105736Y63232D01*
X105630Y62976D01*
X105593Y62700D01*
Y61800D01*
X105630Y61525D01*
X105736Y61269D01*
X105905Y61049D01*
X106125Y60880D01*
X106381Y60774D01*
X106656Y60737D01*
X106932Y60774D01*
X107188Y60880D01*
X107408Y61049D01*
X107577Y61269D01*
X107683Y61525D01*
X107719Y61800D01*
Y62700D01*
X107683Y62976D01*
X107577Y63232D01*
X107408Y63452D01*
X107188Y63621D01*
X106932Y63727D01*
X106656Y63764D01*
D02*
G37*
G36*
X104116D02*
X103841Y63727D01*
X103585Y63621D01*
X103365Y63452D01*
X103196Y63232D01*
X103090Y62976D01*
X103053Y62700D01*
Y61800D01*
X103090Y61525D01*
X103196Y61269D01*
X103365Y61049D01*
X103585Y60880D01*
X103841Y60774D01*
X104116Y60737D01*
X104392Y60774D01*
X104648Y60880D01*
X104868Y61049D01*
X105037Y61269D01*
X105143Y61525D01*
X105179Y61800D01*
Y62700D01*
X105143Y62976D01*
X105037Y63232D01*
X104868Y63452D01*
X104648Y63621D01*
X104392Y63727D01*
X104116Y63764D01*
D02*
G37*
G36*
X101576D02*
X101301Y63727D01*
X101045Y63621D01*
X100825Y63452D01*
X100656Y63232D01*
X100550Y62976D01*
X100513Y62700D01*
Y61800D01*
X100550Y61525D01*
X100656Y61269D01*
X100825Y61049D01*
X101045Y60880D01*
X101301Y60774D01*
X101576Y60737D01*
X101852Y60774D01*
X102108Y60880D01*
X102328Y61049D01*
X102497Y61269D01*
X102603Y61525D01*
X102639Y61800D01*
Y62700D01*
X102603Y62976D01*
X102497Y63232D01*
X102328Y63452D01*
X102108Y63621D01*
X101852Y63727D01*
X101576Y63764D01*
D02*
G37*
G36*
X99036D02*
X98761Y63727D01*
X98505Y63621D01*
X98285Y63452D01*
X98116Y63232D01*
X98010Y62976D01*
X97973Y62700D01*
Y61800D01*
X98010Y61525D01*
X98116Y61269D01*
X98285Y61049D01*
X98505Y60880D01*
X98761Y60774D01*
X99036Y60737D01*
X99312Y60774D01*
X99568Y60880D01*
X99788Y61049D01*
X99957Y61269D01*
X100063Y61525D01*
X100099Y61800D01*
Y62700D01*
X100063Y62976D01*
X99957Y63232D01*
X99788Y63452D01*
X99568Y63621D01*
X99312Y63727D01*
X99036Y63764D01*
D02*
G37*
G36*
X96496D02*
X96221Y63727D01*
X95965Y63621D01*
X95745Y63452D01*
X95576Y63232D01*
X95470Y62976D01*
X95433Y62700D01*
Y61800D01*
X95470Y61525D01*
X95576Y61269D01*
X95745Y61049D01*
X95965Y60880D01*
X96221Y60774D01*
X96496Y60737D01*
X96772Y60774D01*
X97028Y60880D01*
X97248Y61049D01*
X97417Y61269D01*
X97523Y61525D01*
X97559Y61800D01*
Y62700D01*
X97523Y62976D01*
X97417Y63232D01*
X97248Y63452D01*
X97028Y63621D01*
X96772Y63727D01*
X96496Y63764D01*
D02*
G37*
G36*
X93956D02*
X93681Y63727D01*
X93425Y63621D01*
X93205Y63452D01*
X93036Y63232D01*
X92930Y62976D01*
X92893Y62700D01*
Y61800D01*
X92930Y61525D01*
X93036Y61269D01*
X93205Y61049D01*
X93425Y60880D01*
X93681Y60774D01*
X93956Y60737D01*
X94232Y60774D01*
X94488Y60880D01*
X94708Y61049D01*
X94877Y61269D01*
X94983Y61525D01*
X95019Y61800D01*
Y62700D01*
X94983Y62976D01*
X94877Y63232D01*
X94708Y63452D01*
X94488Y63621D01*
X94232Y63727D01*
X93956Y63764D01*
D02*
G37*
G36*
X91416D02*
X91141Y63727D01*
X90885Y63621D01*
X90665Y63452D01*
X90496Y63232D01*
X90390Y62976D01*
X90353Y62700D01*
Y61800D01*
X90390Y61525D01*
X90496Y61269D01*
X90665Y61049D01*
X90885Y60880D01*
X91141Y60774D01*
X91416Y60737D01*
X91692Y60774D01*
X91948Y60880D01*
X92168Y61049D01*
X92337Y61269D01*
X92443Y61525D01*
X92479Y61800D01*
Y62700D01*
X92443Y62976D01*
X92337Y63232D01*
X92168Y63452D01*
X91948Y63621D01*
X91692Y63727D01*
X91416Y63764D01*
D02*
G37*
G36*
X111939Y55534D02*
X111718D01*
X111515Y55449D01*
X111359Y55293D01*
X111275Y55090D01*
Y54869D01*
X111359Y54666D01*
X111515Y54510D01*
X111718Y54426D01*
X111939D01*
X112142Y54510D01*
X112298Y54666D01*
X112383Y54869D01*
Y55090D01*
X112298Y55293D01*
X112142Y55449D01*
X111939Y55534D01*
D02*
G37*
%LPD*%
G54D30*
X69825Y91325D02*
D03*
X82175Y59650D02*
D03*
X90100Y98325D02*
D03*
X45975Y60025D02*
D03*
Y97275D02*
D03*
G54D31*
X106828Y88408D02*
D03*
X104328Y90948D02*
D03*
X106828D02*
D03*
X104328Y93488D02*
D03*
X106828Y96028D02*
D03*
Y98568D02*
D03*
X104288D02*
D03*
G54D34*
X106600Y75550D02*
D03*
G54D35*
X72450Y93800D02*
D03*
X110900Y74300D02*
D03*
X103450Y75400D02*
D03*
X97975Y75350D02*
D03*
X73475Y74350D02*
D03*
X73625Y80500D02*
D03*
X70550Y75775D02*
D03*
X69450D02*
D03*
X68350D02*
D03*
X70550Y76875D02*
D03*
X68350D02*
D03*
X70550Y77975D02*
D03*
X69450D02*
D03*
X68350D02*
D03*
X69450Y76875D02*
D03*
X85975Y104050D02*
D03*
X86000Y103225D02*
D03*
X83575Y97600D02*
D03*
X85975Y99625D02*
D03*
X84450Y97600D02*
D03*
X85975Y100525D02*
D03*
X85350Y97600D02*
D03*
X85975Y102375D02*
D03*
Y101475D02*
D03*
Y98675D02*
D03*
X88050Y102150D02*
D03*
X74400Y104000D02*
D03*
Y100475D02*
D03*
X75025Y97550D02*
D03*
X74400Y101425D02*
D03*
Y98625D02*
D03*
Y103100D02*
D03*
Y102325D02*
D03*
X76800Y97550D02*
D03*
X74400Y99575D02*
D03*
X75925Y97550D02*
D03*
X63350Y97600D02*
D03*
X64250D02*
D03*
X64875Y98675D02*
D03*
Y102325D02*
D03*
Y99625D02*
D03*
Y100525D02*
D03*
Y101475D02*
D03*
Y103150D02*
D03*
Y104050D02*
D03*
X62475Y97600D02*
D03*
X53000Y103850D02*
D03*
Y99425D02*
D03*
X54525Y97600D02*
D03*
X53000Y103050D02*
D03*
X53000Y102175D02*
D03*
Y101275D02*
D03*
Y98475D02*
D03*
X55400Y97600D02*
D03*
X53000Y100325D02*
D03*
X53625Y97600D02*
D03*
X46675Y81875D02*
D03*
Y82775D02*
D03*
X45600Y83400D02*
D03*
X41900D02*
D03*
X44650D02*
D03*
X43750D02*
D03*
X42800D02*
D03*
X41050D02*
D03*
X40225D02*
D03*
X46675Y81000D02*
D03*
X46525Y72900D02*
D03*
Y72000D02*
D03*
X45450Y71375D02*
D03*
X41750D02*
D03*
X44500D02*
D03*
X43600D02*
D03*
X42650D02*
D03*
X40875D02*
D03*
X40075D02*
D03*
X46525Y73775D02*
D03*
X64675Y56150D02*
D03*
X66200Y60825D02*
D03*
X65300D02*
D03*
X64675Y59750D02*
D03*
Y58800D02*
D03*
Y57900D02*
D03*
Y56950D02*
D03*
Y55275D02*
D03*
Y54375D02*
D03*
X67075Y60825D02*
D03*
X73925D02*
D03*
X76325Y54325D02*
D03*
Y55175D02*
D03*
Y56950D02*
D03*
Y57900D02*
D03*
Y58800D02*
D03*
Y56050D02*
D03*
Y59750D02*
D03*
X75700Y60825D02*
D03*
X61400Y93775D02*
D03*
X76675Y93750D02*
D03*
X67725Y80375D02*
D03*
X67700Y81225D02*
D03*
X71750Y80325D02*
D03*
X71725Y81200D02*
D03*
X69650Y80500D02*
D03*
X69675Y81400D02*
D03*
Y82700D02*
D03*
X60450Y71175D02*
D03*
X119750Y103425D02*
D03*
X115275Y103275D02*
D03*
X119625Y98725D02*
D03*
X119925Y93825D02*
D03*
X120150Y88725D02*
D03*
X112800Y85975D02*
D03*
X117950Y85750D02*
D03*
X115375Y88600D02*
D03*
X95375Y96900D02*
D03*
X99525Y90825D02*
D03*
Y94200D02*
D03*
X96850Y90650D02*
D03*
X93375Y88100D02*
D03*
X90550Y85150D02*
D03*
X87750Y82375D02*
D03*
X85425Y80275D02*
D03*
X78825Y82625D02*
D03*
X83150Y78475D02*
D03*
X80025Y75900D02*
D03*
X79975Y77525D02*
D03*
X99600Y83950D02*
D03*
X99300Y86400D02*
D03*
X97575Y83875D02*
D03*
X96125Y85825D02*
D03*
X95050Y80775D02*
D03*
X91725Y78050D02*
D03*
X93900Y83475D02*
D03*
X91025Y80575D02*
D03*
X88075Y78000D02*
D03*
X93825Y75225D02*
D03*
X89300Y75050D02*
D03*
X84935Y75054D02*
D03*
X118325Y74550D02*
D03*
X113800Y74350D02*
D03*
X120675Y72200D02*
D03*
X118350Y68625D02*
D03*
X95300Y65850D02*
D03*
X103325Y65950D02*
D03*
X111600Y66050D02*
D03*
X116375Y64550D02*
D03*
X120550D02*
D03*
X120725Y58550D02*
D03*
X118275Y60650D02*
D03*
Y55950D02*
D03*
X104775Y55200D02*
D03*
X96525Y55100D02*
D03*
X90250Y55125D02*
D03*
X84025Y56375D02*
D03*
X80750Y55125D02*
D03*
X68000Y67675D02*
D03*
X68225Y63850D02*
D03*
X65775Y65650D02*
D03*
X63450Y63275D02*
D03*
X69400Y84700D02*
D03*
X71800Y87875D02*
D03*
X68150Y88075D02*
D03*
X54875Y95250D02*
D03*
X54300Y88450D02*
D03*
X54950Y91725D02*
D03*
X62900Y81750D02*
D03*
X60075Y84125D02*
D03*
X49375Y87550D02*
D03*
X46625Y84650D02*
D03*
X44575Y69775D02*
D03*
X58550Y74950D02*
D03*
X48675Y69750D02*
D03*
X48525Y75000D02*
D03*
X51250Y72600D02*
D03*
X53900Y70200D02*
D03*
X53850Y74750D02*
D03*
X56150Y72450D02*
D03*
X58560Y70096D02*
D03*
X80175Y65325D02*
D03*
X58575Y58850D02*
D03*
X60375Y57200D02*
D03*
X61175Y61000D02*
D03*
X62925Y59125D02*
D03*
X55875Y57275D02*
D03*
X50675Y67150D02*
D03*
X55925Y67300D02*
D03*
X53525Y64575D02*
D03*
X51125Y61925D02*
D03*
X55675Y61975D02*
D03*
X53375Y59675D02*
D03*
X51021Y57265D02*
D03*
X46825Y56925D02*
D03*
X41625Y66800D02*
D03*
X46875Y66950D02*
D03*
X44475Y64225D02*
D03*
X42075Y61575D02*
D03*
X41971Y56915D02*
D03*
X87575Y58050D02*
D03*
X82375Y67925D02*
D03*
X87625Y68075D02*
D03*
X85225Y65350D02*
D03*
X82825Y62700D02*
D03*
X87375Y62750D02*
D03*
X85075Y60450D02*
D03*
X78075Y57925D02*
D03*
X72875Y67800D02*
D03*
X78125Y67950D02*
D03*
X75725Y65225D02*
D03*
X73325Y62575D02*
D03*
X77875Y62625D02*
D03*
X74800Y60825D02*
D03*
X112846Y91365D02*
D03*
X115200Y93775D02*
D03*
X117500Y96075D02*
D03*
X112950Y96025D02*
D03*
X115350Y98675D02*
D03*
X117750Y101400D02*
D03*
X112500Y101250D02*
D03*
X117700Y91375D02*
D03*
X66525Y103300D02*
D03*
X68825Y101500D02*
D03*
X71475Y99075D02*
D03*
X71525Y103250D02*
D03*
X66425Y99000D02*
D03*
X92600Y103000D02*
D03*
X95250Y100600D02*
D03*
X97975Y98200D02*
D03*
X97825Y103450D02*
D03*
X79225Y85525D02*
D03*
X81975Y84175D02*
D03*
X81350Y87775D02*
D03*
X84100Y85900D02*
D03*
X86250Y87500D02*
D03*
X76350Y83025D02*
D03*
X83300Y94000D02*
D03*
X85600Y92200D02*
D03*
X88175Y89925D02*
D03*
X87850Y94450D02*
D03*
X90500Y92050D02*
D03*
X93075Y94900D02*
D03*
X83200Y89700D02*
D03*
X64275Y96025D02*
D03*
X66675Y93675D02*
D03*
X68925Y95925D02*
D03*
X74300Y91125D02*
D03*
X74200Y95975D02*
D03*
X64275Y91175D02*
D03*
X44175Y86375D02*
D03*
X49475Y84025D02*
D03*
X51775Y81725D02*
D03*
X51725Y86275D02*
D03*
X54375Y83875D02*
D03*
X57100Y81475D02*
D03*
X56950Y86725D02*
D03*
X41625Y93325D02*
D03*
X43925Y91525D02*
D03*
X46225Y89225D02*
D03*
X46175Y93775D02*
D03*
X48875Y91725D02*
D03*
X52050Y90425D02*
D03*
X51400Y94225D02*
D03*
X41525Y89025D02*
D03*
X41275Y97075D02*
D03*
X51150Y102275D02*
D03*
X51300Y97025D02*
D03*
X48575Y99425D02*
D03*
X45925Y101825D02*
D03*
X43675Y99575D02*
D03*
X41375Y101375D02*
D03*
X69630Y70547D02*
D03*
X69936Y69701D02*
D03*
Y68801D02*
D03*
Y67901D02*
D03*
Y67001D02*
D03*
Y66101D02*
D03*
Y65201D02*
D03*
Y64301D02*
D03*
Y63401D02*
D03*
Y62501D02*
D03*
Y61601D02*
D03*
X69733Y60724D02*
D03*
X69406Y59886D02*
D03*
Y58986D02*
D03*
Y58086D02*
D03*
Y57186D02*
D03*
Y56286D02*
D03*
Y55386D02*
D03*
Y54486D02*
D03*
X71720Y53944D02*
D03*
X71885Y54829D02*
D03*
Y55729D02*
D03*
Y56629D02*
D03*
Y57529D02*
D03*
Y58429D02*
D03*
Y59329D02*
D03*
X71879Y60229D02*
D03*
X71464Y61027D02*
D03*
Y61927D02*
D03*
Y62827D02*
D03*
Y63727D02*
D03*
Y64627D02*
D03*
Y65527D02*
D03*
Y66427D02*
D03*
Y67327D02*
D03*
Y68227D02*
D03*
Y69127D02*
D03*
X71687Y69999D02*
D03*
X58625Y104726D02*
D03*
X57762Y104473D02*
D03*
X57635Y103582D02*
D03*
Y102682D02*
D03*
Y101782D02*
D03*
Y100882D02*
D03*
Y99982D02*
D03*
Y99082D02*
D03*
X57654Y98182D02*
D03*
X58111Y97407D02*
D03*
Y96507D02*
D03*
Y95607D02*
D03*
Y94707D02*
D03*
X58137Y93807D02*
D03*
X58249Y92914D02*
D03*
X58471Y92042D02*
D03*
X58801Y91205D02*
D03*
X59239Y90418D02*
D03*
X59775Y89696D02*
D03*
X60386Y89034D02*
D03*
X61022Y88398D02*
D03*
X61659Y87761D02*
D03*
X62295Y87125D02*
D03*
X62931Y86489D02*
D03*
X63568Y85852D02*
D03*
X64204Y85216D02*
D03*
X64375Y84525D02*
D03*
X66025Y83050D02*
D03*
X66489Y82520D02*
D03*
X67114Y81873D02*
D03*
X68631Y83382D02*
D03*
X68025Y84050D02*
D03*
X67238Y84511D02*
D03*
X66775Y85283D02*
D03*
X66038Y85800D02*
D03*
X65286Y86294D02*
D03*
X64650Y86931D02*
D03*
X64013Y87567D02*
D03*
X63377Y88203D02*
D03*
X62740Y88840D02*
D03*
X62104Y89476D02*
D03*
X61468Y90113D02*
D03*
X60850Y90768D02*
D03*
X60355Y91519D02*
D03*
X59974Y92334D02*
D03*
X59738Y93203D02*
D03*
X59639Y94097D02*
D03*
X59639Y94997D02*
D03*
Y95897D02*
D03*
Y96797D02*
D03*
Y97697D02*
D03*
X60115Y98461D02*
D03*
Y99361D02*
D03*
Y100261D02*
D03*
Y101161D02*
D03*
Y102061D02*
D03*
Y102961D02*
D03*
Y103861D02*
D03*
X59742Y104680D02*
D03*
X80372Y104701D02*
D03*
X79472Y104697D02*
D03*
X78885Y104015D02*
D03*
Y103115D02*
D03*
Y102215D02*
D03*
Y101315D02*
D03*
Y100415D02*
D03*
Y99515D02*
D03*
Y98615D02*
D03*
X79163Y97759D02*
D03*
X79386Y96887D02*
D03*
X79386Y95987D02*
D03*
X79386Y95087D02*
D03*
Y94187D02*
D03*
X79364Y93287D02*
D03*
X79199Y92403D02*
D03*
X78899Y91554D02*
D03*
X78467Y90765D02*
D03*
X77911Y90057D02*
D03*
X77277Y89418D02*
D03*
X76641Y88781D02*
D03*
X76005Y88145D02*
D03*
X75368Y87508D02*
D03*
X74732Y86872D02*
D03*
X74095Y86236D02*
D03*
X73459Y85599D02*
D03*
X72823Y84963D02*
D03*
X72186Y84327D02*
D03*
X71360Y83970D02*
D03*
X70725Y83332D02*
D03*
X72331Y81918D02*
D03*
X72947Y82574D02*
D03*
X73382Y83362D02*
D03*
X74018Y83998D02*
D03*
X74655Y84635D02*
D03*
X75291Y85271D02*
D03*
X75927Y85907D02*
D03*
X76564Y86544D02*
D03*
X77200Y87180D02*
D03*
X77837Y87817D02*
D03*
X78473Y88453D02*
D03*
X79093Y89105D02*
D03*
X79650Y89812D02*
D03*
X80115Y90583D02*
D03*
X80479Y91406D02*
D03*
X80733Y92270D02*
D03*
X80875Y93158D02*
D03*
X80914Y94057D02*
D03*
Y94957D02*
D03*
X80914Y95857D02*
D03*
Y96757D02*
D03*
X80914Y97657D02*
D03*
X81365Y98436D02*
D03*
Y99336D02*
D03*
Y100236D02*
D03*
Y101136D02*
D03*
Y102036D02*
D03*
Y102936D02*
D03*
Y103836D02*
D03*
X81200Y104650D02*
D03*
X63083Y76555D02*
D03*
X63982Y76608D02*
D03*
X64846Y76861D02*
D03*
X65746D02*
D03*
X65733Y78389D02*
D03*
X64833D02*
D03*
X63972Y78649D02*
D03*
X57472Y76452D02*
D03*
X58354Y76634D02*
D03*
X61033Y76631D02*
D03*
X61930Y76555D02*
D03*
X62393Y78653D02*
D03*
X61494Y78695D02*
D03*
X60651Y78379D02*
D03*
X59792Y78648D02*
D03*
X58893Y78610D02*
D03*
X57996Y78677D02*
D03*
X44931Y78815D02*
D03*
X44031D02*
D03*
X43131D02*
D03*
X42231D02*
D03*
X41331D02*
D03*
X40431D02*
D03*
X39546Y78651D02*
D03*
X39349Y77773D02*
D03*
X39362Y76873D02*
D03*
X40084Y76335D02*
D03*
X40984D02*
D03*
X41884D02*
D03*
X42784D02*
D03*
X43684D02*
D03*
X44584D02*
D03*
X45484D02*
D03*
X46323Y76661D02*
D03*
X47206Y76836D02*
D03*
X48106D02*
D03*
X49006D02*
D03*
X49906D02*
D03*
X50806D02*
D03*
X51706D02*
D03*
X52606D02*
D03*
X53506D02*
D03*
X54406D02*
D03*
X55252Y76530D02*
D03*
X56149Y76452D02*
D03*
X56661Y78591D02*
D03*
X55767Y78698D02*
D03*
X54931Y78364D02*
D03*
X54031D02*
D03*
X53131D02*
D03*
X52231D02*
D03*
X51331D02*
D03*
X50431D02*
D03*
X49531D02*
D03*
X48631D02*
D03*
X47731D02*
D03*
X46831D02*
D03*
X46028Y78769D02*
D03*
M02*
