G04*
G04 #@! TF.GenerationSoftware,Altium Limited,Altium Designer,21.1.1 (26)*
G04*
G04 Layer_Color=65535*
%FSLAX43Y43*%
%MOMM*%
G71*
G04*
G04 #@! TF.SameCoordinates,37E81C00-8B6F-4B96-ABBB-DCCB29EF6B03*
G04*
G04*
G04 #@! TF.FilePolarity,Positive*
G04*
G01*
G75*
%ADD10C,0.250*%
%ADD11C,0.200*%
%ADD12C,0.254*%
%ADD13C,0.127*%
G54D10*
X66225Y79425D02*
G03*
X66225Y79425I-125J0D01*
G01*
G54D11*
X59075Y97400D02*
G03*
X59075Y97400I-100J0D01*
G01*
X80325Y97375D02*
G03*
X80325Y97375I-100J0D01*
G01*
X70646Y61075D02*
G03*
X70646Y61075I-100J0D01*
G01*
X46775Y77675D02*
G03*
X46775Y77675I-100J0D01*
G01*
X115546Y66700D02*
G03*
X115546Y65430I0J-635D01*
G01*
X66750Y74175D02*
X67150D01*
X66750D02*
Y74575D01*
X71750Y74175D02*
X72150D01*
Y74575D01*
Y79175D02*
Y79575D01*
X71750D02*
X72150D01*
X66750D02*
X67150D01*
X66750Y79175D02*
Y79575D01*
X115546Y66700D02*
Y67795D01*
Y64335D02*
Y65430D01*
X90146Y64335D02*
X115546D01*
X90146D02*
Y67795D01*
X115546D01*
X118475Y85116D02*
Y84450D01*
X118975D01*
Y84783D01*
Y84450D01*
X119475D01*
X118475Y85450D02*
X119308D01*
X119475Y85616D01*
Y85950D01*
X119308Y86116D01*
X118475D01*
X119475Y86449D02*
X118475D01*
Y86949D01*
X118642Y87116D01*
X118975D01*
X119142Y86949D01*
Y86449D01*
Y86783D02*
X119475Y87116D01*
X118475Y87449D02*
X119475D01*
X119142D01*
X118475Y88115D01*
X118975Y87616D01*
X119475Y88115D01*
Y88449D02*
X118809D01*
X118475Y88782D01*
X118809Y89115D01*
X119475D01*
X118975D01*
Y88449D01*
X119475Y89448D02*
X118475D01*
X119475Y90115D01*
X118475D01*
X119475Y91448D02*
X118809D01*
X118475Y91781D01*
X118809Y92114D01*
X119475D01*
X118975D01*
Y91448D01*
X118642Y93114D02*
X118475Y92947D01*
Y92614D01*
X118642Y92447D01*
X118809D01*
X118975Y92614D01*
Y92947D01*
X119142Y93114D01*
X119308D01*
X119475Y92947D01*
Y92614D01*
X119308Y92447D01*
X118475Y93447D02*
X119475D01*
Y94114D01*
Y94447D02*
X118809D01*
X118475Y94780D01*
X118809Y95113D01*
X119475D01*
X118975D01*
Y94447D01*
X119475Y95446D02*
X118475D01*
X119475Y96113D01*
X118475D01*
Y97446D02*
X119475D01*
X118975D01*
Y98112D01*
X118475D01*
X119475D01*
Y98445D02*
X118809D01*
X118475Y98779D01*
X118809Y99112D01*
X119475D01*
X118975D01*
Y98445D01*
X118475Y99445D02*
Y100112D01*
Y99778D01*
X119475D01*
X118475Y100445D02*
Y100778D01*
Y100611D01*
X119475D01*
Y100445D01*
Y100778D01*
X118475Y101278D02*
X119475D01*
X119142D01*
X118475Y101944D01*
X118975Y101445D01*
X119475Y101944D01*
X115217Y84425D02*
X115050Y84592D01*
Y84925D01*
X115217Y85091D01*
X115883D01*
X116050Y84925D01*
Y84592D01*
X115883Y84425D01*
X115217D01*
X115050Y86091D02*
X115217Y85758D01*
X115550Y85425D01*
X115883D01*
X116050Y85591D01*
Y85925D01*
X115883Y86091D01*
X115717D01*
X115550Y85925D01*
Y85425D01*
X116050Y86424D02*
X115384Y87091D01*
X116050Y88090D02*
Y87424D01*
X115384Y88090D01*
X115217D01*
X115050Y87924D01*
Y87591D01*
X115217Y87424D01*
Y88424D02*
X115050Y88590D01*
Y88924D01*
X115217Y89090D01*
X115883D01*
X116050Y88924D01*
Y88590D01*
X115883Y88424D01*
X115217D01*
X116050Y90090D02*
Y89423D01*
X115384Y90090D01*
X115217D01*
X115050Y89923D01*
Y89590D01*
X115217Y89423D01*
X116050Y90423D02*
Y90756D01*
Y90590D01*
X115050D01*
X115217Y90423D01*
X114250Y84325D02*
X113584D01*
X113250Y84658D01*
X113584Y84991D01*
X114250D01*
X113750D01*
Y84325D01*
X114250Y85325D02*
X113250D01*
X113584Y85658D01*
X113250Y85991D01*
X114250D01*
Y86324D02*
X113250D01*
Y86824D01*
X113417Y86991D01*
X113750D01*
X113917Y86824D01*
Y86324D01*
X113750Y87324D02*
Y87990D01*
X114250Y88324D02*
X113584D01*
X113250Y88657D01*
X113584Y88990D01*
X114250D01*
X113750D01*
Y88324D01*
X113250Y89323D02*
Y89990D01*
Y89657D01*
X114250D01*
X113250Y90323D02*
Y90990D01*
Y90656D01*
X114250D01*
X113250Y91989D02*
Y91323D01*
X114250D01*
Y91989D01*
X113750Y91323D02*
Y91656D01*
X114250Y92322D02*
X113250D01*
X114250Y92989D01*
X113250D01*
Y94322D02*
X114250D01*
Y94822D01*
X114083Y94988D01*
X113917D01*
X113750Y94822D01*
Y94322D01*
Y94822D01*
X113584Y94988D01*
X113417D01*
X113250Y94822D01*
Y94322D01*
Y95321D02*
X114250D01*
Y95988D01*
X113250Y96821D02*
Y96488D01*
X113417Y96321D01*
X114083D01*
X114250Y96488D01*
Y96821D01*
X114083Y96988D01*
X113417D01*
X113250Y96821D01*
X113417Y97987D02*
X113250Y97821D01*
Y97487D01*
X113417Y97321D01*
X114083D01*
X114250Y97487D01*
Y97821D01*
X114083Y97987D01*
X113250Y98320D02*
X114250D01*
X113917D01*
X113250Y98987D01*
X113750Y98487D01*
X114250Y98987D01*
X113250Y100320D02*
X113917D01*
X114250Y100653D01*
X113917Y100986D01*
X113250D01*
X114250Y101320D02*
Y101653D01*
Y101486D01*
X113250D01*
X113417Y101320D01*
X114250Y102153D02*
X114083D01*
Y102319D01*
X114250D01*
Y102153D01*
Y102986D02*
Y103319D01*
Y103152D01*
X113250D01*
X113417Y102986D01*
X116667Y84375D02*
X117667D01*
Y84875D01*
X117500Y85041D01*
X117334D01*
X117167D01*
X117000Y84875D01*
Y84375D01*
Y85375D02*
X117500D01*
X117667Y85541D01*
Y86041D01*
X117833D01*
X118000Y85875D01*
Y85708D01*
X117667Y86041D02*
X117000D01*
X116667Y88040D02*
Y87374D01*
X117667D01*
Y88040D01*
X117167Y87374D02*
Y87707D01*
X116667Y89040D02*
Y88374D01*
X117167D01*
Y88707D01*
Y88374D01*
X117667D01*
X116667Y90040D02*
Y89373D01*
X117667D01*
Y90040D01*
X117167Y89373D02*
Y89707D01*
X116667Y91373D02*
X117667D01*
X117334D01*
X116667Y92039D01*
X117167Y91539D01*
X117667Y92039D01*
X116667Y92372D02*
Y92706D01*
Y92539D01*
X117667D01*
Y92372D01*
Y92706D01*
Y93205D02*
X116667D01*
Y93705D01*
X116834Y93872D01*
X117167D01*
X117334Y93705D01*
Y93205D01*
Y93539D02*
X117667Y93872D01*
Y94205D02*
X117000D01*
X116667Y94538D01*
X117000Y94872D01*
X117667D01*
X117167D01*
Y94205D01*
X116667Y95205D02*
Y95871D01*
X116834D01*
X117500Y95205D01*
X117667D01*
Y95871D01*
X112175Y84275D02*
X111509D01*
X111175Y84608D01*
X111509Y84941D01*
X112175D01*
X111675D01*
Y84275D01*
X112175Y85275D02*
X111175D01*
X112175Y85941D01*
X111175D01*
Y86274D02*
Y86941D01*
Y86608D01*
X112175D01*
X111175Y87940D02*
Y87274D01*
X112175D01*
Y87940D01*
X111675Y87274D02*
Y87607D01*
X112175Y88274D02*
X111175D01*
X112175Y88940D01*
X111175D01*
X112175Y89273D02*
X111175D01*
X112175Y89940D01*
X111175D01*
X112175Y90273D02*
X111509D01*
X111175Y90606D01*
X111509Y90940D01*
X112175D01*
X111675D01*
Y90273D01*
X112175Y92272D02*
X111175D01*
X111509Y92606D01*
X111175Y92939D01*
X112175D01*
X111175Y93939D02*
Y93272D01*
X112175D01*
Y93939D01*
X111675Y93272D02*
Y93605D01*
X112175Y94272D02*
X111509D01*
X111175Y94605D01*
X111509Y94938D01*
X112175D01*
X111675D01*
Y94272D01*
X111342Y95938D02*
X111175Y95771D01*
Y95438D01*
X111342Y95271D01*
X111509D01*
X111675Y95438D01*
Y95771D01*
X111842Y95938D01*
X112008D01*
X112175Y95771D01*
Y95438D01*
X112008Y95271D01*
X112175Y96271D02*
X112008D01*
Y96438D01*
X112175D01*
Y96271D01*
X111342Y98770D02*
X111175Y98604D01*
Y98270D01*
X111342Y98104D01*
X111509D01*
X111675Y98270D01*
Y98604D01*
X111842Y98770D01*
X112008D01*
X112175Y98604D01*
Y98270D01*
X112008Y98104D01*
X111175Y99104D02*
X111342D01*
X111675Y99437D01*
X111342Y99770D01*
X111175D01*
X111675Y99437D02*
X112175D01*
X111342Y100770D02*
X111175Y100603D01*
Y100270D01*
X111342Y100103D01*
X111509D01*
X111675Y100270D01*
Y100603D01*
X111842Y100770D01*
X112008D01*
X112175Y100603D01*
Y100270D01*
X112008Y100103D01*
X112175Y101103D02*
X112008D01*
Y101270D01*
X112175D01*
Y101103D01*
X90303Y72664D02*
X90136Y72831D01*
X89803D01*
X89637Y72664D01*
Y72498D01*
X89803Y72331D01*
X90136D01*
X90303Y72164D01*
Y71998D01*
X90136Y71831D01*
X89803D01*
X89637Y71998D01*
X90636Y72831D02*
Y71831D01*
X90969Y72164D01*
X91303Y71831D01*
Y72831D01*
X91636Y71831D02*
X91969D01*
X91803D01*
Y72831D01*
X91636Y72664D01*
X107850Y56525D02*
X106850D01*
Y57025D01*
X107017Y57192D01*
X107350D01*
X107517Y57025D01*
Y56525D01*
Y56859D02*
X107850Y57192D01*
Y57525D02*
Y57858D01*
Y57692D01*
X106850D01*
X107017Y57525D01*
X106850Y58358D02*
Y59025D01*
X107017D01*
X107683Y58358D01*
X107850D01*
X97725Y56250D02*
X96725D01*
Y56750D01*
X96892Y56917D01*
X97225D01*
X97392Y56750D01*
Y56250D01*
Y56584D02*
X97725Y56917D01*
Y57250D02*
Y57583D01*
Y57417D01*
X96725D01*
X96892Y57250D01*
X96725Y58750D02*
X96892Y58416D01*
X97225Y58083D01*
X97558D01*
X97725Y58250D01*
Y58583D01*
X97558Y58750D01*
X97392D01*
X97225Y58583D01*
Y58083D01*
X116425Y56725D02*
X115425D01*
Y57225D01*
X115592Y57392D01*
X115925D01*
X116092Y57225D01*
Y56725D01*
Y57059D02*
X116425Y57392D01*
Y57725D02*
Y58058D01*
Y57892D01*
X115425D01*
X115592Y57725D01*
Y58558D02*
X115425Y58725D01*
Y59058D01*
X115592Y59225D01*
X115758D01*
X115925Y59058D01*
Y58891D01*
Y59058D01*
X116092Y59225D01*
X116258D01*
X116425Y59058D01*
Y58725D01*
X116258Y58558D01*
X110617Y59050D02*
Y60050D01*
X111117D01*
X111283Y59883D01*
Y59550D01*
X111117Y59383D01*
X110617D01*
X110950D02*
X111283Y59050D01*
X111617D02*
X111950D01*
X111783D01*
Y60050D01*
X111617Y59883D01*
X112450Y59050D02*
X112783D01*
X112616D01*
Y60050D01*
X112450Y59883D01*
X92725Y59075D02*
Y60075D01*
X93225D01*
X93392Y59908D01*
Y59575D01*
X93225Y59408D01*
X92725D01*
X93059D02*
X93392Y59075D01*
X93725D02*
X94058D01*
X93892D01*
Y60075D01*
X93725Y59908D01*
X94558D02*
X94725Y60075D01*
X95058D01*
X95225Y59908D01*
Y59242D01*
X95058Y59075D01*
X94725D01*
X94558Y59242D01*
Y59908D01*
X103775Y56642D02*
X102775D01*
Y57142D01*
X102942Y57308D01*
X103275D01*
X103442Y57142D01*
Y56642D01*
Y56975D02*
X103775Y57308D01*
X103608Y57642D02*
X103775Y57808D01*
Y58141D01*
X103608Y58308D01*
X102942D01*
X102775Y58141D01*
Y57808D01*
X102942Y57642D01*
X103108D01*
X103275Y57808D01*
Y58308D01*
X90150Y56992D02*
X89150D01*
Y57492D01*
X89317Y57658D01*
X89650D01*
X89817Y57492D01*
Y56992D01*
Y57325D02*
X90150Y57658D01*
X89317Y57992D02*
X89150Y58158D01*
Y58491D01*
X89317Y58658D01*
X89483D01*
X89650Y58491D01*
X89817Y58658D01*
X89983D01*
X90150Y58491D01*
Y58158D01*
X89983Y57992D01*
X89817D01*
X89650Y58158D01*
X89483Y57992D01*
X89317D01*
X89650Y58158D02*
Y58491D01*
X81608Y71333D02*
X81442Y71500D01*
X81109D01*
X80942Y71333D01*
Y70667D01*
X81109Y70500D01*
X81442D01*
X81608Y70667D01*
X81942Y71333D02*
X82108Y71500D01*
X82441D01*
X82608Y71333D01*
Y71167D01*
X82441Y71000D01*
X82608Y70833D01*
Y70667D01*
X82441Y70500D01*
X82108D01*
X81942Y70667D01*
Y70833D01*
X82108Y71000D01*
X81942Y71167D01*
Y71333D01*
X82108Y71000D02*
X82441D01*
X75983Y71408D02*
X75817Y71575D01*
X75484D01*
X75317Y71408D01*
Y70742D01*
X75484Y70575D01*
X75817D01*
X75983Y70742D01*
X76317Y71575D02*
X76983D01*
Y71408D01*
X76317Y70742D01*
Y70575D01*
X66523Y82229D02*
Y81396D01*
X66689Y81229D01*
X67022D01*
X67189Y81396D01*
Y82229D01*
X67522Y81229D02*
X67855D01*
X67689D01*
Y82229D01*
X67522Y82062D01*
X60984Y56708D02*
X60817Y56875D01*
X60484D01*
X60317Y56708D01*
Y56542D01*
X60484Y56375D01*
X60817D01*
X60984Y56208D01*
Y56042D01*
X60817Y55875D01*
X60484D01*
X60317Y56042D01*
X61317Y55875D02*
Y56875D01*
X61650Y56542D01*
X61983Y56875D01*
Y55875D01*
X62317D02*
Y56542D01*
X62650Y56875D01*
X62983Y56542D01*
Y55875D01*
Y56375D01*
X62317D01*
X63316Y56875D02*
X63983D01*
Y56708D01*
X63316Y56042D01*
Y55875D01*
X29013Y86482D02*
X28846Y86648D01*
X28513D01*
X28346Y86482D01*
Y86315D01*
X28513Y86149D01*
X28846D01*
X29013Y85982D01*
Y85815D01*
X28846Y85649D01*
X28513D01*
X28346Y85815D01*
X29346Y85649D02*
Y86648D01*
X29679Y86315D01*
X30013Y86648D01*
Y85649D01*
X30346D02*
Y86315D01*
X30679Y86648D01*
X31012Y86315D01*
Y85649D01*
Y86149D01*
X30346D01*
X32012Y86648D02*
X31345D01*
Y86149D01*
X31679Y86315D01*
X31845D01*
X32012Y86149D01*
Y85815D01*
X31845Y85649D01*
X31512D01*
X31345Y85815D01*
X64547Y117444D02*
X64381Y117611D01*
X64048D01*
X63881Y117444D01*
Y117278D01*
X64048Y117111D01*
X64381D01*
X64547Y116945D01*
Y116778D01*
X64381Y116611D01*
X64048D01*
X63881Y116778D01*
X64881Y116611D02*
Y117611D01*
X65214Y117278D01*
X65547Y117611D01*
Y116611D01*
X65880D02*
Y117278D01*
X66214Y117611D01*
X66547Y117278D01*
Y116611D01*
Y117111D01*
X65880D01*
X67546Y116611D02*
X66880D01*
X67546Y117278D01*
Y117444D01*
X67380Y117611D01*
X67047D01*
X66880Y117444D01*
X43313Y117470D02*
X43146Y117636D01*
X42813D01*
X42647Y117470D01*
Y117303D01*
X42813Y117137D01*
X43146D01*
X43313Y116970D01*
Y116803D01*
X43146Y116637D01*
X42813D01*
X42647Y116803D01*
X43646Y116637D02*
Y117636D01*
X43979Y117303D01*
X44313Y117636D01*
Y116637D01*
X44646D02*
Y117303D01*
X44979Y117636D01*
X45312Y117303D01*
Y116637D01*
Y117137D01*
X44646D01*
X45646Y116637D02*
X45979D01*
X45812D01*
Y117636D01*
X45646Y117470D01*
X55342Y78825D02*
Y79825D01*
X55842D01*
X56008Y79658D01*
Y79325D01*
X55842Y79158D01*
X55342D01*
X55675D02*
X56008Y78825D01*
X57008Y79658D02*
X56841Y79825D01*
X56508D01*
X56342Y79658D01*
Y79492D01*
X56508Y79325D01*
X56841D01*
X57008Y79158D01*
Y78992D01*
X56841Y78825D01*
X56508D01*
X56342Y78992D01*
X72975Y80025D02*
Y81025D01*
X73475D01*
X73642Y80858D01*
Y80525D01*
X73475Y80358D01*
X72975D01*
X73309D02*
X73642Y80025D01*
X73975D02*
X74308D01*
X74142D01*
Y81025D01*
X73975Y80858D01*
X74808D02*
X74975Y81025D01*
X75308D01*
X75475Y80858D01*
Y80692D01*
X75308Y80525D01*
X75475Y80358D01*
Y80192D01*
X75308Y80025D01*
X74975D01*
X74808Y80192D01*
Y80358D01*
X74975Y80525D01*
X74808Y80692D01*
Y80858D01*
X74975Y80525D02*
X75308D01*
X77725Y71875D02*
Y72875D01*
X78225D01*
X78392Y72708D01*
Y72375D01*
X78225Y72208D01*
X77725D01*
X78059D02*
X78392Y71875D01*
X78725D02*
X79058D01*
X78892D01*
Y72875D01*
X78725Y72708D01*
X80225Y72875D02*
X79558D01*
Y72375D01*
X79891Y72542D01*
X80058D01*
X80225Y72375D01*
Y72042D01*
X80058Y71875D01*
X79725D01*
X79558Y72042D01*
X64558Y63306D02*
X63558D01*
Y63806D01*
X63725Y63973D01*
X64058D01*
X64225Y63806D01*
Y63306D01*
Y63640D02*
X64558Y63973D01*
Y64306D02*
Y64639D01*
Y64473D01*
X63558D01*
X63725Y64306D01*
X64558Y65639D02*
X63558D01*
X64058Y65139D01*
Y65806D01*
X60686Y63096D02*
X59686D01*
Y63596D01*
X59853Y63763D01*
X60186D01*
X60352Y63596D01*
Y63096D01*
Y63429D02*
X60686Y63763D01*
Y64096D02*
Y64429D01*
Y64262D01*
X59686D01*
X59853Y64096D01*
X60686Y65595D02*
Y64929D01*
X60019Y65595D01*
X59853D01*
X59686Y65429D01*
Y65096D01*
X59853Y64929D01*
X58692Y78725D02*
Y79725D01*
X59192D01*
X59358Y79558D01*
Y79225D01*
X59192Y79058D01*
X58692D01*
X59025D02*
X59358Y78725D01*
X60191D02*
Y79725D01*
X59692Y79225D01*
X60358D01*
X82917Y79175D02*
Y80175D01*
X83417D01*
X83583Y80008D01*
Y79675D01*
X83417Y79508D01*
X82917D01*
X83250D02*
X83583Y79175D01*
X83917Y80008D02*
X84083Y80175D01*
X84416D01*
X84583Y80008D01*
Y79842D01*
X84416Y79675D01*
X84250D01*
X84416D01*
X84583Y79508D01*
Y79342D01*
X84416Y79175D01*
X84083D01*
X83917Y79342D01*
X82892Y81100D02*
Y82100D01*
X83392D01*
X83558Y81933D01*
Y81600D01*
X83392Y81433D01*
X82892D01*
X83225D02*
X83558Y81100D01*
X84558D02*
X83892D01*
X84558Y81767D01*
Y81933D01*
X84391Y82100D01*
X84058D01*
X83892Y81933D01*
X63983Y86335D02*
Y87334D01*
X64482D01*
X64649Y87168D01*
Y86834D01*
X64482Y86668D01*
X63983D01*
X64316D02*
X64649Y86335D01*
X64982D02*
X65315D01*
X65149D01*
Y87334D01*
X64982Y87168D01*
X105111Y82330D02*
X104778D01*
X104945D01*
Y81497D01*
X104778Y81331D01*
X104611D01*
X104445Y81497D01*
X106111Y81331D02*
X105444D01*
X106111Y81997D01*
Y82164D01*
X105944Y82330D01*
X105611D01*
X105444Y82164D01*
X101708Y105521D02*
X101374D01*
X101541D01*
Y104688D01*
X101374Y104521D01*
X101208D01*
X101041Y104688D01*
X102041Y104521D02*
X102374D01*
X102207D01*
Y105521D01*
X102041Y105354D01*
X112122Y79929D02*
X111955Y80095D01*
X111622D01*
X111455Y79929D01*
Y79262D01*
X111622Y79096D01*
X111955D01*
X112122Y79262D01*
X112455Y79096D02*
X112788D01*
X112621D01*
Y80095D01*
X112455Y79929D01*
X113954Y80095D02*
X113288D01*
Y79595D01*
X113621Y79762D01*
X113788D01*
X113954Y79595D01*
Y79262D01*
X113788Y79096D01*
X113455D01*
X113288Y79262D01*
X61703Y63863D02*
X61536Y63696D01*
Y63363D01*
X61703Y63196D01*
X62369D01*
X62536Y63363D01*
Y63696D01*
X62369Y63863D01*
X62536Y64196D02*
Y64529D01*
Y64362D01*
X61536D01*
X61703Y64196D01*
X62536Y65529D02*
X61536D01*
X62036Y65029D01*
Y65695D01*
X58187Y63868D02*
X58020Y63701D01*
Y63368D01*
X58187Y63201D01*
X58853D01*
X59020Y63368D01*
Y63701D01*
X58853Y63868D01*
X59020Y64201D02*
Y64534D01*
Y64367D01*
X58020D01*
X58187Y64201D01*
Y65034D02*
X58020Y65201D01*
Y65534D01*
X58187Y65700D01*
X58353D01*
X58520Y65534D01*
Y65367D01*
Y65534D01*
X58686Y65700D01*
X58853D01*
X59020Y65534D01*
Y65201D01*
X58853Y65034D01*
X76485Y83510D02*
X76319Y83677D01*
X75986D01*
X75819Y83510D01*
Y82844D01*
X75986Y82677D01*
X76319D01*
X76485Y82844D01*
X76819Y82677D02*
X77152D01*
X76985D01*
Y83677D01*
X76819Y83510D01*
X78318Y82677D02*
X77652D01*
X78318Y83343D01*
Y83510D01*
X78152Y83677D01*
X77818D01*
X77652Y83510D01*
X59433Y72933D02*
X59267Y73100D01*
X58934D01*
X58767Y72933D01*
Y72267D01*
X58934Y72100D01*
X59267D01*
X59433Y72267D01*
X59767Y72100D02*
X60100D01*
X59933D01*
Y73100D01*
X59767Y72933D01*
X60600Y72100D02*
X60933D01*
X60766D01*
Y73100D01*
X60600Y72933D01*
X62892Y75008D02*
X62725Y75175D01*
X62392D01*
X62225Y75008D01*
Y74342D01*
X62392Y74175D01*
X62725D01*
X62892Y74342D01*
X63225Y74175D02*
X63558D01*
X63392D01*
Y75175D01*
X63225Y75008D01*
X64058D02*
X64225Y75175D01*
X64558D01*
X64725Y75008D01*
Y74342D01*
X64558Y74175D01*
X64225D01*
X64058Y74342D01*
Y75008D01*
X68467Y70683D02*
X68300Y70517D01*
Y70184D01*
X68467Y70017D01*
X69133D01*
X69300Y70184D01*
Y70517D01*
X69133Y70683D01*
Y71017D02*
X69300Y71183D01*
Y71516D01*
X69133Y71683D01*
X68467D01*
X68300Y71516D01*
Y71183D01*
X68467Y71017D01*
X68633D01*
X68800Y71183D01*
Y71683D01*
X79858Y76383D02*
X79692Y76550D01*
X79359D01*
X79192Y76383D01*
Y75717D01*
X79359Y75550D01*
X79692D01*
X79858Y75717D01*
X80858Y76550D02*
X80525Y76383D01*
X80192Y76050D01*
Y75717D01*
X80358Y75550D01*
X80691D01*
X80858Y75717D01*
Y75883D01*
X80691Y76050D01*
X80192D01*
X79805Y78006D02*
X79639Y78173D01*
X79306D01*
X79139Y78006D01*
Y77340D01*
X79306Y77173D01*
X79639D01*
X79805Y77340D01*
X80805Y78173D02*
X80139D01*
Y77673D01*
X80472Y77840D01*
X80638D01*
X80805Y77673D01*
Y77340D01*
X80638Y77173D01*
X80305D01*
X80139Y77340D01*
X62533Y79583D02*
X62367Y79750D01*
X62034D01*
X61867Y79583D01*
Y78917D01*
X62034Y78750D01*
X62367D01*
X62533Y78917D01*
X63366Y78750D02*
Y79750D01*
X62867Y79250D01*
X63533D01*
X99853Y81402D02*
X99687Y81568D01*
X99354D01*
X99187Y81402D01*
Y80735D01*
X99354Y80569D01*
X99687D01*
X99853Y80735D01*
X100187Y81402D02*
X100353Y81568D01*
X100687D01*
X100853Y81402D01*
Y81235D01*
X100687Y81069D01*
X100520D01*
X100687D01*
X100853Y80902D01*
Y80735D01*
X100687Y80569D01*
X100353D01*
X100187Y80735D01*
X70669Y85644D02*
X70502Y85810D01*
X70169D01*
X70002Y85644D01*
Y84977D01*
X70169Y84811D01*
X70502D01*
X70669Y84977D01*
X71669Y84811D02*
X71002D01*
X71669Y85477D01*
Y85644D01*
X71502Y85810D01*
X71169D01*
X71002Y85644D01*
X67316Y85669D02*
X67149Y85836D01*
X66816D01*
X66650Y85669D01*
Y85003D01*
X66816Y84836D01*
X67149D01*
X67316Y85003D01*
X67649Y84836D02*
X67982D01*
X67816D01*
Y85836D01*
X67649Y85669D01*
G54D12*
X103851Y100808D02*
G03*
X103851Y100808I-224J0D01*
G01*
X100978Y103683D02*
X110278D01*
X100978Y83208D02*
Y103683D01*
X110278Y83208D02*
Y103683D01*
X107128Y83208D02*
X110278D01*
X100978D02*
X107128D01*
X104375Y80500D02*
X110125D01*
Y73100D02*
Y80500D01*
X104375Y73100D02*
X110125D01*
X104375D02*
Y80500D01*
X116420Y76653D02*
X115404D01*
Y75891D01*
X115912Y76145D01*
X116166D01*
X116420Y75891D01*
Y75383D01*
X116166Y75129D01*
X115658D01*
X115404Y75383D01*
X116928Y76653D02*
Y75637D01*
X117435Y75129D01*
X117943Y75637D01*
Y76653D01*
X68580Y93663D02*
Y95187D01*
X69088Y94679D01*
X69596Y95187D01*
Y93663D01*
X71120Y95187D02*
X70104D01*
Y94425D01*
X70612Y94679D01*
X70866D01*
X71120Y94425D01*
Y93917D01*
X70866Y93663D01*
X70358D01*
X70104Y93917D01*
X88955Y101038D02*
Y102562D01*
X89463Y102054D01*
X89971Y102562D01*
Y101038D01*
X91241D02*
Y102562D01*
X90479Y101800D01*
X91495D01*
X79205Y62263D02*
Y63787D01*
X79713Y63279D01*
X80221Y63787D01*
Y62263D01*
X80729Y63533D02*
X80983Y63787D01*
X81491D01*
X81745Y63533D01*
Y63279D01*
X81491Y63025D01*
X81237D01*
X81491D01*
X81745Y62771D01*
Y62517D01*
X81491Y62263D01*
X80983D01*
X80729Y62517D01*
X44221Y62789D02*
Y64312D01*
X44729Y63804D01*
X45237Y64312D01*
Y62789D01*
X46761D02*
X45745D01*
X46761Y63804D01*
Y64058D01*
X46507Y64312D01*
X45999D01*
X45745Y64058D01*
X44221Y100025D02*
Y101549D01*
X44729Y101041D01*
X45237Y101549D01*
Y100025D01*
X45745D02*
X46253D01*
X45999D01*
Y101549D01*
X45745Y101295D01*
G54D13*
X93360Y56400D02*
Y58000D01*
X94740Y56400D02*
Y58000D01*
X90710Y56350D02*
Y57950D01*
X92090Y56350D02*
Y57950D01*
X99636Y56355D02*
Y57955D01*
X98256Y56355D02*
Y57955D01*
X102315Y56475D02*
Y58075D01*
X100935Y56475D02*
Y58075D01*
X112465Y56575D02*
Y58175D01*
X111085Y56575D02*
Y58175D01*
X108485Y56575D02*
Y58175D01*
X109865Y56575D02*
Y58175D01*
X113610Y56675D02*
Y58275D01*
X114990Y56675D02*
Y58275D01*
X64362Y83916D02*
X65493Y85047D01*
X65338Y82940D02*
X66469Y84071D01*
X80250Y82115D02*
X81850D01*
X80250Y80735D02*
X81850D01*
X80150Y78910D02*
X81750D01*
X80150Y80290D02*
X81750D01*
X60190Y75975D02*
Y77575D01*
X58810Y75975D02*
Y77575D01*
X59528Y66738D02*
Y68338D01*
X60908Y66738D02*
Y68338D01*
X64765Y66750D02*
Y68350D01*
X63385Y66750D02*
Y68350D01*
X78085Y74790D02*
X79685D01*
X78085Y73410D02*
X79685D01*
X76310Y78910D02*
X77910D01*
X76310Y80290D02*
X77910D01*
X55925Y78265D02*
X57525D01*
X55925Y76885D02*
X57525D01*
M02*
