G04*
G04 #@! TF.GenerationSoftware,Altium Limited,Altium Designer,21.1.1 (26)*
G04*
G04 Layer_Physical_Order=3*
G04 Layer_Color=16440176*
%FSLAX43Y43*%
%MOMM*%
G71*
G04*
G04 #@! TF.SameCoordinates,37E81C00-8B6F-4B96-ABBB-DCCB29EF6B03*
G04*
G04*
G04 #@! TF.FilePolarity,Positive*
G04*
G01*
G75*
%ADD34C,1.500*%
%ADD35C,0.600*%
%ADD36C,0.800*%
%ADD37C,1.000*%
G36*
X119986Y105194D02*
X120477Y105045D01*
X120930Y104803D01*
X121327Y104477D01*
X121653Y104080D01*
X121895Y103627D01*
X122044Y103136D01*
X122091Y102650D01*
X122087Y102625D01*
X122087Y56376D01*
X122087Y56250D01*
X122082Y56125D01*
X122044Y55739D01*
X121895Y55248D01*
X121653Y54795D01*
X121327Y54398D01*
X120930Y54072D01*
X120477Y53830D01*
X119986Y53681D01*
X119500Y53634D01*
X119475Y53638D01*
X72308Y53638D01*
X72237Y53744D01*
X72274Y53834D01*
Y54054D01*
X72190Y54258D01*
X72181Y54267D01*
X72199Y54359D01*
X72355Y54515D01*
X72439Y54718D01*
Y54939D01*
X72355Y55143D01*
X72219Y55279D01*
X72355Y55415D01*
X72439Y55618D01*
Y55839D01*
X72355Y56043D01*
X72219Y56179D01*
X72355Y56315D01*
X72439Y56519D01*
Y56739D01*
X72355Y56943D01*
X72219Y57079D01*
X72355Y57215D01*
X72439Y57418D01*
Y57639D01*
X72355Y57843D01*
X72219Y57979D01*
X72355Y58115D01*
X72439Y58318D01*
Y58539D01*
X72355Y58743D01*
X72219Y58879D01*
X72355Y59015D01*
X72439Y59218D01*
Y59439D01*
X72355Y59643D01*
X72216Y59782D01*
X72349Y59915D01*
X72433Y60118D01*
Y60339D01*
X72349Y60542D01*
X72193Y60698D01*
X72083Y60744D01*
X72011Y60900D01*
X72018Y60917D01*
Y61137D01*
X71933Y61341D01*
X71797Y61477D01*
X71933Y61613D01*
X72018Y61817D01*
Y62037D01*
X71933Y62241D01*
X71797Y62377D01*
X71933Y62513D01*
X72018Y62717D01*
Y62937D01*
X71933Y63141D01*
X71797Y63277D01*
X71933Y63413D01*
X72018Y63617D01*
Y63837D01*
X71933Y64041D01*
X71797Y64177D01*
X71933Y64313D01*
X72018Y64517D01*
Y64737D01*
X71933Y64941D01*
X71797Y65077D01*
X71933Y65213D01*
X72018Y65417D01*
Y65637D01*
X71933Y65841D01*
X71797Y65977D01*
X71933Y66113D01*
X72018Y66317D01*
Y66537D01*
X71933Y66741D01*
X71797Y66877D01*
X71933Y67013D01*
X72018Y67217D01*
Y67437D01*
X71933Y67641D01*
X71797Y67777D01*
X71933Y67913D01*
X72018Y68117D01*
Y68337D01*
X71933Y68541D01*
X71797Y68677D01*
X71933Y68813D01*
X72018Y69017D01*
Y69237D01*
X71961Y69375D01*
X72001Y69529D01*
X72157Y69685D01*
X72241Y69889D01*
Y70109D01*
X72157Y70313D01*
X72001Y70469D01*
X71798Y70553D01*
X71577D01*
X71374Y70469D01*
X71218Y70313D01*
X71133Y70109D01*
Y69889D01*
X71190Y69751D01*
X71150Y69597D01*
X70994Y69441D01*
X70910Y69237D01*
Y69017D01*
X70994Y68813D01*
X71130Y68677D01*
X70994Y68541D01*
X70910Y68337D01*
Y68117D01*
X70994Y67913D01*
X71130Y67777D01*
X70994Y67641D01*
X70910Y67437D01*
Y67217D01*
X70994Y67013D01*
X71130Y66877D01*
X70994Y66741D01*
X70910Y66537D01*
Y66317D01*
X70994Y66113D01*
X71130Y65977D01*
X70994Y65841D01*
X70910Y65637D01*
Y65417D01*
X70994Y65213D01*
X71130Y65077D01*
X70994Y64941D01*
X70910Y64737D01*
Y64517D01*
X70994Y64313D01*
X71130Y64177D01*
X70994Y64041D01*
X70910Y63837D01*
Y63617D01*
X70994Y63413D01*
X71130Y63277D01*
X70994Y63141D01*
X70910Y62937D01*
Y62717D01*
X70994Y62513D01*
X71130Y62377D01*
X70994Y62241D01*
X70910Y62037D01*
Y61817D01*
X70994Y61613D01*
X71130Y61477D01*
X70994Y61341D01*
X70910Y61137D01*
Y60917D01*
X70994Y60713D01*
X71150Y60557D01*
X71259Y60512D01*
X71332Y60356D01*
X71325Y60339D01*
Y60118D01*
X71409Y59915D01*
X71549Y59775D01*
X71416Y59643D01*
X71331Y59439D01*
Y59218D01*
X71416Y59015D01*
X71552Y58879D01*
X71416Y58743D01*
X71331Y58539D01*
Y58318D01*
X71416Y58115D01*
X71552Y57979D01*
X71416Y57843D01*
X71331Y57639D01*
Y57418D01*
X71416Y57215D01*
X71552Y57079D01*
X71416Y56943D01*
X71331Y56739D01*
Y56519D01*
X71416Y56315D01*
X71552Y56179D01*
X71416Y56043D01*
X71331Y55839D01*
Y55618D01*
X71416Y55415D01*
X71552Y55279D01*
X71416Y55143D01*
X71331Y54939D01*
Y54718D01*
X71416Y54515D01*
X71425Y54506D01*
X71406Y54414D01*
X71251Y54258D01*
X71166Y54054D01*
Y53834D01*
X71203Y53744D01*
X71133Y53638D01*
X41652Y53638D01*
X41525Y53638D01*
X41525Y53639D01*
X41400Y53644D01*
X41014Y53682D01*
X40523Y53831D01*
X40070Y54073D01*
X39673Y54398D01*
X39347Y54795D01*
X39105Y55248D01*
X38956Y55739D01*
X38910Y56208D01*
X38913Y56225D01*
X38913Y76372D01*
X39031Y76421D01*
X39049Y76403D01*
X39252Y76319D01*
X39473D01*
X39537Y76208D01*
X39614Y76021D01*
X39770Y75865D01*
X39974Y75781D01*
X40194D01*
X40398Y75865D01*
X40534Y76002D01*
X40670Y75865D01*
X40874Y75781D01*
X41094D01*
X41298Y75865D01*
X41434Y76002D01*
X41570Y75865D01*
X41774Y75781D01*
X41994D01*
X42198Y75865D01*
X42334Y76002D01*
X42470Y75865D01*
X42674Y75781D01*
X42894D01*
X43098Y75865D01*
X43234Y76002D01*
X43370Y75865D01*
X43574Y75781D01*
X43794D01*
X43998Y75865D01*
X44134Y76002D01*
X44270Y75865D01*
X44474Y75781D01*
X44694D01*
X44898Y75865D01*
X45034Y76002D01*
X45170Y75865D01*
X45374Y75781D01*
X45594D01*
X45798Y75865D01*
X45954Y76021D01*
X46022Y76186D01*
X46213Y76107D01*
X46433D01*
X46637Y76191D01*
X46793Y76347D01*
X46931Y76350D01*
X47095Y76282D01*
X47316D01*
X47519Y76367D01*
X47656Y76503D01*
X47792Y76367D01*
X47995Y76282D01*
X48216D01*
X48419Y76367D01*
X48556Y76503D01*
X48692Y76367D01*
X48895Y76282D01*
X49116D01*
X49319Y76367D01*
X49456Y76503D01*
X49592Y76367D01*
X49795Y76282D01*
X50016D01*
X50219Y76367D01*
X50356Y76503D01*
X50492Y76367D01*
X50695Y76282D01*
X50916D01*
X51119Y76367D01*
X51256Y76503D01*
X51392Y76367D01*
X51595Y76282D01*
X51816D01*
X52019Y76367D01*
X52156Y76503D01*
X52292Y76367D01*
X52495Y76282D01*
X52716D01*
X52919Y76367D01*
X53056Y76503D01*
X53192Y76367D01*
X53395Y76282D01*
X53616D01*
X53819Y76367D01*
X53956Y76503D01*
X54092Y76367D01*
X54295Y76282D01*
X54516D01*
X54719Y76367D01*
X54720Y76366D01*
X54782Y76217D01*
X54938Y76061D01*
X55142Y75976D01*
X55362D01*
X55566Y76061D01*
X55649Y76144D01*
X55679Y76138D01*
X55835Y75983D01*
X56038Y75898D01*
X56259D01*
X56462Y75983D01*
X56618Y76138D01*
X56703Y76342D01*
Y76562D01*
X56618Y76766D01*
X56462Y76922D01*
X56259Y77006D01*
X56038D01*
X55835Y76922D01*
X55751Y76838D01*
X55722Y76844D01*
X55566Y77000D01*
X55362Y77084D01*
X55142D01*
X54938Y77000D01*
X54937Y77000D01*
X54875Y77150D01*
X54719Y77306D01*
X54516Y77390D01*
X54295D01*
X54092Y77306D01*
X53956Y77170D01*
X53819Y77306D01*
X53616Y77390D01*
X53395D01*
X53192Y77306D01*
X53056Y77170D01*
X52919Y77306D01*
X52716Y77390D01*
X52495D01*
X52292Y77306D01*
X52156Y77170D01*
X52019Y77306D01*
X51816Y77390D01*
X51595D01*
X51392Y77306D01*
X51256Y77170D01*
X51119Y77306D01*
X50916Y77390D01*
X50695D01*
X50492Y77306D01*
X50356Y77170D01*
X50219Y77306D01*
X50016Y77390D01*
X49795D01*
X49592Y77306D01*
X49456Y77170D01*
X49319Y77306D01*
X49116Y77390D01*
X48895D01*
X48692Y77306D01*
X48556Y77170D01*
X48419Y77306D01*
X48216Y77390D01*
X47995D01*
X47792Y77306D01*
X47656Y77170D01*
X47519Y77306D01*
X47316Y77390D01*
X47095D01*
X46892Y77306D01*
X46736Y77150D01*
X46597Y77147D01*
X46433Y77215D01*
X46213D01*
X46009Y77130D01*
X45853Y76974D01*
X45785Y76810D01*
X45594Y76889D01*
X45374D01*
X45170Y76805D01*
X45034Y76668D01*
X44898Y76805D01*
X44694Y76889D01*
X44474D01*
X44270Y76805D01*
X44134Y76668D01*
X43998Y76805D01*
X43794Y76889D01*
X43574D01*
X43370Y76805D01*
X43234Y76668D01*
X43098Y76805D01*
X42894Y76889D01*
X42674D01*
X42470Y76805D01*
X42334Y76668D01*
X42198Y76805D01*
X41994Y76889D01*
X41774D01*
X41570Y76805D01*
X41434Y76668D01*
X41298Y76805D01*
X41094Y76889D01*
X40874D01*
X40670Y76805D01*
X40534Y76668D01*
X40398Y76805D01*
X40194Y76889D01*
X39974D01*
X39909Y77000D01*
X39832Y77187D01*
X39689Y77330D01*
X39819Y77459D01*
X39903Y77663D01*
Y77883D01*
X39819Y78087D01*
X39882Y78203D01*
X39981Y78302D01*
X40082Y78334D01*
X40151Y78331D01*
X40321Y78261D01*
X40541D01*
X40745Y78345D01*
X40881Y78482D01*
X41017Y78345D01*
X41221Y78261D01*
X41441D01*
X41645Y78345D01*
X41781Y78482D01*
X41917Y78345D01*
X42121Y78261D01*
X42341D01*
X42545Y78345D01*
X42681Y78482D01*
X42817Y78345D01*
X43021Y78261D01*
X43241D01*
X43445Y78345D01*
X43581Y78482D01*
X43717Y78345D01*
X43921Y78261D01*
X44141D01*
X44345Y78345D01*
X44481Y78482D01*
X44617Y78345D01*
X44821Y78261D01*
X45041D01*
X45245Y78345D01*
X45401Y78501D01*
X45401Y78502D01*
X45538D01*
X45558Y78455D01*
X45714Y78299D01*
X45917Y78215D01*
X46138D01*
X46160Y78224D01*
X46319Y78153D01*
X46361Y78050D01*
X46517Y77894D01*
X46721Y77810D01*
X46941D01*
X47145Y77894D01*
X47281Y78030D01*
X47417Y77894D01*
X47621Y77810D01*
X47841D01*
X48045Y77894D01*
X48181Y78030D01*
X48317Y77894D01*
X48521Y77810D01*
X48741D01*
X48945Y77894D01*
X49081Y78030D01*
X49217Y77894D01*
X49421Y77810D01*
X49641D01*
X49845Y77894D01*
X49981Y78030D01*
X50117Y77894D01*
X50321Y77810D01*
X50541D01*
X50745Y77894D01*
X50881Y78030D01*
X51017Y77894D01*
X51221Y77810D01*
X51441D01*
X51645Y77894D01*
X51781Y78030D01*
X51917Y77894D01*
X52121Y77810D01*
X52341D01*
X52545Y77894D01*
X52681Y78030D01*
X52817Y77894D01*
X53021Y77810D01*
X53241D01*
X53445Y77894D01*
X53581Y78030D01*
X53717Y77894D01*
X53921Y77810D01*
X54141D01*
X54345Y77894D01*
X54481Y78030D01*
X54617Y77894D01*
X54821Y77810D01*
X55041D01*
X55245Y77894D01*
X55401Y78050D01*
X55471Y78220D01*
X55657Y78144D01*
X55877D01*
X56081Y78228D01*
X56140Y78287D01*
X56191Y78277D01*
X56347Y78121D01*
X56550Y78037D01*
X56771D01*
X56974Y78121D01*
X57130Y78277D01*
X57215Y78481D01*
Y78701D01*
X57130Y78905D01*
X56974Y79061D01*
X56771Y79145D01*
X56550D01*
X56347Y79061D01*
X56287Y79001D01*
X56237Y79012D01*
X56081Y79167D01*
X55877Y79252D01*
X55657D01*
X55453Y79167D01*
X55297Y79012D01*
X55227Y78841D01*
X55041Y78918D01*
X54821D01*
X54617Y78833D01*
X54481Y78697D01*
X54345Y78833D01*
X54141Y78918D01*
X53921D01*
X53717Y78833D01*
X53581Y78697D01*
X53445Y78833D01*
X53241Y78918D01*
X53021D01*
X52817Y78833D01*
X52681Y78697D01*
X52545Y78833D01*
X52341Y78918D01*
X52121D01*
X51917Y78833D01*
X51781Y78697D01*
X51645Y78833D01*
X51441Y78918D01*
X51221D01*
X51017Y78833D01*
X50881Y78697D01*
X50745Y78833D01*
X50541Y78918D01*
X50321D01*
X50117Y78833D01*
X49981Y78697D01*
X49845Y78833D01*
X49641Y78918D01*
X49421D01*
X49217Y78833D01*
X49081Y78697D01*
X48945Y78833D01*
X48741Y78918D01*
X48521D01*
X48317Y78833D01*
X48181Y78697D01*
X48045Y78833D01*
X47841Y78918D01*
X47621D01*
X47417Y78833D01*
X47281Y78697D01*
X47145Y78833D01*
X46941Y78918D01*
X46721D01*
X46699Y78909D01*
X46540Y78980D01*
X46497Y79083D01*
X46341Y79239D01*
X46138Y79323D01*
X45917D01*
X45714Y79239D01*
X45558Y79083D01*
X45557Y79082D01*
X45420D01*
X45401Y79129D01*
X45245Y79285D01*
X45041Y79369D01*
X44821D01*
X44617Y79285D01*
X44481Y79148D01*
X44345Y79285D01*
X44141Y79369D01*
X43921D01*
X43717Y79285D01*
X43581Y79148D01*
X43445Y79285D01*
X43241Y79369D01*
X43021D01*
X42817Y79285D01*
X42681Y79148D01*
X42545Y79285D01*
X42341Y79369D01*
X42121D01*
X41917Y79285D01*
X41781Y79148D01*
X41645Y79285D01*
X41441Y79369D01*
X41221D01*
X41017Y79285D01*
X40881Y79148D01*
X40745Y79285D01*
X40541Y79369D01*
X40321D01*
X40117Y79285D01*
X39961Y79129D01*
X39870Y79111D01*
X39860Y79121D01*
X39656Y79205D01*
X39436D01*
X39232Y79121D01*
X39076Y78965D01*
X39040Y78878D01*
X38913Y78904D01*
X38913Y102932D01*
X38915Y102934D01*
X38915D01*
X38935Y103136D01*
X39084Y103627D01*
X39326Y104080D01*
X39652Y104477D01*
X40049Y104803D01*
X40501Y105045D01*
X40993Y105194D01*
X41459Y105240D01*
X41475Y105237D01*
X58173Y105237D01*
X58225Y105110D01*
X58156Y105040D01*
X58119Y104951D01*
X58075Y104943D01*
X57872Y105027D01*
X57651D01*
X57448Y104943D01*
X57292Y104787D01*
X57208Y104583D01*
Y104363D01*
X57292Y104159D01*
X57271Y104001D01*
X57165Y103896D01*
X57081Y103692D01*
Y103472D01*
X57165Y103268D01*
X57302Y103132D01*
X57165Y102996D01*
X57081Y102792D01*
Y102572D01*
X57165Y102368D01*
X57302Y102232D01*
X57165Y102096D01*
X57081Y101892D01*
Y101672D01*
X57165Y101468D01*
X57302Y101332D01*
X57165Y101196D01*
X57081Y100992D01*
Y100772D01*
X57165Y100568D01*
X57302Y100432D01*
X57165Y100296D01*
X57081Y100092D01*
Y99872D01*
X57165Y99668D01*
X57302Y99532D01*
X57165Y99396D01*
X57081Y99192D01*
Y98972D01*
X57165Y98768D01*
X57311Y98622D01*
X57185Y98496D01*
X57100Y98292D01*
Y98072D01*
X57185Y97868D01*
X57340Y97712D01*
X57477Y97656D01*
X57557Y97517D01*
Y97297D01*
X57642Y97093D01*
X57778Y96957D01*
X57642Y96821D01*
X57557Y96617D01*
Y96397D01*
X57642Y96193D01*
X57778Y96057D01*
X57642Y95921D01*
X57557Y95717D01*
Y95497D01*
X57642Y95293D01*
X57778Y95157D01*
X57642Y95021D01*
X57557Y94817D01*
Y94597D01*
X57642Y94393D01*
X57791Y94244D01*
X57667Y94121D01*
X57583Y93917D01*
Y93697D01*
X57667Y93493D01*
X57766Y93395D01*
X57780Y93228D01*
X57779Y93228D01*
X57695Y93024D01*
Y92804D01*
X57779Y92600D01*
X57935Y92444D01*
X57989Y92422D01*
X58002Y92356D01*
X57917Y92152D01*
Y91932D01*
X58002Y91728D01*
X58158Y91572D01*
X58325Y91503D01*
X58247Y91315D01*
Y91094D01*
X58331Y90891D01*
X58487Y90735D01*
X58691Y90651D01*
X58719Y90609D01*
X58685Y90529D01*
Y90308D01*
X58769Y90105D01*
X58925Y89949D01*
X59111Y89872D01*
X59221Y89806D01*
Y89585D01*
X59306Y89382D01*
X59462Y89226D01*
X59665Y89142D01*
X59832D01*
Y88924D01*
X59916Y88720D01*
X60072Y88564D01*
X60276Y88480D01*
X60468D01*
Y88288D01*
X60552Y88084D01*
X60708Y87928D01*
X60912Y87844D01*
X61104D01*
Y87651D01*
X61189Y87448D01*
X61345Y87292D01*
X61548Y87207D01*
X61741D01*
Y87015D01*
X61825Y86811D01*
X61981Y86655D01*
X62185Y86571D01*
X62377D01*
Y86378D01*
X62462Y86175D01*
X62617Y86019D01*
X62821Y85935D01*
X63014D01*
Y85742D01*
X63098Y85538D01*
X63254Y85383D01*
X63457Y85298D01*
X63650D01*
Y85106D01*
X63734Y84902D01*
X63874Y84763D01*
X63821Y84635D01*
Y84415D01*
X63905Y84211D01*
X64061Y84055D01*
X64265Y83971D01*
X64485D01*
X64689Y84055D01*
X64845Y84211D01*
X64929Y84415D01*
Y84635D01*
X64845Y84839D01*
X64705Y84978D01*
X64758Y85106D01*
Y85326D01*
X64674Y85530D01*
X64518Y85685D01*
X64314Y85770D01*
X64122D01*
Y85962D01*
X64037Y86166D01*
X63882Y86322D01*
X63678Y86406D01*
X63485D01*
Y86599D01*
X63401Y86802D01*
X63245Y86958D01*
X63041Y87043D01*
X62849D01*
Y87235D01*
X62765Y87439D01*
X62609Y87595D01*
X62405Y87679D01*
X62213D01*
Y87872D01*
X62128Y88075D01*
X61972Y88231D01*
X61769Y88315D01*
X61576D01*
Y88508D01*
X61492Y88712D01*
X61336Y88867D01*
X61132Y88952D01*
X60940D01*
Y89144D01*
X60855Y89348D01*
X60700Y89504D01*
X60496Y89588D01*
X60329D01*
Y89806D01*
X60245Y90009D01*
X60089Y90165D01*
X59903Y90242D01*
X59793Y90308D01*
Y90529D01*
X59709Y90732D01*
X59553Y90888D01*
X59349Y90972D01*
X59322Y91014D01*
X59355Y91094D01*
Y91315D01*
X59271Y91518D01*
X59115Y91674D01*
X58947Y91744D01*
X59025Y91932D01*
Y92152D01*
X58941Y92356D01*
X58785Y92512D01*
X58732Y92534D01*
X58719Y92600D01*
X58803Y92804D01*
Y93024D01*
X58719Y93228D01*
X58620Y93327D01*
X58606Y93493D01*
X58607Y93493D01*
X58691Y93697D01*
Y93917D01*
X58607Y94121D01*
X58458Y94270D01*
X58581Y94393D01*
X58665Y94597D01*
Y94817D01*
X58581Y95021D01*
X58445Y95157D01*
X58581Y95293D01*
X58665Y95497D01*
Y95717D01*
X58581Y95921D01*
X58445Y96057D01*
X58581Y96193D01*
X58665Y96397D01*
Y96617D01*
X58581Y96821D01*
X58445Y96957D01*
X58581Y97093D01*
X58665Y97297D01*
Y97517D01*
X58581Y97721D01*
X58425Y97876D01*
X58288Y97933D01*
X58208Y98072D01*
Y98292D01*
X58124Y98496D01*
X57978Y98642D01*
X58105Y98768D01*
X58189Y98972D01*
Y99192D01*
X58105Y99396D01*
X57968Y99532D01*
X58105Y99668D01*
X58189Y99872D01*
Y100092D01*
X58105Y100296D01*
X57968Y100432D01*
X58105Y100568D01*
X58189Y100772D01*
Y100992D01*
X58105Y101196D01*
X57968Y101332D01*
X58105Y101468D01*
X58189Y101672D01*
Y101892D01*
X58105Y102096D01*
X57968Y102232D01*
X58105Y102368D01*
X58189Y102572D01*
Y102792D01*
X58105Y102996D01*
X57968Y103132D01*
X58105Y103268D01*
X58189Y103472D01*
Y103692D01*
X58105Y103896D01*
X58126Y104054D01*
X58231Y104159D01*
X58268Y104248D01*
X58311Y104256D01*
X58515Y104172D01*
X58735D01*
X58939Y104256D01*
X59095Y104412D01*
X59105Y104437D01*
X59243D01*
X59272Y104366D01*
X59428Y104210D01*
X59626Y104128D01*
X59561Y103971D01*
Y103751D01*
X59645Y103547D01*
X59782Y103411D01*
X59645Y103275D01*
X59561Y103071D01*
Y102851D01*
X59645Y102647D01*
X59782Y102511D01*
X59645Y102375D01*
X59561Y102171D01*
Y101951D01*
X59645Y101747D01*
X59782Y101611D01*
X59645Y101475D01*
X59561Y101271D01*
Y101051D01*
X59645Y100847D01*
X59782Y100711D01*
X59645Y100575D01*
X59561Y100371D01*
Y100151D01*
X59645Y99947D01*
X59782Y99811D01*
X59645Y99675D01*
X59561Y99471D01*
Y99251D01*
X59645Y99047D01*
X59782Y98911D01*
X59645Y98775D01*
X59561Y98571D01*
Y98351D01*
X59474Y98229D01*
X59325Y98167D01*
X59169Y98011D01*
X59085Y97808D01*
Y97587D01*
X59169Y97384D01*
X59305Y97247D01*
X59169Y97111D01*
X59085Y96908D01*
Y96687D01*
X59169Y96484D01*
X59305Y96347D01*
X59169Y96211D01*
X59085Y96008D01*
Y95787D01*
X59169Y95584D01*
X59305Y95447D01*
X59169Y95311D01*
X59085Y95108D01*
Y94887D01*
X59169Y94684D01*
X59306Y94547D01*
X59170Y94411D01*
X59085Y94208D01*
Y93987D01*
X59170Y93784D01*
X59270Y93683D01*
X59274Y93522D01*
X59268Y93517D01*
X59184Y93313D01*
Y93093D01*
X59268Y92889D01*
X59417Y92740D01*
X59504Y92648D01*
X59420Y92445D01*
Y92224D01*
X59504Y92021D01*
X59660Y91865D01*
X59863Y91781D01*
X59801Y91629D01*
Y91409D01*
X59885Y91205D01*
X60041Y91049D01*
X60223Y90974D01*
X60296Y90878D01*
Y90658D01*
X60381Y90454D01*
X60537Y90298D01*
X60740Y90214D01*
X60914D01*
Y90002D01*
X60998Y89799D01*
X61154Y89643D01*
X61357Y89559D01*
X61550D01*
Y89366D01*
X61634Y89162D01*
X61790Y89007D01*
X61994Y88922D01*
X62186D01*
Y88730D01*
X62271Y88526D01*
X62427Y88370D01*
X62630Y88286D01*
X62823D01*
Y88093D01*
X62907Y87890D01*
X63063Y87734D01*
X63267Y87649D01*
X63459D01*
Y87457D01*
X63543Y87253D01*
X63699Y87097D01*
X63903Y87013D01*
X64096D01*
Y86820D01*
X64180Y86617D01*
X64336Y86461D01*
X64539Y86377D01*
X64732D01*
Y86184D01*
X64816Y85980D01*
X64972Y85825D01*
X65176Y85740D01*
X65396D01*
X65502Y85647D01*
X65569Y85487D01*
X65724Y85331D01*
X65928Y85246D01*
X66148D01*
X66232Y85144D01*
X66305Y84969D01*
X66461Y84813D01*
X66664Y84729D01*
X66704Y84669D01*
X66684Y84622D01*
Y84401D01*
X66769Y84198D01*
X66925Y84042D01*
X67128Y83957D01*
X67349D01*
X67408Y83982D01*
X67471Y83940D01*
X67555Y83736D01*
X67711Y83580D01*
X67915Y83496D01*
X68075D01*
X68077Y83492D01*
Y83272D01*
X68161Y83068D01*
X68317Y82912D01*
X68521Y82828D01*
X68741D01*
X68945Y82912D01*
X69101Y83068D01*
X69200Y83002D01*
X69121Y82810D01*
Y82590D01*
X69205Y82386D01*
X69361Y82230D01*
X69565Y82146D01*
X69785D01*
X69989Y82230D01*
X70145Y82386D01*
X70229Y82590D01*
Y82810D01*
X70190Y82904D01*
X70298Y82976D01*
X70411Y82863D01*
X70615Y82778D01*
X70835D01*
X71039Y82863D01*
X71194Y83019D01*
X71279Y83222D01*
Y83416D01*
X71470D01*
X71674Y83500D01*
X71830Y83656D01*
X71907Y83843D01*
X72076Y83773D01*
X72296D01*
X72500Y83857D01*
X72656Y84013D01*
X72740Y84216D01*
Y84409D01*
X72933D01*
X73136Y84493D01*
X73292Y84649D01*
X73377Y84853D01*
Y85045D01*
X73569D01*
X73773Y85130D01*
X73929Y85285D01*
X74013Y85489D01*
Y85682D01*
X74206D01*
X74409Y85766D01*
X74565Y85922D01*
X74649Y86125D01*
Y86318D01*
X74842D01*
X75046Y86402D01*
X75202Y86558D01*
X75286Y86762D01*
Y86954D01*
X75478D01*
X75682Y87039D01*
X75838Y87195D01*
X75922Y87398D01*
Y87591D01*
X76115D01*
X76318Y87675D01*
X76474Y87831D01*
X76559Y88035D01*
Y88227D01*
X76751D01*
X76955Y88312D01*
X77111Y88467D01*
X77195Y88671D01*
Y88864D01*
X77388D01*
X77591Y88948D01*
X77747Y89104D01*
X77831Y89307D01*
Y89503D01*
X78021D01*
X78224Y89588D01*
X78380Y89744D01*
X78465Y89947D01*
Y90066D01*
X78474Y90171D01*
X78577Y90211D01*
X78584Y90214D01*
X78781Y90295D01*
X78937Y90451D01*
X79021Y90654D01*
Y90875D01*
X79018Y90883D01*
X79092Y91034D01*
X79213Y91084D01*
X79369Y91240D01*
X79453Y91444D01*
Y91664D01*
X79416Y91755D01*
X79483Y91920D01*
X79513Y91933D01*
X79669Y92089D01*
X79753Y92292D01*
Y92513D01*
X79669Y92716D01*
X79697Y92837D01*
X79833Y92974D01*
X79918Y93177D01*
Y93398D01*
X79833Y93601D01*
X79709Y93726D01*
X79856Y93873D01*
X79940Y94077D01*
Y94297D01*
X79856Y94501D01*
X79720Y94637D01*
X79856Y94773D01*
X79940Y94977D01*
Y95197D01*
X79856Y95401D01*
X79720Y95537D01*
X79856Y95673D01*
X79940Y95877D01*
Y96097D01*
X79856Y96301D01*
X79720Y96437D01*
X79856Y96573D01*
X79940Y96777D01*
Y96997D01*
X79856Y97201D01*
X79712Y97345D01*
X79632Y97445D01*
X79717Y97649D01*
Y97869D01*
X79632Y98073D01*
X79477Y98229D01*
X79456Y98237D01*
X79395Y98400D01*
X79439Y98505D01*
Y98725D01*
X79355Y98929D01*
X79218Y99065D01*
X79355Y99201D01*
X79439Y99405D01*
Y99625D01*
X79355Y99829D01*
X79218Y99965D01*
X79355Y100101D01*
X79439Y100305D01*
Y100525D01*
X79355Y100729D01*
X79218Y100865D01*
X79355Y101001D01*
X79439Y101205D01*
Y101425D01*
X79355Y101629D01*
X79218Y101765D01*
X79355Y101901D01*
X79439Y102105D01*
Y102325D01*
X79355Y102529D01*
X79218Y102665D01*
X79355Y102801D01*
X79439Y103005D01*
Y103225D01*
X79355Y103429D01*
X79218Y103565D01*
X79355Y103701D01*
X79439Y103905D01*
Y104125D01*
X79451Y104143D01*
X79582D01*
X79786Y104228D01*
X79924Y104366D01*
X80058Y104231D01*
X80262Y104147D01*
X80482D01*
X80686Y104231D01*
X80760Y104306D01*
X80886Y104180D01*
X80859Y104062D01*
X80811Y103946D01*
Y103726D01*
X80895Y103522D01*
X81032Y103386D01*
X80895Y103250D01*
X80811Y103046D01*
Y102826D01*
X80895Y102622D01*
X81032Y102486D01*
X80895Y102350D01*
X80811Y102146D01*
Y101926D01*
X80895Y101722D01*
X81032Y101586D01*
X80895Y101450D01*
X80811Y101246D01*
Y101026D01*
X80895Y100822D01*
X81032Y100686D01*
X80895Y100550D01*
X80811Y100346D01*
Y100126D01*
X80895Y99922D01*
X81032Y99786D01*
X80895Y99650D01*
X80811Y99446D01*
Y99226D01*
X80895Y99022D01*
X81032Y98886D01*
X80895Y98750D01*
X80811Y98546D01*
Y98326D01*
X80733Y98182D01*
X80600Y98127D01*
X80444Y97971D01*
X80360Y97768D01*
Y97547D01*
X80444Y97344D01*
X80580Y97207D01*
X80444Y97071D01*
X80360Y96868D01*
Y96647D01*
X80444Y96444D01*
X80580Y96307D01*
X80444Y96171D01*
X80360Y95968D01*
Y95747D01*
X80444Y95544D01*
X80580Y95407D01*
X80444Y95271D01*
X80360Y95068D01*
Y94847D01*
X80444Y94644D01*
X80580Y94507D01*
X80444Y94371D01*
X80360Y94168D01*
Y93947D01*
X80444Y93744D01*
X80560Y93627D01*
X80405Y93472D01*
X80321Y93268D01*
Y93048D01*
X80405Y92844D01*
X80387Y92708D01*
X80263Y92583D01*
X80179Y92380D01*
Y92159D01*
X80228Y92039D01*
X80174Y91879D01*
X80165Y91876D01*
X80009Y91720D01*
X79925Y91516D01*
Y91296D01*
X79993Y91132D01*
X79801Y91053D01*
X79645Y90897D01*
X79561Y90693D01*
Y90473D01*
X79478Y90341D01*
X79336Y90282D01*
X79180Y90126D01*
X79096Y89922D01*
Y89702D01*
X78984Y89660D01*
X78983Y89659D01*
X78983D01*
X78779Y89575D01*
X78623Y89419D01*
X78539Y89216D01*
Y89007D01*
X78363D01*
X78159Y88923D01*
X78003Y88767D01*
X77919Y88563D01*
Y88371D01*
X77726D01*
X77523Y88286D01*
X77367Y88130D01*
X77283Y87927D01*
Y87734D01*
X77090D01*
X76886Y87650D01*
X76731Y87494D01*
X76646Y87290D01*
Y87098D01*
X76454D01*
X76250Y87013D01*
X76094Y86858D01*
X76010Y86654D01*
Y86461D01*
X75817D01*
X75614Y86377D01*
X75458Y86221D01*
X75373Y86018D01*
Y85825D01*
X75181D01*
X74977Y85741D01*
X74821Y85585D01*
X74737Y85381D01*
Y85189D01*
X74544D01*
X74341Y85104D01*
X74185Y84948D01*
X74101Y84745D01*
Y84552D01*
X73908D01*
X73704Y84468D01*
X73549Y84312D01*
X73464Y84108D01*
Y83916D01*
X73272D01*
X73068Y83832D01*
X72912Y83676D01*
X72828Y83472D01*
Y83252D01*
X72830Y83246D01*
X72755Y83095D01*
X72633Y83044D01*
X72477Y82888D01*
X72393Y82684D01*
Y82472D01*
X72221D01*
X72017Y82387D01*
X71861Y82231D01*
X71777Y82028D01*
Y81807D01*
X71741Y81754D01*
X71615D01*
X71411Y81670D01*
X71255Y81514D01*
X71171Y81310D01*
Y81090D01*
X71255Y80886D01*
X71392Y80750D01*
X71280Y80639D01*
X71196Y80435D01*
Y80215D01*
X71280Y80011D01*
X71436Y79855D01*
X71640Y79771D01*
X71860D01*
X72064Y79855D01*
X72220Y80011D01*
X72304Y80215D01*
Y80435D01*
X72220Y80639D01*
X72083Y80775D01*
X72195Y80886D01*
X72279Y81090D01*
Y81310D01*
X72315Y81364D01*
X72441D01*
X72645Y81448D01*
X72801Y81604D01*
X72885Y81807D01*
Y82020D01*
X73057D01*
X73260Y82105D01*
X73416Y82260D01*
X73501Y82464D01*
Y82684D01*
X73498Y82691D01*
X73573Y82841D01*
X73696Y82892D01*
X73852Y83048D01*
X73936Y83252D01*
Y83444D01*
X74128D01*
X74332Y83529D01*
X74488Y83684D01*
X74572Y83888D01*
Y84081D01*
X74765D01*
X74968Y84165D01*
X75124Y84321D01*
X75209Y84524D01*
Y84717D01*
X75401D01*
X75605Y84801D01*
X75761Y84957D01*
X75845Y85161D01*
Y85353D01*
X76038D01*
X76241Y85438D01*
X76397Y85594D01*
X76481Y85797D01*
Y85990D01*
X76674D01*
X76878Y86074D01*
X77034Y86230D01*
X77118Y86434D01*
Y86626D01*
X77310D01*
X77514Y86711D01*
X77670Y86866D01*
X77754Y87070D01*
Y87263D01*
X77947D01*
X78150Y87347D01*
X78306Y87503D01*
X78391Y87706D01*
Y87899D01*
X78583D01*
X78787Y87983D01*
X78943Y88139D01*
X79027Y88343D01*
Y88551D01*
X79203D01*
X79407Y88636D01*
X79563Y88792D01*
X79643Y88986D01*
X79647Y88995D01*
X79647Y89112D01*
X79655Y89219D01*
X79760Y89258D01*
X79767Y89261D01*
X79964Y89343D01*
X80120Y89498D01*
X80204Y89702D01*
Y89922D01*
X80287Y90055D01*
X80428Y90113D01*
X80584Y90269D01*
X80669Y90473D01*
Y90693D01*
X80601Y90857D01*
X80793Y90936D01*
X80949Y91092D01*
X81033Y91296D01*
Y91516D01*
X80983Y91636D01*
X81038Y91796D01*
X81047Y91800D01*
X81202Y91956D01*
X81287Y92159D01*
Y92380D01*
X81202Y92583D01*
X81220Y92720D01*
X81344Y92844D01*
X81429Y93048D01*
Y93268D01*
X81344Y93472D01*
X81228Y93588D01*
X81383Y93744D01*
X81468Y93947D01*
Y94168D01*
X81383Y94371D01*
X81247Y94507D01*
X81383Y94644D01*
X81468Y94847D01*
Y95068D01*
X81383Y95271D01*
X81247Y95407D01*
X81383Y95544D01*
X81468Y95747D01*
Y95968D01*
X81383Y96171D01*
X81247Y96307D01*
X81383Y96444D01*
X81468Y96647D01*
Y96868D01*
X81383Y97071D01*
X81247Y97207D01*
X81383Y97344D01*
X81468Y97547D01*
Y97768D01*
X81546Y97911D01*
X81679Y97966D01*
X81835Y98122D01*
X81919Y98326D01*
Y98546D01*
X81835Y98750D01*
X81698Y98886D01*
X81835Y99022D01*
X81919Y99226D01*
Y99446D01*
X81835Y99650D01*
X81698Y99786D01*
X81835Y99922D01*
X81919Y100126D01*
Y100346D01*
X81835Y100550D01*
X81698Y100686D01*
X81835Y100822D01*
X81919Y101026D01*
Y101246D01*
X81835Y101450D01*
X81698Y101586D01*
X81835Y101722D01*
X81919Y101926D01*
Y102146D01*
X81835Y102350D01*
X81698Y102486D01*
X81835Y102622D01*
X81919Y102826D01*
Y103046D01*
X81835Y103250D01*
X81698Y103386D01*
X81835Y103522D01*
X81919Y103726D01*
Y103946D01*
X81835Y104150D01*
X81679Y104306D01*
X81706Y104424D01*
X81754Y104540D01*
Y104760D01*
X81670Y104964D01*
X81524Y105110D01*
X81529Y105156D01*
X81563Y105237D01*
X119475Y105237D01*
X119500Y105241D01*
X119986Y105194D01*
D02*
G37*
G36*
X79101Y105110D02*
X79002Y105011D01*
X78918Y104808D01*
Y104587D01*
X78906Y104569D01*
X78775D01*
X78571Y104485D01*
X78415Y104329D01*
X78331Y104125D01*
Y103905D01*
X78415Y103701D01*
X78552Y103565D01*
X78415Y103429D01*
X78331Y103225D01*
Y103005D01*
X78415Y102801D01*
X78552Y102665D01*
X78415Y102529D01*
X78331Y102325D01*
Y102105D01*
X78415Y101901D01*
X78552Y101765D01*
X78415Y101629D01*
X78331Y101425D01*
Y101205D01*
X78415Y101001D01*
X78552Y100865D01*
X78415Y100729D01*
X78331Y100525D01*
Y100305D01*
X78415Y100101D01*
X78552Y99965D01*
X78415Y99829D01*
X78331Y99625D01*
Y99405D01*
X78415Y99201D01*
X78552Y99065D01*
X78415Y98929D01*
X78331Y98725D01*
Y98505D01*
X78415Y98301D01*
X78571Y98145D01*
X78591Y98137D01*
X78652Y97974D01*
X78609Y97869D01*
Y97649D01*
X78693Y97445D01*
X78837Y97301D01*
X78917Y97201D01*
X78832Y96997D01*
Y96777D01*
X78917Y96573D01*
X79053Y96437D01*
X78917Y96301D01*
X78832Y96097D01*
Y95877D01*
X78917Y95673D01*
X79053Y95537D01*
X78917Y95401D01*
X78832Y95197D01*
Y94977D01*
X78917Y94773D01*
X79053Y94637D01*
X78917Y94501D01*
X78832Y94297D01*
Y94077D01*
X78917Y93873D01*
X79041Y93749D01*
X78894Y93601D01*
X78810Y93398D01*
Y93177D01*
X78894Y92974D01*
X78866Y92853D01*
X78730Y92716D01*
X78645Y92513D01*
Y92292D01*
X78683Y92201D01*
X78616Y92036D01*
X78586Y92024D01*
X78430Y91868D01*
X78345Y91664D01*
Y91444D01*
X78349Y91436D01*
X78274Y91284D01*
X78153Y91234D01*
X77997Y91078D01*
X77913Y90875D01*
Y90756D01*
X77904Y90651D01*
X77800Y90611D01*
X77793Y90608D01*
X77597Y90527D01*
X77441Y90371D01*
X77357Y90168D01*
Y89972D01*
X77167D01*
X76964Y89887D01*
X76808Y89731D01*
X76723Y89528D01*
Y89335D01*
X76531D01*
X76327Y89251D01*
X76171Y89095D01*
X76087Y88891D01*
Y88699D01*
X75894D01*
X75691Y88615D01*
X75535Y88459D01*
X75451Y88255D01*
Y88062D01*
X75258D01*
X75054Y87978D01*
X74899Y87822D01*
X74814Y87619D01*
Y87426D01*
X74622D01*
X74418Y87342D01*
X74262Y87186D01*
X74178Y86982D01*
Y86790D01*
X73985D01*
X73782Y86705D01*
X73626Y86550D01*
X73541Y86346D01*
Y86153D01*
X73349D01*
X73145Y86069D01*
X72989Y85913D01*
X72905Y85710D01*
Y85517D01*
X72712D01*
X72509Y85433D01*
X72353Y85277D01*
X72269Y85073D01*
Y84881D01*
X72076D01*
X71872Y84796D01*
X71717Y84640D01*
X71639Y84454D01*
X71470Y84524D01*
X71250D01*
X71046Y84440D01*
X70890Y84284D01*
X70806Y84080D01*
Y83886D01*
X70615D01*
X70411Y83802D01*
X70255Y83646D01*
X70171Y83443D01*
Y83222D01*
X70210Y83129D01*
X70102Y83057D01*
X69989Y83170D01*
X69785Y83254D01*
X69565D01*
X69361Y83170D01*
X69205Y83014D01*
X69106Y83080D01*
X69185Y83272D01*
Y83492D01*
X69101Y83696D01*
X68945Y83852D01*
X68741Y83936D01*
X68581D01*
X68579Y83940D01*
Y84160D01*
X68495Y84364D01*
X68339Y84520D01*
X68135Y84604D01*
X67915D01*
X67856Y84579D01*
X67792Y84622D01*
X67708Y84825D01*
X67552Y84981D01*
X67349Y85065D01*
X67309Y85125D01*
X67329Y85173D01*
Y85393D01*
X67244Y85597D01*
X67088Y85752D01*
X66885Y85837D01*
X66664D01*
X66580Y85939D01*
X66508Y86114D01*
X66352Y86270D01*
X66148Y86354D01*
X65928D01*
X65822Y86448D01*
X65756Y86608D01*
X65600Y86764D01*
X65396Y86848D01*
X65204D01*
Y87041D01*
X65119Y87244D01*
X64963Y87400D01*
X64760Y87485D01*
X64567D01*
Y87677D01*
X64483Y87881D01*
X64327Y88037D01*
X64123Y88121D01*
X63931D01*
Y88314D01*
X63846Y88517D01*
X63691Y88673D01*
X63487Y88757D01*
X63294D01*
Y88950D01*
X63210Y89154D01*
X63054Y89309D01*
X62851Y89394D01*
X62658D01*
Y89586D01*
X62574Y89790D01*
X62418Y89946D01*
X62214Y90030D01*
X62022D01*
Y90223D01*
X61937Y90426D01*
X61781Y90582D01*
X61578Y90667D01*
X61404D01*
Y90878D01*
X61320Y91082D01*
X61164Y91237D01*
X60982Y91313D01*
X60909Y91409D01*
Y91629D01*
X60824Y91833D01*
X60669Y91989D01*
X60465Y92073D01*
X60528Y92224D01*
Y92445D01*
X60444Y92648D01*
X60295Y92797D01*
X60207Y92889D01*
X60292Y93093D01*
Y93313D01*
X60207Y93517D01*
X60107Y93617D01*
X60103Y93778D01*
X60109Y93784D01*
X60193Y93987D01*
Y94208D01*
X60109Y94411D01*
X59972Y94548D01*
X60108Y94684D01*
X60193Y94887D01*
Y95108D01*
X60108Y95311D01*
X59972Y95447D01*
X60108Y95584D01*
X60193Y95787D01*
Y96008D01*
X60108Y96211D01*
X59972Y96347D01*
X60108Y96484D01*
X60193Y96687D01*
Y96908D01*
X60108Y97111D01*
X59972Y97247D01*
X60108Y97384D01*
X60193Y97587D01*
Y97808D01*
X60280Y97930D01*
X60429Y97991D01*
X60585Y98147D01*
X60669Y98351D01*
Y98571D01*
X60585Y98775D01*
X60448Y98911D01*
X60585Y99047D01*
X60669Y99251D01*
Y99471D01*
X60585Y99675D01*
X60448Y99811D01*
X60585Y99947D01*
X60669Y100151D01*
Y100371D01*
X60585Y100575D01*
X60448Y100711D01*
X60585Y100847D01*
X60669Y101051D01*
Y101271D01*
X60585Y101475D01*
X60448Y101611D01*
X60585Y101747D01*
X60669Y101951D01*
Y102171D01*
X60585Y102375D01*
X60448Y102511D01*
X60585Y102647D01*
X60669Y102851D01*
Y103071D01*
X60585Y103275D01*
X60448Y103411D01*
X60585Y103547D01*
X60669Y103751D01*
Y103971D01*
X60585Y104175D01*
X60429Y104331D01*
X60231Y104413D01*
X60296Y104570D01*
Y104790D01*
X60211Y104994D01*
X60095Y105110D01*
X60148Y105237D01*
X79048D01*
X79101Y105110D01*
D02*
G37*
%LPC*%
G36*
X97935Y104004D02*
X97715D01*
X97511Y103920D01*
X97355Y103764D01*
X97271Y103560D01*
Y103340D01*
X97355Y103136D01*
X97511Y102980D01*
X97715Y102896D01*
X97935D01*
X98139Y102980D01*
X98295Y103136D01*
X98379Y103340D01*
Y103560D01*
X98295Y103764D01*
X98139Y103920D01*
X97935Y104004D01*
D02*
G37*
G36*
X119860Y103979D02*
X119640D01*
X119436Y103895D01*
X119280Y103739D01*
X119196Y103535D01*
Y103315D01*
X119280Y103111D01*
X119436Y102955D01*
X119640Y102871D01*
X119860D01*
X120064Y102955D01*
X120220Y103111D01*
X120304Y103315D01*
Y103535D01*
X120220Y103739D01*
X120064Y103895D01*
X119860Y103979D01*
D02*
G37*
G36*
X115385Y103829D02*
X115165D01*
X114961Y103745D01*
X114805Y103589D01*
X114721Y103385D01*
Y103165D01*
X114805Y102961D01*
X114961Y102805D01*
X115165Y102721D01*
X115385D01*
X115589Y102805D01*
X115745Y102961D01*
X115829Y103165D01*
Y103385D01*
X115745Y103589D01*
X115589Y103745D01*
X115385Y103829D01*
D02*
G37*
G36*
X92710Y103554D02*
X92490D01*
X92286Y103470D01*
X92130Y103314D01*
X92046Y103110D01*
Y102890D01*
X92130Y102686D01*
X92286Y102530D01*
X92490Y102446D01*
X92710D01*
X92914Y102530D01*
X93070Y102686D01*
X93154Y102890D01*
Y103110D01*
X93070Y103314D01*
X92914Y103470D01*
X92710Y103554D01*
D02*
G37*
G36*
X51260Y102829D02*
X51040D01*
X50836Y102745D01*
X50680Y102589D01*
X50596Y102385D01*
Y102165D01*
X50680Y101961D01*
X50836Y101805D01*
X51040Y101721D01*
X51260D01*
X51464Y101805D01*
X51620Y101961D01*
X51704Y102165D01*
Y102385D01*
X51620Y102589D01*
X51464Y102745D01*
X51260Y102829D01*
D02*
G37*
G36*
X88160Y102704D02*
X87940D01*
X87736Y102620D01*
X87580Y102464D01*
X87496Y102260D01*
Y102040D01*
X87580Y101836D01*
X87736Y101680D01*
X87940Y101596D01*
X88160D01*
X88364Y101680D01*
X88520Y101836D01*
X88604Y102040D01*
Y102260D01*
X88520Y102464D01*
X88364Y102620D01*
X88160Y102704D01*
D02*
G37*
G36*
X46035Y102379D02*
X45815D01*
X45611Y102295D01*
X45455Y102139D01*
X45371Y101935D01*
Y101715D01*
X45455Y101511D01*
X45611Y101355D01*
X45815Y101271D01*
X46035D01*
X46239Y101355D01*
X46395Y101511D01*
X46479Y101715D01*
Y101935D01*
X46395Y102139D01*
X46239Y102295D01*
X46035Y102379D01*
D02*
G37*
G36*
X117860Y101954D02*
X117640D01*
X117436Y101870D01*
X117280Y101714D01*
X117196Y101510D01*
Y101290D01*
X117280Y101086D01*
X117436Y100930D01*
X117640Y100846D01*
X117860D01*
X118064Y100930D01*
X118220Y101086D01*
X118304Y101290D01*
Y101510D01*
X118220Y101714D01*
X118064Y101870D01*
X117860Y101954D01*
D02*
G37*
G36*
X41485Y101929D02*
X41265D01*
X41061Y101845D01*
X40905Y101689D01*
X40821Y101485D01*
Y101265D01*
X40905Y101061D01*
X41061Y100905D01*
X41265Y100821D01*
X41485D01*
X41689Y100905D01*
X41845Y101061D01*
X41929Y101265D01*
Y101485D01*
X41845Y101689D01*
X41689Y101845D01*
X41485Y101929D01*
D02*
G37*
G36*
X112610Y101804D02*
X112390D01*
X112186Y101720D01*
X112030Y101564D01*
X111946Y101360D01*
Y101140D01*
X112030Y100936D01*
X112186Y100780D01*
X112390Y100696D01*
X112610D01*
X112814Y100780D01*
X112970Y100936D01*
X113054Y101140D01*
Y101360D01*
X112970Y101564D01*
X112814Y101720D01*
X112610Y101804D01*
D02*
G37*
G36*
X95360Y101154D02*
X95140D01*
X94936Y101070D01*
X94780Y100914D01*
X94696Y100710D01*
Y100490D01*
X94780Y100286D01*
X94936Y100130D01*
X95140Y100046D01*
X95360D01*
X95564Y100130D01*
X95720Y100286D01*
X95804Y100490D01*
Y100710D01*
X95720Y100914D01*
X95564Y101070D01*
X95360Y101154D01*
D02*
G37*
G36*
X43785Y100129D02*
X43565D01*
X43361Y100045D01*
X43205Y99889D01*
X43121Y99685D01*
Y99465D01*
X43205Y99261D01*
X43361Y99105D01*
X43565Y99021D01*
X43785D01*
X43989Y99105D01*
X44145Y99261D01*
X44229Y99465D01*
Y99685D01*
X44145Y99889D01*
X43989Y100045D01*
X43785Y100129D01*
D02*
G37*
G36*
X48685Y99979D02*
X48465D01*
X48261Y99895D01*
X48105Y99739D01*
X48021Y99535D01*
Y99315D01*
X48105Y99111D01*
X48261Y98955D01*
X48465Y98871D01*
X48685D01*
X48889Y98955D01*
X49045Y99111D01*
X49129Y99315D01*
Y99535D01*
X49045Y99739D01*
X48889Y99895D01*
X48685Y99979D01*
D02*
G37*
G36*
X119735Y99279D02*
X119515D01*
X119311Y99195D01*
X119155Y99039D01*
X119071Y98835D01*
Y98615D01*
X119155Y98411D01*
X119311Y98255D01*
X119515Y98171D01*
X119735D01*
X119939Y98255D01*
X120095Y98411D01*
X120179Y98615D01*
Y98835D01*
X120095Y99039D01*
X119939Y99195D01*
X119735Y99279D01*
D02*
G37*
G36*
X115460Y99229D02*
X115240D01*
X115036Y99145D01*
X114880Y98989D01*
X114796Y98785D01*
Y98565D01*
X114880Y98361D01*
X115036Y98205D01*
X115240Y98121D01*
X115460D01*
X115664Y98205D01*
X115820Y98361D01*
X115904Y98565D01*
Y98785D01*
X115820Y98989D01*
X115664Y99145D01*
X115460Y99229D01*
D02*
G37*
G36*
X86085Y104604D02*
X85865D01*
X85661Y104520D01*
X85505Y104364D01*
X85421Y104160D01*
Y103940D01*
X85505Y103736D01*
X85617Y103625D01*
X85530Y103539D01*
X85446Y103335D01*
Y103115D01*
X85530Y102911D01*
X85629Y102812D01*
X85505Y102689D01*
X85421Y102485D01*
Y102265D01*
X85505Y102061D01*
X85642Y101925D01*
X85505Y101789D01*
X85421Y101585D01*
Y101365D01*
X85505Y101161D01*
X85584Y101083D01*
X85656Y101000D01*
X85584Y100917D01*
X85505Y100839D01*
X85421Y100635D01*
Y100415D01*
X85505Y100211D01*
X85642Y100075D01*
X85505Y99939D01*
X85421Y99735D01*
Y99515D01*
X85505Y99311D01*
X85584Y99233D01*
X85656Y99150D01*
X85584Y99067D01*
X85505Y98989D01*
X85421Y98785D01*
Y98565D01*
X85505Y98361D01*
X85617Y98250D01*
X85661Y98205D01*
X85608Y98093D01*
X85549Y98117D01*
X85460Y98154D01*
X85240D01*
X85036Y98070D01*
X84900Y97933D01*
X84764Y98070D01*
X84560Y98154D01*
X84340D01*
X84136Y98070D01*
X84012Y97946D01*
X83889Y98070D01*
X83685Y98154D01*
X83465D01*
X83261Y98070D01*
X83105Y97914D01*
X83021Y97710D01*
Y97490D01*
X83105Y97286D01*
X83261Y97130D01*
X83465Y97046D01*
X83685D01*
X83889Y97130D01*
X84012Y97254D01*
X84136Y97130D01*
X84340Y97046D01*
X84560D01*
X84764Y97130D01*
X84900Y97267D01*
X85036Y97130D01*
X85240Y97046D01*
X85460D01*
X85664Y97130D01*
X85820Y97286D01*
X85904Y97490D01*
Y97710D01*
X85820Y97914D01*
X85708Y98025D01*
X85664Y98070D01*
X85717Y98182D01*
X85776Y98158D01*
X85865Y98121D01*
X86085D01*
X86289Y98205D01*
X86445Y98361D01*
X86529Y98565D01*
Y98785D01*
X86445Y98989D01*
X86366Y99067D01*
X86294Y99150D01*
X86366Y99233D01*
X86445Y99311D01*
X86529Y99515D01*
Y99735D01*
X86445Y99939D01*
X86308Y100075D01*
X86445Y100211D01*
X86529Y100415D01*
Y100635D01*
X86445Y100839D01*
X86366Y100917D01*
X86294Y101000D01*
X86366Y101083D01*
X86445Y101161D01*
X86529Y101365D01*
Y101585D01*
X86445Y101789D01*
X86308Y101925D01*
X86445Y102061D01*
X86529Y102265D01*
Y102485D01*
X86445Y102689D01*
X86346Y102787D01*
X86470Y102911D01*
X86554Y103115D01*
Y103335D01*
X86470Y103539D01*
X86358Y103650D01*
X86445Y103736D01*
X86529Y103940D01*
Y104160D01*
X86445Y104364D01*
X86289Y104520D01*
X86085Y104604D01*
D02*
G37*
G36*
X98085Y98754D02*
X97865D01*
X97661Y98670D01*
X97505Y98514D01*
X97421Y98310D01*
Y98090D01*
X97505Y97886D01*
X97661Y97730D01*
X97865Y97646D01*
X98085D01*
X98289Y97730D01*
X98445Y97886D01*
X98529Y98090D01*
Y98310D01*
X98445Y98514D01*
X98289Y98670D01*
X98085Y98754D01*
D02*
G37*
G36*
X106967Y99622D02*
X106689D01*
X106421Y99551D01*
X106181Y99412D01*
X105984Y99216D01*
X105846Y98975D01*
X105774Y98707D01*
Y98430D01*
X105846Y98162D01*
X105984Y97921D01*
X106181Y97725D01*
X106421Y97586D01*
X106689Y97514D01*
X106967D01*
X107235Y97586D01*
X107475Y97725D01*
X107671Y97921D01*
X107810Y98162D01*
X107882Y98430D01*
Y98707D01*
X107810Y98975D01*
X107671Y99216D01*
X107475Y99412D01*
X107235Y99551D01*
X106967Y99622D01*
D02*
G37*
G36*
X104427D02*
X104149D01*
X103881Y99551D01*
X103641Y99412D01*
X103444Y99216D01*
X103306Y98975D01*
X103234Y98707D01*
Y98430D01*
X103306Y98162D01*
X103444Y97921D01*
X103641Y97725D01*
X103881Y97586D01*
X104149Y97514D01*
X104427D01*
X104695Y97586D01*
X104935Y97725D01*
X105131Y97921D01*
X105270Y98162D01*
X105342Y98430D01*
Y98707D01*
X105270Y98975D01*
X105131Y99216D01*
X104935Y99412D01*
X104695Y99551D01*
X104427Y99622D01*
D02*
G37*
G36*
X53110Y104404D02*
X52890D01*
X52686Y104320D01*
X52530Y104164D01*
X52446Y103960D01*
Y103740D01*
X52530Y103536D01*
X52617Y103450D01*
X52530Y103364D01*
X52446Y103160D01*
Y102940D01*
X52530Y102736D01*
X52654Y102613D01*
X52530Y102489D01*
X52446Y102285D01*
Y102065D01*
X52530Y101861D01*
X52667Y101725D01*
X52530Y101589D01*
X52446Y101385D01*
Y101165D01*
X52530Y100961D01*
X52609Y100883D01*
X52681Y100800D01*
X52609Y100717D01*
X52530Y100639D01*
X52446Y100435D01*
Y100215D01*
X52530Y100011D01*
X52667Y99875D01*
X52530Y99739D01*
X52446Y99535D01*
Y99315D01*
X52530Y99111D01*
X52609Y99033D01*
X52681Y98950D01*
X52609Y98867D01*
X52530Y98789D01*
X52446Y98585D01*
Y98365D01*
X52530Y98161D01*
X52686Y98005D01*
X52890Y97921D01*
X53021D01*
X53106Y97794D01*
X53071Y97710D01*
Y97490D01*
X53155Y97286D01*
X53311Y97130D01*
X53515Y97046D01*
X53735D01*
X53939Y97130D01*
X54075Y97267D01*
X54211Y97130D01*
X54415Y97046D01*
X54635D01*
X54839Y97130D01*
X54963Y97254D01*
X55086Y97130D01*
X55290Y97046D01*
X55510D01*
X55714Y97130D01*
X55870Y97286D01*
X55954Y97490D01*
Y97710D01*
X55870Y97914D01*
X55714Y98070D01*
X55510Y98154D01*
X55290D01*
X55086Y98070D01*
X54963Y97946D01*
X54839Y98070D01*
X54635Y98154D01*
X54415D01*
X54211Y98070D01*
X54075Y97933D01*
X53939Y98070D01*
X53735Y98154D01*
X53604D01*
X53519Y98281D01*
X53554Y98365D01*
Y98585D01*
X53470Y98789D01*
X53391Y98867D01*
X53319Y98950D01*
X53391Y99033D01*
X53470Y99111D01*
X53554Y99315D01*
Y99535D01*
X53470Y99739D01*
X53333Y99875D01*
X53470Y100011D01*
X53554Y100215D01*
Y100435D01*
X53470Y100639D01*
X53391Y100717D01*
X53319Y100800D01*
X53391Y100883D01*
X53470Y100961D01*
X53554Y101165D01*
Y101385D01*
X53470Y101589D01*
X53333Y101725D01*
X53470Y101861D01*
X53554Y102065D01*
Y102285D01*
X53470Y102489D01*
X53346Y102613D01*
X53470Y102736D01*
X53554Y102940D01*
Y103160D01*
X53470Y103364D01*
X53383Y103450D01*
X53470Y103536D01*
X53554Y103740D01*
Y103960D01*
X53470Y104164D01*
X53314Y104320D01*
X53110Y104404D01*
D02*
G37*
G36*
X41385Y97629D02*
X41165D01*
X40961Y97545D01*
X40805Y97389D01*
X40721Y97185D01*
Y96965D01*
X40805Y96761D01*
X40961Y96605D01*
X41165Y96521D01*
X41385D01*
X41589Y96605D01*
X41745Y96761D01*
X41829Y96965D01*
Y97185D01*
X41745Y97389D01*
X41589Y97545D01*
X41385Y97629D01*
D02*
G37*
G36*
X51410Y97579D02*
X51190D01*
X50986Y97495D01*
X50830Y97339D01*
X50746Y97135D01*
Y96915D01*
X50830Y96711D01*
X50986Y96555D01*
X51190Y96471D01*
X51410D01*
X51614Y96555D01*
X51770Y96711D01*
X51854Y96915D01*
Y97135D01*
X51770Y97339D01*
X51614Y97495D01*
X51410Y97579D01*
D02*
G37*
G36*
X95485Y97454D02*
X95265D01*
X95061Y97370D01*
X94905Y97214D01*
X94821Y97010D01*
Y96790D01*
X94905Y96586D01*
X95061Y96430D01*
X95265Y96346D01*
X95485D01*
X95689Y96430D01*
X95845Y96586D01*
X95929Y96790D01*
Y97010D01*
X95845Y97214D01*
X95689Y97370D01*
X95485Y97454D01*
D02*
G37*
G36*
X90322Y100579D02*
X89878D01*
X89443Y100492D01*
X89032Y100322D01*
X88663Y100076D01*
X88349Y99762D01*
X88103Y99393D01*
X87933Y98982D01*
X87846Y98547D01*
Y98103D01*
X87933Y97668D01*
X88103Y97257D01*
X88349Y96888D01*
X88663Y96574D01*
X89032Y96328D01*
X89443Y96158D01*
X89878Y96071D01*
X90322D01*
X90757Y96158D01*
X91168Y96328D01*
X91537Y96574D01*
X91851Y96888D01*
X92097Y97257D01*
X92267Y97668D01*
X92354Y98103D01*
Y98547D01*
X92267Y98982D01*
X92097Y99393D01*
X91851Y99762D01*
X91537Y100076D01*
X91168Y100322D01*
X90757Y100492D01*
X90322Y100579D01*
D02*
G37*
G36*
X117610Y96629D02*
X117390D01*
X117186Y96545D01*
X117030Y96389D01*
X116946Y96185D01*
Y95965D01*
X117030Y95761D01*
X117186Y95605D01*
X117390Y95521D01*
X117610D01*
X117814Y95605D01*
X117970Y95761D01*
X118054Y95965D01*
Y96185D01*
X117970Y96389D01*
X117814Y96545D01*
X117610Y96629D01*
D02*
G37*
G36*
X113060Y96579D02*
X112840D01*
X112636Y96495D01*
X112480Y96339D01*
X112396Y96135D01*
Y95915D01*
X112480Y95711D01*
X112636Y95555D01*
X112840Y95471D01*
X113060D01*
X113264Y95555D01*
X113420Y95711D01*
X113504Y95915D01*
Y96135D01*
X113420Y96339D01*
X113264Y96495D01*
X113060Y96579D01*
D02*
G37*
G36*
X46197Y99529D02*
X45753D01*
X45318Y99442D01*
X44907Y99272D01*
X44538Y99026D01*
X44224Y98712D01*
X43978Y98343D01*
X43808Y97932D01*
X43721Y97497D01*
Y97053D01*
X43808Y96618D01*
X43978Y96207D01*
X44224Y95838D01*
X44538Y95524D01*
X44907Y95278D01*
X45318Y95108D01*
X45753Y95021D01*
X46197D01*
X46632Y95108D01*
X47043Y95278D01*
X47412Y95524D01*
X47726Y95838D01*
X47972Y96207D01*
X48142Y96618D01*
X48229Y97053D01*
Y97497D01*
X48142Y97932D01*
X47972Y98343D01*
X47726Y98712D01*
X47412Y99026D01*
X47043Y99272D01*
X46632Y99442D01*
X46197Y99529D01*
D02*
G37*
G36*
X106967Y97082D02*
X106689D01*
X106421Y97011D01*
X106181Y96872D01*
X105984Y96676D01*
X105846Y96435D01*
X105774Y96167D01*
Y95890D01*
X105846Y95622D01*
X105984Y95381D01*
X106181Y95185D01*
X106421Y95046D01*
X106689Y94974D01*
X106967D01*
X107235Y95046D01*
X107475Y95185D01*
X107671Y95381D01*
X107810Y95622D01*
X107882Y95890D01*
Y96167D01*
X107810Y96435D01*
X107671Y96676D01*
X107475Y96872D01*
X107235Y97011D01*
X106967Y97082D01*
D02*
G37*
G36*
X104467D02*
X104189D01*
X103921Y97011D01*
X103681Y96872D01*
X103484Y96676D01*
X103346Y96435D01*
X103274Y96167D01*
Y95890D01*
X103346Y95622D01*
X103484Y95381D01*
X103681Y95185D01*
X103921Y95046D01*
X104189Y94974D01*
X104467D01*
X104735Y95046D01*
X104975Y95185D01*
X105171Y95381D01*
X105310Y95622D01*
X105382Y95890D01*
Y96167D01*
X105310Y96435D01*
X105171Y96676D01*
X104975Y96872D01*
X104735Y97011D01*
X104467Y97082D01*
D02*
G37*
G36*
X54985Y95804D02*
X54765D01*
X54561Y95720D01*
X54405Y95564D01*
X54321Y95360D01*
Y95140D01*
X54405Y94936D01*
X54561Y94780D01*
X54765Y94696D01*
X54985D01*
X55189Y94780D01*
X55345Y94936D01*
X55429Y95140D01*
Y95360D01*
X55345Y95564D01*
X55189Y95720D01*
X54985Y95804D01*
D02*
G37*
G36*
X93185Y95454D02*
X92965D01*
X92761Y95370D01*
X92605Y95214D01*
X92521Y95010D01*
Y94790D01*
X92605Y94586D01*
X92761Y94430D01*
X92965Y94346D01*
X93185D01*
X93389Y94430D01*
X93545Y94586D01*
X93629Y94790D01*
Y95010D01*
X93545Y95214D01*
X93389Y95370D01*
X93185Y95454D01*
D02*
G37*
G36*
X87960Y95004D02*
X87740D01*
X87536Y94920D01*
X87380Y94764D01*
X87296Y94560D01*
Y94340D01*
X87380Y94136D01*
X87536Y93980D01*
X87740Y93896D01*
X87960D01*
X88164Y93980D01*
X88320Y94136D01*
X88404Y94340D01*
Y94560D01*
X88320Y94764D01*
X88164Y94920D01*
X87960Y95004D01*
D02*
G37*
G36*
X51510Y94779D02*
X51290D01*
X51086Y94695D01*
X50930Y94539D01*
X50846Y94335D01*
Y94115D01*
X50930Y93911D01*
X51086Y93755D01*
X51290Y93671D01*
X51510D01*
X51714Y93755D01*
X51870Y93911D01*
X51954Y94115D01*
Y94335D01*
X51870Y94539D01*
X51714Y94695D01*
X51510Y94779D01*
D02*
G37*
G36*
X99635Y94754D02*
X99415D01*
X99211Y94670D01*
X99055Y94514D01*
X98971Y94310D01*
Y94090D01*
X99055Y93886D01*
X99211Y93730D01*
X99415Y93646D01*
X99635D01*
X99839Y93730D01*
X99995Y93886D01*
X100079Y94090D01*
Y94310D01*
X99995Y94514D01*
X99839Y94670D01*
X99635Y94754D01*
D02*
G37*
G36*
X83410Y94554D02*
X83190D01*
X82986Y94470D01*
X82830Y94314D01*
X82746Y94110D01*
Y93890D01*
X82830Y93686D01*
X82986Y93530D01*
X83190Y93446D01*
X83410D01*
X83614Y93530D01*
X83770Y93686D01*
X83854Y93890D01*
Y94110D01*
X83770Y94314D01*
X83614Y94470D01*
X83410Y94554D01*
D02*
G37*
G36*
X120035Y94379D02*
X119815D01*
X119611Y94295D01*
X119455Y94139D01*
X119371Y93935D01*
Y93715D01*
X119455Y93511D01*
X119611Y93355D01*
X119815Y93271D01*
X120035D01*
X120239Y93355D01*
X120395Y93511D01*
X120479Y93715D01*
Y93935D01*
X120395Y94139D01*
X120239Y94295D01*
X120035Y94379D01*
D02*
G37*
G36*
X46285Y94329D02*
X46065D01*
X45861Y94245D01*
X45705Y94089D01*
X45621Y93885D01*
Y93665D01*
X45705Y93461D01*
X45861Y93305D01*
X46065Y93221D01*
X46285D01*
X46489Y93305D01*
X46645Y93461D01*
X46729Y93665D01*
Y93885D01*
X46645Y94089D01*
X46489Y94245D01*
X46285Y94329D01*
D02*
G37*
G36*
X115310Y94329D02*
X115090D01*
X114886Y94245D01*
X114730Y94089D01*
X114646Y93885D01*
Y93665D01*
X114730Y93461D01*
X114886Y93305D01*
X115090Y93221D01*
X115310D01*
X115514Y93305D01*
X115670Y93461D01*
X115754Y93665D01*
Y93885D01*
X115670Y94089D01*
X115514Y94245D01*
X115310Y94329D01*
D02*
G37*
G36*
X41735Y93879D02*
X41515D01*
X41311Y93795D01*
X41155Y93639D01*
X41071Y93435D01*
Y93215D01*
X41155Y93011D01*
X41311Y92855D01*
X41515Y92771D01*
X41735D01*
X41939Y92855D01*
X42095Y93011D01*
X42179Y93215D01*
Y93435D01*
X42095Y93639D01*
X41939Y93795D01*
X41735Y93879D01*
D02*
G37*
G36*
X106967Y94542D02*
X106689D01*
X106421Y94471D01*
X106181Y94332D01*
X105984Y94136D01*
X105846Y93895D01*
X105774Y93627D01*
Y93350D01*
X105846Y93082D01*
X105984Y92841D01*
X106181Y92645D01*
X106421Y92506D01*
X106689Y92434D01*
X106967D01*
X107235Y92506D01*
X107475Y92645D01*
X107671Y92841D01*
X107810Y93082D01*
X107882Y93350D01*
Y93627D01*
X107810Y93895D01*
X107671Y94136D01*
X107475Y94332D01*
X107235Y94471D01*
X106967Y94542D01*
D02*
G37*
G36*
X104467D02*
X104189D01*
X103921Y94471D01*
X103681Y94332D01*
X103484Y94136D01*
X103346Y93895D01*
X103274Y93627D01*
Y93350D01*
X103346Y93082D01*
X103484Y92841D01*
X103681Y92645D01*
X103921Y92506D01*
X104189Y92434D01*
X104467D01*
X104735Y92506D01*
X104975Y92645D01*
X105171Y92841D01*
X105310Y93082D01*
X105382Y93350D01*
Y93627D01*
X105310Y93895D01*
X105171Y94136D01*
X104975Y94332D01*
X104735Y94471D01*
X104467Y94542D01*
D02*
G37*
G36*
X85710Y92754D02*
X85490D01*
X85286Y92670D01*
X85130Y92514D01*
X85046Y92310D01*
Y92090D01*
X85130Y91886D01*
X85286Y91730D01*
X85490Y91646D01*
X85710D01*
X85914Y91730D01*
X86070Y91886D01*
X86154Y92090D01*
Y92310D01*
X86070Y92514D01*
X85914Y92670D01*
X85710Y92754D01*
D02*
G37*
G36*
X90610Y92604D02*
X90390D01*
X90186Y92520D01*
X90030Y92364D01*
X89946Y92160D01*
Y91940D01*
X90030Y91736D01*
X90186Y91580D01*
X90390Y91496D01*
X90610D01*
X90814Y91580D01*
X90970Y91736D01*
X91054Y91940D01*
Y92160D01*
X90970Y92364D01*
X90814Y92520D01*
X90610Y92604D01*
D02*
G37*
G36*
X55060Y92279D02*
X54840D01*
X54636Y92195D01*
X54480Y92039D01*
X54396Y91835D01*
Y91615D01*
X54480Y91411D01*
X54636Y91255D01*
X54840Y91171D01*
X55060D01*
X55264Y91255D01*
X55420Y91411D01*
X55504Y91615D01*
Y91835D01*
X55420Y92039D01*
X55264Y92195D01*
X55060Y92279D01*
D02*
G37*
G36*
X48985D02*
X48765D01*
X48561Y92195D01*
X48405Y92039D01*
X48321Y91835D01*
Y91615D01*
X48405Y91411D01*
X48561Y91255D01*
X48765Y91171D01*
X48985D01*
X49189Y91255D01*
X49345Y91411D01*
X49429Y91615D01*
Y91835D01*
X49345Y92039D01*
X49189Y92195D01*
X48985Y92279D01*
D02*
G37*
G36*
X44035Y92079D02*
X43815D01*
X43611Y91995D01*
X43455Y91839D01*
X43371Y91635D01*
Y91415D01*
X43455Y91211D01*
X43611Y91055D01*
X43815Y90971D01*
X44035D01*
X44239Y91055D01*
X44395Y91211D01*
X44479Y91415D01*
Y91635D01*
X44395Y91839D01*
X44239Y91995D01*
X44035Y92079D01*
D02*
G37*
G36*
X117810Y91929D02*
X117590D01*
X117386Y91845D01*
X117230Y91689D01*
X117146Y91485D01*
Y91265D01*
X117230Y91061D01*
X117386Y90905D01*
X117590Y90821D01*
X117810D01*
X118014Y90905D01*
X118170Y91061D01*
X118254Y91265D01*
Y91485D01*
X118170Y91689D01*
X118014Y91845D01*
X117810Y91929D01*
D02*
G37*
G36*
X112956Y91919D02*
X112736D01*
X112532Y91834D01*
X112376Y91679D01*
X112292Y91475D01*
Y91255D01*
X112376Y91051D01*
X112532Y90895D01*
X112736Y90811D01*
X112956D01*
X113160Y90895D01*
X113316Y91051D01*
X113400Y91255D01*
Y91475D01*
X113316Y91679D01*
X113160Y91834D01*
X112956Y91919D01*
D02*
G37*
G36*
X99635Y91379D02*
X99415D01*
X99211Y91295D01*
X99055Y91139D01*
X98971Y90935D01*
Y90715D01*
X99055Y90511D01*
X99211Y90355D01*
X99415Y90271D01*
X99635D01*
X99839Y90355D01*
X99995Y90511D01*
X100079Y90715D01*
Y90935D01*
X99995Y91139D01*
X99839Y91295D01*
X99635Y91379D01*
D02*
G37*
G36*
X96960Y91204D02*
X96740D01*
X96536Y91120D01*
X96380Y90964D01*
X96296Y90760D01*
Y90540D01*
X96380Y90336D01*
X96536Y90180D01*
X96740Y90096D01*
X96960D01*
X97164Y90180D01*
X97320Y90336D01*
X97404Y90540D01*
Y90760D01*
X97320Y90964D01*
X97164Y91120D01*
X96960Y91204D01*
D02*
G37*
G36*
X106967Y92002D02*
X106689D01*
X106421Y91931D01*
X106181Y91792D01*
X105984Y91596D01*
X105846Y91355D01*
X105774Y91087D01*
Y90810D01*
X105846Y90542D01*
X105984Y90301D01*
X106181Y90105D01*
X106421Y89966D01*
X106689Y89894D01*
X106967D01*
X107235Y89966D01*
X107475Y90105D01*
X107671Y90301D01*
X107810Y90542D01*
X107882Y90810D01*
Y91087D01*
X107810Y91355D01*
X107671Y91596D01*
X107475Y91792D01*
X107235Y91931D01*
X106967Y92002D01*
D02*
G37*
G36*
X104467D02*
X104189D01*
X103921Y91931D01*
X103681Y91792D01*
X103484Y91596D01*
X103346Y91355D01*
X103274Y91087D01*
Y90810D01*
X103346Y90542D01*
X103484Y90301D01*
X103681Y90105D01*
X103921Y89966D01*
X104189Y89894D01*
X104467D01*
X104735Y89966D01*
X104975Y90105D01*
X105171Y90301D01*
X105310Y90542D01*
X105382Y90810D01*
Y91087D01*
X105310Y91355D01*
X105171Y91596D01*
X104975Y91792D01*
X104735Y91931D01*
X104467Y92002D01*
D02*
G37*
G36*
X52160Y90979D02*
X51940D01*
X51736Y90895D01*
X51580Y90739D01*
X51496Y90535D01*
Y90315D01*
X51580Y90111D01*
X51736Y89955D01*
X51940Y89871D01*
X52160D01*
X52364Y89955D01*
X52520Y90111D01*
X52604Y90315D01*
Y90535D01*
X52520Y90739D01*
X52364Y90895D01*
X52160Y90979D01*
D02*
G37*
G36*
X88285Y90479D02*
X88065D01*
X87861Y90395D01*
X87705Y90239D01*
X87621Y90035D01*
Y89815D01*
X87705Y89611D01*
X87861Y89455D01*
X88065Y89371D01*
X88285D01*
X88489Y89455D01*
X88645Y89611D01*
X88729Y89815D01*
Y90035D01*
X88645Y90239D01*
X88489Y90395D01*
X88285Y90479D01*
D02*
G37*
G36*
X83310Y90254D02*
X83090D01*
X82886Y90170D01*
X82730Y90014D01*
X82646Y89810D01*
Y89590D01*
X82730Y89386D01*
X82886Y89230D01*
X83090Y89146D01*
X83310D01*
X83514Y89230D01*
X83670Y89386D01*
X83754Y89590D01*
Y89810D01*
X83670Y90014D01*
X83514Y90170D01*
X83310Y90254D01*
D02*
G37*
G36*
X46335Y89779D02*
X46115D01*
X45911Y89695D01*
X45755Y89539D01*
X45671Y89335D01*
Y89115D01*
X45755Y88911D01*
X45911Y88755D01*
X46115Y88671D01*
X46335D01*
X46539Y88755D01*
X46695Y88911D01*
X46779Y89115D01*
Y89335D01*
X46695Y89539D01*
X46539Y89695D01*
X46335Y89779D01*
D02*
G37*
G36*
X41635Y89579D02*
X41415D01*
X41211Y89495D01*
X41055Y89339D01*
X40971Y89135D01*
Y88915D01*
X41055Y88711D01*
X41211Y88555D01*
X41415Y88471D01*
X41635D01*
X41839Y88555D01*
X41995Y88711D01*
X42079Y88915D01*
Y89135D01*
X41995Y89339D01*
X41839Y89495D01*
X41635Y89579D01*
D02*
G37*
G36*
X120260Y89279D02*
X120040D01*
X119836Y89195D01*
X119680Y89039D01*
X119596Y88835D01*
Y88615D01*
X119680Y88411D01*
X119836Y88255D01*
X120040Y88171D01*
X120260D01*
X120464Y88255D01*
X120620Y88411D01*
X120704Y88615D01*
Y88835D01*
X120620Y89039D01*
X120464Y89195D01*
X120260Y89279D01*
D02*
G37*
G36*
X115485Y89154D02*
X115265D01*
X115061Y89070D01*
X114905Y88914D01*
X114821Y88710D01*
Y88490D01*
X114905Y88286D01*
X115061Y88130D01*
X115265Y88046D01*
X115485D01*
X115689Y88130D01*
X115845Y88286D01*
X115929Y88490D01*
Y88710D01*
X115845Y88914D01*
X115689Y89070D01*
X115485Y89154D01*
D02*
G37*
G36*
X54410Y89004D02*
X54190D01*
X53986Y88920D01*
X53830Y88764D01*
X53746Y88560D01*
Y88340D01*
X53830Y88136D01*
X53986Y87980D01*
X54190Y87896D01*
X54410D01*
X54614Y87980D01*
X54770Y88136D01*
X54854Y88340D01*
Y88560D01*
X54770Y88764D01*
X54614Y88920D01*
X54410Y89004D01*
D02*
G37*
G36*
X93485Y88654D02*
X93265D01*
X93061Y88570D01*
X92905Y88414D01*
X92821Y88210D01*
Y87990D01*
X92905Y87786D01*
X93061Y87630D01*
X93265Y87546D01*
X93485D01*
X93689Y87630D01*
X93845Y87786D01*
X93929Y87990D01*
Y88210D01*
X93845Y88414D01*
X93689Y88570D01*
X93485Y88654D01*
D02*
G37*
G36*
X106967Y89462D02*
X106689D01*
X106421Y89391D01*
X106181Y89252D01*
X105984Y89056D01*
X105846Y88815D01*
X105774Y88547D01*
Y88270D01*
X105846Y88002D01*
X105984Y87761D01*
X106181Y87565D01*
X106421Y87426D01*
X106689Y87354D01*
X106967D01*
X107235Y87426D01*
X107475Y87565D01*
X107671Y87761D01*
X107810Y88002D01*
X107882Y88270D01*
Y88547D01*
X107810Y88815D01*
X107671Y89056D01*
X107475Y89252D01*
X107235Y89391D01*
X106967Y89462D01*
D02*
G37*
G36*
X104467D02*
X104189D01*
X103921Y89391D01*
X103681Y89252D01*
X103484Y89056D01*
X103346Y88815D01*
X103274Y88547D01*
Y88270D01*
X103346Y88002D01*
X103484Y87761D01*
X103681Y87565D01*
X103921Y87426D01*
X104189Y87354D01*
X104467D01*
X104735Y87426D01*
X104975Y87565D01*
X105171Y87761D01*
X105310Y88002D01*
X105382Y88270D01*
Y88547D01*
X105310Y88815D01*
X105171Y89056D01*
X104975Y89252D01*
X104735Y89391D01*
X104467Y89462D01*
D02*
G37*
G36*
X81460Y88329D02*
X81240D01*
X81036Y88245D01*
X80880Y88089D01*
X80796Y87885D01*
Y87665D01*
X80880Y87461D01*
X81036Y87305D01*
X81240Y87221D01*
X81460D01*
X81664Y87305D01*
X81820Y87461D01*
X81904Y87665D01*
Y87885D01*
X81820Y88089D01*
X81664Y88245D01*
X81460Y88329D01*
D02*
G37*
G36*
X49485Y88104D02*
X49265D01*
X49061Y88020D01*
X48905Y87864D01*
X48821Y87660D01*
Y87440D01*
X48905Y87236D01*
X49061Y87080D01*
X49265Y86996D01*
X49485D01*
X49689Y87080D01*
X49845Y87236D01*
X49929Y87440D01*
Y87660D01*
X49845Y87864D01*
X49689Y88020D01*
X49485Y88104D01*
D02*
G37*
G36*
X86360Y88054D02*
X86140D01*
X85936Y87970D01*
X85780Y87814D01*
X85696Y87610D01*
Y87390D01*
X85780Y87186D01*
X85936Y87030D01*
X86140Y86946D01*
X86360D01*
X86564Y87030D01*
X86720Y87186D01*
X86804Y87390D01*
Y87610D01*
X86720Y87814D01*
X86564Y87970D01*
X86360Y88054D01*
D02*
G37*
G36*
X57060Y87279D02*
X56840D01*
X56636Y87195D01*
X56480Y87039D01*
X56396Y86835D01*
Y86615D01*
X56480Y86411D01*
X56636Y86255D01*
X56840Y86171D01*
X57060D01*
X57264Y86255D01*
X57420Y86411D01*
X57504Y86615D01*
Y86835D01*
X57420Y87039D01*
X57264Y87195D01*
X57060Y87279D01*
D02*
G37*
G36*
X99410Y86954D02*
X99190D01*
X98986Y86870D01*
X98830Y86714D01*
X98746Y86510D01*
Y86290D01*
X98830Y86086D01*
X98986Y85930D01*
X99190Y85846D01*
X99410D01*
X99614Y85930D01*
X99770Y86086D01*
X99854Y86290D01*
Y86510D01*
X99770Y86714D01*
X99614Y86870D01*
X99410Y86954D01*
D02*
G37*
G36*
X44285Y86929D02*
X44065D01*
X43861Y86845D01*
X43705Y86689D01*
X43621Y86485D01*
Y86265D01*
X43705Y86061D01*
X43861Y85905D01*
X44065Y85821D01*
X44285D01*
X44489Y85905D01*
X44645Y86061D01*
X44729Y86265D01*
Y86485D01*
X44645Y86689D01*
X44489Y86845D01*
X44285Y86929D01*
D02*
G37*
G36*
X51835Y86829D02*
X51615D01*
X51411Y86745D01*
X51255Y86589D01*
X51171Y86385D01*
Y86165D01*
X51255Y85961D01*
X51411Y85805D01*
X51615Y85721D01*
X51835D01*
X52039Y85805D01*
X52195Y85961D01*
X52279Y86165D01*
Y86385D01*
X52195Y86589D01*
X52039Y86745D01*
X51835Y86829D01*
D02*
G37*
G36*
X112910Y86529D02*
X112690D01*
X112486Y86445D01*
X112330Y86289D01*
X112246Y86085D01*
Y85865D01*
X112330Y85661D01*
X112486Y85505D01*
X112690Y85421D01*
X112910D01*
X113114Y85505D01*
X113270Y85661D01*
X113354Y85865D01*
Y86085D01*
X113270Y86289D01*
X113114Y86445D01*
X112910Y86529D01*
D02*
G37*
G36*
X84210Y86454D02*
X83990D01*
X83786Y86370D01*
X83630Y86214D01*
X83546Y86010D01*
Y85790D01*
X83630Y85586D01*
X83786Y85430D01*
X83990Y85346D01*
X84210D01*
X84414Y85430D01*
X84570Y85586D01*
X84654Y85790D01*
Y86010D01*
X84570Y86214D01*
X84414Y86370D01*
X84210Y86454D01*
D02*
G37*
G36*
X96235Y86379D02*
X96015D01*
X95811Y86295D01*
X95655Y86139D01*
X95571Y85935D01*
Y85715D01*
X95655Y85511D01*
X95811Y85355D01*
X96015Y85271D01*
X96235D01*
X96439Y85355D01*
X96595Y85511D01*
X96679Y85715D01*
Y85935D01*
X96595Y86139D01*
X96439Y86295D01*
X96235Y86379D01*
D02*
G37*
G36*
X118060Y86304D02*
X117840D01*
X117636Y86220D01*
X117480Y86064D01*
X117396Y85860D01*
Y85640D01*
X117480Y85436D01*
X117636Y85280D01*
X117840Y85196D01*
X118060D01*
X118264Y85280D01*
X118420Y85436D01*
X118504Y85640D01*
Y85860D01*
X118420Y86064D01*
X118264Y86220D01*
X118060Y86304D01*
D02*
G37*
G36*
X79335Y86079D02*
X79115D01*
X78911Y85995D01*
X78755Y85839D01*
X78671Y85635D01*
Y85415D01*
X78755Y85211D01*
X78911Y85055D01*
X79115Y84971D01*
X79335D01*
X79539Y85055D01*
X79695Y85211D01*
X79779Y85415D01*
Y85635D01*
X79695Y85839D01*
X79539Y85995D01*
X79335Y86079D01*
D02*
G37*
G36*
X90660Y85704D02*
X90440D01*
X90236Y85620D01*
X90080Y85464D01*
X89996Y85260D01*
Y85040D01*
X90080Y84836D01*
X90236Y84680D01*
X90440Y84596D01*
X90660D01*
X90864Y84680D01*
X91020Y84836D01*
X91104Y85040D01*
Y85260D01*
X91020Y85464D01*
X90864Y85620D01*
X90660Y85704D01*
D02*
G37*
G36*
X46735Y85204D02*
X46515D01*
X46311Y85120D01*
X46155Y84964D01*
X46071Y84760D01*
Y84540D01*
X46155Y84336D01*
X46311Y84180D01*
X46515Y84096D01*
X46735D01*
X46939Y84180D01*
X47095Y84336D01*
X47179Y84540D01*
Y84760D01*
X47095Y84964D01*
X46939Y85120D01*
X46735Y85204D01*
D02*
G37*
G36*
X45710Y83954D02*
X45490D01*
X45286Y83870D01*
X45208Y83791D01*
X45125Y83719D01*
X45042Y83791D01*
X44964Y83870D01*
X44760Y83954D01*
X44540D01*
X44336Y83870D01*
X44200Y83733D01*
X44064Y83870D01*
X43860Y83954D01*
X43640D01*
X43436Y83870D01*
X43358Y83791D01*
X43275Y83719D01*
X43192Y83791D01*
X43114Y83870D01*
X42910Y83954D01*
X42690D01*
X42486Y83870D01*
X42350Y83733D01*
X42214Y83870D01*
X42010Y83954D01*
X41790D01*
X41586Y83870D01*
X41475Y83758D01*
X41364Y83870D01*
X41160Y83954D01*
X40940D01*
X40736Y83870D01*
X40638Y83771D01*
X40539Y83870D01*
X40335Y83954D01*
X40115D01*
X39911Y83870D01*
X39755Y83714D01*
X39671Y83510D01*
Y83290D01*
X39755Y83086D01*
X39911Y82930D01*
X40115Y82846D01*
X40335D01*
X40539Y82930D01*
X40638Y83029D01*
X40736Y82930D01*
X40940Y82846D01*
X41160D01*
X41364Y82930D01*
X41475Y83042D01*
X41586Y82930D01*
X41790Y82846D01*
X42010D01*
X42214Y82930D01*
X42350Y83067D01*
X42486Y82930D01*
X42690Y82846D01*
X42910D01*
X43114Y82930D01*
X43192Y83009D01*
X43275Y83081D01*
X43358Y83009D01*
X43436Y82930D01*
X43640Y82846D01*
X43860D01*
X44064Y82930D01*
X44200Y83067D01*
X44336Y82930D01*
X44540Y82846D01*
X44760D01*
X44964Y82930D01*
X45042Y83009D01*
X45125Y83081D01*
X45208Y83009D01*
X45286Y82930D01*
X45490Y82846D01*
X45710D01*
X45914Y82930D01*
X46025Y83042D01*
X46070Y83086D01*
X46182Y83033D01*
X46158Y82974D01*
X46121Y82885D01*
Y82665D01*
X46205Y82461D01*
X46342Y82325D01*
X46205Y82189D01*
X46121Y81985D01*
Y81765D01*
X46205Y81561D01*
X46329Y81438D01*
X46205Y81314D01*
X46121Y81110D01*
Y80890D01*
X46205Y80686D01*
X46361Y80530D01*
X46565Y80446D01*
X46785D01*
X46989Y80530D01*
X47145Y80686D01*
X47229Y80890D01*
Y81110D01*
X47145Y81314D01*
X47021Y81438D01*
X47145Y81561D01*
X47229Y81765D01*
Y81985D01*
X47145Y82189D01*
X47008Y82325D01*
X47145Y82461D01*
X47229Y82665D01*
Y82885D01*
X47145Y83089D01*
X46989Y83245D01*
X46785Y83329D01*
X46565D01*
X46361Y83245D01*
X46250Y83133D01*
X46205Y83089D01*
X46093Y83142D01*
X46117Y83201D01*
X46154Y83290D01*
Y83510D01*
X46070Y83714D01*
X45914Y83870D01*
X45710Y83954D01*
D02*
G37*
G36*
X82085Y84729D02*
X81865D01*
X81661Y84645D01*
X81505Y84489D01*
X81421Y84285D01*
Y84065D01*
X81505Y83861D01*
X81661Y83705D01*
X81865Y83621D01*
X82085D01*
X82289Y83705D01*
X82445Y83861D01*
X82529Y84065D01*
Y84285D01*
X82445Y84489D01*
X82289Y84645D01*
X82085Y84729D01*
D02*
G37*
G36*
X60185Y84679D02*
X59965D01*
X59761Y84595D01*
X59605Y84439D01*
X59521Y84235D01*
Y84015D01*
X59605Y83811D01*
X59761Y83655D01*
X59965Y83571D01*
X60185D01*
X60389Y83655D01*
X60545Y83811D01*
X60629Y84015D01*
Y84235D01*
X60545Y84439D01*
X60389Y84595D01*
X60185Y84679D01*
D02*
G37*
G36*
X49585Y84579D02*
X49365D01*
X49161Y84495D01*
X49005Y84339D01*
X48921Y84135D01*
Y83915D01*
X49005Y83711D01*
X49161Y83555D01*
X49365Y83471D01*
X49585D01*
X49789Y83555D01*
X49945Y83711D01*
X50029Y83915D01*
Y84135D01*
X49945Y84339D01*
X49789Y84495D01*
X49585Y84579D01*
D02*
G37*
G36*
X99710Y84504D02*
X99490D01*
X99286Y84420D01*
X99130Y84264D01*
X99046Y84060D01*
Y83840D01*
X99130Y83636D01*
X99286Y83480D01*
X99490Y83396D01*
X99710D01*
X99914Y83480D01*
X100070Y83636D01*
X100154Y83840D01*
Y84060D01*
X100070Y84264D01*
X99914Y84420D01*
X99710Y84504D01*
D02*
G37*
G36*
X97685Y84429D02*
X97465D01*
X97261Y84345D01*
X97105Y84189D01*
X97021Y83985D01*
Y83765D01*
X97105Y83561D01*
X97261Y83405D01*
X97465Y83321D01*
X97685D01*
X97889Y83405D01*
X98045Y83561D01*
X98129Y83765D01*
Y83985D01*
X98045Y84189D01*
X97889Y84345D01*
X97685Y84429D01*
D02*
G37*
G36*
X54485D02*
X54265D01*
X54061Y84345D01*
X53905Y84189D01*
X53821Y83985D01*
Y83765D01*
X53905Y83561D01*
X54061Y83405D01*
X54265Y83321D01*
X54485D01*
X54689Y83405D01*
X54845Y83561D01*
X54929Y83765D01*
Y83985D01*
X54845Y84189D01*
X54689Y84345D01*
X54485Y84429D01*
D02*
G37*
G36*
X94010Y84029D02*
X93790D01*
X93586Y83945D01*
X93430Y83789D01*
X93346Y83585D01*
Y83365D01*
X93430Y83161D01*
X93586Y83005D01*
X93790Y82921D01*
X94010D01*
X94214Y83005D01*
X94370Y83161D01*
X94454Y83365D01*
Y83585D01*
X94370Y83789D01*
X94214Y83945D01*
X94010Y84029D01*
D02*
G37*
G36*
X76460Y83579D02*
X76240D01*
X76036Y83495D01*
X75880Y83339D01*
X75796Y83135D01*
Y82915D01*
X75880Y82711D01*
X76036Y82555D01*
X76240Y82471D01*
X76460D01*
X76664Y82555D01*
X76820Y82711D01*
X76904Y82915D01*
Y83135D01*
X76820Y83339D01*
X76664Y83495D01*
X76460Y83579D01*
D02*
G37*
G36*
X78935Y83179D02*
X78715D01*
X78511Y83095D01*
X78355Y82939D01*
X78271Y82735D01*
Y82515D01*
X78355Y82311D01*
X78511Y82155D01*
X78715Y82071D01*
X78935D01*
X79139Y82155D01*
X79295Y82311D01*
X79379Y82515D01*
Y82735D01*
X79295Y82939D01*
X79139Y83095D01*
X78935Y83179D01*
D02*
G37*
G36*
X87860Y82929D02*
X87640D01*
X87436Y82845D01*
X87280Y82689D01*
X87196Y82485D01*
Y82265D01*
X87280Y82061D01*
X87436Y81905D01*
X87640Y81821D01*
X87860D01*
X88064Y81905D01*
X88220Y82061D01*
X88304Y82265D01*
Y82485D01*
X88220Y82689D01*
X88064Y82845D01*
X87860Y82929D01*
D02*
G37*
G36*
X63010Y82304D02*
X62790D01*
X62586Y82220D01*
X62430Y82064D01*
X62346Y81860D01*
Y81640D01*
X62430Y81436D01*
X62586Y81280D01*
X62790Y81196D01*
X63010D01*
X63214Y81280D01*
X63370Y81436D01*
X63454Y81640D01*
Y81860D01*
X63370Y82064D01*
X63214Y82220D01*
X63010Y82304D01*
D02*
G37*
G36*
X51885Y82279D02*
X51665D01*
X51461Y82195D01*
X51305Y82039D01*
X51221Y81835D01*
Y81615D01*
X51305Y81411D01*
X51461Y81255D01*
X51665Y81171D01*
X51885D01*
X52089Y81255D01*
X52245Y81411D01*
X52329Y81615D01*
Y81835D01*
X52245Y82039D01*
X52089Y82195D01*
X51885Y82279D01*
D02*
G37*
G36*
X57210Y82029D02*
X56990D01*
X56786Y81945D01*
X56630Y81789D01*
X56546Y81585D01*
Y81365D01*
X56630Y81161D01*
X56786Y81005D01*
X56990Y80921D01*
X57210D01*
X57414Y81005D01*
X57570Y81161D01*
X57654Y81365D01*
Y81585D01*
X57570Y81789D01*
X57414Y81945D01*
X57210Y82029D01*
D02*
G37*
G36*
X95160Y81329D02*
X94940D01*
X94736Y81245D01*
X94580Y81089D01*
X94496Y80885D01*
Y80665D01*
X94580Y80461D01*
X94736Y80305D01*
X94940Y80221D01*
X95160D01*
X95364Y80305D01*
X95520Y80461D01*
X95604Y80665D01*
Y80885D01*
X95520Y81089D01*
X95364Y81245D01*
X95160Y81329D01*
D02*
G37*
G36*
X91135Y81129D02*
X90915D01*
X90711Y81045D01*
X90555Y80889D01*
X90471Y80685D01*
Y80465D01*
X90555Y80261D01*
X90711Y80105D01*
X90915Y80021D01*
X91135D01*
X91339Y80105D01*
X91495Y80261D01*
X91579Y80465D01*
Y80685D01*
X91495Y80889D01*
X91339Y81045D01*
X91135Y81129D01*
D02*
G37*
G36*
X73735Y81054D02*
X73515D01*
X73311Y80970D01*
X73155Y80814D01*
X73071Y80610D01*
Y80390D01*
X73155Y80186D01*
X73311Y80030D01*
X73515Y79946D01*
X73735D01*
X73939Y80030D01*
X74095Y80186D01*
X74179Y80390D01*
Y80610D01*
X74095Y80814D01*
X73939Y80970D01*
X73735Y81054D01*
D02*
G37*
G36*
X69785Y81954D02*
X69565D01*
X69361Y81870D01*
X69205Y81714D01*
X69121Y81510D01*
Y81290D01*
X69205Y81086D01*
X69329Y80963D01*
X69180Y80814D01*
X69096Y80610D01*
Y80390D01*
X69180Y80186D01*
X69336Y80030D01*
X69540Y79946D01*
X69760D01*
X69964Y80030D01*
X70120Y80186D01*
X70204Y80390D01*
Y80610D01*
X70120Y80814D01*
X69996Y80938D01*
X70145Y81086D01*
X70229Y81290D01*
Y81510D01*
X70145Y81714D01*
X69989Y81870D01*
X69785Y81954D01*
D02*
G37*
G36*
X66135Y83604D02*
X65915D01*
X65711Y83520D01*
X65555Y83364D01*
X65471Y83160D01*
Y82940D01*
X65555Y82736D01*
X65711Y82580D01*
X65915Y82496D01*
X65935D01*
Y82410D01*
X66019Y82207D01*
X66175Y82051D01*
X66379Y81966D01*
X66560D01*
Y81763D01*
X66644Y81559D01*
X66800Y81403D01*
X67004Y81319D01*
X67146D01*
Y81115D01*
X67230Y80911D01*
X67354Y80787D01*
X67255Y80689D01*
X67171Y80485D01*
Y80265D01*
X67255Y80061D01*
X67411Y79905D01*
X67615Y79821D01*
X67835D01*
X68039Y79905D01*
X68195Y80061D01*
X68279Y80265D01*
Y80485D01*
X68195Y80689D01*
X68071Y80812D01*
X68170Y80911D01*
X68254Y81115D01*
Y81335D01*
X68170Y81539D01*
X68014Y81695D01*
X67810Y81779D01*
X67668D01*
Y81983D01*
X67584Y82187D01*
X67428Y82342D01*
X67224Y82427D01*
X67043D01*
Y82631D01*
X66959Y82834D01*
X66803Y82990D01*
X66599Y83074D01*
X66579D01*
Y83160D01*
X66495Y83364D01*
X66339Y83520D01*
X66135Y83604D01*
D02*
G37*
G36*
X85535Y80829D02*
X85315D01*
X85111Y80745D01*
X84955Y80589D01*
X84871Y80385D01*
Y80165D01*
X84955Y79961D01*
X85111Y79805D01*
X85315Y79721D01*
X85535D01*
X85739Y79805D01*
X85895Y79961D01*
X85979Y80165D01*
Y80385D01*
X85895Y80589D01*
X85739Y80745D01*
X85535Y80829D01*
D02*
G37*
G36*
X61604Y79249D02*
X61384D01*
X61180Y79165D01*
X61024Y79009D01*
X60959Y78851D01*
X60761Y78933D01*
X60541D01*
X60430Y78887D01*
X60269Y78946D01*
X60262Y78962D01*
X60106Y79117D01*
X59903Y79202D01*
X59682D01*
X59479Y79117D01*
X59324Y78963D01*
X59207Y79079D01*
X59003Y79164D01*
X58783D01*
X58579Y79079D01*
X58486Y78987D01*
X58465Y78991D01*
X58310Y79147D01*
X58106Y79231D01*
X57886D01*
X57682Y79147D01*
X57526Y78991D01*
X57442Y78787D01*
Y78567D01*
X57526Y78363D01*
X57682Y78207D01*
X57886Y78123D01*
X58106D01*
X58310Y78207D01*
X58402Y78300D01*
X58424Y78296D01*
X58579Y78140D01*
X58783Y78056D01*
X59003D01*
X59207Y78140D01*
X59362Y78295D01*
X59479Y78178D01*
X59682Y78094D01*
X59903D01*
X60013Y78140D01*
X60175Y78081D01*
X60182Y78065D01*
X60337Y77909D01*
X60541Y77825D01*
X60761D01*
X60965Y77909D01*
X61121Y78065D01*
X61186Y78223D01*
X61384Y78141D01*
X61604D01*
X61808Y78225D01*
X61922Y78339D01*
X61923Y78339D01*
X62079Y78183D01*
X62283Y78099D01*
X62503D01*
X62707Y78183D01*
X62863Y78339D01*
X62947Y78542D01*
Y78763D01*
X62863Y78966D01*
X62707Y79122D01*
X62503Y79207D01*
X62283D01*
X62079Y79122D01*
X61965Y79008D01*
X61964Y79009D01*
X61808Y79165D01*
X61604Y79249D01*
D02*
G37*
G36*
X70660Y78529D02*
X70440D01*
X70236Y78445D01*
X70080Y78289D01*
X70063Y78248D01*
X69937D01*
X69920Y78289D01*
X69764Y78445D01*
X69560Y78529D01*
X69340D01*
X69136Y78445D01*
X68980Y78289D01*
X68964Y78248D01*
X68837D01*
X68820Y78289D01*
X68664Y78445D01*
X68460Y78529D01*
X68240D01*
X68036Y78445D01*
X67880Y78289D01*
X67796Y78085D01*
Y77865D01*
X67880Y77661D01*
X68036Y77505D01*
X68077Y77489D01*
Y77362D01*
X68036Y77345D01*
X67880Y77189D01*
X67796Y76985D01*
Y76765D01*
X67880Y76561D01*
X68036Y76405D01*
X68077Y76388D01*
Y76261D01*
X68036Y76245D01*
X67880Y76089D01*
X67796Y75885D01*
Y75665D01*
X67880Y75461D01*
X68036Y75305D01*
X68240Y75221D01*
X68460D01*
X68664Y75305D01*
X68820Y75461D01*
X68837Y75502D01*
X68964D01*
X68980Y75461D01*
X69136Y75305D01*
X69340Y75221D01*
X69560D01*
X69764Y75305D01*
X69920Y75461D01*
X69937Y75502D01*
X70063D01*
X70080Y75461D01*
X70236Y75305D01*
X70440Y75221D01*
X70660D01*
X70864Y75305D01*
X71020Y75461D01*
X71104Y75665D01*
Y75885D01*
X71020Y76089D01*
X70864Y76245D01*
X70823Y76261D01*
Y76388D01*
X70864Y76405D01*
X71020Y76561D01*
X71104Y76765D01*
Y76985D01*
X71020Y77189D01*
X70864Y77345D01*
X70823Y77362D01*
Y77489D01*
X70864Y77505D01*
X71020Y77661D01*
X71104Y77865D01*
Y78085D01*
X71020Y78289D01*
X70864Y78445D01*
X70660Y78529D01*
D02*
G37*
G36*
X83260Y79029D02*
X83040D01*
X82836Y78945D01*
X82680Y78789D01*
X82596Y78585D01*
Y78365D01*
X82680Y78161D01*
X82836Y78005D01*
X83040Y77921D01*
X83260D01*
X83464Y78005D01*
X83620Y78161D01*
X83704Y78365D01*
Y78585D01*
X83620Y78789D01*
X83464Y78945D01*
X83260Y79029D01*
D02*
G37*
G36*
X64082Y79203D02*
X63861D01*
X63658Y79119D01*
X63502Y78963D01*
X63418Y78759D01*
Y78539D01*
X63502Y78335D01*
X63658Y78179D01*
X63861Y78095D01*
X64082D01*
X64198Y78143D01*
X64359Y78087D01*
X64363Y78075D01*
X64519Y77919D01*
X64723Y77835D01*
X64943D01*
X65147Y77919D01*
X65283Y78055D01*
X65419Y77919D01*
X65623Y77835D01*
X65843D01*
X66047Y77919D01*
X66203Y78075D01*
X66287Y78279D01*
Y78499D01*
X66203Y78703D01*
X66047Y78858D01*
X65843Y78943D01*
X65623D01*
X65419Y78858D01*
X65283Y78722D01*
X65147Y78858D01*
X64943Y78943D01*
X64723D01*
X64607Y78895D01*
X64446Y78951D01*
X64441Y78963D01*
X64285Y79119D01*
X64082Y79203D01*
D02*
G37*
G36*
X91835Y78604D02*
X91615D01*
X91411Y78520D01*
X91255Y78364D01*
X91171Y78160D01*
Y77940D01*
X91255Y77736D01*
X91411Y77580D01*
X91615Y77496D01*
X91835D01*
X92039Y77580D01*
X92195Y77736D01*
X92279Y77940D01*
Y78160D01*
X92195Y78364D01*
X92039Y78520D01*
X91835Y78604D01*
D02*
G37*
G36*
X88185Y78554D02*
X87965D01*
X87761Y78470D01*
X87605Y78314D01*
X87521Y78110D01*
Y77890D01*
X87605Y77686D01*
X87761Y77530D01*
X87965Y77446D01*
X88185D01*
X88389Y77530D01*
X88545Y77686D01*
X88629Y77890D01*
Y78110D01*
X88545Y78314D01*
X88389Y78470D01*
X88185Y78554D01*
D02*
G37*
G36*
X65856Y77415D02*
X65635D01*
X65432Y77331D01*
X65296Y77195D01*
X65159Y77331D01*
X64956Y77415D01*
X64735D01*
X64532Y77331D01*
X64376Y77175D01*
X64339Y77086D01*
X64296Y77078D01*
X64092Y77162D01*
X63872D01*
X63668Y77078D01*
X63512Y76922D01*
X63502Y76920D01*
X63397Y77025D01*
X63194Y77109D01*
X62973D01*
X62770Y77025D01*
X62614Y76869D01*
X62576Y76776D01*
X62438D01*
X62400Y76869D01*
X62244Y77025D01*
X62040Y77109D01*
X61820D01*
X61616Y77025D01*
X61531Y76939D01*
X61503Y76945D01*
X61347Y77101D01*
X61144Y77185D01*
X60923D01*
X60720Y77101D01*
X60564Y76945D01*
X60479Y76741D01*
Y76521D01*
X60564Y76317D01*
X60720Y76162D01*
X60923Y76077D01*
X61144D01*
X61347Y76162D01*
X61432Y76247D01*
X61461Y76241D01*
X61616Y76085D01*
X61820Y76001D01*
X62040D01*
X62244Y76085D01*
X62400Y76241D01*
X62438Y76334D01*
X62576D01*
X62614Y76241D01*
X62770Y76085D01*
X62973Y76001D01*
X63194D01*
X63397Y76085D01*
X63553Y76241D01*
X63563Y76243D01*
X63668Y76138D01*
X63872Y76054D01*
X64092D01*
X64296Y76138D01*
X64452Y76294D01*
X64488Y76383D01*
X64532Y76392D01*
X64735Y76307D01*
X64956D01*
X65159Y76392D01*
X65296Y76528D01*
X65432Y76392D01*
X65635Y76307D01*
X65856D01*
X66059Y76392D01*
X66215Y76547D01*
X66300Y76751D01*
Y76971D01*
X66215Y77175D01*
X66059Y77331D01*
X65856Y77415D01*
D02*
G37*
G36*
X80085Y78079D02*
X79865D01*
X79661Y77995D01*
X79505Y77839D01*
X79421Y77635D01*
Y77415D01*
X79505Y77211D01*
X79661Y77055D01*
X79865Y76971D01*
X80085D01*
X80289Y77055D01*
X80445Y77211D01*
X80529Y77415D01*
Y77635D01*
X80445Y77839D01*
X80289Y77995D01*
X80085Y78079D01*
D02*
G37*
G36*
X58464Y77188D02*
X58243D01*
X58040Y77104D01*
X57884Y76948D01*
X57763Y76931D01*
X57582Y77006D01*
X57362D01*
X57158Y76922D01*
X57002Y76766D01*
X56918Y76562D01*
Y76342D01*
X57002Y76138D01*
X57158Y75983D01*
X57362Y75898D01*
X57582D01*
X57786Y75983D01*
X57942Y76138D01*
X58062Y76155D01*
X58243Y76080D01*
X58464D01*
X58667Y76165D01*
X58823Y76321D01*
X58908Y76524D01*
Y76745D01*
X58823Y76948D01*
X58667Y77104D01*
X58464Y77188D01*
D02*
G37*
G36*
X80135Y76454D02*
X79915D01*
X79711Y76370D01*
X79555Y76214D01*
X79471Y76010D01*
Y75790D01*
X79555Y75586D01*
X79711Y75430D01*
X79915Y75346D01*
X80135D01*
X80339Y75430D01*
X80495Y75586D01*
X80579Y75790D01*
Y76010D01*
X80495Y76214D01*
X80339Y76370D01*
X80135Y76454D01*
D02*
G37*
G36*
X103560Y75954D02*
X103340D01*
X103136Y75870D01*
X102980Y75714D01*
X102896Y75510D01*
Y75290D01*
X102980Y75086D01*
X103136Y74930D01*
X103340Y74846D01*
X103560D01*
X103764Y74930D01*
X103920Y75086D01*
X104004Y75290D01*
Y75510D01*
X103920Y75714D01*
X103764Y75870D01*
X103560Y75954D01*
D02*
G37*
G36*
X98085Y75904D02*
X97865D01*
X97661Y75820D01*
X97505Y75664D01*
X97421Y75460D01*
Y75240D01*
X97505Y75036D01*
X97661Y74880D01*
X97865Y74796D01*
X98085D01*
X98289Y74880D01*
X98445Y75036D01*
X98529Y75240D01*
Y75460D01*
X98445Y75664D01*
X98289Y75820D01*
X98085Y75904D01*
D02*
G37*
G36*
X93935Y75779D02*
X93715D01*
X93511Y75695D01*
X93355Y75539D01*
X93271Y75335D01*
Y75115D01*
X93355Y74911D01*
X93511Y74755D01*
X93715Y74671D01*
X93935D01*
X94139Y74755D01*
X94295Y74911D01*
X94379Y75115D01*
Y75335D01*
X94295Y75539D01*
X94139Y75695D01*
X93935Y75779D01*
D02*
G37*
G36*
X106732Y76554D02*
X106468D01*
X106212Y76486D01*
X105984Y76353D01*
X105797Y76166D01*
X105664Y75938D01*
X105596Y75682D01*
Y75418D01*
X105664Y75162D01*
X105797Y74934D01*
X105984Y74747D01*
X106212Y74614D01*
X106468Y74546D01*
X106732D01*
X106988Y74614D01*
X107216Y74747D01*
X107403Y74934D01*
X107536Y75162D01*
X107604Y75418D01*
Y75682D01*
X107536Y75938D01*
X107403Y76166D01*
X107216Y76353D01*
X106988Y76486D01*
X106732Y76554D01*
D02*
G37*
G36*
X85045Y75608D02*
X84825D01*
X84621Y75524D01*
X84466Y75368D01*
X84381Y75164D01*
Y74944D01*
X84466Y74740D01*
X84621Y74584D01*
X84825Y74500D01*
X85045D01*
X85249Y74584D01*
X85405Y74740D01*
X85489Y74944D01*
Y75164D01*
X85405Y75368D01*
X85249Y75524D01*
X85045Y75608D01*
D02*
G37*
G36*
X89410Y75604D02*
X89190D01*
X88986Y75520D01*
X88830Y75364D01*
X88746Y75160D01*
Y74940D01*
X88830Y74736D01*
X88986Y74580D01*
X89190Y74496D01*
X89410D01*
X89614Y74580D01*
X89770Y74736D01*
X89854Y74940D01*
Y75160D01*
X89770Y75364D01*
X89614Y75520D01*
X89410Y75604D01*
D02*
G37*
G36*
X48635Y75554D02*
X48415D01*
X48211Y75470D01*
X48055Y75314D01*
X47971Y75110D01*
Y74890D01*
X48055Y74686D01*
X48211Y74530D01*
X48415Y74446D01*
X48635D01*
X48839Y74530D01*
X48995Y74686D01*
X49079Y74890D01*
Y75110D01*
X48995Y75314D01*
X48839Y75470D01*
X48635Y75554D01*
D02*
G37*
G36*
X58660Y75504D02*
X58440D01*
X58236Y75420D01*
X58080Y75264D01*
X57996Y75060D01*
Y74840D01*
X58080Y74636D01*
X58236Y74480D01*
X58440Y74396D01*
X58660D01*
X58864Y74480D01*
X59020Y74636D01*
X59104Y74840D01*
Y75060D01*
X59020Y75264D01*
X58864Y75420D01*
X58660Y75504D01*
D02*
G37*
G36*
X53960Y75304D02*
X53740D01*
X53536Y75220D01*
X53380Y75064D01*
X53296Y74860D01*
Y74640D01*
X53380Y74436D01*
X53536Y74280D01*
X53740Y74196D01*
X53960D01*
X54164Y74280D01*
X54320Y74436D01*
X54404Y74640D01*
Y74860D01*
X54320Y75064D01*
X54164Y75220D01*
X53960Y75304D01*
D02*
G37*
G36*
X118435Y75104D02*
X118215D01*
X118011Y75020D01*
X117855Y74864D01*
X117771Y74660D01*
Y74440D01*
X117855Y74236D01*
X118011Y74080D01*
X118215Y73996D01*
X118435D01*
X118639Y74080D01*
X118795Y74236D01*
X118879Y74440D01*
Y74660D01*
X118795Y74864D01*
X118639Y75020D01*
X118435Y75104D01*
D02*
G37*
G36*
X113910Y74904D02*
X113690D01*
X113486Y74820D01*
X113330Y74664D01*
X113246Y74460D01*
Y74240D01*
X113330Y74036D01*
X113486Y73880D01*
X113690Y73796D01*
X113910D01*
X114114Y73880D01*
X114270Y74036D01*
X114354Y74240D01*
Y74460D01*
X114270Y74664D01*
X114114Y74820D01*
X113910Y74904D01*
D02*
G37*
G36*
X73585D02*
X73365D01*
X73161Y74820D01*
X73005Y74664D01*
X72921Y74460D01*
Y74240D01*
X73005Y74036D01*
X73161Y73880D01*
X73365Y73796D01*
X73585D01*
X73789Y73880D01*
X73945Y74036D01*
X74029Y74240D01*
Y74460D01*
X73945Y74664D01*
X73789Y74820D01*
X73585Y74904D01*
D02*
G37*
G36*
X111010Y74854D02*
X110790D01*
X110586Y74770D01*
X110430Y74614D01*
X110346Y74410D01*
Y74190D01*
X110430Y73986D01*
X110586Y73830D01*
X110790Y73746D01*
X111010D01*
X111214Y73830D01*
X111370Y73986D01*
X111454Y74190D01*
Y74410D01*
X111370Y74614D01*
X111214Y74770D01*
X111010Y74854D01*
D02*
G37*
G36*
X51360Y73154D02*
X51140D01*
X50936Y73070D01*
X50780Y72914D01*
X50696Y72710D01*
Y72490D01*
X50780Y72286D01*
X50936Y72130D01*
X51140Y72046D01*
X51360D01*
X51564Y72130D01*
X51720Y72286D01*
X51804Y72490D01*
Y72710D01*
X51720Y72914D01*
X51564Y73070D01*
X51360Y73154D01*
D02*
G37*
G36*
X56260Y73004D02*
X56040D01*
X55836Y72920D01*
X55680Y72764D01*
X55596Y72560D01*
Y72340D01*
X55680Y72136D01*
X55836Y71980D01*
X56040Y71896D01*
X56260D01*
X56464Y71980D01*
X56620Y72136D01*
X56704Y72340D01*
Y72560D01*
X56620Y72764D01*
X56464Y72920D01*
X56260Y73004D01*
D02*
G37*
G36*
X46635Y74329D02*
X46415D01*
X46211Y74245D01*
X46055Y74089D01*
X45971Y73885D01*
Y73665D01*
X46055Y73461D01*
X46179Y73338D01*
X46055Y73214D01*
X45971Y73010D01*
Y72790D01*
X46055Y72586D01*
X46192Y72450D01*
X46055Y72314D01*
X45971Y72110D01*
Y71890D01*
X46008Y71801D01*
X46032Y71742D01*
X45920Y71689D01*
X45875Y71733D01*
X45764Y71845D01*
X45560Y71929D01*
X45340D01*
X45136Y71845D01*
X45058Y71766D01*
X44975Y71694D01*
X44892Y71766D01*
X44814Y71845D01*
X44610Y71929D01*
X44390D01*
X44186Y71845D01*
X44050Y71708D01*
X43914Y71845D01*
X43710Y71929D01*
X43490D01*
X43286Y71845D01*
X43208Y71766D01*
X43125Y71694D01*
X43042Y71766D01*
X42964Y71845D01*
X42760Y71929D01*
X42540D01*
X42336Y71845D01*
X42200Y71708D01*
X42064Y71845D01*
X41860Y71929D01*
X41640D01*
X41436Y71845D01*
X41312Y71721D01*
X41189Y71845D01*
X40985Y71929D01*
X40765D01*
X40561Y71845D01*
X40475Y71758D01*
X40389Y71845D01*
X40185Y71929D01*
X39965D01*
X39761Y71845D01*
X39605Y71689D01*
X39521Y71485D01*
Y71265D01*
X39605Y71061D01*
X39761Y70905D01*
X39965Y70821D01*
X40185D01*
X40389Y70905D01*
X40475Y70992D01*
X40561Y70905D01*
X40765Y70821D01*
X40985D01*
X41189Y70905D01*
X41312Y71029D01*
X41436Y70905D01*
X41640Y70821D01*
X41860D01*
X42064Y70905D01*
X42200Y71042D01*
X42336Y70905D01*
X42540Y70821D01*
X42760D01*
X42964Y70905D01*
X43042Y70984D01*
X43125Y71056D01*
X43208Y70984D01*
X43286Y70905D01*
X43490Y70821D01*
X43710D01*
X43914Y70905D01*
X44050Y71042D01*
X44186Y70905D01*
X44390Y70821D01*
X44610D01*
X44814Y70905D01*
X44892Y70984D01*
X44975Y71056D01*
X45058Y70984D01*
X45136Y70905D01*
X45340Y70821D01*
X45560D01*
X45764Y70905D01*
X45920Y71061D01*
X46004Y71265D01*
Y71485D01*
X45967Y71574D01*
X45943Y71633D01*
X46055Y71686D01*
X46100Y71642D01*
X46211Y71530D01*
X46415Y71446D01*
X46635D01*
X46839Y71530D01*
X46995Y71686D01*
X47079Y71890D01*
Y72110D01*
X46995Y72314D01*
X46858Y72450D01*
X46995Y72586D01*
X47079Y72790D01*
Y73010D01*
X46995Y73214D01*
X46871Y73338D01*
X46995Y73461D01*
X47079Y73665D01*
Y73885D01*
X46995Y74089D01*
X46839Y74245D01*
X46635Y74329D01*
D02*
G37*
G36*
X120785Y72754D02*
X120565D01*
X120361Y72670D01*
X120205Y72514D01*
X120121Y72310D01*
Y72090D01*
X120205Y71886D01*
X120361Y71730D01*
X120565Y71646D01*
X120785D01*
X120989Y71730D01*
X121145Y71886D01*
X121229Y72090D01*
Y72310D01*
X121145Y72514D01*
X120989Y72670D01*
X120785Y72754D01*
D02*
G37*
G36*
X60560Y71729D02*
X60340D01*
X60136Y71645D01*
X59980Y71489D01*
X59896Y71285D01*
Y71065D01*
X59980Y70861D01*
X60136Y70705D01*
X60340Y70621D01*
X60560D01*
X60764Y70705D01*
X60920Y70861D01*
X61004Y71065D01*
Y71285D01*
X60920Y71489D01*
X60764Y71645D01*
X60560Y71729D01*
D02*
G37*
G36*
X54010Y70754D02*
X53790D01*
X53586Y70670D01*
X53430Y70514D01*
X53346Y70310D01*
Y70090D01*
X53430Y69886D01*
X53586Y69730D01*
X53790Y69646D01*
X54010D01*
X54214Y69730D01*
X54370Y69886D01*
X54454Y70090D01*
Y70310D01*
X54370Y70514D01*
X54214Y70670D01*
X54010Y70754D01*
D02*
G37*
G36*
X58670Y70650D02*
X58450D01*
X58246Y70566D01*
X58091Y70410D01*
X58006Y70206D01*
Y69986D01*
X58091Y69782D01*
X58246Y69626D01*
X58450Y69542D01*
X58670D01*
X58874Y69626D01*
X59030Y69782D01*
X59114Y69986D01*
Y70206D01*
X59030Y70410D01*
X58874Y70566D01*
X58670Y70650D01*
D02*
G37*
G36*
X67360Y70354D02*
X67140D01*
X66936Y70270D01*
X66780Y70114D01*
X66696Y69910D01*
Y69690D01*
X66780Y69486D01*
X66936Y69330D01*
X67140Y69246D01*
X67360D01*
X67564Y69330D01*
X67720Y69486D01*
X67804Y69690D01*
Y69910D01*
X67720Y70114D01*
X67564Y70270D01*
X67360Y70354D01*
D02*
G37*
G36*
X44685Y70329D02*
X44465D01*
X44261Y70245D01*
X44105Y70089D01*
X44021Y69885D01*
Y69665D01*
X44105Y69461D01*
X44261Y69305D01*
X44465Y69221D01*
X44685D01*
X44889Y69305D01*
X45045Y69461D01*
X45129Y69665D01*
Y69885D01*
X45045Y70089D01*
X44889Y70245D01*
X44685Y70329D01*
D02*
G37*
G36*
X48785Y70304D02*
X48565D01*
X48361Y70220D01*
X48205Y70064D01*
X48121Y69860D01*
Y69640D01*
X48205Y69436D01*
X48361Y69280D01*
X48565Y69196D01*
X48785D01*
X48989Y69280D01*
X49145Y69436D01*
X49229Y69640D01*
Y69860D01*
X49145Y70064D01*
X48989Y70220D01*
X48785Y70304D01*
D02*
G37*
G36*
X65960Y69554D02*
X65740D01*
X65536Y69470D01*
X65380Y69314D01*
X65296Y69110D01*
Y68890D01*
X65380Y68686D01*
X65536Y68530D01*
X65740Y68446D01*
X65960D01*
X66164Y68530D01*
X66320Y68686D01*
X66404Y68890D01*
Y69110D01*
X66320Y69314D01*
X66164Y69470D01*
X65960Y69554D01*
D02*
G37*
G36*
X115330Y71384D02*
X113222D01*
Y68376D01*
X115330D01*
Y71384D01*
D02*
G37*
G36*
X111736Y71394D02*
X111461Y71357D01*
X111205Y71251D01*
X110985Y71082D01*
X110816Y70862D01*
X110710Y70606D01*
X110673Y70330D01*
Y69430D01*
X110710Y69155D01*
X110816Y68899D01*
X110985Y68679D01*
X111205Y68510D01*
X111461Y68404D01*
X111736Y68367D01*
X112012Y68404D01*
X112268Y68510D01*
X112488Y68679D01*
X112657Y68899D01*
X112763Y69155D01*
X112799Y69430D01*
Y70330D01*
X112763Y70606D01*
X112657Y70862D01*
X112488Y71082D01*
X112268Y71251D01*
X112012Y71357D01*
X111736Y71394D01*
D02*
G37*
G36*
X109196D02*
X108921Y71357D01*
X108665Y71251D01*
X108445Y71082D01*
X108276Y70862D01*
X108170Y70606D01*
X108133Y70330D01*
Y69430D01*
X108170Y69155D01*
X108276Y68899D01*
X108445Y68679D01*
X108665Y68510D01*
X108921Y68404D01*
X109196Y68367D01*
X109472Y68404D01*
X109728Y68510D01*
X109948Y68679D01*
X110117Y68899D01*
X110223Y69155D01*
X110259Y69430D01*
Y70330D01*
X110223Y70606D01*
X110117Y70862D01*
X109948Y71082D01*
X109728Y71251D01*
X109472Y71357D01*
X109196Y71394D01*
D02*
G37*
G36*
X106656D02*
X106381Y71357D01*
X106125Y71251D01*
X105905Y71082D01*
X105736Y70862D01*
X105630Y70606D01*
X105593Y70330D01*
Y69430D01*
X105630Y69155D01*
X105736Y68899D01*
X105905Y68679D01*
X106125Y68510D01*
X106381Y68404D01*
X106656Y68367D01*
X106932Y68404D01*
X107188Y68510D01*
X107408Y68679D01*
X107577Y68899D01*
X107683Y69155D01*
X107719Y69430D01*
Y70330D01*
X107683Y70606D01*
X107577Y70862D01*
X107408Y71082D01*
X107188Y71251D01*
X106932Y71357D01*
X106656Y71394D01*
D02*
G37*
G36*
X104116D02*
X103841Y71357D01*
X103585Y71251D01*
X103365Y71082D01*
X103196Y70862D01*
X103090Y70606D01*
X103053Y70330D01*
Y69430D01*
X103090Y69155D01*
X103196Y68899D01*
X103365Y68679D01*
X103585Y68510D01*
X103841Y68404D01*
X104116Y68367D01*
X104392Y68404D01*
X104648Y68510D01*
X104868Y68679D01*
X105037Y68899D01*
X105143Y69155D01*
X105179Y69430D01*
Y70330D01*
X105143Y70606D01*
X105037Y70862D01*
X104868Y71082D01*
X104648Y71251D01*
X104392Y71357D01*
X104116Y71394D01*
D02*
G37*
G36*
X101576D02*
X101301Y71357D01*
X101045Y71251D01*
X100825Y71082D01*
X100656Y70862D01*
X100550Y70606D01*
X100513Y70330D01*
Y69430D01*
X100550Y69155D01*
X100656Y68899D01*
X100825Y68679D01*
X101045Y68510D01*
X101301Y68404D01*
X101576Y68367D01*
X101852Y68404D01*
X102108Y68510D01*
X102328Y68679D01*
X102497Y68899D01*
X102603Y69155D01*
X102639Y69430D01*
Y70330D01*
X102603Y70606D01*
X102497Y70862D01*
X102328Y71082D01*
X102108Y71251D01*
X101852Y71357D01*
X101576Y71394D01*
D02*
G37*
G36*
X99036D02*
X98761Y71357D01*
X98505Y71251D01*
X98285Y71082D01*
X98116Y70862D01*
X98010Y70606D01*
X97973Y70330D01*
Y69430D01*
X98010Y69155D01*
X98116Y68899D01*
X98285Y68679D01*
X98505Y68510D01*
X98761Y68404D01*
X99036Y68367D01*
X99312Y68404D01*
X99568Y68510D01*
X99788Y68679D01*
X99957Y68899D01*
X100063Y69155D01*
X100099Y69430D01*
Y70330D01*
X100063Y70606D01*
X99957Y70862D01*
X99788Y71082D01*
X99568Y71251D01*
X99312Y71357D01*
X99036Y71394D01*
D02*
G37*
G36*
X96496D02*
X96221Y71357D01*
X95965Y71251D01*
X95745Y71082D01*
X95576Y70862D01*
X95470Y70606D01*
X95433Y70330D01*
Y69430D01*
X95470Y69155D01*
X95576Y68899D01*
X95745Y68679D01*
X95965Y68510D01*
X96221Y68404D01*
X96496Y68367D01*
X96772Y68404D01*
X97028Y68510D01*
X97248Y68679D01*
X97417Y68899D01*
X97523Y69155D01*
X97559Y69430D01*
Y70330D01*
X97523Y70606D01*
X97417Y70862D01*
X97248Y71082D01*
X97028Y71251D01*
X96772Y71357D01*
X96496Y71394D01*
D02*
G37*
G36*
X93956D02*
X93681Y71357D01*
X93425Y71251D01*
X93205Y71082D01*
X93036Y70862D01*
X92930Y70606D01*
X92893Y70330D01*
Y69430D01*
X92930Y69155D01*
X93036Y68899D01*
X93205Y68679D01*
X93425Y68510D01*
X93681Y68404D01*
X93956Y68367D01*
X94232Y68404D01*
X94488Y68510D01*
X94708Y68679D01*
X94877Y68899D01*
X94983Y69155D01*
X95019Y69430D01*
Y70330D01*
X94983Y70606D01*
X94877Y70862D01*
X94708Y71082D01*
X94488Y71251D01*
X94232Y71357D01*
X93956Y71394D01*
D02*
G37*
G36*
X91416D02*
X91141Y71357D01*
X90885Y71251D01*
X90665Y71082D01*
X90496Y70862D01*
X90390Y70606D01*
X90353Y70330D01*
Y69430D01*
X90390Y69155D01*
X90496Y68899D01*
X90665Y68679D01*
X90885Y68510D01*
X91141Y68404D01*
X91416Y68367D01*
X91692Y68404D01*
X91948Y68510D01*
X92168Y68679D01*
X92337Y68899D01*
X92443Y69155D01*
X92479Y69430D01*
Y70330D01*
X92443Y70606D01*
X92337Y70862D01*
X92168Y71082D01*
X91948Y71251D01*
X91692Y71357D01*
X91416Y71394D01*
D02*
G37*
G36*
X118460Y69179D02*
X118240D01*
X118036Y69095D01*
X117880Y68939D01*
X117796Y68735D01*
Y68515D01*
X117880Y68311D01*
X118036Y68155D01*
X118240Y68071D01*
X118460D01*
X118664Y68155D01*
X118820Y68311D01*
X118904Y68515D01*
Y68735D01*
X118820Y68939D01*
X118664Y69095D01*
X118460Y69179D01*
D02*
G37*
G36*
X87735Y68629D02*
X87515D01*
X87311Y68545D01*
X87155Y68389D01*
X87071Y68185D01*
Y67965D01*
X87155Y67761D01*
X87311Y67605D01*
X87515Y67521D01*
X87735D01*
X87939Y67605D01*
X88095Y67761D01*
X88179Y67965D01*
Y68185D01*
X88095Y68389D01*
X87939Y68545D01*
X87735Y68629D01*
D02*
G37*
G36*
X78235Y68504D02*
X78015D01*
X77811Y68420D01*
X77655Y68264D01*
X77571Y68060D01*
Y67840D01*
X77655Y67636D01*
X77811Y67480D01*
X78015Y67396D01*
X78235D01*
X78439Y67480D01*
X78595Y67636D01*
X78679Y67840D01*
Y68060D01*
X78595Y68264D01*
X78439Y68420D01*
X78235Y68504D01*
D02*
G37*
G36*
X82485Y68479D02*
X82265D01*
X82061Y68395D01*
X81905Y68239D01*
X81821Y68035D01*
Y67815D01*
X81905Y67611D01*
X82061Y67455D01*
X82265Y67371D01*
X82485D01*
X82689Y67455D01*
X82845Y67611D01*
X82929Y67815D01*
Y68035D01*
X82845Y68239D01*
X82689Y68395D01*
X82485Y68479D01*
D02*
G37*
G36*
X72985Y68354D02*
X72765D01*
X72561Y68270D01*
X72405Y68114D01*
X72321Y67910D01*
Y67690D01*
X72405Y67486D01*
X72561Y67330D01*
X72765Y67246D01*
X72985D01*
X73189Y67330D01*
X73345Y67486D01*
X73429Y67690D01*
Y67910D01*
X73345Y68114D01*
X73189Y68270D01*
X72985Y68354D01*
D02*
G37*
G36*
X68110Y68229D02*
X67890D01*
X67686Y68145D01*
X67530Y67989D01*
X67446Y67785D01*
Y67565D01*
X67530Y67361D01*
X67686Y67205D01*
X67890Y67121D01*
X68110D01*
X68314Y67205D01*
X68470Y67361D01*
X68554Y67565D01*
Y67785D01*
X68470Y67989D01*
X68314Y68145D01*
X68110Y68229D01*
D02*
G37*
G36*
X56035Y67854D02*
X55815D01*
X55611Y67770D01*
X55455Y67614D01*
X55371Y67410D01*
Y67190D01*
X55455Y66986D01*
X55611Y66830D01*
X55815Y66746D01*
X56035D01*
X56239Y66830D01*
X56395Y66986D01*
X56479Y67190D01*
Y67410D01*
X56395Y67614D01*
X56239Y67770D01*
X56035Y67854D01*
D02*
G37*
G36*
X50785Y67704D02*
X50565D01*
X50361Y67620D01*
X50205Y67464D01*
X50121Y67260D01*
Y67040D01*
X50205Y66836D01*
X50361Y66680D01*
X50565Y66596D01*
X50785D01*
X50989Y66680D01*
X51145Y66836D01*
X51229Y67040D01*
Y67260D01*
X51145Y67464D01*
X50989Y67620D01*
X50785Y67704D01*
D02*
G37*
G36*
X46985Y67504D02*
X46765D01*
X46561Y67420D01*
X46405Y67264D01*
X46321Y67060D01*
Y66840D01*
X46405Y66636D01*
X46561Y66480D01*
X46765Y66396D01*
X46985D01*
X47189Y66480D01*
X47345Y66636D01*
X47429Y66840D01*
Y67060D01*
X47345Y67264D01*
X47189Y67420D01*
X46985Y67504D01*
D02*
G37*
G36*
X41735Y67354D02*
X41515D01*
X41311Y67270D01*
X41155Y67114D01*
X41071Y66910D01*
Y66690D01*
X41155Y66486D01*
X41311Y66330D01*
X41515Y66246D01*
X41735D01*
X41939Y66330D01*
X42095Y66486D01*
X42179Y66690D01*
Y66910D01*
X42095Y67114D01*
X41939Y67270D01*
X41735Y67354D01*
D02*
G37*
G36*
X111710Y66604D02*
X111490D01*
X111286Y66520D01*
X111130Y66364D01*
X111046Y66160D01*
Y65940D01*
X111130Y65736D01*
X111286Y65580D01*
X111490Y65496D01*
X111710D01*
X111914Y65580D01*
X112070Y65736D01*
X112154Y65940D01*
Y66160D01*
X112070Y66364D01*
X111914Y66520D01*
X111710Y66604D01*
D02*
G37*
G36*
X103435Y66504D02*
X103215D01*
X103011Y66420D01*
X102855Y66264D01*
X102771Y66060D01*
Y65840D01*
X102855Y65636D01*
X103011Y65480D01*
X103215Y65396D01*
X103435D01*
X103639Y65480D01*
X103795Y65636D01*
X103879Y65840D01*
Y66060D01*
X103795Y66264D01*
X103639Y66420D01*
X103435Y66504D01*
D02*
G37*
G36*
X95410Y66404D02*
X95190D01*
X94986Y66320D01*
X94830Y66164D01*
X94746Y65960D01*
Y65740D01*
X94830Y65536D01*
X94986Y65380D01*
X95190Y65296D01*
X95410D01*
X95614Y65380D01*
X95770Y65536D01*
X95854Y65740D01*
Y65960D01*
X95770Y66164D01*
X95614Y66320D01*
X95410Y66404D01*
D02*
G37*
G36*
X65885Y66204D02*
X65665D01*
X65461Y66120D01*
X65305Y65964D01*
X65221Y65760D01*
Y65540D01*
X65305Y65336D01*
X65461Y65180D01*
X65665Y65096D01*
X65885D01*
X66089Y65180D01*
X66245Y65336D01*
X66329Y65540D01*
Y65760D01*
X66245Y65964D01*
X66089Y66120D01*
X65885Y66204D01*
D02*
G37*
G36*
X85335Y65904D02*
X85115D01*
X84911Y65820D01*
X84755Y65664D01*
X84671Y65460D01*
Y65240D01*
X84755Y65036D01*
X84911Y64880D01*
X85115Y64796D01*
X85335D01*
X85539Y64880D01*
X85695Y65036D01*
X85779Y65240D01*
Y65460D01*
X85695Y65664D01*
X85539Y65820D01*
X85335Y65904D01*
D02*
G37*
G36*
X80285Y65879D02*
X80065D01*
X79861Y65795D01*
X79705Y65639D01*
X79621Y65435D01*
Y65215D01*
X79705Y65011D01*
X79861Y64855D01*
X80065Y64771D01*
X80285D01*
X80489Y64855D01*
X80645Y65011D01*
X80729Y65215D01*
Y65435D01*
X80645Y65639D01*
X80489Y65795D01*
X80285Y65879D01*
D02*
G37*
G36*
X75835Y65779D02*
X75615D01*
X75411Y65695D01*
X75255Y65539D01*
X75171Y65335D01*
Y65115D01*
X75255Y64911D01*
X75411Y64755D01*
X75615Y64671D01*
X75835D01*
X76039Y64755D01*
X76195Y64911D01*
X76279Y65115D01*
Y65335D01*
X76195Y65539D01*
X76039Y65695D01*
X75835Y65779D01*
D02*
G37*
G36*
X64135Y65679D02*
X63915D01*
X63711Y65595D01*
X63555Y65439D01*
X63471Y65235D01*
Y65015D01*
X63555Y64811D01*
X63711Y64655D01*
X63915Y64571D01*
X64135D01*
X64339Y64655D01*
X64495Y64811D01*
X64579Y65015D01*
Y65235D01*
X64495Y65439D01*
X64339Y65595D01*
X64135Y65679D01*
D02*
G37*
G36*
X60285Y65629D02*
X60065D01*
X59861Y65545D01*
X59705Y65389D01*
X59621Y65185D01*
Y64965D01*
X59705Y64761D01*
X59861Y64605D01*
X60065Y64521D01*
X60285D01*
X60489Y64605D01*
X60645Y64761D01*
X60729Y64965D01*
Y65185D01*
X60645Y65389D01*
X60489Y65545D01*
X60285Y65629D01*
D02*
G37*
G36*
X53635Y65129D02*
X53415D01*
X53211Y65045D01*
X53055Y64889D01*
X52971Y64685D01*
Y64465D01*
X53055Y64261D01*
X53211Y64105D01*
X53415Y64021D01*
X53635D01*
X53839Y64105D01*
X53995Y64261D01*
X54079Y64465D01*
Y64685D01*
X53995Y64889D01*
X53839Y65045D01*
X53635Y65129D01*
D02*
G37*
G36*
X120660Y65104D02*
X120440D01*
X120236Y65020D01*
X120080Y64864D01*
X119996Y64660D01*
Y64440D01*
X120080Y64236D01*
X120236Y64080D01*
X120440Y63996D01*
X120660D01*
X120864Y64080D01*
X121020Y64236D01*
X121104Y64440D01*
Y64660D01*
X121020Y64864D01*
X120864Y65020D01*
X120660Y65104D01*
D02*
G37*
G36*
X116485D02*
X116265D01*
X116061Y65020D01*
X115905Y64864D01*
X115821Y64660D01*
Y64440D01*
X115905Y64236D01*
X116061Y64080D01*
X116265Y63996D01*
X116485D01*
X116689Y64080D01*
X116845Y64236D01*
X116929Y64440D01*
Y64660D01*
X116845Y64864D01*
X116689Y65020D01*
X116485Y65104D01*
D02*
G37*
G36*
X44585Y64779D02*
X44365D01*
X44161Y64695D01*
X44005Y64539D01*
X43921Y64335D01*
Y64115D01*
X44005Y63911D01*
X44161Y63755D01*
X44365Y63671D01*
X44585D01*
X44789Y63755D01*
X44945Y63911D01*
X45029Y64115D01*
Y64335D01*
X44945Y64539D01*
X44789Y64695D01*
X44585Y64779D01*
D02*
G37*
G36*
X68335Y64404D02*
X68115D01*
X67911Y64320D01*
X67755Y64164D01*
X67671Y63960D01*
Y63740D01*
X67755Y63536D01*
X67911Y63380D01*
X68115Y63296D01*
X68335D01*
X68539Y63380D01*
X68695Y63536D01*
X68779Y63740D01*
Y63960D01*
X68695Y64164D01*
X68539Y64320D01*
X68335Y64404D01*
D02*
G37*
G36*
X63560Y63829D02*
X63340D01*
X63136Y63745D01*
X62980Y63589D01*
X62896Y63385D01*
Y63165D01*
X62980Y62961D01*
X63136Y62805D01*
X63340Y62721D01*
X63560D01*
X63764Y62805D01*
X63920Y62961D01*
X64004Y63165D01*
Y63385D01*
X63920Y63589D01*
X63764Y63745D01*
X63560Y63829D01*
D02*
G37*
G36*
X87485Y63304D02*
X87265D01*
X87061Y63220D01*
X86905Y63064D01*
X86821Y62860D01*
Y62640D01*
X86905Y62436D01*
X87061Y62280D01*
X87265Y62196D01*
X87485D01*
X87689Y62280D01*
X87845Y62436D01*
X87929Y62640D01*
Y62860D01*
X87845Y63064D01*
X87689Y63220D01*
X87485Y63304D01*
D02*
G37*
G36*
X82935Y63254D02*
X82715D01*
X82511Y63170D01*
X82355Y63014D01*
X82271Y62810D01*
Y62590D01*
X82355Y62386D01*
X82511Y62230D01*
X82715Y62146D01*
X82935D01*
X83139Y62230D01*
X83295Y62386D01*
X83379Y62590D01*
Y62810D01*
X83295Y63014D01*
X83139Y63170D01*
X82935Y63254D01*
D02*
G37*
G36*
X77985Y63179D02*
X77765D01*
X77561Y63095D01*
X77405Y62939D01*
X77321Y62735D01*
Y62515D01*
X77405Y62311D01*
X77561Y62155D01*
X77765Y62071D01*
X77985D01*
X78189Y62155D01*
X78345Y62311D01*
X78429Y62515D01*
Y62735D01*
X78345Y62939D01*
X78189Y63095D01*
X77985Y63179D01*
D02*
G37*
G36*
X73435Y63129D02*
X73215D01*
X73011Y63045D01*
X72855Y62889D01*
X72771Y62685D01*
Y62465D01*
X72855Y62261D01*
X73011Y62105D01*
X73215Y62021D01*
X73435D01*
X73639Y62105D01*
X73795Y62261D01*
X73879Y62465D01*
Y62685D01*
X73795Y62889D01*
X73639Y63045D01*
X73435Y63129D01*
D02*
G37*
G36*
X55785Y62529D02*
X55565D01*
X55361Y62445D01*
X55205Y62289D01*
X55121Y62085D01*
Y61865D01*
X55205Y61661D01*
X55361Y61505D01*
X55565Y61421D01*
X55785D01*
X55989Y61505D01*
X56145Y61661D01*
X56229Y61865D01*
Y62085D01*
X56145Y62289D01*
X55989Y62445D01*
X55785Y62529D01*
D02*
G37*
G36*
X51235Y62479D02*
X51015D01*
X50811Y62395D01*
X50655Y62239D01*
X50571Y62035D01*
Y61815D01*
X50655Y61611D01*
X50811Y61455D01*
X51015Y61371D01*
X51235D01*
X51439Y61455D01*
X51595Y61611D01*
X51679Y61815D01*
Y62035D01*
X51595Y62239D01*
X51439Y62395D01*
X51235Y62479D01*
D02*
G37*
G36*
X67185Y61379D02*
X66965D01*
X66761Y61295D01*
X66637Y61171D01*
X66514Y61295D01*
X66310Y61379D01*
X66090D01*
X65886Y61295D01*
X65750Y61158D01*
X65614Y61295D01*
X65410Y61379D01*
X65190D01*
X64986Y61295D01*
X64830Y61139D01*
X64746Y60935D01*
Y60715D01*
X64830Y60511D01*
X64942Y60400D01*
X64986Y60355D01*
X64933Y60243D01*
X64874Y60267D01*
X64785Y60304D01*
X64565D01*
X64361Y60220D01*
X64205Y60064D01*
X64121Y59860D01*
Y59640D01*
X64205Y59436D01*
X64284Y59358D01*
X64356Y59275D01*
X64284Y59192D01*
X64205Y59114D01*
X64121Y58910D01*
Y58690D01*
X64205Y58486D01*
X64342Y58350D01*
X64205Y58214D01*
X64121Y58010D01*
Y57790D01*
X64205Y57586D01*
X64284Y57508D01*
X64356Y57425D01*
X64284Y57342D01*
X64205Y57264D01*
X64121Y57060D01*
Y56840D01*
X64205Y56636D01*
X64292Y56550D01*
X64205Y56464D01*
X64121Y56260D01*
Y56040D01*
X64205Y55836D01*
X64329Y55713D01*
X64205Y55589D01*
X64121Y55385D01*
Y55165D01*
X64205Y54961D01*
X64342Y54825D01*
X64205Y54689D01*
X64121Y54485D01*
Y54265D01*
X64205Y54061D01*
X64361Y53905D01*
X64565Y53821D01*
X64785D01*
X64989Y53905D01*
X65145Y54061D01*
X65229Y54265D01*
Y54485D01*
X65145Y54689D01*
X65008Y54825D01*
X65145Y54961D01*
X65229Y55165D01*
Y55385D01*
X65145Y55589D01*
X65021Y55713D01*
X65145Y55836D01*
X65229Y56040D01*
Y56260D01*
X65145Y56464D01*
X65058Y56550D01*
X65145Y56636D01*
X65229Y56840D01*
Y57060D01*
X65145Y57264D01*
X65066Y57342D01*
X64994Y57425D01*
X65066Y57508D01*
X65145Y57586D01*
X65229Y57790D01*
Y58010D01*
X65145Y58214D01*
X65008Y58350D01*
X65145Y58486D01*
X65229Y58690D01*
Y58910D01*
X65145Y59114D01*
X65066Y59192D01*
X64994Y59275D01*
X65066Y59358D01*
X65145Y59436D01*
X65229Y59640D01*
Y59860D01*
X65145Y60064D01*
X65033Y60175D01*
X64989Y60220D01*
X65042Y60332D01*
X65101Y60308D01*
X65190Y60271D01*
X65410D01*
X65614Y60355D01*
X65750Y60492D01*
X65886Y60355D01*
X66090Y60271D01*
X66310D01*
X66514Y60355D01*
X66637Y60479D01*
X66761Y60355D01*
X66965Y60271D01*
X67185D01*
X67389Y60355D01*
X67545Y60511D01*
X67629Y60715D01*
Y60935D01*
X67545Y61139D01*
X67389Y61295D01*
X67185Y61379D01*
D02*
G37*
G36*
X75810D02*
X75590D01*
X75386Y61295D01*
X75250Y61158D01*
X75114Y61295D01*
X74910Y61379D01*
X74690D01*
X74486Y61295D01*
X74363Y61171D01*
X74239Y61295D01*
X74035Y61379D01*
X73815D01*
X73611Y61295D01*
X73455Y61139D01*
X73371Y60935D01*
Y60715D01*
X73455Y60511D01*
X73611Y60355D01*
X73815Y60271D01*
X74035D01*
X74239Y60355D01*
X74363Y60479D01*
X74486Y60355D01*
X74690Y60271D01*
X74910D01*
X75114Y60355D01*
X75250Y60492D01*
X75386Y60355D01*
X75590Y60271D01*
X75810D01*
X75899Y60308D01*
X75958Y60332D01*
X76011Y60220D01*
X75967Y60175D01*
X75855Y60064D01*
X75771Y59860D01*
Y59640D01*
X75855Y59436D01*
X75934Y59358D01*
X76006Y59275D01*
X75934Y59192D01*
X75855Y59114D01*
X75771Y58910D01*
Y58690D01*
X75855Y58486D01*
X75992Y58350D01*
X75855Y58214D01*
X75771Y58010D01*
Y57790D01*
X75855Y57586D01*
X75934Y57508D01*
X76006Y57425D01*
X75934Y57342D01*
X75855Y57264D01*
X75771Y57060D01*
Y56840D01*
X75855Y56636D01*
X75992Y56500D01*
X75855Y56364D01*
X75771Y56160D01*
Y55940D01*
X75855Y55736D01*
X75979Y55612D01*
X75855Y55489D01*
X75771Y55285D01*
Y55065D01*
X75855Y54861D01*
X75967Y54750D01*
X75855Y54639D01*
X75771Y54435D01*
Y54215D01*
X75855Y54011D01*
X76011Y53855D01*
X76215Y53771D01*
X76435D01*
X76639Y53855D01*
X76795Y54011D01*
X76879Y54215D01*
Y54435D01*
X76795Y54639D01*
X76683Y54750D01*
X76795Y54861D01*
X76879Y55065D01*
Y55285D01*
X76795Y55489D01*
X76671Y55612D01*
X76795Y55736D01*
X76879Y55940D01*
Y56160D01*
X76795Y56364D01*
X76658Y56500D01*
X76795Y56636D01*
X76879Y56840D01*
Y57060D01*
X76795Y57264D01*
X76716Y57342D01*
X76644Y57425D01*
X76716Y57508D01*
X76795Y57586D01*
X76879Y57790D01*
Y58010D01*
X76795Y58214D01*
X76658Y58350D01*
X76795Y58486D01*
X76879Y58690D01*
Y58910D01*
X76795Y59114D01*
X76716Y59192D01*
X76644Y59275D01*
X76716Y59358D01*
X76795Y59436D01*
X76879Y59640D01*
Y59860D01*
X76795Y60064D01*
X76639Y60220D01*
X76435Y60304D01*
X76215D01*
X76126Y60267D01*
X76067Y60243D01*
X76014Y60355D01*
X76058Y60400D01*
X76170Y60511D01*
X76254Y60715D01*
Y60935D01*
X76170Y61139D01*
X76014Y61295D01*
X75810Y61379D01*
D02*
G37*
G36*
X42185Y62129D02*
X41965D01*
X41761Y62045D01*
X41605Y61889D01*
X41521Y61685D01*
Y61465D01*
X41605Y61261D01*
X41761Y61105D01*
X41965Y61021D01*
X42185D01*
X42389Y61105D01*
X42545Y61261D01*
X42629Y61465D01*
Y61685D01*
X42545Y61889D01*
X42389Y62045D01*
X42185Y62129D01*
D02*
G37*
G36*
X114276Y63764D02*
X114001Y63727D01*
X113745Y63621D01*
X113525Y63452D01*
X113356Y63232D01*
X113250Y62976D01*
X113213Y62700D01*
Y61800D01*
X113250Y61525D01*
X113356Y61269D01*
X113525Y61049D01*
X113745Y60880D01*
X114001Y60774D01*
X114276Y60737D01*
X114552Y60774D01*
X114808Y60880D01*
X115028Y61049D01*
X115197Y61269D01*
X115303Y61525D01*
X115339Y61800D01*
Y62700D01*
X115303Y62976D01*
X115197Y63232D01*
X115028Y63452D01*
X114808Y63621D01*
X114552Y63727D01*
X114276Y63764D01*
D02*
G37*
G36*
X111736D02*
X111461Y63727D01*
X111205Y63621D01*
X110985Y63452D01*
X110816Y63232D01*
X110710Y62976D01*
X110673Y62700D01*
Y61800D01*
X110710Y61525D01*
X110816Y61269D01*
X110985Y61049D01*
X111205Y60880D01*
X111461Y60774D01*
X111736Y60737D01*
X112012Y60774D01*
X112268Y60880D01*
X112488Y61049D01*
X112657Y61269D01*
X112763Y61525D01*
X112799Y61800D01*
Y62700D01*
X112763Y62976D01*
X112657Y63232D01*
X112488Y63452D01*
X112268Y63621D01*
X112012Y63727D01*
X111736Y63764D01*
D02*
G37*
G36*
X109196D02*
X108921Y63727D01*
X108665Y63621D01*
X108445Y63452D01*
X108276Y63232D01*
X108170Y62976D01*
X108133Y62700D01*
Y61800D01*
X108170Y61525D01*
X108276Y61269D01*
X108445Y61049D01*
X108665Y60880D01*
X108921Y60774D01*
X109196Y60737D01*
X109472Y60774D01*
X109728Y60880D01*
X109948Y61049D01*
X110117Y61269D01*
X110223Y61525D01*
X110259Y61800D01*
Y62700D01*
X110223Y62976D01*
X110117Y63232D01*
X109948Y63452D01*
X109728Y63621D01*
X109472Y63727D01*
X109196Y63764D01*
D02*
G37*
G36*
X106656D02*
X106381Y63727D01*
X106125Y63621D01*
X105905Y63452D01*
X105736Y63232D01*
X105630Y62976D01*
X105593Y62700D01*
Y61800D01*
X105630Y61525D01*
X105736Y61269D01*
X105905Y61049D01*
X106125Y60880D01*
X106381Y60774D01*
X106656Y60737D01*
X106932Y60774D01*
X107188Y60880D01*
X107408Y61049D01*
X107577Y61269D01*
X107683Y61525D01*
X107719Y61800D01*
Y62700D01*
X107683Y62976D01*
X107577Y63232D01*
X107408Y63452D01*
X107188Y63621D01*
X106932Y63727D01*
X106656Y63764D01*
D02*
G37*
G36*
X104116D02*
X103841Y63727D01*
X103585Y63621D01*
X103365Y63452D01*
X103196Y63232D01*
X103090Y62976D01*
X103053Y62700D01*
Y61800D01*
X103090Y61525D01*
X103196Y61269D01*
X103365Y61049D01*
X103585Y60880D01*
X103841Y60774D01*
X104116Y60737D01*
X104392Y60774D01*
X104648Y60880D01*
X104868Y61049D01*
X105037Y61269D01*
X105143Y61525D01*
X105179Y61800D01*
Y62700D01*
X105143Y62976D01*
X105037Y63232D01*
X104868Y63452D01*
X104648Y63621D01*
X104392Y63727D01*
X104116Y63764D01*
D02*
G37*
G36*
X101576D02*
X101301Y63727D01*
X101045Y63621D01*
X100825Y63452D01*
X100656Y63232D01*
X100550Y62976D01*
X100513Y62700D01*
Y61800D01*
X100550Y61525D01*
X100656Y61269D01*
X100825Y61049D01*
X101045Y60880D01*
X101301Y60774D01*
X101576Y60737D01*
X101852Y60774D01*
X102108Y60880D01*
X102328Y61049D01*
X102497Y61269D01*
X102603Y61525D01*
X102639Y61800D01*
Y62700D01*
X102603Y62976D01*
X102497Y63232D01*
X102328Y63452D01*
X102108Y63621D01*
X101852Y63727D01*
X101576Y63764D01*
D02*
G37*
G36*
X99036D02*
X98761Y63727D01*
X98505Y63621D01*
X98285Y63452D01*
X98116Y63232D01*
X98010Y62976D01*
X97973Y62700D01*
Y61800D01*
X98010Y61525D01*
X98116Y61269D01*
X98285Y61049D01*
X98505Y60880D01*
X98761Y60774D01*
X99036Y60737D01*
X99312Y60774D01*
X99568Y60880D01*
X99788Y61049D01*
X99957Y61269D01*
X100063Y61525D01*
X100099Y61800D01*
Y62700D01*
X100063Y62976D01*
X99957Y63232D01*
X99788Y63452D01*
X99568Y63621D01*
X99312Y63727D01*
X99036Y63764D01*
D02*
G37*
G36*
X96496D02*
X96221Y63727D01*
X95965Y63621D01*
X95745Y63452D01*
X95576Y63232D01*
X95470Y62976D01*
X95433Y62700D01*
Y61800D01*
X95470Y61525D01*
X95576Y61269D01*
X95745Y61049D01*
X95965Y60880D01*
X96221Y60774D01*
X96496Y60737D01*
X96772Y60774D01*
X97028Y60880D01*
X97248Y61049D01*
X97417Y61269D01*
X97523Y61525D01*
X97559Y61800D01*
Y62700D01*
X97523Y62976D01*
X97417Y63232D01*
X97248Y63452D01*
X97028Y63621D01*
X96772Y63727D01*
X96496Y63764D01*
D02*
G37*
G36*
X93956D02*
X93681Y63727D01*
X93425Y63621D01*
X93205Y63452D01*
X93036Y63232D01*
X92930Y62976D01*
X92893Y62700D01*
Y61800D01*
X92930Y61525D01*
X93036Y61269D01*
X93205Y61049D01*
X93425Y60880D01*
X93681Y60774D01*
X93956Y60737D01*
X94232Y60774D01*
X94488Y60880D01*
X94708Y61049D01*
X94877Y61269D01*
X94983Y61525D01*
X95019Y61800D01*
Y62700D01*
X94983Y62976D01*
X94877Y63232D01*
X94708Y63452D01*
X94488Y63621D01*
X94232Y63727D01*
X93956Y63764D01*
D02*
G37*
G36*
X91416D02*
X91141Y63727D01*
X90885Y63621D01*
X90665Y63452D01*
X90496Y63232D01*
X90390Y62976D01*
X90353Y62700D01*
Y61800D01*
X90390Y61525D01*
X90496Y61269D01*
X90665Y61049D01*
X90885Y60880D01*
X91141Y60774D01*
X91416Y60737D01*
X91692Y60774D01*
X91948Y60880D01*
X92168Y61049D01*
X92337Y61269D01*
X92443Y61525D01*
X92479Y61800D01*
Y62700D01*
X92443Y62976D01*
X92337Y63232D01*
X92168Y63452D01*
X91948Y63621D01*
X91692Y63727D01*
X91416Y63764D01*
D02*
G37*
G36*
X61285Y61554D02*
X61065D01*
X60861Y61470D01*
X60705Y61314D01*
X60621Y61110D01*
Y60890D01*
X60705Y60686D01*
X60861Y60530D01*
X61065Y60446D01*
X61285D01*
X61489Y60530D01*
X61645Y60686D01*
X61729Y60890D01*
Y61110D01*
X61645Y61314D01*
X61489Y61470D01*
X61285Y61554D01*
D02*
G37*
G36*
X118385Y61204D02*
X118165D01*
X117961Y61120D01*
X117805Y60964D01*
X117721Y60760D01*
Y60540D01*
X117805Y60336D01*
X117961Y60180D01*
X118165Y60096D01*
X118385D01*
X118589Y60180D01*
X118745Y60336D01*
X118829Y60540D01*
Y60760D01*
X118745Y60964D01*
X118589Y61120D01*
X118385Y61204D01*
D02*
G37*
G36*
X85185Y61004D02*
X84965D01*
X84761Y60920D01*
X84605Y60764D01*
X84521Y60560D01*
Y60340D01*
X84605Y60136D01*
X84761Y59980D01*
X84965Y59896D01*
X85185D01*
X85389Y59980D01*
X85545Y60136D01*
X85629Y60340D01*
Y60560D01*
X85545Y60764D01*
X85389Y60920D01*
X85185Y61004D01*
D02*
G37*
G36*
X53485Y60229D02*
X53265D01*
X53061Y60145D01*
X52905Y59989D01*
X52821Y59785D01*
Y59565D01*
X52905Y59361D01*
X53061Y59205D01*
X53265Y59121D01*
X53485D01*
X53689Y59205D01*
X53845Y59361D01*
X53929Y59565D01*
Y59785D01*
X53845Y59989D01*
X53689Y60145D01*
X53485Y60229D01*
D02*
G37*
G36*
X63035Y59679D02*
X62815D01*
X62611Y59595D01*
X62455Y59439D01*
X62371Y59235D01*
Y59015D01*
X62455Y58811D01*
X62611Y58655D01*
X62815Y58571D01*
X63035D01*
X63239Y58655D01*
X63395Y58811D01*
X63479Y59015D01*
Y59235D01*
X63395Y59439D01*
X63239Y59595D01*
X63035Y59679D01*
D02*
G37*
G36*
X58685Y59404D02*
X58465D01*
X58261Y59320D01*
X58105Y59164D01*
X58021Y58960D01*
Y58740D01*
X58105Y58536D01*
X58261Y58380D01*
X58465Y58296D01*
X58685D01*
X58889Y58380D01*
X59045Y58536D01*
X59129Y58740D01*
Y58960D01*
X59045Y59164D01*
X58889Y59320D01*
X58685Y59404D01*
D02*
G37*
G36*
X120835Y59104D02*
X120615D01*
X120411Y59020D01*
X120255Y58864D01*
X120171Y58660D01*
Y58440D01*
X120255Y58236D01*
X120411Y58080D01*
X120615Y57996D01*
X120835D01*
X121039Y58080D01*
X121195Y58236D01*
X121279Y58440D01*
Y58660D01*
X121195Y58864D01*
X121039Y59020D01*
X120835Y59104D01*
D02*
G37*
G36*
X46197Y62279D02*
X45753D01*
X45318Y62192D01*
X44907Y62022D01*
X44538Y61776D01*
X44224Y61462D01*
X43978Y61093D01*
X43808Y60682D01*
X43721Y60247D01*
Y59803D01*
X43808Y59368D01*
X43978Y58957D01*
X44224Y58588D01*
X44538Y58274D01*
X44907Y58028D01*
X45318Y57858D01*
X45753Y57771D01*
X46197D01*
X46632Y57858D01*
X47043Y58028D01*
X47412Y58274D01*
X47726Y58588D01*
X47972Y58957D01*
X48142Y59368D01*
X48229Y59803D01*
Y60247D01*
X48142Y60682D01*
X47972Y61093D01*
X47726Y61462D01*
X47412Y61776D01*
X47043Y62022D01*
X46632Y62192D01*
X46197Y62279D01*
D02*
G37*
G36*
X87685Y58604D02*
X87465D01*
X87261Y58520D01*
X87105Y58364D01*
X87021Y58160D01*
Y57940D01*
X87105Y57736D01*
X87261Y57580D01*
X87465Y57496D01*
X87685D01*
X87889Y57580D01*
X88045Y57736D01*
X88129Y57940D01*
Y58160D01*
X88045Y58364D01*
X87889Y58520D01*
X87685Y58604D01*
D02*
G37*
G36*
X82397Y61904D02*
X81953D01*
X81518Y61817D01*
X81107Y61647D01*
X80738Y61401D01*
X80424Y61087D01*
X80178Y60718D01*
X80008Y60307D01*
X79921Y59872D01*
Y59428D01*
X80008Y58993D01*
X80178Y58582D01*
X80424Y58213D01*
X80738Y57899D01*
X81107Y57653D01*
X81518Y57483D01*
X81953Y57396D01*
X82397D01*
X82832Y57483D01*
X83243Y57653D01*
X83612Y57899D01*
X83926Y58213D01*
X84172Y58582D01*
X84342Y58993D01*
X84429Y59428D01*
Y59872D01*
X84342Y60307D01*
X84172Y60718D01*
X83926Y61087D01*
X83612Y61401D01*
X83243Y61647D01*
X82832Y61817D01*
X82397Y61904D01*
D02*
G37*
G36*
X78185Y58479D02*
X77965D01*
X77761Y58395D01*
X77605Y58239D01*
X77521Y58035D01*
Y57815D01*
X77605Y57611D01*
X77761Y57455D01*
X77965Y57371D01*
X78185D01*
X78389Y57455D01*
X78545Y57611D01*
X78629Y57815D01*
Y58035D01*
X78545Y58239D01*
X78389Y58395D01*
X78185Y58479D01*
D02*
G37*
G36*
X55985Y57829D02*
X55765D01*
X55561Y57745D01*
X55405Y57589D01*
X55321Y57385D01*
Y57165D01*
X55405Y56961D01*
X55561Y56805D01*
X55765Y56721D01*
X55985D01*
X56189Y56805D01*
X56345Y56961D01*
X56429Y57165D01*
Y57385D01*
X56345Y57589D01*
X56189Y57745D01*
X55985Y57829D01*
D02*
G37*
G36*
X51131Y57819D02*
X50911D01*
X50707Y57734D01*
X50551Y57579D01*
X50467Y57375D01*
Y57155D01*
X50551Y56951D01*
X50707Y56795D01*
X50911Y56711D01*
X51131D01*
X51335Y56795D01*
X51491Y56951D01*
X51575Y57155D01*
Y57375D01*
X51491Y57579D01*
X51335Y57734D01*
X51131Y57819D01*
D02*
G37*
G36*
X60485Y57754D02*
X60265D01*
X60061Y57670D01*
X59905Y57514D01*
X59821Y57310D01*
Y57090D01*
X59905Y56886D01*
X60061Y56730D01*
X60265Y56646D01*
X60485D01*
X60689Y56730D01*
X60845Y56886D01*
X60929Y57090D01*
Y57310D01*
X60845Y57514D01*
X60689Y57670D01*
X60485Y57754D01*
D02*
G37*
G36*
X46935Y57479D02*
X46715D01*
X46511Y57395D01*
X46355Y57239D01*
X46271Y57035D01*
Y56815D01*
X46355Y56611D01*
X46511Y56455D01*
X46715Y56371D01*
X46935D01*
X47139Y56455D01*
X47295Y56611D01*
X47379Y56815D01*
Y57035D01*
X47295Y57239D01*
X47139Y57395D01*
X46935Y57479D01*
D02*
G37*
G36*
X42081Y57469D02*
X41861D01*
X41657Y57384D01*
X41501Y57229D01*
X41417Y57025D01*
Y56805D01*
X41501Y56601D01*
X41657Y56445D01*
X41861Y56361D01*
X42081D01*
X42285Y56445D01*
X42441Y56601D01*
X42525Y56805D01*
Y57025D01*
X42441Y57229D01*
X42285Y57384D01*
X42081Y57469D01*
D02*
G37*
G36*
X84135Y56929D02*
X83915D01*
X83711Y56845D01*
X83555Y56689D01*
X83471Y56485D01*
Y56265D01*
X83555Y56061D01*
X83711Y55905D01*
X83915Y55821D01*
X84135D01*
X84339Y55905D01*
X84495Y56061D01*
X84579Y56265D01*
Y56485D01*
X84495Y56689D01*
X84339Y56845D01*
X84135Y56929D01*
D02*
G37*
G36*
X118385Y56504D02*
X118165D01*
X117961Y56420D01*
X117805Y56264D01*
X117721Y56060D01*
Y55840D01*
X117805Y55636D01*
X117961Y55480D01*
X118165Y55396D01*
X118385D01*
X118589Y55480D01*
X118745Y55636D01*
X118829Y55840D01*
Y56060D01*
X118745Y56264D01*
X118589Y56420D01*
X118385Y56504D01*
D02*
G37*
G36*
X104885Y55754D02*
X104665D01*
X104461Y55670D01*
X104305Y55514D01*
X104221Y55310D01*
Y55090D01*
X104305Y54886D01*
X104461Y54730D01*
X104665Y54646D01*
X104885D01*
X105089Y54730D01*
X105245Y54886D01*
X105329Y55090D01*
Y55310D01*
X105245Y55514D01*
X105089Y55670D01*
X104885Y55754D01*
D02*
G37*
G36*
X90360Y55679D02*
X90140D01*
X89936Y55595D01*
X89780Y55439D01*
X89696Y55235D01*
Y55015D01*
X89780Y54811D01*
X89936Y54655D01*
X90140Y54571D01*
X90360D01*
X90564Y54655D01*
X90720Y54811D01*
X90804Y55015D01*
Y55235D01*
X90720Y55439D01*
X90564Y55595D01*
X90360Y55679D01*
D02*
G37*
G36*
X80860D02*
X80640D01*
X80436Y55595D01*
X80280Y55439D01*
X80196Y55235D01*
Y55015D01*
X80280Y54811D01*
X80436Y54655D01*
X80640Y54571D01*
X80860D01*
X81064Y54655D01*
X81220Y54811D01*
X81304Y55015D01*
Y55235D01*
X81220Y55439D01*
X81064Y55595D01*
X80860Y55679D01*
D02*
G37*
G36*
X96635Y55654D02*
X96415D01*
X96211Y55570D01*
X96055Y55414D01*
X95971Y55210D01*
Y54990D01*
X96055Y54786D01*
X96211Y54630D01*
X96415Y54546D01*
X96635D01*
X96839Y54630D01*
X96995Y54786D01*
X97079Y54990D01*
Y55210D01*
X96995Y55414D01*
X96839Y55570D01*
X96635Y55654D01*
D02*
G37*
G36*
X69740Y71101D02*
X69520D01*
X69316Y71017D01*
X69160Y70861D01*
X69076Y70657D01*
Y70437D01*
X69160Y70233D01*
X69316Y70077D01*
X69466Y70015D01*
X69467Y70014D01*
X69382Y69811D01*
Y69590D01*
X69467Y69387D01*
X69603Y69251D01*
X69467Y69114D01*
X69382Y68911D01*
Y68690D01*
X69467Y68487D01*
X69603Y68351D01*
X69467Y68214D01*
X69382Y68011D01*
Y67790D01*
X69467Y67587D01*
X69603Y67451D01*
X69467Y67314D01*
X69382Y67111D01*
Y66890D01*
X69467Y66687D01*
X69603Y66551D01*
X69467Y66414D01*
X69382Y66211D01*
Y65990D01*
X69467Y65787D01*
X69603Y65651D01*
X69467Y65514D01*
X69382Y65311D01*
Y65090D01*
X69467Y64887D01*
X69603Y64751D01*
X69467Y64614D01*
X69382Y64411D01*
Y64190D01*
X69467Y63987D01*
X69603Y63851D01*
X69467Y63714D01*
X69382Y63511D01*
Y63290D01*
X69467Y63087D01*
X69603Y62951D01*
X69467Y62814D01*
X69382Y62611D01*
Y62390D01*
X69467Y62187D01*
X69603Y62051D01*
X69467Y61914D01*
X69382Y61711D01*
Y61490D01*
X69444Y61341D01*
X69419Y61194D01*
X69263Y61038D01*
X69179Y60834D01*
Y60614D01*
X69257Y60424D01*
X69092Y60355D01*
X68936Y60199D01*
X68852Y59996D01*
Y59775D01*
X68936Y59572D01*
X69072Y59436D01*
X68936Y59299D01*
X68852Y59096D01*
Y58875D01*
X68936Y58672D01*
X69072Y58536D01*
X68936Y58399D01*
X68852Y58196D01*
Y57975D01*
X68936Y57772D01*
X69072Y57636D01*
X68936Y57499D01*
X68852Y57296D01*
Y57075D01*
X68936Y56872D01*
X69072Y56736D01*
X68936Y56599D01*
X68852Y56396D01*
Y56175D01*
X68936Y55972D01*
X69072Y55836D01*
X68936Y55699D01*
X68852Y55496D01*
Y55275D01*
X68936Y55072D01*
X69072Y54936D01*
X68936Y54799D01*
X68852Y54596D01*
Y54375D01*
X68936Y54172D01*
X69092Y54016D01*
X69295Y53932D01*
X69516D01*
X69719Y54016D01*
X69875Y54172D01*
X69960Y54375D01*
Y54596D01*
X69875Y54799D01*
X69739Y54936D01*
X69875Y55072D01*
X69960Y55275D01*
Y55496D01*
X69875Y55699D01*
X69739Y55836D01*
X69875Y55972D01*
X69960Y56175D01*
Y56396D01*
X69875Y56599D01*
X69739Y56736D01*
X69875Y56872D01*
X69960Y57075D01*
Y57296D01*
X69875Y57499D01*
X69739Y57636D01*
X69875Y57772D01*
X69960Y57975D01*
Y58196D01*
X69875Y58399D01*
X69739Y58536D01*
X69875Y58672D01*
X69960Y58875D01*
Y59096D01*
X69875Y59299D01*
X69739Y59436D01*
X69875Y59572D01*
X69960Y59775D01*
Y59996D01*
X69881Y60186D01*
X70046Y60254D01*
X70202Y60410D01*
X70287Y60614D01*
Y60834D01*
X70225Y60983D01*
X70250Y61131D01*
X70406Y61287D01*
X70490Y61490D01*
Y61711D01*
X70406Y61914D01*
X70270Y62051D01*
X70406Y62187D01*
X70490Y62390D01*
Y62611D01*
X70406Y62814D01*
X70270Y62951D01*
X70406Y63087D01*
X70490Y63290D01*
Y63511D01*
X70406Y63714D01*
X70270Y63851D01*
X70406Y63987D01*
X70490Y64190D01*
Y64411D01*
X70406Y64614D01*
X70270Y64751D01*
X70406Y64887D01*
X70490Y65090D01*
Y65311D01*
X70406Y65514D01*
X70270Y65651D01*
X70406Y65787D01*
X70490Y65990D01*
Y66211D01*
X70406Y66414D01*
X70270Y66551D01*
X70406Y66687D01*
X70490Y66890D01*
Y67111D01*
X70406Y67314D01*
X70270Y67451D01*
X70406Y67587D01*
X70490Y67790D01*
Y68011D01*
X70406Y68214D01*
X70270Y68351D01*
X70406Y68487D01*
X70490Y68690D01*
Y68911D01*
X70406Y69114D01*
X70270Y69251D01*
X70406Y69387D01*
X70490Y69590D01*
Y69811D01*
X70406Y70014D01*
X70250Y70170D01*
X70100Y70233D01*
X70100Y70233D01*
X70184Y70437D01*
Y70657D01*
X70100Y70861D01*
X69944Y71017D01*
X69740Y71101D01*
D02*
G37*
G36*
X66635Y103854D02*
X66415D01*
X66211Y103770D01*
X66055Y103614D01*
X65971Y103410D01*
Y103190D01*
X66055Y102986D01*
X66211Y102830D01*
X66415Y102746D01*
X66635D01*
X66839Y102830D01*
X66995Y102986D01*
X67079Y103190D01*
Y103410D01*
X66995Y103614D01*
X66839Y103770D01*
X66635Y103854D01*
D02*
G37*
G36*
X71635Y103804D02*
X71415D01*
X71211Y103720D01*
X71055Y103564D01*
X70971Y103360D01*
Y103140D01*
X71055Y102936D01*
X71211Y102780D01*
X71415Y102696D01*
X71635D01*
X71839Y102780D01*
X71995Y102936D01*
X72079Y103140D01*
Y103360D01*
X71995Y103564D01*
X71839Y103720D01*
X71635Y103804D01*
D02*
G37*
G36*
X68935Y102054D02*
X68715D01*
X68511Y101970D01*
X68355Y101814D01*
X68271Y101610D01*
Y101390D01*
X68355Y101186D01*
X68511Y101030D01*
X68715Y100946D01*
X68935D01*
X69139Y101030D01*
X69295Y101186D01*
X69379Y101390D01*
Y101610D01*
X69295Y101814D01*
X69139Y101970D01*
X68935Y102054D01*
D02*
G37*
G36*
X71585Y99629D02*
X71365D01*
X71161Y99545D01*
X71005Y99389D01*
X70921Y99185D01*
Y98965D01*
X71005Y98761D01*
X71161Y98605D01*
X71365Y98521D01*
X71585D01*
X71789Y98605D01*
X71945Y98761D01*
X72029Y98965D01*
Y99185D01*
X71945Y99389D01*
X71789Y99545D01*
X71585Y99629D01*
D02*
G37*
G36*
X66535Y99554D02*
X66315D01*
X66111Y99470D01*
X65955Y99314D01*
X65871Y99110D01*
Y98890D01*
X65955Y98686D01*
X66111Y98530D01*
X66315Y98446D01*
X66535D01*
X66739Y98530D01*
X66895Y98686D01*
X66979Y98890D01*
Y99110D01*
X66895Y99314D01*
X66739Y99470D01*
X66535Y99554D01*
D02*
G37*
G36*
X64985Y104604D02*
X64765D01*
X64561Y104520D01*
X64405Y104364D01*
X64321Y104160D01*
Y103940D01*
X64405Y103736D01*
X64542Y103600D01*
X64405Y103464D01*
X64321Y103260D01*
Y103040D01*
X64405Y102836D01*
X64504Y102738D01*
X64405Y102639D01*
X64321Y102435D01*
Y102215D01*
X64405Y102011D01*
X64517Y101900D01*
X64405Y101789D01*
X64321Y101585D01*
Y101365D01*
X64405Y101161D01*
X64484Y101083D01*
X64556Y101000D01*
X64484Y100917D01*
X64405Y100839D01*
X64321Y100635D01*
Y100415D01*
X64405Y100211D01*
X64542Y100075D01*
X64405Y99939D01*
X64321Y99735D01*
Y99515D01*
X64405Y99311D01*
X64484Y99233D01*
X64556Y99150D01*
X64484Y99067D01*
X64405Y98989D01*
X64321Y98785D01*
Y98565D01*
X64405Y98361D01*
X64517Y98250D01*
X64561Y98205D01*
X64508Y98093D01*
X64449Y98117D01*
X64360Y98154D01*
X64140D01*
X63936Y98070D01*
X63800Y97933D01*
X63664Y98070D01*
X63460Y98154D01*
X63240D01*
X63036Y98070D01*
X62912Y97946D01*
X62789Y98070D01*
X62585Y98154D01*
X62365D01*
X62161Y98070D01*
X62005Y97914D01*
X61921Y97710D01*
Y97490D01*
X62005Y97286D01*
X62161Y97130D01*
X62365Y97046D01*
X62585D01*
X62789Y97130D01*
X62912Y97254D01*
X63036Y97130D01*
X63240Y97046D01*
X63460D01*
X63664Y97130D01*
X63800Y97267D01*
X63936Y97130D01*
X64140Y97046D01*
X64360D01*
X64564Y97130D01*
X64720Y97286D01*
X64804Y97490D01*
Y97710D01*
X64720Y97914D01*
X64608Y98025D01*
X64564Y98070D01*
X64617Y98182D01*
X64676Y98158D01*
X64765Y98121D01*
X64985D01*
X65189Y98205D01*
X65345Y98361D01*
X65429Y98565D01*
Y98785D01*
X65345Y98989D01*
X65266Y99067D01*
X65194Y99150D01*
X65266Y99233D01*
X65345Y99311D01*
X65429Y99515D01*
Y99735D01*
X65345Y99939D01*
X65208Y100075D01*
X65345Y100211D01*
X65429Y100415D01*
Y100635D01*
X65345Y100839D01*
X65266Y100917D01*
X65194Y101000D01*
X65266Y101083D01*
X65345Y101161D01*
X65429Y101365D01*
Y101585D01*
X65345Y101789D01*
X65233Y101900D01*
X65345Y102011D01*
X65429Y102215D01*
Y102435D01*
X65345Y102639D01*
X65246Y102738D01*
X65345Y102836D01*
X65429Y103040D01*
Y103260D01*
X65345Y103464D01*
X65208Y103600D01*
X65345Y103736D01*
X65429Y103940D01*
Y104160D01*
X65345Y104364D01*
X65189Y104520D01*
X64985Y104604D01*
D02*
G37*
G36*
X74510Y104554D02*
X74290D01*
X74086Y104470D01*
X73930Y104314D01*
X73846Y104110D01*
Y103890D01*
X73930Y103686D01*
X74067Y103550D01*
X73930Y103414D01*
X73846Y103210D01*
Y102990D01*
X73930Y102786D01*
X74004Y102713D01*
X73930Y102639D01*
X73846Y102435D01*
Y102215D01*
X73930Y102011D01*
X74067Y101875D01*
X73930Y101739D01*
X73846Y101535D01*
Y101315D01*
X73930Y101111D01*
X74009Y101033D01*
X74081Y100950D01*
X74009Y100867D01*
X73930Y100789D01*
X73846Y100585D01*
Y100365D01*
X73930Y100161D01*
X74067Y100025D01*
X73930Y99889D01*
X73846Y99685D01*
Y99465D01*
X73930Y99261D01*
X74009Y99183D01*
X74081Y99100D01*
X74009Y99017D01*
X73930Y98939D01*
X73846Y98735D01*
Y98515D01*
X73930Y98311D01*
X74086Y98155D01*
X74290Y98071D01*
X74510D01*
X74599Y98108D01*
X74658Y98132D01*
X74711Y98020D01*
X74667Y97975D01*
X74555Y97864D01*
X74471Y97660D01*
Y97440D01*
X74555Y97236D01*
X74711Y97080D01*
X74915Y96996D01*
X75135D01*
X75339Y97080D01*
X75475Y97217D01*
X75611Y97080D01*
X75815Y96996D01*
X76035D01*
X76239Y97080D01*
X76363Y97204D01*
X76486Y97080D01*
X76690Y96996D01*
X76910D01*
X77114Y97080D01*
X77270Y97236D01*
X77354Y97440D01*
Y97660D01*
X77270Y97864D01*
X77114Y98020D01*
X76910Y98104D01*
X76690D01*
X76486Y98020D01*
X76363Y97896D01*
X76239Y98020D01*
X76035Y98104D01*
X75815D01*
X75611Y98020D01*
X75475Y97883D01*
X75339Y98020D01*
X75135Y98104D01*
X74915D01*
X74826Y98067D01*
X74767Y98043D01*
X74714Y98155D01*
X74758Y98200D01*
X74870Y98311D01*
X74954Y98515D01*
Y98735D01*
X74870Y98939D01*
X74791Y99017D01*
X74719Y99100D01*
X74791Y99183D01*
X74870Y99261D01*
X74954Y99465D01*
Y99685D01*
X74870Y99889D01*
X74733Y100025D01*
X74870Y100161D01*
X74954Y100365D01*
Y100585D01*
X74870Y100789D01*
X74791Y100867D01*
X74719Y100950D01*
X74791Y101033D01*
X74870Y101111D01*
X74954Y101315D01*
Y101535D01*
X74870Y101739D01*
X74733Y101875D01*
X74870Y102011D01*
X74954Y102215D01*
Y102435D01*
X74870Y102639D01*
X74796Y102713D01*
X74870Y102786D01*
X74954Y102990D01*
Y103210D01*
X74870Y103414D01*
X74733Y103550D01*
X74870Y103686D01*
X74954Y103890D01*
Y104110D01*
X74870Y104314D01*
X74714Y104470D01*
X74510Y104554D01*
D02*
G37*
G36*
X64385Y96579D02*
X64165D01*
X63961Y96495D01*
X63805Y96339D01*
X63721Y96135D01*
Y95915D01*
X63805Y95711D01*
X63961Y95555D01*
X64165Y95471D01*
X64385D01*
X64589Y95555D01*
X64745Y95711D01*
X64829Y95915D01*
Y96135D01*
X64745Y96339D01*
X64589Y96495D01*
X64385Y96579D01*
D02*
G37*
G36*
X74310Y96529D02*
X74090D01*
X73886Y96445D01*
X73730Y96289D01*
X73646Y96085D01*
Y95865D01*
X73730Y95661D01*
X73886Y95505D01*
X74090Y95421D01*
X74310D01*
X74514Y95505D01*
X74670Y95661D01*
X74754Y95865D01*
Y96085D01*
X74670Y96289D01*
X74514Y96445D01*
X74310Y96529D01*
D02*
G37*
G36*
X69035Y96479D02*
X68815D01*
X68611Y96395D01*
X68455Y96239D01*
X68371Y96035D01*
Y95815D01*
X68455Y95611D01*
X68611Y95455D01*
X68815Y95371D01*
X69035D01*
X69239Y95455D01*
X69395Y95611D01*
X69479Y95815D01*
Y96035D01*
X69395Y96239D01*
X69239Y96395D01*
X69035Y96479D01*
D02*
G37*
G36*
X72560Y94354D02*
X72340D01*
X72136Y94270D01*
X71980Y94114D01*
X71896Y93910D01*
Y93690D01*
X71980Y93486D01*
X72136Y93330D01*
X72340Y93246D01*
X72560D01*
X72764Y93330D01*
X72920Y93486D01*
X73004Y93690D01*
Y93910D01*
X72920Y94114D01*
X72764Y94270D01*
X72560Y94354D01*
D02*
G37*
G36*
X61510Y94329D02*
X61290D01*
X61086Y94245D01*
X60930Y94089D01*
X60846Y93885D01*
Y93665D01*
X60930Y93461D01*
X61086Y93305D01*
X61290Y93221D01*
X61510D01*
X61714Y93305D01*
X61870Y93461D01*
X61954Y93665D01*
Y93885D01*
X61870Y94089D01*
X61714Y94245D01*
X61510Y94329D01*
D02*
G37*
G36*
X76785Y94304D02*
X76565D01*
X76361Y94220D01*
X76205Y94064D01*
X76121Y93860D01*
Y93640D01*
X76205Y93436D01*
X76361Y93280D01*
X76565Y93196D01*
X76785D01*
X76989Y93280D01*
X77145Y93436D01*
X77229Y93640D01*
Y93860D01*
X77145Y94064D01*
X76989Y94220D01*
X76785Y94304D01*
D02*
G37*
G36*
X66785Y94229D02*
X66565D01*
X66361Y94145D01*
X66205Y93989D01*
X66121Y93785D01*
Y93565D01*
X66205Y93361D01*
X66361Y93205D01*
X66565Y93121D01*
X66785D01*
X66989Y93205D01*
X67145Y93361D01*
X67229Y93565D01*
Y93785D01*
X67145Y93989D01*
X66989Y94145D01*
X66785Y94229D01*
D02*
G37*
G36*
X64385Y91729D02*
X64165D01*
X63961Y91645D01*
X63805Y91489D01*
X63721Y91285D01*
Y91065D01*
X63805Y90861D01*
X63961Y90705D01*
X64165Y90621D01*
X64385D01*
X64589Y90705D01*
X64745Y90861D01*
X64829Y91065D01*
Y91285D01*
X64745Y91489D01*
X64589Y91645D01*
X64385Y91729D01*
D02*
G37*
G36*
X74410Y91679D02*
X74190D01*
X73986Y91595D01*
X73830Y91439D01*
X73746Y91235D01*
Y91015D01*
X73830Y90811D01*
X73986Y90655D01*
X74190Y90571D01*
X74410D01*
X74614Y90655D01*
X74770Y90811D01*
X74854Y91015D01*
Y91235D01*
X74770Y91439D01*
X74614Y91595D01*
X74410Y91679D01*
D02*
G37*
G36*
X70047Y93579D02*
X69603D01*
X69168Y93492D01*
X68757Y93322D01*
X68388Y93076D01*
X68074Y92762D01*
X67828Y92393D01*
X67658Y91982D01*
X67571Y91547D01*
Y91103D01*
X67658Y90668D01*
X67828Y90257D01*
X68074Y89888D01*
X68388Y89574D01*
X68757Y89328D01*
X69168Y89158D01*
X69603Y89071D01*
X70047D01*
X70482Y89158D01*
X70893Y89328D01*
X71262Y89574D01*
X71576Y89888D01*
X71822Y90257D01*
X71992Y90668D01*
X72079Y91103D01*
Y91547D01*
X71992Y91982D01*
X71822Y92393D01*
X71576Y92762D01*
X71262Y93076D01*
X70893Y93322D01*
X70482Y93492D01*
X70047Y93579D01*
D02*
G37*
G36*
X68260Y88629D02*
X68040D01*
X67836Y88545D01*
X67680Y88389D01*
X67596Y88185D01*
Y87965D01*
X67680Y87761D01*
X67836Y87605D01*
X68040Y87521D01*
X68260D01*
X68464Y87605D01*
X68620Y87761D01*
X68704Y87965D01*
Y88185D01*
X68620Y88389D01*
X68464Y88545D01*
X68260Y88629D01*
D02*
G37*
G36*
X71910Y88429D02*
X71690D01*
X71486Y88345D01*
X71330Y88189D01*
X71246Y87985D01*
Y87765D01*
X71330Y87561D01*
X71486Y87405D01*
X71690Y87321D01*
X71910D01*
X72114Y87405D01*
X72270Y87561D01*
X72354Y87765D01*
Y87985D01*
X72270Y88189D01*
X72114Y88345D01*
X71910Y88429D01*
D02*
G37*
G36*
X69510Y85254D02*
X69290D01*
X69086Y85170D01*
X68930Y85014D01*
X68846Y84810D01*
Y84590D01*
X68930Y84386D01*
X69086Y84230D01*
X69290Y84146D01*
X69510D01*
X69714Y84230D01*
X69870Y84386D01*
X69954Y84590D01*
Y84810D01*
X69870Y85014D01*
X69714Y85170D01*
X69510Y85254D01*
D02*
G37*
%LPD*%
G54D34*
X106600Y78100D02*
D03*
G54D35*
X111829Y54980D02*
D03*
G54D36*
X74175Y77150D02*
D03*
X64132Y74058D02*
D03*
G54D37*
X107725Y81700D02*
D03*
X106075D02*
D03*
X104475Y81725D02*
D03*
X102025Y80400D02*
D03*
X100325D02*
D03*
X98550Y80350D02*
D03*
X102025Y82075D02*
D03*
X100325D02*
D03*
X98550Y82050D02*
D03*
M02*
